<svg width="35" height="36" fill="none" xmlns="http://www.w3.org/2000/svg"><path d="M11.8.768C6.78 2.776 3.418 5.963 1.4 10.655c-1.177 2.71-1.513 4.618-1.369 8.18.072 2.636.216 3.439.769 5.02 2.017 5.771 6.028 9.761 11.648 11.568 1.465.477 2.33.577 4.683.577 4.587 0 7.637-1.154 11.408-4.316 2.186-1.857 3.386-3.237 4.515-5.22.769-1.405 1.97-4.391 1.946-4.918 0-.176-.193.226-.433.928-.528 1.556-1.705 3.99-1.849 3.84-.048-.076.168-.753.48-1.531.889-2.108 1.441-5.42 1.25-7.83C33.87 8.874 28.827 2.5 21.405.494c-2.834-.754-7.349-.628-9.606.275zm9.438.251c3.242.853 5.188 2.033 7.661 4.617 3.026 3.162 4.371 5.948 4.948 10.289.48 3.563-.384 7.88-2.234 11.142-1.225 2.208-4.107 5.069-5.98 5.997-5.572 2.76-11.864 2.309-16.908-1.204-3.914-2.736-6.46-7.027-7.277-12.246-.648-4.04.216-7.955 2.522-11.619C5.291 5.912 7.885 3.378 9.782 2.3 12.976.542 17.467.015 21.238 1.019zM1.568 12.186c-.432 1.28-.504 2.033-.504 5.144.024 3.288.072 3.814.648 5.496 1.081 3.086 2.234 4.993 4.468 7.302 3.074 3.187 5.523 4.392 10.495 5.144l2.377.352-2.401-.1c-7.205-.302-13.233-5.045-15.49-12.171C.487 21.27.246 16.979.68 14.77c.288-1.556 1.177-4.317 1.32-4.166.049.05-.143.753-.432 1.58zm18.493 23.111c-.072.076-.288.1-.456.026-.192-.076-.12-.151.144-.151.264-.025.408.05.312.125z" fill="#000"/></svg>