<svg width="37" height="36" fill="none" xmlns="http://www.w3.org/2000/svg"><path d="M13.23.445c-.96.246-2.46.812-3.32 1.23-4.992 2.508-7.844 6-8.73 10.72a94.992 94.992 0 01-.762 3.665c-1.082 4.5-.048 8.9 2.902 12.442 1.844 2.213 6.737 5.336 10.253 6.54 2.558.861 6.516 1.058 9.27.444 2.951-.64 8.287-3.418 10.156-5.263 2.729-2.68 3.54-5.286 3.565-11.581.025-3.566 0-3.935-.664-5.779C33.785 6.814 29.851 3.101 23.212.986L20.876.25 17.95.57c-3.246.393-4.647.786-7.057 1.991-3.246 1.623-5.852 4.303-7.991 8.237-.664 1.205-1.254 2.189-1.353 2.189-.22 0 .418-2.41.984-3.738 1.156-2.68 3.983-5.483 7.18-7.081C12.246.863 14.065.397 17.065.199l2.828-.172-2.46-.024c-1.671-.025-3.024.123-4.204.442zm9.17.885c1.058.222 2.312.59 2.829.861.491.246 1.032.467 1.18.467.688 0 3.614 2.189 5.237 3.935 2.803 2.975 4.623 7.254 4.574 10.745v1.18l-.443-1.598c-1.795-6.467-5.926-11.114-11.36-12.81-6-1.87-13.229-.444-18.245 3.614-.91.737-1.647 1.254-1.647 1.18 0-.59 3.442-4.057 5.114-5.164 3.615-2.41 8.41-3.32 12.762-2.41zm1.181 2.951c4.401 1.18 8.237 4.476 10.352 8.852.983 2.042 2.065 6.05 2.065 7.574 0 2.803-1.991 6.811-4.794 9.615-2.164 2.188-3.197 2.803-6.148 3.59-2.852.787-8.975.787-11.778.024-3.147-.885-4.45-1.598-6.393-3.54-1.623-1.648-3.811-4.746-3.54-5.017.073-.049.54.517 1.057 1.303 2.975 4.476 7.966 7.254 12.81 7.18l1.943-.049-2.459-.172c-5.778-.442-10.475-3.737-13.278-9.344-1.426-2.877-1.672-3.959-1.549-6.86.172-3.886.836-5.779 2.754-7.746a19.61 19.61 0 0114.9-5.926c1.427.049 3.247.295 4.058.516zM1.599 15.101c-.173.762-.222.836-.246.295-.025-.664.22-1.525.368-1.353.074.05 0 .541-.122 1.058zm-.517 2.95c0 .296.221 1.673.517 3.074.565 2.926 2.065 6.32 3.54 8.041 1.5 1.746.812 1.426-.934-.443-3-3.172-4.328-7.081-3.688-10.893.147-.983.565-.811.565.222zM35.408 25.7a18.463 18.463 0 01-.762 1.82c-.492.91-2.779 3.417-3.123 3.417-.147 0 .295-.59.984-1.327.664-.738 1.647-2.189 2.164-3.197.516-1.008.983-1.795 1.008-1.77.049.049-.074.516-.27 1.057zm-18.933 9.196c1.721.197 3.024.197 4.942 0 1.45-.147 2.656-.22 2.705-.172.221.222-3.418.738-5.213.713-2.016 0-4.623-.442-5.286-.86-.296-.197-.271-.197.073-.099.246.074 1.5.27 2.779.418z" fill="#000"/></svg>