<svg width="128" height="23" fill="none" xmlns="http://www.w3.org/2000/svg"><path d="M27.67.749c-.23 1.013-1.013 1.105-1.013.138 0-.552-.552-.69-2.624-.644-1.473.046-2.854.184-3.084.322-.276.138-1.289.23-2.302.184C12.663.473 5.39.979 4.1 1.808c-.276.138-.46.69-.46 1.242 0 .507-.691 1.75-1.566 2.762C.51 7.608.464 7.746.647 11.244c.138 2.9.323 3.775 1.105 4.557.737.737.875 1.289.645 2.394-.23 1.243-.185 1.427.598 1.15.46-.138 1.473.047 2.21.415.828.46 2.44.69 4.42.644 1.749-.046 3.544.184 4.188.507 1.243.69 14.962 1.012 18.138.414 1.105-.184 2.21-.138 2.763.138 1.15.644 12.337.92 13.81.368.645-.23 1.151-.276 1.151-.092 0 .23 1.29.414 2.9.414 1.566.046 3.269.093 3.775.139.507 0 3.361-.047 6.307-.093 3.96-.092 5.433-.276 5.433-.736 0-.276-.277-.552-.553-.552-.46 0-.46-.093-.046-.369.322-.184 4.65-.322 9.668-.23 6.629.092 9.16 0 9.39-.414.277-.414.507-.414 1.06.046.552.46.736.46.736.092 0-.414.599-.46 2.21-.23 3.775.552 21.867.92 22.649.414.277-.184 1.289-.368 2.348-.46 2.164-.23 2.716-.507 2.716-1.335 0-.368.645-.875 1.428-1.197 1.335-.552 1.519-.552 2.255.414 1.059 1.473 2.578 1.151 2.394-.506-.092-.782.184-1.427.783-1.841.506-.368 1.059-1.197 1.197-1.887.184-.691.552-1.243.874-1.243.277 0 .138-.323-.276-.645-1.059-.782-1.059-1.519.092-3.682.875-1.75.875-1.796 0-3.545-1.013-1.933-1.427-2.117-4.972-2.485-1.335-.092-2.808-.369-3.222-.599-.414-.184-1.703-.322-2.854-.276-1.151.046-2.21-.138-2.348-.368-.368-.599-4.834-.553-8.885.092-1.842.322-4.281.46-5.386.276C98.243.795 97 .703 96.632.703 87.562.933 77.02.795 75.225.38c-3.59-.783-7.504-.138-5.754.966.69.415.552 1.611-.23 1.611-.323 0-.83-.368-1.105-.828-.415-.737-.507-.737-1.151.138-.69.874-.737.92-2.164.092-1.105-.598-1.565-.69-1.841-.276-.23.414-1.75.46-5.57.276-5.571-.276-8.471-.967-7.274-1.703.966-.645.874-.645-11.463-.645-9.898-.046-10.819 0-11.003.737zM45.072.84c0 .138-.184.368-.46.506-.23.138-.461.046-.461-.184 0-.276.23-.506.46-.506.277 0 .46.092.46.184zm4.143.276c0 .23-.184.46-.46.46-.23 0-.46-.23-.46-.46 0-.276.23-.46.46-.46.276 0 .46.184.46.46zm40.281.92c.138.23-.046.461-.414.461-.414 0-.737-.23-.737-.46 0-.276.184-.46.415-.46.276 0 .598.184.736.46zm2.072-.275c0 .506-.875.69-1.151.276-.138-.23.046-.46.414-.46.415 0 .737.091.737.184zm32.685 12.244c0 .23-.184.46-.46.46-.23 0-.461-.23-.461-.46 0-.276.231-.46.461-.46.276 0 .46.184.46.46zm-90.23 5.524c0 .276-.598.414-1.38.368-.738-.046-1.382-.276-1.382-.46 0-.185.645-.369 1.381-.369.783 0 1.381.23 1.381.46z" fill="#5AE4A7"/></svg>