<svg width="326" height="315" fill="none" xmlns="http://www.w3.org/2000/svg"><path d="M140.555 19.52c-5.47-1.605-8.405-1.416-3.348.288 4.323 1.37 8.155 3.73 10.1 6.102.845 1.107 1.664 1.494 1.926 1.068.42-.68-3.051-6.106-3.824-5.995-.085-.052-2.188-.643-4.854-1.462z" fill="#5AE4A7"/><path d="M135.464 20.732c-4.023-.715-11.661-.134-12.291.887-.314.511.524.675 1.848.433 4.108-.759 12.015.704 15.591 2.907 2.384 1.468 4.094 3.46 5.416 6.27 2.423 5.602 4.427 5.78 2.313.25-1.814-4.875-8.049-10.006-12.877-10.747z" fill="#5AE4A7"/><path d="M137.775 25.367c-4.919-1.738-18.9-1.538-25.301.275-12.527 3.56-25.586 14.662-31.472 26.891-6.116 12.793-9.474 25.875-12.723 50.415-.932 6.472-2.507 18.186-3.537 25.772-1.963 14.058-2.523 26.983-1.437 32.467.255 1.684.327 2.902-.014 2.693-.255-.158-.903-1.966-1.309-3.977-.406-2.012-.923-3.27-1.237-2.759-.315.511-.1 2.64.51 4.894.523 2.202 1.243 3.702 1.453 3.361.21-.34 1.375 2.726 2.58 6.873 1.17 4.01 1.97 7.672 1.707 8.098-.944 1.533 8.426 18.929 9.992 18.484.36-.013-1.368-3.309-3.896-7.214-2.39-3.938-4.557-7.856-4.701-8.767-.144-.911 3.045 3.637 6.948 10.268 8.382 13.851 14.139 20.332 21.05 23.412l4.657 2.164-.683 5.686c-1.517 14.098 9.367 31.134 20.085 31.274 2.247-.026 5.968-1.492 10.148-4.085 3.886-2.305 7.332-3.706 8.374-3.3 2.306.833 3.34 4.875 2.716 11.42-.973 11.497 1.712 15.146 10.15 13.648 7.974-1.314 11.781-4.255 19.035-14.702 5.46-7.913 6.849-9.406 9.24-10.047 3.99-.949 7.717 1.58 10.467 7.032 1.172 2.483 3.451 7.174 5.009 10.365 5.448 10.988 11.783 13.479 20.491 7.919 9.278-5.913 14.757-15.575 21.478-37.742 2.281-7.521 2.93-8.765 6.908-13.127 7.503-8.181 16.656-10.648 22.983-6.048 3.878 2.858 5.726 1.764 3.126-1.833-4.408-6.002-13.822-6.162-24.024-.465-4.678 2.639-5.72 3.759-9.357 9.857-2.412 3.917-5.126 10.232-6.516 14.778-3.528 11.451-5.985 16.396-11.235 22.442-9.056 10.512-13.825 10.629-18.92.211-7.287-15.057-10.352-18.471-17.08-19.56-5.804-.873-9.677 1.793-17.069 12.273-6.501 9.032-9.968 12.182-14.783 13.328-4.128.981-5.509-1.161-4.958-7.398.559-6.82-.062-10.96-2.367-14.846-2.626-4.318-6.485-4.345-13.548-.121-7.961 4.728-11.316 5.598-14.296 3.763-5.279-3.251-10.537-15.883-9.879-23.816.512-5.791 1.102-6.368 6.199-6.635 9.866-.384 14.203-1.706 17.316-5.426 6.625-7.899 7.925-19.547 4.17-37.479-4.855-23.775-18.264-30.035-35.294-16.682-2.942 2.299-3.246-14.564-.698-36.248 2.094-18.087 4.298-27.77 7.824-34.64l2.668-5.287-1.777 5.365c-1.37 4.324-1.377 4.907-.033 2.916l1.743-2.45-.296 3.34c-.157 1.783-.131 2.503.138 1.495.321-1.094.944-3.06 1.337-4.461.531-1.435.722-3.08.368-3.65-.216-.602 1.906-.235 4.69.775 12.846 4.504 25.753.707 29.378-8.804 2.085-5.293 2.762-11.922 2.634-26.21-.178-18.783-1.887-23.828-9.132-26.175zm2.317 10.351c.713 2.084 1.197 6.257 1.111 9.257-.119 2.863-.225 9.14-.141 13.771-.122 15.074-3.531 22.136-11.628 23.844l-3.473.68-.673-4.055c-.471-2.287-.666-9.218-.56-15.494.491-23.303 3.351-36.339 7.589-35.021 4.323 1.37 6.616 3.37 7.775 7.018zm-17.143 15.634c-.578 7.042-.862 16.85-.66 21.671.266 8.15-.298 10.973-1.706 8.11-1.309-2.45-1.279-20.047-.037-32.553 1.451-14.373 2.94-20.033 5.495-19.986 1.081-.04 1.015 1.212-.349 4.952-1.009 2.784-2.249 10.71-2.743 17.806zm-2.504-16.34c-2.118 6.682-3.931 25.647-3.436 36.287.436 9.78.489 9.696-5.78 7.48-1.828-.656-3.256-.244-5.458 1.806-7.018 6.248-9.66 13.782-13.315 37.837-3.038 19.62-3.63 26.302-3.18 31.864.217 2.129-.099 4.167-.668 4.52-1.933 1.041-1.28 5.319 1.419 9.33 2.75 3.924 2.835 3.977 6.556 4.037 2.11.007 3.951-.504 4.095-1.119.282-.649 1.442-1.579 2.7-2.096 2.103-.936 2.221-.746 2.174 4.861-.022 7.855 3.302 23.055 7.099 32.909 1.715 4.462 2.939 8.386 2.782 8.642-.734 1.192-13.921-.469-17.727-2.108-5.614-2.517-11.16-9.338-18.436-22.508-7.039-12.79-9.873-22.873-9.922-34.999-.018-7.409 5.129-47.81 8.691-68.281C82.77 56.91 93.872 38.497 109 32.428c6.48-2.704 12.671-4.176 12.848-3.128-.007.583-.636 3.131-1.403 5.712zm2.875 128.837c2.986 4.305 3.641 7.057 5.046 20.605 1.182 12.002.382 17.499-3.38 22.463l-2.195 2.994-2.593-5.707c-3.647-8-8.077-26.934-8.717-36.958-.548-9.027-.391-9.283 5.99-7.82 3.026.806 3.282.964 5.849 4.423zm-10.521 26.052c2.951 13.326 1.91 11.393-2.168-3.918-2.435-9.015-3.519-22.131-2.103-24.43.419-.682.897 2.548 1.151 7.285.169 4.684 1.569 14.236 3.12 21.063zm-18.993-24.847c.852.524 2.647 1.042 3.983 1.16 2.313.25 2.313.25-.006.583-1.409.19-3.394-.21-4.33-.787-2.215-1.363-5.279-7.83-4.826-9.9.164-.839 1.074.544 2.004 3.23.844 2.634 2.324 5.189 3.175 5.714zm25.65 45.505c-.21.34-1.153-1.18-1.984-3.453-2.049-5.255-1.682-5.851.629-1.022.936 2.103 1.565 4.134 1.355 4.475z" fill="#5AE4A7"/><path d="M137.495 70.836c-.681 1.107-1.546 1.749-1.972 1.487-.426-.263-1.356.104-2.083.713-.695.747-2.097 1.88-3.015 2.607-1.644 1.336-1.559 1.388.714.557 2.739-1.015 2.647-.484-.295 1.814-1.107.845-2.031 2.155-2.058 2.96.019 4.358 9.769-5.375 9.803-9.817.093-2.057.093-2.057-1.094-.321zM106.07 35.28c-5.405 3.249-13.105 10.604-15.484 14.658-.754 1.415 1.428-.412 4.849-4.06 3.558-3.681 8.427-7.964 11.087-9.614 2.523-1.618 4.547-3.19 4.482-3.465-.066-.275-2.274.832-4.934 2.482zM89.522 61.967c-3.65 2.685-7.031 5.887-6.435 6.254.256.158 2.608-1.565 5.275-3.798 5.229-4.296 6.002-5.934 1.16-2.456zm-1.842 5.089c-2.476 2.115-4.318 4.152-4.22 4.565.014.36 2.07-1.074 4.515-3.327 5.753-5.147 5.492-6.248-.294-1.238zm-.264 5.004a111.424 111.424 0 01-4.488 4.048c-.918.727-.99 1.035-.027.806 1.704-.478 8.047-6.202 7.818-7.165-.013-.36-1.586.668-3.303 2.312zm-2.385 6.166c-3.676 3.49-5.052 5.344-3.814 5.05 1.29-.38 8.473-7.466 7.792-7.886-.341-.21-2.07 1.074-3.978 2.836zm-1.011 4.309c-1.442 1.579-3.316 3.478-4.148 4.258-.938.95-1.062 1.342-.1 1.113.741-.248 2.104-.936 2.936-1.715.832-.78.413-.098-.943 1.532-2.766 3.347-6.327 16.187-4.44 16.174.583.007.4 1.068-.44 2.431-1.645 2.862-2.15 8.07-.65 7.35.655-.301 1.547-3.275 2.118-6.682.663-3.937.565-5.876-.248-5.319-.675.524-.288-.295.911-1.671 1.114-1.427 1.711-2.587 1.128-2.594-.583-.006-.557-.812.125-1.92.714-.969 2.071-4.126 3.048-7.047 1.062-2.87 2.537-5.837 3.402-6.479.78-.694 1.029-1.48.603-1.742-.426-.262-1.998.766-3.303 2.311zm4.31 83.216c.347 2.679 4.893 5.596 8.208 5.171 2.267-.249 2.32-.334.61-.799-5.012-1.207-6.597-2.066-7.841-4.241-1.212-2.038-1.297-2.09-.976-.131zm35.334 8.604c-1.638.753-1.055 2.286.733 1.861.963-.229 1.278-.74.977-1.395-.354-.571-1.14-.82-1.71-.466zm-.952 8.221c-.42.681-.204 1.284.379 1.291.668.059 1.376-.327 1.691-.838.262-.426.131-.976-.38-1.291-.426-.262-1.219.072-1.69.838zm1.426 7.22c-.263.426.071 1.218.753 1.638.681.419 1.539.361 1.801-.065.315-.511-.072-1.219-.753-1.638-.681-.42-1.487-.446-1.801.065zm-6.115-42.519c-1.146-.237-3.688.077-5.719.706l-3.597 1.073 4.226-.569c4.225-.569 5.988-.188 11.208 2.204 2.116.951 1.998.761-.589-.95-1.873-1.153-4.33-2.313-5.529-2.464z" fill="#5AE4A7"/><path d="M117.055 149.616c-1.612-.053-4.946.595-7.325 1.597l-4.376 1.767 6.276-1.42c6.584-1.347 9.866-.383 14.936 4.734l2.187 2.169-1.82-2.765c-2.292-3.525-6.124-5.884-9.878-6.082zm18.635 57.275c-2.092 7.402-6.043 10.959-14.141 12.667-3.302.785-5.66 1.564-5.235 1.826.511.315 1.317.341 1.887-.013.518-.268 2.149-.438 3.4-.372 2.057.092 2.175.282.911 1.382-.97.812-.112.754 2.109.007 3.754-1.328 5.484-2.612 3.375-2.619-1.612-.053-1.212-.511 2.051-2.378 3.558-2.154 6.599-7.093 7.373-11.783.853-5.582.073-4.888-1.73 1.283zm-10.643 14.233c-.963.229-1.441.052-1.127-.459.735-1.192 2.386-1.584 2.615-.621.013.36-.662.884-1.488 1.08zm12.556-10.471c-.498 1.572-2.222 3.799-3.729 5.102-1.507 1.303-3.696 3.714-4.862 5.227-1.986 2.652-2.038 2.738.15 1.854 3.774-1.552 7.005-5.082 8.637-9.831.885-2.391 1.39-4.547 1.135-4.704-.171-.105-.8.917-1.331 2.352zm-6.337 9.72c-1.324.242-1.357.105-.112-.773.78-.694 1.553-.805 1.651-.393.099.413-.576.937-1.539 1.166zm-71.532-55.672c-.944 1.533.024 6.827 2.486 13.51 3.77 10.659 5.374 14.348 6.396 14.977.426.262.25-.786-.418-2.371-2.659-5.982-7.385-20.049-7.725-23.312-.235-1.906-.53-3.144-.74-2.804zm2.396 1.829c-.682 1.107 2.617 12.533 3.895 13.319.51.315.733.335.668.059-.118-.19-1.126-3.511-2.127-7.416-.969-3.767-2.121-6.473-2.436-5.962z" fill="#5AE4A7"/></svg>