<svg width="89" height="108" fill="none" xmlns="http://www.w3.org/2000/svg"><path fill="#E8DE95" d="M37.095 53.923h14.893v13.866H37.095zM58.15 71.898h14.893v13.866H58.15zm-21.569-.515h14.893v13.866H36.581zm-21.056-17.46h14.893v13.866H15.525zm0 17.975h14.893v13.866H15.525zM58.15 53.923h14.893v13.866H58.15zm.514-17.974h14.893v13.866H58.664zm-21.569 0h14.893v13.866H37.095zm-21.056 0h14.893v13.866H16.039z"/><path d="M64.348 13.746c-11.002.473-23.068.869-29.002.89-2.256.045-5.96.234-8.23.384-2.275.205-5.721.372-7.681.507l-3.497.16-.05 3.287c-.07 3.877.454 13.278.76 13.694.131.178 1.675.099 3.497-.161 5.265-.806 27.985-1.467 30.302-1.18 1.158.143 3.152-.562 4.494-.666 1.343-.103 5.324.714 8.858.665 3.535-.048 7.034.818 7.96.77l2.215-.77v-4.461c.394-3.19.455-9.874.138-11.856-.215-1.16-3.23-1.587-9.764-1.263z" fill="#5AE4A7"/><path d="M33.54 30.552h-.875c-.064-.229-.21-1.08-.438-2.552-.902.102-2.33.152-4.285.152-1.536 0-2.59-.031-3.161-.095l.19-7.008.19-7.008.858.19c.038 1.334.088 3.454.152 6.361.076 2.895.133 4.977.171 6.246.572 0 1.067.013 1.486.038l.666.02c.203 0 .959-.108 2.266-.324.051-1.371.134-3.491.248-6.36.127-2.882.21-4.94.247-6.17l.857.19c-.012.901-.019 2.253-.019 4.056 0 2.438.02 4.983.057 7.636v.305c.013.127.02.222.02.286.152 0 .412.012.78.038.368.012.667.019.895.019 0 .05-.032.597-.095 1.637-.05 1.041-.12 1.822-.21 2.343zm8.303-4.4l.19.839c-.558.203-1.39.431-2.494.685-1.092.242-1.904.362-2.437.362a2.1 2.1 0 01-1.429-.533 3.414 3.414 0 01-.914-1.39 11.03 11.03 0 01-.457-1.676 10.424 10.424 0 01-.133-1.638c0-3.174 1.434-4.76 4.304-4.76.685 0 1.288.222 1.809.666.52.432.78.997.78 1.695 0 .38-.107.717-.323 1.01a2.378 2.378 0 01-.762.704 5.602 5.602 0 01-1.142.457c-.458.14-.864.241-1.22.304-.355.064-.78.134-1.275.21-.495.076-.838.133-1.029.171.013.369.032.692.058.972.038.279.101.584.19.914.102.317.229.584.38.8.166.203.388.374.667.514.28.14.61.209.99.209.458 0 1.016-.038 1.677-.114.66-.09 1.244-.178 1.751-.267.52-.089.794-.133.82-.133zm-6.455-4.074c1.726-.495 3.142-1.016 4.246-1.562-.089-.419-.21-.723-.361-.914-.153-.19-.381-.286-.686-.286-.775 0-1.48.267-2.114.8-.622.533-.984 1.187-1.085 1.962zm13.101-3.733l.857.19.438 9.236c-.114.381-.336.572-.666.572-.229 0-.451-.095-.667-.286a1.11 1.11 0 01-.4-.666c0-.038.057-1.111.172-3.219v-.152a24.117 24.117 0 00-1.58-.038c-1.055 0-1.848-.032-2.381-.095.063.736.146 1.923.247 3.56-.114.394-.336.591-.666.591-.229 0-.45-.089-.667-.267a1.236 1.236 0 01-.38-.685c.038-.635.056-1.27.056-1.904 0-.407-.006-1.016-.018-1.828-.013-.813-.02-1.416-.02-1.81 0-1.218.038-2.24.115-3.066l.857.21c.254 2.755.387 4.17.4 4.247 2.17.114 3.288.171 3.351.171.52 0 .78-.032.78-.095 0-.254.026-1.06.077-2.419a104.4 104.4 0 01.095-2.247zm2.895 0l.857.19c.025.407.063.883.114 1.429.064.546.133 1.168.21 1.866.507-.152.99-.228 1.447-.228a3.6 3.6 0 011.523.323c.47.203.87.476 1.2.82.33.342.59.735.78 1.18.191.431.286.876.286 1.333 0 .444-.089.85-.266 1.219a2.644 2.644 0 01-.724.952 3.28 3.28 0 01-1.105.59 4.04 4.04 0 01-1.39.229c-.304 0-.628-.02-.97-.058a8.932 8.932 0 01-.934-.114 5.223 5.223 0 01-.704-.171c-.178-.076-.267-.159-.267-.248 0-.203-.006-.495-.02-.876 0-.38-.005-.8-.018-1.257 0-.457-.006-.939-.02-1.447l-.037-1.466c0-.47-.007-.895-.02-1.276v-.952c0-.711.02-1.39.058-2.038zm1.352 4.666l-.171 3.827c.507.178.99.267 1.447.267.355 0 .679-.057.97-.171.306-.127.56-.286.763-.477.203-.203.361-.431.476-.685a1.93 1.93 0 00.171-.8 1.8 1.8 0 00-.171-.78 1.85 1.85 0 00-.514-.667 2.39 2.39 0 00-.838-.438 3.426 3.426 0 00-1.58-.133c-.166.012-.35.031-.553.057zm5.941-4.723l.857.19c.089 1.003.184 2.267.286 3.79.101 1.51.21 3.294.324 5.351-.115.381-.337.571-.667.571-.228 0-.45-.088-.666-.266a1.237 1.237 0 01-.381-.686c.012-.19.019-.501.019-.933.012-.431.025-.927.038-1.485l.038-1.79a1447.918 1447.918 0 01.076-3.504c.026-.52.05-.933.076-1.238z" fill="#000"/><path d="M73.67 6.342c-.976-.043-5.877-.055-10.824-.122-4.951-.017-11.094.006-13.674.014-21.344.352-27.762.555-34.01 1.135-2.498.222-4.853.56-5.179.736-.863.38-.898 2.337-.842 46.406-.013 41.586.096 45.776 1.253 46.611.815.646 19.597 1.696 30.17 1.742 2.683.003 8.861.138 13.645.293 11.11.356 24.417.41 25.07.061 2.112-1.033 3.383-68.863 1.652-89.825-.555-6.503-1.119-7.074-7.261-7.051zm4.77 6.139c.12 4.603.311 15.922.359 23.408.011 4.129.028 9.806.062 12.647.06 4.701-.076 10.88-.684 34.142-.11 4.324-.329 8.172-.517 8.515-.25.44-2.119.569-6.13.437-3.134-.15-10.87-.178-17.17-.12-6.306.111-13.834.05-16.818-.032-2.985-.084-9.317-.234-14.161-.292-4.788-.104-9.22-.173-9.832-.232-1.33-.13-1.379-1.217-1.398-32.9.026-22.596.01-28.274-.262-43.005-.049-2.688.011-4.9.118-4.942.22-.134 21.093-.429 37.875-.554 14.093-.076 21.62-.016 25.566.264l2.867.226.125 2.438zM77.349 94.93l-.292 1.416-6.68-.287c-3.65-.148-9.475-.198-12.888-.117-7.715.283-26.88-.03-42.507-.618-2.264-.065-2.31-.121-2.166-1.603l.148-1.534 9.516.305c12.547.444 28.061.609 36.068.51 9.668-.197 9.72-.192 14.58.228l4.508.334-.287 1.366zm.114 4.138c.038.675-.012 1.186-.114 1.176-1.911.021-22.613-.39-32.86-.61-17.298-.39-30.4-.424-30.993-.172-.602.355-1.513-1.952-.9-2.409.223-.185 6.11-.232 13.055-.022 6.945.21 19.568.403 28.081.404 23.737-.017 23.685-.022 23.731 1.633z" fill="#000"/><path d="M65.004 12.904c-11.432-.233-36.464.381-44.736 1.074-6.084.493-5.972.4-5.871 10.524.048 4.287.253 8.022.376 8.343.35.653 3.539.757 15.388.41 8.022-.253 10.296-.29 24.813-.48 3.72-.051 9.438.04 12.73.153 3.444.128 6.295-.008 6.53-.295.575-.615 1.33-15.298.874-17.51-.275-1.42-.465-1.593-2.556-1.847-1.221-.17-4.61-.345-7.548-.372zm8.784 5.187c.146 1.15-.074 4.482-.413 7.441l-.675 5.352-2.826-.12c-8.468-.46-38.805.052-48.63.8-2.6.212-4.777.31-4.87.198-.215-.433-.407-15.467-.182-15.651.341-.328 21.137-.89 34.817-.954 13.99-.086 13.889-.096 18.535.406l4.033.444.21 2.084zm-9.386 17.277c-3.413.082-6.428.305-6.708.536-.785.646-.733 13.395.005 14.292.457.612 2.047.715 8.296.651 4.287-.048 7.971-.258 8.251-.489.556-.41.463-13.267-.097-14.405-.35-.653-1.837-.745-9.747-.585zm8.658 7.548c-.042 3.092-.193 5.709-.366 5.899-.342.328-13.545.8-13.827.515-.323-.393-.394-9.223-.087-10.793l.322-1.723 3.863.066c2.111.05 5.295.204 6.987.317l3.128.2-.02 5.52z" fill="#000"/><path d="M64.613 39.568c-1.355 1.21-1.423 2.441-.092 1.487.948-.733 2.26-.967 2.211-.456-.01.102.099.577.212 1.001.104.526-.288.85-1.177.97-1.624.254-1.58 1.394-.016 1.752.604.162 1.09.467 1.065.723-.074.766-2.152 1.442-3.19.98-1.193-.477-1.783.291-.891 1.203.943.917 3.614.506 4.71-.678 1.578-1.91.631-7.575-1.311-7.763-.358-.035-1.01.314-1.52.78zm-22.364-4.545c-2.53.013-4.962.086-5.283.21-1.206.192-1.663 13.408-.56 14.805.553.673 15.199.754 16.296.086.765-.441.84-1.208.566-7.426l-.25-6.99-3.062-.35c-1.682-.214-5.127-.342-7.707-.335zm9.532 7.582c-.099 3.138-.306 5.8-.474 5.94-.285.281-13.447.86-13.683.631-.328-.341-.464-6.907-.196-9.667l.283-2.914 2.733.008c1.452-.066 4.078-.017 5.77.095 1.697.062 3.7.153 4.42.172l1.34.026-.193 5.709z" fill="#000"/><path d="M42.023 40.006c-1.028 1.551-.842 2.292.27 1.47 1.168-.866 2.256-.915 2.177-.097-.075.766-1.27 2.456-2.81 3.958-1.544 1.553-1.372 2.446.323 1.992.638-.196 2.252-.349 3.652-.42 1.61-.101 2.462-.38 2.512-.89.055-.563-.396-.71-2.005-.608-1.144.095-2.064.006-2.055-.096.015-.154.458-.988 1.002-1.812.794-1.265.904-1.873.538-2.89-.515-1.597-2.698-1.964-3.604-.607zm-19.106-5.157c-3.004.12-5.948.145-6.561.085-.772-.023-1.272.341-1.545 1.037-.507 1.498-.254 13.236.3 13.909.416.504 15.26.655 16.235.183.817-.437.972-5.22.432-13.477-.17-1.977-.22-1.982-8.861-1.737zm7.688 2.655c.119.373.065 3.05-.055 5.877l-.199 5.243-5.324.103c-8.85.276-8.8.28-8.975-2.162-.095-1.144-.083-3.929.085-6.183l.192-4.11 4.375.116c8.125.273 9.761.432 9.901 1.116z" fill="#000"/><path d="M22.056 41.06c-2.24 2.878-2.306 3.026-1.488 3.106.357.035 1.016-.366 1.428-.893 1.003-1.296 1.715-.66 1.521 1.334-.173 1.79.44 3.448 1.056 2.94.561-.461.34-8.274-.259-8.487-.246-.127-1.265.806-2.258 2zm41.641 12.195c-3.408.03-6.25.064-6.305.11-.587.201-.693 11.388-.18 14.069.136.735.73 1 2.57 1.178 3.015.293 14.032.021 14.48-.348.337-.277.224-9.214-.159-12.708-.143-1.717-.286-1.834-2.173-2.069-1.12-.16-4.824-.262-8.233-.232zm9.155 6.152c-.039 2.524-.036 5.156-.009 5.933.074.832.015 1.446-.041 1.492-.051-.005-3.21.101-7.041.245l-6.883.21-.35-1.17c-.14-.684-.23-3.48-.162-6.31l.138-5.147 5.607.183c3.081.145 5.867.157 6.132.08.317-.073 1.042-.105 1.656-.046 1.027.048 1.1.365.953 4.53z" fill="#000"/><path d="M66.342 57.898c-3.339.914-4.82 6.6-2.098 7.794 1.735.736 3.133.15 3.287-1.435.154-1.585-.565-2.687-1.894-2.816-1.38-.134-1.05-.876.878-2.133 1.81-1.114 1.68-1.9-.173-1.41zm-.315 5.903c-.04.409-.279.747-.534.722-.665-.064-1.045-.927-.597-1.296.617-.508 1.206-.193 1.131.574zM46.184 52.948c-2.274.037-5.426.092-6.98.148l-2.846.085-.426 2.796c-.522 3.251-.33 11.37.27 12.1.456.612 16.369.402 16.842-.222.469-.574-.085-13.476-.624-14.302-.226-.331-.814-.646-1.274-.691-.465.006-2.688.049-4.962.086zm5.383 7.798c-.037 3.04-.239 5.652-.356 5.795-.56.462-13.561.438-13.93-.01-.231-.28-.163-3.112.048-6.342l.463-5.837 4.12.09c2.263.065 5.391.266 6.925.414l2.806.325-.076 5.565z" fill="#000"/><path d="M41.297 59.181c-.056 2.162-.01 2.218 1.641 2.224 1.344-.025 1.636.158 1.551 1.027-.133 1.38-.935 1.664-2.087.778-1.347-1.008-1.928-.342-.927 1.045 1.051 1.392 2.989 1.632 3.828.424 1.512-2.279.434-5.53-1.619-5.111-.582.15-.981.008-.946-.35.03-.307.78-.595 1.617-.72 2.606-.263 2.415-.952-.396-1.225l-2.607-.253-.055 2.161zm-19.759-6.406c-3.352-.016-6.372.258-6.708.535-.505.416-.649 1.898-.54 6.088.164 8.942-.042 8.406 2.974 8.699 2.454.238 10.66.21 13.163-.064.94-.115 1.18-.453 1.338-2.088.189-1.943.05-9.541-.192-11.835-.127-1.353-.587-1.398-10.035-1.335zm8.888 2.514c.053.521-.006 3.25-.176 6.071l-.343 5.127-6.725.172c-3.724.103-6.913 0-7.098-.225-.236-.229-.27-3.07-.105-6.356l.264-5.908 5.09.184c4.528.13 5.816.152 8.304.033.306.03.68.427.79.902z" fill="#000"/><path d="M20.727 58.474c-.944 2.282-.724 2.665 1.458 2.515 1.66-.097 1.758-.035 1.89 1.783.106 1.042.384 1.895.64 1.92.511.05.804-2.966.516-5.316-.184-1.824-1.351-2.556-1.5-1.023-.07.716-.411 1.044-1.076.98-.715-.07-.895-.346-.62-1.041.638-1.796-.568-1.603-1.308.182zm44.647 12.59c-3.818-.01-7.282.067-7.706.18-.633.145-.83 1.106-.946 4.965-.095 2.57-.014 5.984.15 7.496l.345 2.82 3.919.02c7.471.105 12.187-.108 12.692-.523.336-.277.489-2.378.434-5.53-.219-8.38-.276-8.85-1.176-9.144-.45-.147-3.946-.28-7.712-.284zm7.324 5.87c-.009 2.218-.011 4.901.043 5.938l.077 1.865-3 .07c-1.65-.005-4.813.152-7.046.296-4 .283-4.097.222-4.402-.891-.145-.633-.23-3.48-.161-6.31l.143-5.198 2.739-.044a68.493 68.493 0 015.616.081c1.544.047 3.547.138 4.42.171l1.646.057-.075 3.966z" fill="#000"/><path d="M62.322 74.328c-1.621 1.287.944 4.632 2.837 3.733 1.194-.607 2.04.25 1.876 1.936-.065.665.141 1.2.448 1.23.715.07.742-4.984.05-5.825-.555-.673-4.701-1.54-5.21-1.074zm2.484 2.047c-.024.256-.249.44-.555.41-.256-.024-.477-.407-.432-.867.04-.409.315-.588.556-.41.291.183.461.56.431.867zm-22.004-5.593c-3.46.025-6.515.142-6.74.326-.565.513-.899 7.136-.565 11.142l.29 3.382 2.03.352c3.093.558 13.788.41 14.568-.185.505-.416.628-2.21.474-7.54l-.199-6.984-1.779-.276c-.97-.094-4.62-.242-8.08-.217zm8.575 2.02c.129.27.121 3.004.023 6.142l-.188 5.657-5.846.155c-9.197.139-8.45.418-8.542-2.893-.004-1.549.115-4.375.253-6.322l.281-3.43 3.48.286c2.766.217 8.285.237 10.007.043.204.02.45.147.532.361z" fill="#000"/><path d="M42.395 74.973c-.193.394-.18 1.324.062 2.018.247.643.25 1.676.037 2.274-.766 2.041 2.101 3.867 3.701 2.269.459-.472.406-.993-.313-2.095-.852-1.32-.873-1.632-.201-2.702.956-1.352.91-1.408-1.248-2.03-1.202-.375-1.723-.323-2.038.266zm-22.17-4.423c-2.836-.016-5.38.15-5.661.38-.617.508-.652 11.494-.094 13.716l.383 1.378 4.277.054c6.49.115 11.42-.18 11.981-.642.28-.231.507-3.098.45-7.283l-.056-6.868-3.062-.349c-1.682-.215-5.382-.368-8.218-.385zm9.899 3.8c.162 3.111.013 9.96-.242 9.934-.358-.034-12.877.298-13.505.392-.73.084-.95-3.498-.51-8.563l.326-3.89 4.021.03c2.162.055 4.334.007 4.748-.004.418-.062 1.757-.036 2.938.027 2.05.148 2.096.204 2.224 2.074z" fill="#000"/><path d="M20.21 74.419c-2.279.088-1.979 1.252.372 1.48 2.403.234 2.906.902 1.103 1.398-1.48.372-1.529 1.4-.149 1.533.511.05.635.371.427.919-.203.496-.175 1.273.04 1.707.396.709.499.719 1.023.099.295-.384.635-1.229.69-1.79.074-.767.528-1.188 1.468-1.303 1.522-.265 1.585-1.446.051-1.594-.613-.06-.982-.509-1.01-1.285-.09-1.196-.29-1.267-4.015-1.164z" fill="#000"/></svg>