<svg width="87" height="90" fill="none" xmlns="http://www.w3.org/2000/svg"><path fill="#5AE4A7" d="M5 9h79v78H5z"/><path d="M64.974 2.973c-.55 2.014-1.007 4.669-1.007 6.042 0 2.105.366 2.563 2.288 2.563 1.556 0 2.289-.55 2.38-1.648.275-3.661-.366-7.14-1.464-8.696-1.099-1.648-1.282-1.465-2.198 1.739zm-48.794.55c-.274 3.02-.274 3.02-6.133 3.478-3.936.275-6.042.916-6.316 1.74-.367 1.007.824 1.19 6.133.823 5.859-.457 6.5-.366 6.5 1.19 0 1.465 2.38 3.57 4.028 3.57.732 0 .64-9.062 0-11.717-.916-3.204-3.845-2.563-4.211.916zm7.507 4.394c-.915.549 5.493.915 19.041.915 12.908 0 20.323-.366 20.323-.915 0-1.19-37.533-1.19-39.364 0z" fill="#000"/><path d="M70.375 7.917c0 1.19 5.858 2.197 9.703 1.556l3.113-.55-.183 38.632-.275 38.632-2.563.274c-1.465.183-3.662-.366-5.035-1.281-2.197-1.465-2.38-1.465-1.19-.092 2.014 2.472-.641 2.014-4.944-.915-3.112-2.014-3.387-2.106-1.922-.458 1.922 2.197 1.465 2.563-1.465 1.007-1.373-.732-1.739-.732-1.281 0 1.007 1.648-6.317 1.556-8.24 0-.549-.458-1.83-.55-2.654-.183-1.099.366-1.465.274-1.099-.366.367-.55-.366-1.648-1.647-2.472-1.282-.824-2.289-1.099-2.289-.55 0 .458.366.916.915.916.458 0 .824.366.641.824-.091.458.641 1.556 1.648 2.289 1.831 1.373 1.831 1.373-.274 1.464-1.19 0-3.388-.64-5.036-1.373-2.746-1.373-2.837-1.373-1.098.092 1.83 1.464 1.74 1.464-.458.824-1.281-.367-2.838-1.099-3.478-1.648-.824-.641-1.007-.55-.641.457.458 1.008-.55 1.19-5.676.916-3.387-.183-6.774-.824-7.507-1.465-1.007-.732-1.19-.732-.64.092.824 1.465-2.472 1.556-5.127.183-1.373-.732-1.74-.732-1.281 0 1.098 1.74-3.113 1.098-5.95-.916-2.839-2.013-3.754-1.373-1.1.641 1.465 1.099 1.374 1.19-1.19 1.282-1.464 0-3.295-.55-3.936-1.099-1.007-.915-1.19-.915-.64-.091.457.824 0 1.19-1.19 1.19s-1.923-.55-1.923-1.648c0-.824.366-12.45.915-25.815.916-26.182-.274-49.25-2.38-46.596C1.9 13.043-.663 37.485.16 38.767c.275.458.641 11.443.733 24.35l.274 23.619 2.564 1.373c2.105 1.099 8.97 1.282 39.363 1.282 20.323 0 37.9-.184 39.181-.367 3.021-.366 3.113-1.007 2.838-26.639-.091-11.626.183-25.815.641-31.582.458-6.5.366-13.091-.183-17.21L84.655 7h-7.14c-3.936 0-7.14.366-7.14.916zM3.273 85.912c-.275.732-.55.458-.55-.55-.09-1.006.184-1.556.458-1.19.275.275.367 1.1.092 1.74zm6.042 1.373c-.641.183-1.923.183-2.746 0-.916-.275-.367-.458 1.098-.458 1.556 0 2.197.183 1.648.458z" fill="#000"/><path d="M50.235 18.81c0 .55.824 1.007 1.83 1.007 2.198 0 2.29.55.276 2.564-1.465 1.464-1.465 1.464-.916-.092.275-.824.183-1.556-.275-1.556-1.281 0-1.098 2.014.458 3.936 1.831 2.472 5.401 1.74 5.767-1.19.092-1.281-.091-2.746-.457-3.295-1.007-1.465-6.683-2.564-6.683-1.374zm9.704.916c-1.007 1.648 1.19 5.584 3.112 5.584 1.465 0 1.831-.64 1.831-3.204 0-2.746-.275-3.204-2.197-3.204-1.282 0-2.472.366-2.746.824zm9.245-.183c-.366.274-.64 1.74-.64 3.204 0 2.197.366 2.563 2.746 2.563s2.746-.275 2.746-2.655c0-3.02-3.02-4.943-4.852-3.112zm3.022 3.02c0 .459-.458.916-1.008.916-.457 0-.64-.457-.366-.915.275-.55.733-.916 1.007-.916.183 0 .367.367.367.916zm-30.21-1.83c.915.549 1.007.915.275.915-.641 0-1.19 1.007-1.19 2.288 0 1.465.549 2.29 1.464 2.29.733 0 1.099-.367.824-.916-.275-.55.092-.641.824-.366.916.366 1.465.091 1.465-.824 0-2.747-1.099-4.303-3.113-4.303-1.556 0-1.648.183-.549.916zm-27.28 12.084c-1.465 1.465-1.373 2.38.275 4.028 1.19 1.281 1.464 1.098 2.288-1.007 1.373-3.57-.183-5.401-2.563-3.021zm8.605.549c-.824 1.281.55 4.76 1.83 4.76 1.649 0 2.198-1.19 1.557-3.479-.458-2.014-2.472-2.746-3.387-1.281zm8.605.64c0 .733.458 1.374.916 1.374.549 0 .915.64.915 1.464s.64 1.282 1.648 1.099c1.922-.366 2.105-3.662.183-4.577-2.289-1.007-3.662-.824-3.662.64zm9.338.641c.366 2.747 3.936 3.021 3.936.275 0-1.19-.732-1.922-2.106-2.105-1.83-.275-2.105 0-1.83 1.83zm11.076-.549c-1.464 2.655-.274 4.211 1.923 2.563 1.007-.732 1.373-1.281.824-1.281-.641 0-1.19-.733-1.373-1.648-.275-1.373-.458-1.373-1.374.366zm8.697 1.282c.55 3.57 3.845 3.936 3.845.457 0-1.648-.366-2.105-1.373-1.74-.733.367-1.373.093-1.373-.457s-.367-1.007-.733-1.007c-.457 0-.64 1.19-.366 2.746zm9.521-.458c-.183 2.747 1.098 3.662 2.563 1.831.915-1.099.915-1.648 0-2.746-1.648-1.923-2.289-1.74-2.563.915zM34.032 46.273c-2.655 2.29-2.655 3.204.183 4.486 2.105 1.007 2.471.824 3.204-1.19.824-2.197.366-5.035-.824-5.035-.275.092-1.465.824-2.563 1.74zm-20.14.641c-.275.733-.183 1.74.275 2.197 1.19 1.099 4.943-.64 4.943-2.288 0-1.831-4.486-1.831-5.218.091zm28.104-.091c-.916 1.007-.824 1.648.366 2.746 1.282 1.373 1.648 1.373 2.838.092 1.465-1.465.915-4.211-.916-4.211-.64 0-1.647.64-2.288 1.373zm10.344.183c-.366.824-.091 1.74.458 1.922.641.184.916.733.55 1.19-.275.458-.092.824.457.824 1.465 0 2.106-1.647 1.465-3.661-.733-2.197-2.106-2.38-2.93-.275zm19.316 1.373c.275 1.648.458 3.204.458 3.387.091.183.64-.183 1.373-.733 1.465-1.281.824-5.584-.915-5.584-.916 0-1.19.916-.916 2.93zm-48.243-1.373c-.275.274.091 1.098.823 1.922 1.008.916 1.648 1.099 2.38.366.641-.64.367-1.19-.915-1.922-.915-.55-2.014-.733-2.288-.366zm38.173.732c-.64 1.648.275 3.204 2.014 3.204.733 0 1.282-.915 1.282-2.288 0-2.472-2.472-3.204-3.296-.916zm-9.062 10.711c-.824 2.105-.275 4.577 1.098 5.126 1.465.458 2.746-2.563 1.465-3.387-.55-.275-1.099-1.19-1.373-1.922-.458-1.19-.641-1.099-1.19.183zm-28.562 1.098c-1.19 1.373-.64 2.38 1.282 2.38.64 0 1.19-.824 1.19-1.83 0-2.106-.916-2.29-2.472-.55zm19.224-.183c-2.105 2.747-2.472 3.754-.915 3.204.823-.274 1.647-.091 1.922.55.183.64.458-.275.458-1.923.091-3.204-.183-3.479-1.465-1.83zm27.189-.183c0 .458.366.916.915.916.458 0 .64.549.366 1.281-.458 1.282 1.19 2.93 2.106 2.014.915-.915-.641-5.126-2.014-5.126-.733 0-1.373.366-1.373.915zm-56.483 1.007c-.824.824-.732 1.465.275 2.472 1.281 1.19 1.556 1.19 2.837-.092 1.465-1.465.916-3.387-1.007-3.387-.549 0-1.556.458-2.105 1.007zm45.955-.092c-.275.458-.092.916.366.916.55 0 1.007 1.007 1.007 2.289 0 2.929 1.19 2.929 2.747-.092 1.098-2.014 1.098-2.472 0-3.113-1.831-1.19-3.388-1.098-4.12 0zm-26.09 1.74c0 2.563 1.556 3.204 2.655 1.099 1.373-2.472 1.282-2.838-.824-2.838-1.19 0-1.83.64-1.83 1.74zm27.372 8.056c-.183 1.282.274 6.225.549 6.5.183.183 1.19-.092 2.197-.733 1.922-1.007 1.922-1.098.366-3.662-1.556-2.654-2.93-3.57-3.112-2.105zm-45.315 1.19c-1.281.55-1.922 1.556-1.922 3.113 0 2.014.366 2.38 2.563 2.38 2.289 0 2.655-.367 2.655-2.655 0-3.204-.732-3.753-3.296-2.838zm1.465 2.746c0 .458-.458.916-1.007.916-.458 0-.64-.458-.366-.916.275-.549.732-.915 1.007-.915.183 0 .366.366.366.915zM32.2 72.455c-.274.824-.274 1.74.092 2.014.275.366.55.092.55-.55 0-.731.549-.548 1.556.459 1.098 1.007 1.648 1.19 1.922.457 1.007-3.02-2.93-5.31-4.12-2.38zm9.98-.275c-1.557 1.557-1.374 3.205.365 3.845 2.106.824 2.93 0 2.38-2.654-.457-2.564-1.098-2.838-2.746-1.19zm-19.5 1.74c-1.556 1.281-1.74 1.74-.64 1.373.915-.275 1.83-.092 2.105.366.915 1.556 2.288 1.007 2.288-.824 0-2.746-1.373-3.02-3.753-.915zm29.386.183c0 2.746.915 3.662 2.471 2.38 1.831-1.648 1.465-4.486-.64-4.486-1.282 0-1.831.641-1.831 2.106zm11.443 7.048c.274.458.732.916 1.007.916.183 0 .366-.458.366-.915 0-.55-.458-.916-1.007-.916-.458 0-.64.366-.366.915zm-5.95 1.465c0 .458.732 1.282 1.647 1.831 1.19.824 1.923.732 2.93-.366 1.19-1.282 1.098-1.373-.367-.824-.915.366-2.288.183-2.929-.366-.732-.55-1.282-.641-1.282-.275z" fill="#000"/></svg>