<svg width="185" height="209" fill="none" xmlns="http://www.w3.org/2000/svg"><path d="M166.617 62.313h10.837l-2.71 41.992h-8.127V62.312z" fill="#5AE4A7"/><path d="M165.262 108.369l9.482 1.354v40.638h-9.482v-41.992zm1.355-93.469h10.837l-1.355 41.994h-9.482V14.9z" fill="#E8DE95"/><path d="M163.907 155.78h10.837l-2.709 41.993h-8.128V155.78z" fill="#5AE4A7"/><path d="M143.148 7.67c-.934 1.365-6.15 1.547-36.831 1.15-48.35-.709-86.36.167-88.841 2.108-1.124.814-1.43 2.643-.979 6.787.444 6.53.186 7.386-2.628 7.25-2.814-.136-5.464.82-5.527 2.12-.026.54 1.798.954 3.973.842l4.129-.125.032 6.076.026 6.185-3.927.461c-4.918.739-5.115 2.573-.244 2.809 3.463.167 3.674.286 3.975 5.29.183 2.938.058 5.536-.18 5.958-.345.418-2.216.978-4.294 1.312-5.242.723-4.887 2.367.416 2.623l4.437.215-.622 6.153c-.623 6.153-.736 6.257-4.226 6.63-4.799.528-4.568 2.492.215 2.289l3.804-.142-.32 6.602-.313 6.494-3.48.157c-5.112.296-5.449 2.775-.238 2.7l4.123-.017.027 6.185c.032 6.076-.087 6.288-2.684 6.162-3.356-.162-6.114.79-6.176 2.089-.027.541 1.798.954 4.081.848l4.02-.132.032 6.077.032 6.076-4.474.544c-5.886.583-5.656 2.547.405 2.84l4.87.235-.282 5.845-.277 5.736-4.366.548c-5.67.594-5.764 2.542-.136 2.814l4.33.209-.288 5.953c-.283 5.844-.283 5.844-4.107 6.419-5.459.713-5.97 2.315-.883 2.561l4.22.204.378 5.659c.287 3.052.15 5.866-.076 6.072-.34.309-2.315.756-4.495.976-5.453.604-4.903 2.692.637 2.526l4.35-.224-.633 6.37c-.628 6.261-.628 6.261-4.334 6.625-2.072.225-3.953 1.002-4.32 1.852-.377 1.067.37 1.32 3.757.833l4.36-.441.512 5.124c.189 2.829.33 6.633.236 8.581-.34 7.035-4.009 6.641 77.012 6.975 38.18.109 46.844.419 48.626 1.698 1.468 1.048 2.443 1.095 2.912.358.464-.628 5.577-.924 11.54-.853 10.298.172 10.844.09 11.284-2.275.424-2.041 1.089-2.334 4.877-2.151l4.438.214-.277-9.994c-.063-5.427.083-15.183.391-21.569l.565-11.689-3.989-.518c-5.282-.689-6.023-3.328-.828-3.077 2.381.115 3.923-.353 4.073-1.214.031-.649.497-10.282.922-21.326.813-21.332.829-21.657-4.583-21.918-1.731-.084-3.004-.688-2.978-1.229.032-.649 1.784-.998 3.841-.899l3.788.183 1.071-22.187 1.072-22.188-4.329-.209c-5.195-.25-5.755-2.122-.642-2.417l3.479-.158 1.386-21.955 1.272-21.852-2.37-.331c-1.407-.068-3.242-.265-4.33-.21-.979.062-2.354-.655-2.962-1.553-.917-1.237-3.926-1.817-12.152-2.214-8.874-.429-11.023-.858-12.032-2.425-1.113-1.681-1.329-1.692-2.273-.11zm21.358 6.998c.196.444-.069 26.141-.591 57.142-.521 31.001-.988 65.367-.872 76.438.008 11.066-.013 27.228-.004 36.016l-.125 16.049-9.74-.47-9.741-.471-.011-13.235c.03-7.375.658-42.819 1.533-78.901.875-36.083 1.487-71.202 1.384-78.041-.104-6.84-.13-13.024-.213-13.57.084-1.732 17.382-2.74 18.38-.957zm-21.928 4.799c.173 3.154-.126 25.053-.611 48.57-.485 23.518-.865 51.596-.842 62.337.024 10.741-.175 30.584-.391 44.025l-.532 24.492-31.315-.754c-17.116-.501-38.48-.665-47.489-.558-8.9.112-22.358.222-29.847.294l-13.565.104.155-7.695c.096-4.226.603-7.999 1.052-8.302.557-.299 2.473.445 4.158 1.502 2.633 1.646 3.385 1.791 4.958.674 2.475-1.833 2.628-7.25.305-8.556-2.216-1.3-4.845-.776-6.134 1.223-.475.845-1.697 1.436-2.455 1.4-1.19-.058-1.55-1.594-1.336-6.031.309-6.386.984-6.896 4.972-4.099 1.36 1.042 3.179 1.564 4.174 1.178 3.634-1.127 3.968-8.053.568-9.519-1.912-.852-5.897.8-5.97 2.315-.031.649-.81 1.046-1.676 1.004-1.299-.063-1.555-1.486-1.336-6.031.298-6.17 1.887-7.612 4.539-4.12 1.833 2.475 3.905 2.249 6-.687 2.553-3.457.825-8.096-3.067-8.393-.757-.036-2.32.865-3.573 2.106-3.079 3.105-4.52 1.517-4.218-4.76.283-5.845 2.067-6.843 5.693-3.305 2.487 2.398 5.024 1.544 6.067-2.094 1.68-5.56-3.982-9.63-7.124-5.226-2.801 4.096-4.243 2.507-3.909-4.419.173-3.572.639-6.478.963-6.463.325.016 1.793 1.063 3.25 2.327 3.436 2.987 4.091 2.91 6.413-.233 4.297-5.867-2.384-11.289-7.408-6.107l-2.285 2.385-.583-5.887c-.753-6.87.553-9.194 3.658-6.115 3.827 3.873 8.168 1.588 7.786-3.963-.102-2.392-.823-3.186-3.193-3.517-1.938-.31-3.15.065-3.635 1.126-1.1 2.55-4.537 1.842-5.158-1.009-1.603-7.237 1.209-11.549 5.035-7.676 2.277 2.28 3.684 2.348 5.953.288 4.306-3.806.62-10.601-4.375-8.24-1.222.593-2.243 1.52-2.27 2.06-.03.65-1.026 1.036-2.216.979-1.948-.094-2.128-.862-1.877-6.058.319-6.602 1.546-7.302 6.156-3.933 2.308 1.63 2.633 1.646 4.902-.414 1.362-1.236 2.203-2.931 1.925-3.92-.283-.882-.555-1.98-.529-2.522.063-1.298-3.245-2.434-5.441-1.89-1.212.376-2.125 1.308-2.166 2.174-.042.866-1.048 1.468-2.238 1.41-1.515-.073-2.128-.862-2.04-2.702.069-1.407-.125-4.128-.361-5.984-.503-3.062-.27-3.376 2.11-3.26 1.407.067 3.113.692 3.73 1.373.619.68 2.226 1.084 3.644.935 1.959-.122 2.758-.951 3.084-3.214.921-5.596-4.354-8.672-7.382-4.37-.816 1.154-2.378 2.055-3.352 2.008-1.623-.079-1.901-1.069-1.66-6.047.345-7.143 2.712-8.982 5.863-4.599 1.524 2.135 2.374 2.502 3.823 1.704 3.238-1.905 4.214-4.136 2.953-7.234-1.348-3.537-5.873-4.19-7.761-1.026-2.24 3.689-4.455 2.388-4.441-2.384.006-2.387.034-5.206.081-6.18.033-2.927 3.605-2.755 5.85.174l2.044 2.594 2.739-2.797c3.079-3.105 3.03-6.58-.128-8.576-1.479-.83-2.463-.662-4.279.986-1.248 1.134-3.243 2.014-4.434 1.956-1.948-.094-2.128-.862-1.86-6.382l.308-6.386 32.294.693c17.662.42 39.773.836 48.993.848 9.221.011 22.013.196 28.404.396l11.488.23.372 5.767zm32.689 10.475c-.35 7.251-.464 16.358-.209 20.059l.32 6.85-3.118-.585-3.123-.476.109-15.725c-.015-8.68-.235-17.585-.559-19.88l-.564-4.04 3.897.188 3.896.188-.649 13.42zM32.072 25.41c.2 2.614-2.637 5.189-4.316 4.023-.84-.583-.814-1.124.104-2.165.913-.932.945-1.582.105-2.164-1.576-1.053.033-2.928 2.068-2.396 1.072.27 1.88 1.502 2.04 2.703zm-.479 14.405c.68 1.66.53 2.521-.832 3.757-2.615 2.477-3.351 2.008-3.256-2.218.096-4.227 2.308-5.096 4.088-1.538zm-.149 14.313c1.308 2.124-.741 6.365-3.014 6.255-2.38-.115-2.844-1.765-.838-2.861.892-.5.913-.932-.035-1.52-1.576-1.053-.276-3.268 1.78-3.17.866.043 1.814.631 2.107 1.296zM174.95 81.455c-.487 10.066-.596 19.065-.318 20.054.478 1.325-.192 1.727-2.682 1.607-3.03-.147-3.133-.26-3.577-6.79-.147-3.696-.032-12.803.318-20.055l.648-13.42 3.247.157 3.247.157-.883 18.29zM30.891 72.326c-.29 1.505-1.224 2.87-2.208 3.04-1.418.148-1.711-.517-1.359-3.32.54-4.422.42-4.21 2.435-3.246.959.372 1.437 1.697 1.132 3.526zm-.01 13.669c.555 1.98-.451 4.86-1.858 4.792l-1.732-.084c-.433-.02-.798-1.449-.817-3.294.012-2.495.481-3.231 1.888-3.163 1.083.052 2.128.862 2.52 1.749zm-.356 16.363c.199 2.614-2.638 5.189-4.317 4.023-.84-.583-.7-1.227.337-2.479 1.145-1.247 1.166-1.68.1-2.057-1.912-.851-.195-2.721 1.84-2.189 1.072.269 1.88 1.501 2.04 2.702zm143.282 27.426c-.193 10.73-.405 19.615-.519 19.718-.118.212-1.319.37-2.84.406l-2.613.199-.075-18.663c.064-10.303.292-19.513.767-20.358.377-1.066 1.702-1.545 3.098-1.26 2.474.445 2.458.769 2.182 19.958zm-143.87-13.026c1.385 2.779-1.272 6.122-3.925 4.909-1.809-.738-1.803-.846.104-2.164 1.455-.906 1.702-1.545.863-2.128-1.788-1.172-1.488-2.893.46-2.799.866.042 2.015.966 2.498 2.182zm-.602 14.725c1.632 2.14.037 5.968-2.56 5.843-2.274-.11-2.731-1.868-.53-2.521.99-.278 1.01-.711.1-2.056-1.226-1.578-.72-3.073.904-2.994.432.021 1.37.825 2.086 1.728zm-.018 18.332c-.285 1.397-1.414 2.319-2.831 2.467-2.944.292-3.288-1.569-.535-2.412 1.547-.576 1.67-.896.512-1.603-.732-.578-1.01-1.567-.545-2.196 1.285-1.89 3.963 1.06 3.399 3.744zm143.535 26.678c-.074 10.52-.508 19.503-.859 20.028-.351.526-1.778.891-3.294.817l-2.597-.125.617-12.771c.334-6.927.444-15.926.209-20.059l-.299-7.283 3.247.157 3.247.157-.271 19.079zM28.798 162.808c1.529 2.027.084 4.994-2.405 4.874-2.273-.11-2.628-1.754-.524-2.629 1-.494 1.01-.71-.046-1.304-.634-.356-1.03-1.134-.57-1.654.933-1.366 2.221-1.086 3.545.713zm.123 15.411c.663 1.984-1.235 5.364-2.735 4.966-.53-.242-.89-1.778-.91-3.624-.044-3.582 2.606-4.538 3.645-1.342z" fill="#1E2F35"/><path d="M64.902 59.581l.058.724a6.657 6.657 0 01-1.924.304c-.584 0-1.085-.158-1.504-.476a2.987 2.987 0 01-.933-1.161c-.203-.47-.413-.978-.629-1.524-.203-.546-.4-1.053-.59-1.523a2.808 2.808 0 00-.8-1.162 1.85 1.85 0 00-1.276-.476l.19 5.599c-.114.393-.336.59-.666.59-.228 0-.45-.095-.666-.286a1.236 1.236 0 01-.381-.685c.013-.267.057-2.412.133-6.437.076-4.037.133-6.373.171-7.008l.857.191c.013.482.051 1.39.115 2.723.063 1.32.101 2.216.114 2.685a1.928 1.928 0 001.39-.61 4.69 4.69 0 00.952-1.465c.254-.572.508-1.137.762-1.695a4.574 4.574 0 01.99-1.448c.42-.406.914-.609 1.486-.609.431 0 1.161.095 2.19.286l-.191.761c-.787-.127-1.238-.19-1.352-.19-.444 0-.819.184-1.124.552-.304.368-.558.832-.761 1.39a51.553 51.553 0 01-.667 1.695 5.11 5.11 0 01-1.066 1.58 3.51 3.51 0 01-1.733.972c.61.14 1.136.413 1.58.819.445.406.775.863.99 1.37.217.509.426 1.048.63 1.62.202.558.38 1.066.532 1.523.153.457.362.838.629 1.142a1.32 1.32 0 001.009.458c.38 0 .876-.077 1.485-.229zm-.152-3.637c0-.508.05-1.073.152-1.695.115-.622.28-1.276.495-1.961.216-.686.54-1.257.972-1.714.431-.457.933-.686 1.504-.686 1.219 0 2.196.552 2.933 1.657.736 1.092 1.104 2.31 1.104 3.656a7.87 7.87 0 01-.19 1.714 7.47 7.47 0 01-.552 1.657 3.624 3.624 0 01-1.105 1.37 3.092 3.092 0 01-1.657.61c-1.168-.152-2.07-.647-2.704-1.485-.635-.85-.952-1.892-.952-3.123zm3.237-5.066c-.444.051-.819.457-1.123 1.22a8.935 8.935 0 00-.59 2.227c-.09.711-.134 1.34-.134 1.885 0 .711.216 1.371.648 1.98.444.598.94.896 1.485.896.394 0 .749-.152 1.066-.457a3.16 3.16 0 00.743-1.124c.19-.457.33-.914.419-1.37.102-.458.152-.864.152-1.22 0-1.04-.235-1.948-.704-2.723-.47-.774-1.124-1.212-1.962-1.314zm11.16-.533l.856.19.438 9.237c-.114.38-.336.57-.666.57-.229 0-.45-.094-.667-.285a1.11 1.11 0 01-.4-.666c0-.038.058-1.111.172-3.219v-.152a24.114 24.114 0 00-1.58-.038c-1.054 0-1.848-.032-2.381-.095.063.736.146 1.923.248 3.56-.115.394-.337.591-.667.591-.228 0-.45-.089-.666-.266a1.237 1.237 0 01-.381-.686c.038-.635.057-1.27.057-1.904 0-.407-.007-1.016-.02-1.829-.012-.812-.018-1.415-.018-1.809 0-1.218.038-2.24.114-3.066l.857.21c.254 2.755.387 4.17.4 4.247 2.17.114 3.288.171 3.351.171.52 0 .781-.032.781-.095 0-.254.026-1.06.076-2.419.051-1.358.083-2.107.096-2.247zm2.227.914l-.17-.838c1.7-.101 4.379-.24 8.035-.419.305.013.565.127.781.343.216.216.324.445.324.686 0 .38-.254.596-.762.647l-3.561-.171c.064.952.095 2.342.095 4.17.013 1.816.038 3.142.076 3.98-.114.368-.336.553-.666.553-.216 0-.425-.09-.629-.267a1.139 1.139 0 01-.38-.648c.177-3.123.361-5.744.552-7.864l-3.695-.172zm10.436.514l-.38-.97a3.46 3.46 0 011.256-.781 4.03 4.03 0 011.504-.305c2.146 0 3.219 1.853 3.219 5.56 0 .508-.032 1.257-.096 2.247-.05.99-.076 1.733-.076 2.228-.101.394-.298.59-.59.59-.229 0-.438-.114-.628-.342a1.16 1.16 0 01-.286-.762c0-.089.006-.152.019-.19-.787.762-1.625 1.142-2.514 1.142-.673 0-1.263-.24-1.77-.723a2.44 2.44 0 01-.743-1.79c0-1.18.457-2.247 1.37-3.2.927-.952 1.975-1.428 3.143-1.428.05 0 .101.007.152.02a.93.93 0 01.171.018c.077.013.134.02.172.02-.102-1.486-.692-2.229-1.771-2.229-.635 0-1.352.299-2.152.895zm3.98 5.96a78.3 78.3 0 00.038-2.018c0-.38-.013-.914-.038-1.6h-.152c-.902.013-1.727.35-2.476 1.01-.736.66-1.104 1.46-1.104 2.4 0 .406.12.73.361.97.254.242.559.362.915.362.558 0 1.377-.374 2.456-1.123zm9.979 1.79l.057.839c-.305.076-.521.114-.648.114-.482 0-.92-.159-1.314-.476a3.931 3.931 0 01-.971-1.162 36.329 36.329 0 01-.724-1.37 5.817 5.817 0 00-.704-1.162c-.254-.318-.514-.476-.781-.476a.721.721 0 00-.286.057c.051.761.14 1.993.267 3.694-.114.394-.336.59-.666.59-.229 0-.451-.088-.667-.266a1.237 1.237 0 01-.38-.686c.05-2.133.075-4.138.075-6.017 0-1.384.058-2.482.172-3.295l.857.305c.101.495.158 1.206.171 2.133.013.914.025 1.479.038 1.695.381-.064.711-.26.99-.59.292-.33.527-.705.705-1.124.19-.42.387-.832.59-1.238.203-.406.464-.75.781-1.028.33-.28.717-.42 1.162-.42.228 0 .584.077 1.066.23l-.076.647a1.938 1.938 0 00-.305-.02c-.508 0-.952.216-1.333.648a4.43 4.43 0 00-.838 1.41 8.064 8.064 0 01-.685 1.465c-.28.47-.584.743-.914.82.469.114.869.431 1.199.951.343.521.597 1.06.762 1.62.178.545.432 1.047.762 1.504.33.444.736.666 1.219.666.127 0 .266-.019.419-.057zm.228-8.264l-.171-.838c1.701-.101 4.38-.24 8.036-.419.305.013.565.127.781.343.215.216.323.445.323.686 0 .38-.254.596-.761.647l-3.561-.171c.063.952.095 2.342.095 4.17.012 1.816.038 3.142.076 3.98-.114.368-.336.553-.667.553-.215 0-.425-.09-.628-.267a1.141 1.141 0 01-.381-.648c.178-3.123.362-5.744.552-7.864l-3.694-.172zm9.807-.914l.857.19c.026.407.064.883.114 1.429.064.546.134 1.168.21 1.866a5.05 5.05 0 011.447-.228 3.62 3.62 0 011.524.323c.469.203.869.476 1.199.82.33.342.591.736.781 1.18.19.431.286.876.286 1.333 0 .444-.089.85-.267 1.219a2.637 2.637 0 01-.724.952c-.304.254-.672.45-1.104.59a4.04 4.04 0 01-1.39.229c-.305 0-.629-.02-.971-.058a8.913 8.913 0 01-.933-.114 5.189 5.189 0 01-.705-.171c-.178-.076-.267-.159-.267-.248 0-.203-.006-.495-.019-.876 0-.38-.006-.8-.019-1.257 0-.457-.006-.939-.019-1.447-.012-.508-.025-.996-.038-1.466 0-.47-.006-.895-.019-1.276v-.952c0-.711.019-1.39.057-2.038zm1.352 4.666l-.171 3.827c.508.178.99.267 1.447.267.356 0 .679-.057.971-.171.305-.127.559-.286.762-.476.203-.204.362-.432.476-.686.114-.254.172-.52.172-.8s-.058-.54-.172-.78a1.853 1.853 0 00-.514-.667 2.395 2.395 0 00-.838-.438 3.426 3.426 0 00-1.581-.133c-.165.012-.349.031-.552.057zm5.942-4.723l.857.19c.088 1.003.184 2.267.285 3.79.102 1.51.21 3.294.324 5.351-.114.381-.336.571-.667.571-.228 0-.45-.088-.666-.266a1.239 1.239 0 01-.381-.686c.013-.19.019-.501.019-.933a407.872 407.872 0 00.076-3.275l.038-1.847.038-1.657c.026-.52.051-.933.077-1.238z" fill="#000"/><path d="M76.535 100.009c-9.164 1.076-15.052 3.938-21.983 10.438-7.05 6.71-9.512 10.497-12.672 19.782-2.526 7.363-2.344 12.579.386 23.451 3.763 14.176 12.46 25.011 24.373 29.925 7.337 3.067 24.762 3.909 32.794 1.585 12.985-3.821 23.809-12.302 27.743-21.875 2.215-5.426 2.807-19.934 1.236-27.821-1.865-8.551-7.094-19.327-12.059-24.34-6.922-7.169-14.033-10.441-24.629-11.17-5.076-.462-11.91-.467-15.189.025zm30.373 6.783c12.926 8.653 20.033 23.207 20.036 41.107.102 9.117-.208 11.055-2.613 15.929-5.894 11.974-21.161 20.349-37.891 20.842-18.9.498-32.599-7.866-39.715-24.483-8.882-20.498-2.62-42.326 15.266-53.286 7.827-4.829 14.064-5.938 27.361-4.971 10.921.745 11.673.89 17.556 4.862z" fill="#1E2F35"/><path d="M78.639 110.309c-6.661 3.15-11.28 11.171-10.408 17.831.252 1.531 1.647 4.093 3.089 5.682l2.57 2.945-2.848 2.791c-4.445 4.45-7.693 13.297-9.01 24.841l-.773 7.014 5.013 1.761c6.93 2.505 22.743 3.052 32.49 1.136l8.109-1.67-.066-9.875c-.137-10.638-2.059-17.999-5.849-22.63l-2.462-2.939 2.957-5.064c1.656-2.849 2.998-5.931 3.035-6.688.12-2.49-3.447-9.496-6.336-12.565-3.518-3.533-14.294-5.03-19.511-2.57zm16.938 4.182c5.744 4.616 7.052 13.467 2.606 17.917-1.48 1.447-2.568 1.503-6.422.449-3.746-1.049-5.921-.937-10.427.255-5.717 1.568-5.825 1.563-8.2-.938-4.34-4.441-2.444-12.268 4.343-18.015 1.242-1.025 2.923-2.137 3.805-2.42 2.985-1.158 11.58.559 14.295 2.752zm-.047 23.43c5.223 4.157 9.651 18.04 9.123 28.971-.162 3.355-.389 3.561-6.95 4.655-7.547 1.262-22.931.844-29.465-.881l-4.185-.962 1.073-8.735c2.411-20.712 18.062-32.54 30.404-23.048zm12.401-71.191c-3.007.235-8.802 1.1-12.837 1.886-14.67 2.79-19.768 3.026-28.24 1.218-4.952-1.061-6.235-1.179-12.47-1.179-6.639 0-10.856.51-11.37 1.376-.11.196.44.117 1.174-.118.88-.315 4.29-.472 9.462-.472 7.922 0 8.142.04 13.387 1.375 5.025 1.297 5.648 1.376 11.37 1.336 4.878-.039 7.445-.275 13.387-1.296 4.034-.708 8.032-1.415 8.912-1.65 4.071-.944 14.047-1.455 25.49-1.258 10.563.196 11.626.157 11.626-.393 0-.354-.366-.747-.806-.825-2.128-.472-23.95-.472-29.085 0z" fill="#1E2F35"/></svg>