<svg width="15" height="17" fill="none" xmlns="http://www.w3.org/2000/svg"><path d="M14.53 2.19c.26.257.47.762.47 1.126v8.903a1.6 1.6 0 01-1.607 1.594h-2.679v1.593A1.6 1.6 0 019.107 17h-7.5A1.6 1.6 0 010 15.406V4.781a1.6 1.6 0 011.607-1.593h2.679V1.593A1.6 1.6 0 015.893 0h5.763c.367 0 .876.21 1.136.467l1.737 1.722zM8.905 15.405a.2.2 0 00.201-.199v-1.395H5.893a1.6 1.6 0 01-1.607-1.593V4.78H1.808a.2.2 0 00-.2.2v10.226c0 .11.09.2.2.2h7.098zm4.286-3.187a.2.2 0 00.2-.2V5.314h-2.946a.8.8 0 01-.803-.797V1.594h-3.55a.2.2 0 00-.2.199V12.02a.2.2 0 00.2.199h7.099zm.2-8.5v-.32a.228.228 0 00-.058-.14l-1.62-1.607a.202.202 0 00-.142-.058h-.322v2.125h2.143z" fill="#000"/></svg>