<svg width="460" height="154" fill="none" xmlns="http://www.w3.org/2000/svg"><path d="M155.481 87.868c-.624 0-1.14-.09-1.547-.272-.407-.191-.711-.425-.91-.703-.191-.277-.286-.541-.286-.793 0-.199.052-.363.156-.493a.553.553 0 01.442-.222c.156-.008.277.022.364.091.095.061.16.14.195.234a.76.76 0 01.013.52 1.658 1.658 0 01-.104.26.973.973 0 00.585.638c.312.13.646.195 1.001.195.615 0 1.105-.17 1.469-.507.373-.338.559-.828.559-1.47 0-.38-.061-.74-.182-1.079a1.647 1.647 0 00-.676-.844c-.329-.217-.81-.317-1.443-.3a2.19 2.19 0 00-.221.013c-.078 0-.165.005-.26.014v-.586h.533c.459 0 .819-.103 1.079-.311.26-.209.446-.456.559-.742a2.17 2.17 0 00.169-.792c0-.356-.048-.672-.143-.95a1.204 1.204 0 00-.468-.663c-.225-.164-.537-.246-.936-.246-.39 0-.724.103-1.001.311-.277.2-.451.408-.52.624a.7.7 0 01.156.26.722.722 0 01.052.273c0 .07-.022.152-.065.248a.492.492 0 01-.182.22.603.603 0 01-.351.091.483.483 0 01-.416-.195.772.772 0 01-.143-.467c0-.243.095-.507.286-.793.191-.295.481-.547.871-.755.399-.216.897-.325 1.495-.325.468 0 .901.074 1.3.221.399.148.719.39.962.729.243.329.364.766.364 1.313 0 .268-.069.541-.208.819-.13.268-.351.52-.663.754-.303.233-.724.433-1.261.597.823.087 1.469.352 1.937.794.477.442.715 1 .715 1.677 0 .589-.156 1.079-.468 1.469a2.75 2.75 0 01-1.209.858 4.402 4.402 0 01-1.599.285zm7.964 0c-.658 0-1.204-.138-1.638-.415a3.001 3.001 0 01-1.014-1.118 5.545 5.545 0 01-.52-1.534 9.766 9.766 0 01-.143-1.651c0-.547.061-1.101.182-1.665.13-.563.33-1.079.598-1.546a3.324 3.324 0 011.04-1.144c.425-.295.941-.442 1.547-.442.633 0 1.157.143 1.573.428a3 3 0 011.001 1.131 5.1 5.1 0 01.533 1.521c.104.555.156 1.105.156 1.651 0 .538-.06 1.088-.182 1.651a5.77 5.77 0 01-.572 1.56 3.34 3.34 0 01-1.027 1.144c-.416.287-.927.43-1.534.43zm.078-.506c.373 0 .681-.117.923-.352.243-.234.434-.546.572-.936a5.64 5.64 0 00.312-1.287c.061-.476.091-.953.091-1.43 0-.528-.03-1.057-.091-1.585a7.104 7.104 0 00-.312-1.457c-.147-.441-.346-.797-.598-1.066a1.243 1.243 0 00-.949-.402 1.37 1.37 0 00-.949.35c-.251.234-.455.546-.611.936-.156.39-.268.824-.338 1.3a10.06 10.06 0 00-.104 1.443c0 .364.018.75.052 1.157.035.408.096.81.182 1.21.096.39.221.745.377 1.066.156.32.351.576.585.767.234.19.52.286.858.286zm4.395.298v-.39c.269 0 .455-.064.559-.194.104-.14.165-.325.182-.56a7.89 7.89 0 00.039-.832l.013-3.145v-.456c.009-.138.026-.281.052-.428l-.416.025c-.13 0-.264.005-.403.013v-.532h2.652v.39c-.26 0-.446.069-.559.207-.104.13-.164.317-.182.56-.017.234-.026.507-.026.819l-.013.858h.507l1.586-1.665c.148-.147.282-.277.403-.39.122-.12.243-.22.364-.299l-.884.04v-.52h2.366v.39a1.84 1.84 0 00-.832.285 4.715 4.715 0 00-.702.534c-.208.199-.39.38-.546.545l-1.014 1.066c.174.079.321.178.442.3.122.12.243.255.364.402l.923 1.183c.044.052.117.152.221.3.113.147.243.307.39.48.156.174.317.321.481.442.174.122.334.183.481.183v.39h-1.183c-.242 0-.472-.126-.689-.377a22.689 22.689 0 01-.689-.846l-.611-.844a11.54 11.54 0 00-.481-.676 2.994 2.994 0 00-.377-.443l-.52.026-.013 1.781c0 .174-.004.33-.013.469a2.4 2.4 0 01-.039.415c.139-.008.273-.013.403-.013l.416-.026v.534h-2.652zm6.957 0v-.39c.277.01.463-.064.559-.22a1.76 1.76 0 00.195-.65l.481-4.03.052-.365c.017-.12.03-.238.039-.35l-.793.038v-.532h1.729l1.716 4.016.208.494.208.494a20.8 20.8 0 00.195-.455l.182-.467 1.677-4.082h1.534v.39c-.243 0-.425.069-.546.207-.122.14-.156.382-.104.729l.598 3.952c.026.25.026.49 0 .715l.845-.026v.532h-2.626v-.39c.268.01.463-.073.585-.246.13-.183.164-.469.104-.859l-.507-3.34-1.989 4.835h-.52l-1.547-3.77a18.823 18.823 0 00-.247-.597l-.234-.599-.078.599c-.018.199-.039.398-.065.597l-.312 2.51a2.736 2.736 0 01-.065.39 2.86 2.86 0 01-.091.363l.819-.026v.534h-2.002zm13.039 0v-.39c.268 0 .455-.064.559-.194.104-.14.164-.325.182-.56a7.89 7.89 0 00.039-.832l.013-3.145v-.456a3.7 3.7 0 01.052-.428l-.416.025c-.13 0-.265.005-.403.013v-.532h2.652v.39c-.26 0-.447.069-.559.207-.104.13-.165.317-.182.56-.018.234-.026.507-.026.819l-.013.858h.507l1.586-1.665c.147-.147.281-.277.403-.39.121-.12.242-.22.364-.299l-.884.04v-.52h2.366v.39a1.837 1.837 0 00-.832.285 4.614 4.614 0 00-.702.534c-.208.199-.39.38-.546.545l-1.014 1.066c.173.079.32.178.442.3.121.12.242.255.364.402l.923 1.183c.043.052.117.152.221.3.112.147.242.307.39.48.156.174.316.321.481.442.173.122.333.183.481.183v.39h-1.183c-.243 0-.473-.126-.689-.377a20.838 20.838 0 01-.689-.846l-.611-.844c-.174-.26-.334-.486-.481-.676a3.12 3.12 0 00-.377-.443l-.52.026-.013 1.781c0 .174-.005.33-.013.469a2.4 2.4 0 01-.039.415c.138-.008.273-.013.403-.013l.416-.026v.534h-2.652zm12.919.208c-.563 0-1.04-.073-1.43-.22-.381-.148-.672-.33-.871-.546-.191-.226-.286-.456-.286-.69 0-.216.052-.398.156-.546a.509.509 0 01.442-.22c.225-.01.381.06.468.207.095.14.143.265.143.378a.79.79 0 01-.052.273.593.593 0 01-.156.246.99.99 0 00.624.534c.303.086.598.13.884.13.381 0 .719-.109 1.014-.326.295-.225.442-.584.442-1.078 0-.512-.16-.876-.481-1.093a1.919 1.919 0 00-1.131-.338h-.585v-.48h.533c.329 0 .589-.061.78-.183.199-.12.342-.285.429-.493.095-.217.143-.46.143-.728 0-.39-.1-.698-.299-.923-.199-.226-.485-.339-.858-.339-.355 0-.654.096-.897.286a1.895 1.895 0 00-.572.703c-.13.277-.204.567-.221.87h-.416v-2.275h.546l-.026.495a2.26 2.26 0 01.858-.442c.312-.078.607-.117.884-.117.624 0 1.144.151 1.56.454.425.295.637.698.637 1.21 0 .372-.121.706-.364 1-.234.286-.576.49-1.027.611.52.044.94.217 1.261.52.329.295.494.685.494 1.17 0 .39-.113.733-.338 1.027-.217.287-.524.512-.923.677-.39.164-.845.246-1.365.246zm7.527-.208a3.872 3.872 0 01-.052-.39 5.937 5.937 0 00-.039-.35 3.712 3.712 0 01-.962.701 2.432 2.432 0 01-1.079.248c-.659 0-1.149-.148-1.469-.442a1.463 1.463 0 01-.481-1.106c0-.398.121-.74.364-1.026.251-.295.572-.534.962-.716.398-.19.827-.329 1.287-.415a6.148 6.148 0 011.352-.13v-.806c0-.304-.026-.59-.078-.858a1.249 1.249 0 00-.338-.663c-.174-.174-.451-.265-.832-.273a1.96 1.96 0 00-.78.142c-.26.105-.451.282-.572.534a.462.462 0 01.13.246.86.86 0 01.039.248c0 .103-.044.225-.13.364-.087.13-.239.19-.455.181-.182 0-.321-.06-.416-.181a.744.744 0 01-.143-.456c0-.294.108-.558.325-.793.225-.233.533-.42.923-.558a3.91 3.91 0 011.326-.209c.728 0 1.265.195 1.612.585.346.382.515.988.507 1.82v.975c0 .321-.005.646-.013.976v.974c0 .14-.005.278-.013.416-.009.14-.022.295-.039.469.156-.01.307-.018.455-.026.156-.01.312-.018.468-.026v.546h-1.859zm-.117-3.184a5.31 5.31 0 00-.936.117c-.321.06-.62.156-.897.285a1.88 1.88 0 00-.663.52 1.138 1.138 0 00-.234.767c.017.321.121.564.312.728.199.156.433.234.702.234.355 0 .663-.064.923-.194a3.59 3.59 0 00.793-.573 3.341 3.341 0 01-.013-.311v-.768c.008-.234.013-.502.013-.806zm2.868 3.184v-.39c.269 0 .455-.064.559-.194.104-.14.165-.325.182-.56a7.89 7.89 0 00.039-.832v-3.6c.009-.138.026-.281.052-.428l-.819.038v-.532h6.838v.39c-.26 0-.446.069-.559.207-.104.13-.165.317-.182.56-.017.234-.026.507-.026.819l-.026 3.145c0 .174-.004.33-.013.469a2.4 2.4 0 01-.039.415l.819-.038v.532h-2.665v-.39c.269 0 .455-.064.559-.194.104-.14.165-.325.182-.56a7.89 7.89 0 00.039-.832l.013-3.145v-.456c.009-.138.026-.281.052-.428l-2.314.025c-.269 0-.455.057-.559.17-.104.112-.165.277-.182.494-.017.216-.03.48-.039.793l-.013 3.145c0 .174-.004.33-.013.469a2.4 2.4 0 01-.039.415l.819-.038v.532h-2.665zm11.95 0a4.185 4.185 0 01-.052-.39 5.937 5.937 0 00-.039-.35 3.696 3.696 0 01-.962.701 2.432 2.432 0 01-1.079.248c-.659 0-1.148-.148-1.469-.442a1.463 1.463 0 01-.481-1.106c0-.398.121-.74.364-1.026.251-.295.572-.534.962-.716.399-.19.828-.329 1.287-.415a6.154 6.154 0 011.352-.13v-.806c0-.304-.026-.59-.078-.858a1.249 1.249 0 00-.338-.663c-.173-.174-.451-.265-.832-.273a1.966 1.966 0 00-.78.142c-.26.105-.451.282-.572.534a.455.455 0 01.13.246.86.86 0 01.039.248.712.712 0 01-.13.364c-.087.13-.238.19-.455.181-.182 0-.321-.06-.416-.181a.751.751 0 01-.143-.456c0-.294.108-.558.325-.793.225-.233.533-.42.923-.558a3.91 3.91 0 011.326-.209c.728 0 1.265.195 1.612.585.347.382.516.988.507 1.82v.975c0 .321-.004.646-.013.976v.974c0 .14-.004.278-.013.416-.009.14-.022.295-.039.469.156-.01.308-.018.455-.026.156-.01.312-.018.468-.026v.546h-1.859zm-.117-3.184a5.31 5.31 0 00-.936.117c-.321.06-.62.156-.897.285a1.88 1.88 0 00-.663.52 1.138 1.138 0 00-.234.767c.017.321.121.564.312.728.199.156.433.234.702.234.355 0 .663-.064.923-.194.269-.14.533-.33.793-.573a3.341 3.341 0 01-.013-.311v-.768c.009-.234.013-.502.013-.806zm2.582 5.499v-2.808h.533a.898.898 0 00.52-.144c.139-.103.273-.329.403-.675.095-.26.178-.546.247-.858.078-.313.143-.66.195-1.04.052-.39.095-.815.13-1.275.035-.459.061-.962.078-1.507l-1.144.051v-.558h5.746v.39c-.269 0-.455.069-.559.207-.104.13-.165.317-.182.56-.017.234-.026.507-.026.819v3.145c-.009.174-.017.33-.026.469a3.95 3.95 0 01-.052.415l1.183-.051v2.86h-.494c0-.711-.074-1.274-.221-1.69-.139-.416-.425-.624-.858-.624h-3.887c-.425 0-.715.203-.871.61-.147.416-.221.984-.221 1.704h-.494zm1.703-2.808h2.327c.269 0 .455-.066.559-.195.113-.14.178-.325.195-.56a7.89 7.89 0 00.039-.832v-3.496a8.61 8.61 0 01.039-.428h-1.352c-.269 0-.455.078-.559.233-.095.156-.16.369-.195.637a21.284 21.284 0 01-.182 1.638c-.069.503-.143.95-.221 1.34-.069.38-.143.68-.221.897a3.645 3.645 0 01-.195.441c-.069.122-.147.23-.234.326zm7.265 4.016c-.269 0-.499-.065-.689-.195-.191-.13-.286-.329-.286-.597 0-.157.052-.3.156-.43a.492.492 0 01.403-.195c.208-.008.346.057.416.195.078.14.117.26.117.365v.078a.454.454 0 01-.013.103c.026.018.073.026.143.026a.596.596 0 00.338-.13 1.19 1.19 0 00.325-.377c.112-.19.242-.476.39-.858.156-.38.329-.836.52-1.365l-2.028-4.341c-.226-.486-.39-.871-.494-1.157a8.86 8.86 0 01-.195-.638l-.624.026v-.532h2.691v.39h-.052c-.364.025-.564.164-.598.415-.035.243.065.616.299 1.119l1.521 3.263c.199-.555.39-1.101.572-1.638.182-.546.364-1.088.546-1.625.069-.191.138-.386.208-.585.078-.209.151-.39.221-.546.078-.165.147-.27.208-.313l-.897.052v-.532h2.041v.39a1.368 1.368 0 00-.728.61 7.723 7.723 0 00-.481 1.08l-1.625 4.537a32.15 32.15 0 01-.715 1.846c-.217.51-.455.897-.715 1.157a1.3 1.3 0 01-.975.402zM247 87.868a3.313 3.313 0 01-1.651-.415 3.26 3.26 0 01-1.183-1.17c-.286-.503-.429-1.075-.429-1.716 0-.685.143-1.3.429-1.846a3.297 3.297 0 011.17-1.288 2.99 2.99 0 011.664-.48 3.16 3.16 0 011.651.441 3.26 3.26 0 011.183 1.17c.295.495.442 1.058.442 1.69 0 .668-.147 1.279-.442 1.834a3.398 3.398 0 01-1.17 1.3 2.99 2.99 0 01-1.664.48zm.104-.52c.459 0 .823-.13 1.092-.39.269-.26.459-.597.572-1.013a4.68 4.68 0 00.182-1.313c0-.39-.039-.772-.117-1.145a3.657 3.657 0 00-.338-1.026 1.998 1.998 0 00-.611-.742 1.431 1.431 0 00-.884-.272c-.451 0-.819.13-1.105.39a2.34 2.34 0 00-.637 1.013 4.47 4.47 0 00-.195 1.34c0 .537.074 1.048.221 1.534.147.476.373.866.676 1.17.303.303.685.454 1.144.454zm5.576.312v-.39c.269 0 .455-.064.559-.194.104-.14.165-.325.182-.56a7.89 7.89 0 00.039-.832V82.11a4.08 4.08 0 01.052-.402h-.923c-.346 0-.602.1-.767.299-.156.199-.234.572-.234 1.118h-.494l.052-1.963h5.746l.065 1.963h-.494c-.008-.546-.091-.92-.247-1.118-.147-.2-.424-.3-.832-.3h-.806v4.576c0 .174-.004.33-.013.469a2.4 2.4 0 01-.039.415l.819-.038v.532h-2.665zm15.884-6.2c-.087-.815-.373-1.448-.858-1.898-.477-.451-1.092-.677-1.846-.677-.459 0-.893.1-1.3.3-.399.19-.75.468-1.053.831a4.066 4.066 0 00-.715 1.313 5.377 5.377 0 00-.26 1.73c0 .814.156 1.534.468 2.157.312.625.732 1.11 1.261 1.457a3.14 3.14 0 001.755.52 3.95 3.95 0 001.664-.377c.546-.26.992-.633 1.339-1.118l.338.273c-.373.51-.776.905-1.209 1.182a4.018 4.018 0 01-1.3.56 4.953 4.953 0 01-1.17.156c-.65 0-1.248-.118-1.794-.352a4.31 4.31 0 01-1.404-.974 4.658 4.658 0 01-.91-1.47 5.213 5.213 0 01-.312-1.82c0-.615.091-1.213.273-1.793a5.01 5.01 0 01.845-1.573 4.048 4.048 0 011.404-1.118c.572-.278 1.235-.416 1.989-.416.485 0 .945.065 1.378.195.433.13.849.329 1.248.597l-.065-.701h.702v3.016h-.468zm1.602 6.2v-.39c.277.01.464-.064.559-.22a1.76 1.76 0 00.195-.65l.481-4.03.052-.365c.017-.12.03-.238.039-.35l-.793.038v-.532h1.729l1.716 4.016.208.494.208.494a20.8 20.8 0 00.195-.455l.182-.467 1.677-4.082h1.534v.39c-.243 0-.425.069-.546.207-.121.14-.156.382-.104.729l.598 3.952c.026.25.026.49 0 .715l.845-.026v.532h-2.626v-.39c.269.01.464-.073.585-.246.13-.183.165-.469.104-.859l-.507-3.34-1.989 4.835h-.52l-1.547-3.77c-.078-.199-.16-.398-.247-.597l-.234-.599-.078.599c-.017.199-.039.398-.065.597l-.312 2.51a2.6 2.6 0 01-.065.39 2.7 2.7 0 01-.091.363l.819-.026v.534h-2.002zm12.977.208a3.316 3.316 0 01-1.651-.415 3.25 3.25 0 01-1.182-1.17c-.286-.503-.43-1.075-.43-1.716 0-.685.144-1.3.43-1.846a3.295 3.295 0 011.169-1.288 2.99 2.99 0 011.664-.48 3.16 3.16 0 011.651.441c.494.286.889.676 1.183 1.17.295.495.442 1.058.442 1.69 0 .668-.147 1.279-.442 1.834a3.398 3.398 0 01-1.17 1.3 2.988 2.988 0 01-1.664.48zm.104-.52c.46 0 .824-.13 1.092-.39.269-.26.46-.597.572-1.013.122-.416.183-.854.183-1.313 0-.39-.039-.772-.117-1.145a3.69 3.69 0 00-.339-1.026 1.989 1.989 0 00-.611-.742c-.242-.181-.537-.272-.884-.272-.45 0-.819.13-1.105.39a2.34 2.34 0 00-.637 1.013 4.47 4.47 0 00-.195 1.34c0 .537.074 1.048.221 1.534.148.476.373.866.676 1.17.304.303.685.454 1.144.454zm4.771.455c-.312 0-.555-.06-.728-.181a.615.615 0 01-.247-.507c0-.191.048-.347.143-.468.095-.122.238-.187.429-.196.208 0 .355.053.442.157a.464.464 0 01.143.311.547.547 0 01-.013.105.279.279 0 01-.013.09.414.414 0 00.117.026c.173 0 .355-.173.546-.52.191-.346.364-.918.52-1.716.165-.805.277-1.885.338-3.236l-1.222.051v-.558h5.603v.39c-.26 0-.446.069-.559.207-.104.13-.165.317-.182.56-.017.234-.026.507-.026.819v3.145c-.009.174-.017.33-.026.469a3.95 3.95 0 01-.052.415l.819-.038v.532h-2.652v-.39c.269 0 .455-.064.559-.194.104-.14.165-.325.182-.56.026-.242.043-.52.052-.832v-3.6c.009-.138.026-.281.052-.428h-1.144c-.295 0-.498.095-.611.285-.104.183-.156.43-.156.742a18.71 18.71 0 01-.195 1.832 8.76 8.76 0 01-.39 1.651c-.173.494-.403.893-.689 1.197a1.368 1.368 0 01-1.04.442zm10.345.065a3.219 3.219 0 01-1.625-.415 3.08 3.08 0 01-1.131-1.197c-.277-.52-.416-1.13-.416-1.832 0-.607.135-1.175.403-1.704a3.35 3.35 0 011.157-1.273c.494-.33 1.066-.495 1.716-.495.364 0 .702.061 1.014.183.321.112.603.29.845.532.243.234.434.534.572.897.139.356.208.776.208 1.262l-4.576.078c0 .658.07 1.239.208 1.742.148.493.382.88.702 1.156.321.27.733.403 1.235.403.269 0 .542-.047.819-.142.286-.096.551-.226.793-.39.243-.165.438-.347.585-.547l.312.26a2.893 2.893 0 01-.845.871 3.55 3.55 0 01-1.014.468 3.641 3.641 0 01-.962.144zm-1.794-4.51h3.315a2.8 2.8 0 00-.143-.898 1.474 1.474 0 00-.442-.714c-.208-.191-.481-.286-.819-.286-.502 0-.923.151-1.261.455-.329.294-.546.775-.65 1.442zm8.372-1.808c-.268 0-.455.07-.559.209-.104.13-.164.316-.182.558-.017.235-.03.508-.039.82l-.013 3.145c0 .174-.004.33-.013.469a2.4 2.4 0 01-.039.415l.819-.038v.532h-2.652v-.39c.269 0 .455-.064.559-.194.104-.14.165-.325.182-.56a7.89 7.89 0 00.039-.832v-3.6c.009-.138.026-.281.052-.428l-.819.038v-.532h2.665v.39zm4.264 0c-.26 0-.446.07-.559.209-.104.13-.164.316-.182.558l-.026.82-.013 3.145c0 .174-.004.33-.013.469a2.4 2.4 0 01-.039.415l.819-.038v.532h-2.652v-.39c.269 0 .455-.064.559-.194.104-.14.165-.325.182-.56.018-.242.026-.52.026-.832l.013-3.145v-.456c.009-.138.026-.281.052-.428l-.819.038v-.532h2.652v.39zm-5.512 2.523h4.082v.507l-4.082.052v-.56zm9.829 3.795c-.581 0-1.118-.13-1.612-.39a3.091 3.091 0 01-1.17-1.143c-.286-.503-.429-1.105-.429-1.807a3.6 3.6 0 01.247-1.314 3.86 3.86 0 01.689-1.144c.303-.346.663-.62 1.079-.819a3.151 3.151 0 011.378-.299c.485 0 .906.074 1.261.222.364.147.646.342.845.584.199.243.299.508.299.794a.8.8 0 01-.156.493c-.104.13-.255.195-.455.195-.216.01-.373-.056-.468-.194a.791.791 0 01-.13-.39.9.9 0 01.039-.26.582.582 0 01.156-.26.774.774 0 00-.364-.456 1.424 1.424 0 00-.546-.195 2.515 2.515 0 00-.455-.052c-.589 0-1.087.239-1.495.715-.398.469-.598 1.153-.598 2.055 0 .58.091 1.096.273 1.546.191.451.455.806.793 1.067.338.25.728.376 1.17.376a2.3 2.3 0 001.17-.324c.373-.217.663-.481.871-.793l.338.26a2.969 2.969 0 01-.819.884 3.34 3.34 0 01-.975.494 3.108 3.108 0 01-.936.156zm3.617-.208v-.39c.269 0 .455-.064.559-.194.104-.14.165-.325.182-.56a7.89 7.89 0 00.039-.832l.013-3.145v-.456c.009-.138.026-.281.052-.428l-.416.025c-.13 0-.264.005-.403.013v-.532h2.652v.39c-.26 0-.446.069-.559.207-.104.13-.165.317-.182.56-.017.234-.026.507-.026.819l-.013.858h.507l1.586-1.665c.147-.147.282-.277.403-.39.121-.12.243-.22.364-.299l-.884.04v-.52h2.366v.39a1.837 1.837 0 00-.832.285 4.715 4.715 0 00-.702.534c-.208.199-.39.38-.546.545l-1.014 1.066c.173.079.321.178.442.3.121.12.243.255.364.402l.923 1.183c.043.052.117.152.221.3.113.147.243.307.39.48.156.174.316.321.481.442.173.122.334.183.481.183v.39h-1.183c-.243 0-.472-.126-.689-.377a21.724 21.724 0 01-.689-.846l-.611-.844c-.173-.26-.334-.486-.481-.676a3.055 3.055 0 00-.377-.443l-.52.026-.013 1.781c0 .174-.004.33-.013.469a2.4 2.4 0 01-.039.415c.139-.008.273-.013.403-.013l.416-.026v.534h-2.652zm11.065 0a3.872 3.872 0 01-.052-.39 5.937 5.937 0 00-.039-.35 3.712 3.712 0 01-.962.701 2.432 2.432 0 01-1.079.248c-.659 0-1.149-.148-1.469-.442a1.463 1.463 0 01-.481-1.106c0-.398.121-.74.364-1.026.251-.295.572-.534.962-.716.398-.19.827-.329 1.286-.415a6.157 6.157 0 011.353-.13v-.806c0-.304-.026-.59-.078-.858a1.249 1.249 0 00-.338-.663c-.174-.174-.451-.265-.832-.273a1.96 1.96 0 00-.78.142c-.26.105-.451.282-.572.534a.462.462 0 01.13.246.86.86 0 01.039.248c0 .103-.044.225-.13.364-.087.13-.239.19-.455.181-.182 0-.321-.06-.416-.181a.744.744 0 01-.143-.456c0-.294.108-.558.325-.793.225-.233.533-.42.923-.558a3.91 3.91 0 011.326-.209c.728 0 1.265.195 1.612.585.346.382.515.988.507 1.82v.975c0 .321-.005.646-.013.976v.974c0 .14-.005.278-.013.416-.009.14-.022.295-.039.469.156-.01.307-.018.455-.026.156-.01.311-.018.467-.026v.546h-1.858zm-.117-3.184a5.31 5.31 0 00-.936.117c-.321.06-.62.156-.897.285a1.88 1.88 0 00-.663.52 1.138 1.138 0 00-.234.767c.017.321.121.564.312.728.199.156.433.234.702.234.355 0 .663-.064.923-.194a3.59 3.59 0 00.793-.573 3.341 3.341 0 01-.013-.311v-.768c.008-.234.013-.502.013-.806zm-201.162 38.48c-.066-.626-.286-1.113-.66-1.46-.366-.346-.84-.52-1.42-.52-.353 0-.686.077-1 .23-.306.147-.576.36-.81.64a3.15 3.15 0 00-.55 1.01c-.133.394-.2.837-.2 1.33 0 .627.12 1.18.36 1.66s.564.854.97 1.12c.407.267.857.4 1.35.4.434 0 .86-.096 1.28-.29.42-.2.764-.486 1.03-.86l.26.21c-.286.394-.596.697-.93.91a3.06 3.06 0 01-1 .43c-.326.08-.626.12-.9.12-.5 0-.96-.09-1.38-.27a3.317 3.317 0 01-1.08-.75 3.574 3.574 0 01-.7-1.13c-.16-.433-.24-.9-.24-1.4 0-.473.07-.933.21-1.38.147-.446.364-.85.65-1.21.287-.36.647-.646 1.08-.86.44-.213.95-.32 1.53-.32.374 0 .727.05 1.06.15.334.1.654.254.96.46l-.05-.54h.54v2.32h-.36zm1.232 4.77v-.3c.214.007.357-.05.43-.17.074-.126.124-.293.15-.5l.37-3.1.04-.28c.014-.093.024-.183.03-.27l-.61.03v-.41h1.33l1.32 3.09.16.38.16.38c.054-.12.104-.236.15-.35l.14-.36 1.29-3.14h1.18v.3c-.186 0-.326.054-.42.16-.093.107-.12.294-.08.56l.46 3.04c.02.194.02.377 0 .55l.65-.02v.41h-2.02v-.3c.207.007.357-.056.45-.19.1-.14.127-.36.08-.66l-.39-2.57-1.53 3.72h-.4l-1.19-2.9c-.06-.153-.123-.306-.19-.46l-.18-.46-.06.46a10.1 10.1 0 01-.05.46l-.24 1.93a1.869 1.869 0 01-.05.3c-.02.107-.043.2-.07.28l.63-.02v.41h-1.54zm9.923.16a2.47 2.47 0 01-1.25-.32 2.366 2.366 0 01-.87-.92c-.213-.4-.32-.87-.32-1.41 0-.466.104-.903.31-1.31.214-.406.51-.733.89-.98.38-.253.82-.38 1.32-.38.28 0 .54.047.78.14.247.087.464.224.65.41.187.18.334.41.44.69.107.274.16.597.16.97l-3.52.06c0 .507.054.954.16 1.34.114.38.294.677.54.89.247.207.564.31.95.31.207 0 .417-.036.63-.11.22-.073.424-.173.61-.3a1.79 1.79 0 00.45-.42l.24.2c-.18.28-.396.504-.65.67a2.713 2.713 0 01-.78.36c-.266.074-.513.11-.74.11zm-1.38-3.47h2.55c0-.24-.036-.47-.11-.69a1.136 1.136 0 00-.34-.55c-.16-.146-.37-.22-.63-.22-.386 0-.71.117-.97.35-.253.227-.42.597-.5 1.11zm5.38 3.31v-.3c.207 0 .35-.05.43-.15a.798.798 0 00.14-.43c.02-.186.03-.4.03-.64v-2.75c.007-.093.02-.196.04-.31h-.71c-.266 0-.463.077-.59.23-.12.154-.18.44-.18.86h-.38l.04-1.51h4.42l.05 1.51h-.38c-.006-.42-.07-.706-.19-.86-.113-.153-.326-.23-.64-.23h-.62v3.52c0 .134-.003.254-.01.36 0 .1-.01.207-.03.32l.63-.03v.41h-2.05zm6.991 0a3.218 3.218 0 01-.04-.3 3.48 3.48 0 00-.03-.27 2.812 2.812 0 01-.74.54c-.26.127-.536.19-.83.19-.506 0-.883-.113-1.13-.34a1.127 1.127 0 01-.37-.85c0-.306.094-.57.28-.79.194-.226.44-.41.74-.55.307-.146.637-.253.99-.32.36-.073.707-.106 1.04-.1v-.62c0-.233-.02-.453-.06-.66a.96.96 0 00-.26-.51c-.133-.133-.346-.203-.64-.21a1.525 1.525 0 00-.6.11.807.807 0 00-.44.41.349.349 0 01.1.19c.02.067.03.13.03.19 0 .08-.033.174-.1.28-.066.1-.183.147-.35.14-.14 0-.246-.046-.32-.14a.577.577 0 01-.11-.35c0-.226.084-.43.25-.61.174-.18.41-.323.71-.43.3-.106.64-.16 1.02-.16.56 0 .974.15 1.24.45.267.294.397.76.39 1.4v.75c0 .247-.003.497-.01.75v.75a7.461 7.461 0 01-.04.68l.35-.02.36-.02v.42h-1.43zm-.09-2.45a4.164 4.164 0 00-.72.09c-.246.047-.476.12-.69.22a1.47 1.47 0 00-.51.4.886.886 0 00-.18.59c.014.247.094.434.24.56.154.12.334.18.54.18.274 0 .51-.05.71-.15a2.71 2.71 0 00.61-.44 2.92 2.92 0 01-.01-.24v-.59c.007-.18.01-.386.01-.62zm4.267-2.25c-.207 0-.35.054-.43.16-.08.1-.127.244-.14.43-.014.18-.024.39-.03.63l-.01 2.42c0 .134-.004.254-.01.36 0 .1-.01.207-.03.32l.63-.03v.41h-2.04v-.3c.206 0 .35-.05.43-.15a.807.807 0 00.14-.43c.02-.186.03-.4.03-.64v-2.77c.006-.106.02-.216.04-.33l-.63.03v-.41h2.05v.3zm3.28 0c-.2 0-.344.054-.43.16-.08.1-.127.244-.14.43-.007.18-.014.39-.02.63l-.01 2.42c0 .134-.004.254-.01.36 0 .1-.01.207-.03.32l.63-.03v.41h-2.04v-.3c.206 0 .35-.05.43-.15a.807.807 0 00.14-.43c.013-.186.02-.4.02-.64l.01-2.42v-.35c.006-.106.02-.216.04-.33l-.63.03v-.41h2.04v.3zm-4.24 1.94h3.14v.39l-3.14.04v-.43zm7.18-1.94c-.206 0-.35.054-.43.16-.08.1-.126.244-.14.43-.013.18-.023.39-.03.63l-.01 2.42c0 .134-.003.254-.01.36 0 .1-.01.207-.03.32.107-.006.21-.01.31-.01l.32-.02v.41h-2.04v-.3c.207 0 .35-.05.43-.15a.798.798 0 00.14-.43c.02-.186.03-.4.03-.64v-2.77c.007-.106.02-.216.04-.33l-.32.02c-.1 0-.203.004-.31.01v-.41h2.05v.3zm1.96.18l.32.24-3.07 3.85-.34-.28 3.09-3.81zm1.37-.18c-.2 0-.343.054-.43.16-.08.1-.126.244-.14.43-.013.18-.02.39-.02.63l-.02 2.42c0 .134-.003.254-.01.36 0 .1-.006.207-.02.32.107-.006.21-.01.31-.01l.32-.02v.41h-2.05v-.3c.207 0 .35-.05.43-.15a.798.798 0 00.14-.43c.02-.186.03-.4.03-.64l.01-2.42v-.35c.007-.106.02-.216.04-.33l-.32.02c-.1 0-.203.004-.31.01v-.41h2.04v.3zm2.94 0c-.207 0-.35.054-.43.16-.08.1-.127.244-.14.43-.013.18-.023.39-.03.63l-.01 2.42c0 .134-.003.254-.01.36 0 .1-.01.207-.03.32l.63-.03v.41h-2.04v-.3c.207 0 .35-.05.43-.15a.798.798 0 00.14-.43c.02-.186.03-.4.03-.64v-2.77c.007-.106.02-.216.04-.33l-.63.03v-.41h2.05v.3zm3.28 0c-.2 0-.343.054-.43.16-.08.1-.127.244-.14.43-.007.18-.013.39-.02.63l-.01 2.42c0 .134-.003.254-.01.36 0 .1-.01.207-.03.32l.63-.03v.41h-2.04v-.3c.207 0 .35-.05.43-.15a.798.798 0 00.14-.43c.013-.186.02-.4.02-.64l.01-2.42v-.35c.007-.106.02-.216.04-.33l-.63.03v-.41h2.04v.3zm-4.24 1.94h3.14v.39l-3.14.04v-.43zm7.601 2.92c-.467 0-.89-.106-1.27-.32a2.5 2.5 0 01-.91-.9 2.618 2.618 0 01-.33-1.32c0-.526.11-1 .33-1.42.22-.42.52-.75.9-.99.38-.246.806-.37 1.28-.37.466 0 .89.114 1.27.34.38.22.683.52.91.9.226.38.34.814.34 1.3 0 .514-.114.984-.34 1.41-.22.42-.52.754-.9 1-.38.247-.807.37-1.28.37zm.08-.4c.353 0 .633-.1.84-.3.206-.2.353-.46.44-.78.093-.32.14-.656.14-1.01 0-.3-.03-.593-.09-.88a2.854 2.854 0 00-.26-.79c-.12-.24-.277-.43-.47-.57a1.103 1.103 0 00-.68-.21c-.347 0-.63.1-.85.3-.22.2-.384.46-.49.78-.1.32-.15.664-.15 1.03 0 .414.056.807.17 1.18.113.367.286.667.52.9.233.234.526.35.88.35zm-79.64-64.179c-4.412.375-9.424 2.311-13.952 5.412-7.895 5.392-12.133 12.207-11.727 18.843.368 5.827 3.619 9.718 10.102 12.108 6.385 2.331 16.66 2.667 27.09.909 9.269-1.58 16.526-4.86 21.093-9.56 1.877-1.936 2.767-3.299 3.541-5.392.638-1.719.716-4.681.154-6.36-1.915-5.807-7.198-9.382-16.119-10.844-6.869-1.146-13.797-.988-20.453.454-3.193.692-4.373 1.087-4.373 1.442 0 .198.096.257.348.158 1.045-.415 5.186-1.244 8.94-1.797 1.838-.257 6.811-.395 9.578-.257 9.25.474 15.113 2.508 18.712 6.478 3.329 3.655 3.948 8.06 1.742 12.345-.929 1.837-3.773 4.8-6.076 6.32-7.024 4.662-16.332 7.072-28.31 7.368-7.044.158-10.933-.316-15.5-1.896-6.83-2.35-10.236-6.854-9.888-13.056.251-4.385 2.264-8.454 6.134-12.424 4.915-5.056 11.224-8.552 17.358-9.619 1.393-.237 2.535-.296 4.412-.217 3.076.118 5.147.691 7.817 2.133 1.006.533 1.877.928 1.916.87.329-.317-3.58-2.312-5.65-2.884-1.839-.494-4.645-.731-6.89-.534z" fill="#000"/><path d="M78.832 81.46c-.087-.815-.373-1.448-.859-1.899-.476-.45-1.092-.676-1.846-.676-.459 0-.892.1-1.3.3-.398.19-.75.467-1.053.831a4.068 4.068 0 00-.715 1.313 5.368 5.368 0 00-.26 1.73c0 .814.156 1.533.468 2.157.312.624.733 1.11 1.261 1.456.53.347 1.114.52 1.755.52.564 0 1.118-.125 1.664-.377.546-.26.993-.632 1.34-1.118l.337.273c-.372.512-.775.906-1.209 1.183a4.02 4.02 0 01-1.3.56 4.948 4.948 0 01-1.17.155c-.65 0-1.247-.117-1.793-.35a4.304 4.304 0 01-1.405-.976 4.654 4.654 0 01-.91-1.469 5.214 5.214 0 01-.312-1.82c0-.615.091-1.213.273-1.794.191-.58.473-1.105.845-1.573.373-.468.841-.84 1.404-1.118.572-.277 1.235-.416 1.99-.416.485 0 .944.065 1.377.195.434.13.85.33 1.248.598l-.065-.702h.702v3.016h-.468zm5.709 6.2a4.094 4.094 0 01-.052-.39 5.471 5.471 0 00-.039-.35 3.698 3.698 0 01-.962.701 2.431 2.431 0 01-1.079.247c-.658 0-1.148-.147-1.469-.442a1.464 1.464 0 01-.48-1.105c0-.398.12-.74.363-1.027.252-.294.572-.533.962-.715.399-.19.828-.329 1.287-.416a6.152 6.152 0 011.352-.13v-.806c0-.303-.026-.59-.078-.858a1.247 1.247 0 00-.338-.663c-.173-.173-.45-.264-.832-.273a1.964 1.964 0 00-.78.143c-.26.104-.45.282-.572.533.07.07.113.152.13.247a.86.86 0 01.04.247c0 .104-.044.226-.13.364-.087.13-.239.191-.456.182-.182 0-.32-.06-.416-.182a.749.749 0 01-.143-.455c0-.294.109-.559.325-.793.226-.234.533-.42.923-.559a3.96 3.96 0 011.326-.208c.728 0 1.266.195 1.612.585.347.382.516.988.507 1.82v.975c0 .32-.004.646-.013.975v.975c0 .139-.004.278-.013.416-.008.139-.021.295-.039.468l.455-.026.468-.026v.546h-1.859zm-.117-3.185a5.307 5.307 0 00-.936.117c-.32.061-.62.156-.897.286-.268.13-.49.304-.663.52a1.141 1.141 0 00-.234.767c.018.32.122.564.312.728.2.156.434.234.702.234.356 0 .663-.065.923-.195.269-.138.533-.33.793-.572a3.45 3.45 0 01-.013-.312v-.767c.009-.234.013-.502.013-.806zm2.868 3.185v-.39c.321-.008.53-.108.624-.299.104-.2.156-.468.156-.806v-3.757c0-.156.005-.294.013-.416a3.66 3.66 0 01.04-.338l-.417.026c-.13 0-.264.005-.403.013v-.533h.897c.364-.008.763-.013 1.196-.013h1.313c.607 0 1.101.126 1.482.377.39.243.581.616.572 1.118-.008.347-.13.672-.364.975-.225.295-.585.503-1.079.624.59.026 1.036.187 1.34.481.303.286.454.65.454 1.092 0 .39-.104.724-.312 1.001a2 2 0 01-.819.637 2.848 2.848 0 01-1.092.208h-3.6zm1.872-.533c.096.009.221.013.377.013h.728c.486 0 .871-.1 1.157-.299.295-.208.442-.537.442-.988 0-.46-.16-.784-.48-.975a2.071 2.071 0 00-1.119-.299c-.182 0-.372.005-.572.013-.19 0-.36.005-.507.013V86.4a6.1 6.1 0 01-.013.43c0 .12-.004.22-.013.298zm.026-3.016l.975-.013c.356-.008.637-.082.845-.22.208-.148.356-.326.442-.534a1.52 1.52 0 00.117-.637c0-.303-.065-.533-.195-.689a.937.937 0 00-.507-.312 2.245 2.245 0 00-.65-.09c-.312 0-.563.056-.754.168-.182.113-.273.356-.273.728v1.6zm8.028 3.757c-.598 0-1.14-.138-1.625-.416a3.07 3.07 0 01-1.131-1.196c-.278-.52-.416-1.13-.416-1.833 0-.606.134-1.174.403-1.703a3.344 3.344 0 011.157-1.274c.494-.33 1.066-.494 1.716-.494.364 0 .702.061 1.014.182.32.113.602.29.845.533.242.234.433.533.572.897.138.356.208.776.208 1.261l-4.576.078c0 .659.069 1.24.208 1.742.147.494.381.88.702 1.157.32.269.732.403 1.235.403.268 0 .541-.047.819-.143.286-.095.55-.225.793-.39.242-.164.437-.346.585-.546l.312.26a2.906 2.906 0 01-.845.871c-.33.217-.668.373-1.014.468a3.647 3.647 0 01-.962.143zm-1.794-4.51h3.315c0-.313-.048-.612-.143-.898a1.479 1.479 0 00-.442-.715c-.208-.19-.481-.286-.82-.286-.502 0-.922.152-1.26.455-.33.295-.546.776-.65 1.443zm8.372-1.808c-.269 0-.455.07-.559.208-.104.13-.165.317-.182.56a16.28 16.28 0 00-.039.818l-.013 3.146c0 .174-.005.33-.013.468a2.4 2.4 0 01-.039.416l.819-.039v.533h-2.652v-.39c.268 0 .455-.065.559-.195.104-.138.164-.325.182-.559a7.89 7.89 0 00.039-.832v-3.601a3.7 3.7 0 01.052-.429l-.819.04v-.534h2.665v.39zm4.264 0c-.26 0-.447.07-.559.208-.104.13-.165.317-.182.56a64.09 64.09 0 00-.026.818l-.013 3.146c0 .174-.005.33-.013.468a2.4 2.4 0 01-.039.416l.819-.039v.533h-2.652v-.39c.268 0 .455-.065.559-.195.104-.138.164-.325.182-.559a12 12 0 00.026-.832l.013-3.146v-.455a3.7 3.7 0 01.052-.429l-.819.04v-.534h2.652v.39zm-5.512 2.522h4.082v.507l-4.082.052v-.559zm6.527 3.588v-.39c.268 0 .455-.065.559-.195.104-.138.164-.325.182-.559a7.89 7.89 0 00.039-.832l.013-3.146v-.455a3.7 3.7 0 01.052-.429l-.416.026c-.13 0-.265.005-.403.013v-.533h2.652v.39c-.26 0-.447.07-.559.208-.104.13-.165.317-.182.56-.018.233-.026.506-.026.818l-.013.858h.507l1.586-1.664c.147-.147.281-.277.403-.39.121-.121.242-.22.364-.299l-.884.04v-.52h2.366v.39a1.837 1.837 0 00-.832.285 4.607 4.607 0 00-.702.533c-.208.2-.39.382-.546.546l-1.014 1.066c.173.078.32.178.442.3.121.12.242.255.364.402l.923 1.183c.043.052.117.152.221.3.112.147.242.307.39.48.156.174.316.32.481.442.173.122.333.182.481.182v.39h-1.183c-.243 0-.473-.125-.689-.377a20.908 20.908 0 01-.689-.845l-.611-.845c-.174-.26-.334-.485-.481-.676a3.12 3.12 0 00-.377-.442l-.52.026-.013 1.781c0 .174-.005.33-.013.468a2.4 2.4 0 01-.039.416c.138-.008.273-.013.403-.013l.416-.026v.533h-2.652zm9.79-6.11c-.269 0-.455.07-.559.208-.104.13-.165.317-.182.56-.017.233-.03.506-.039.818l-.013 3.146c0 .174-.004.33-.013.468a2.4 2.4 0 01-.039.416c.139-.008.273-.013.403-.013l.416-.026v.533h-2.652v-.39c.269 0 .455-.065.559-.195.104-.138.165-.325.182-.559a7.89 7.89 0 00.039-.832v-3.601c.009-.138.026-.281.052-.429l-.416.026c-.13 0-.264.005-.403.013v-.533h2.665v.39zm2.548.234l.416.312-3.991 5.005-.442-.364 4.017-4.953zm1.781-.234c-.26 0-.446.07-.559.208-.104.13-.165.317-.182.56-.017.233-.026.506-.026.818l-.026 3.146c0 .174-.004.33-.013.468 0 .13-.009.269-.026.416.139-.008.273-.013.403-.013l.416-.026v.533h-2.665v-.39c.269 0 .455-.065.559-.195.104-.138.165-.325.182-.559a7.89 7.89 0 00.039-.832l.013-3.146v-.455c.009-.138.026-.281.052-.429l-.416.026c-.13 0-.264.005-.403.013v-.533h2.652v.39z" fill="#000"/><path fill-rule="evenodd" clip-rule="evenodd" d="M392.249 113.106c2.749-.242 6.246-.427 9.919-.191l-.128 1.996c-3.533-.227-6.92-.05-9.616.187-1.276.112-2.393.237-3.3.338l-.15.017c-.898.1-1.654.185-2.087.185h-.016l-.017-.001c-4.319-.144-7.585-.053-9.916.137-2.375.195-3.679.487-4.149.688l-.007.003-.007.003c-2.449 1.005-5.692 3.029-8.818 4.981l-1.055.658c-1.693 1.053-3.317 2.045-4.672 2.75-.677.352-1.314.648-1.877.844-.485.17-1.035.31-1.548.266-15.563 1.18-27.008 2.202-52.062 4.439-5.643.503-11.976 1.069-19.202 1.712l-.139.012-.137-.026c-.763-.145-2.039-.081-3.807.222-1.735.297-3.835.805-6.187 1.466-4.517 1.271-9.894 3.09-15.267 5.016v1.44l24.431 11.71-.864 1.803-27.927-13.385a555.46 555.46 0 01-4.098 1.457c-2.141.75-4.167 1.438-5.993 2.012l-24.802 8.69-.662-1.887 24.833-8.701.015-.005a189.145 189.145 0 005.383-1.799c.231-1.211.657-2.074 1.272-2.589.741-.621 1.641-.628 2.28-.245l1.883.903 1.901-.685 1.01-.364c5.603-2.017 11.291-3.954 16.063-5.296 2.385-.671 4.56-1.198 6.391-1.512 1.724-.296 3.247-.422 4.374-.241 7.169-.638 13.459-1.199 19.067-1.7 25.106-2.242 36.562-3.265 52.188-4.448l.114-.009.113.017s.013.002.049.001c.035-.001.084-.006.149-.018.132-.023.304-.069.52-.144.433-.151.974-.398 1.613-.73 1.277-.665 2.839-1.617 4.538-2.674l1.068-.666c3.082-1.925 6.478-4.047 9.096-5.122.801-.341 2.393-.646 4.766-.84 2.421-.198 5.76-.289 10.127-.144.297-.002.901-.066 1.85-.172l.152-.017c.907-.101 2.045-.228 3.345-.342zM251.106 139.16l-.2-.096a.965.965 0 00-.208.241l.408-.145z" fill="#1E2F35"/><path fill-rule="evenodd" clip-rule="evenodd" d="M27.614 39.078c.408.31.643.754.785 1.175.146.432.224.931.257 1.46.065 1.058-.041 2.384-.284 3.868a39.76 39.76 0 01-.713 3.355c1.822-2.627 3.13-4.274 4.134-5.42.688-.788 1.231-1.336 1.673-1.783l.243-.246c.478-.487.824-.865 1.188-1.41 1.167-1.751 2.145-4.773 2.522-6.157l1.93.526c-.381 1.397-1.426 4.697-2.788 6.74-.468.701-.916 1.184-1.424 1.701l-.255.259c-.44.445-.939.949-1.584 1.686-1.546 1.767-3.943 4.887-8.1 11.502-2.218 3.527-6.37 11.63-9.39 17.653l1.82 1.04 77.356 41.264.003.001c2.134 1.131 4.575 2.434 7.207 3.841l2.774 1.484c7.377 3.946 15.856 8.481 23.26 12.333 4.175 2.172 8.003 4.124 11.094 5.629 3.018 1.469 5.27 2.479 6.462 2.87 3.229.186 8.392.603 13.572 1.258 5.209.66 10.528 1.572 13.903 2.766a.7.7 0 00.137.001c.127-.007.3-.033.529-.08.303-.062.629-.145 1.009-.242.223-.057.465-.119.732-.184 1.361-.332 3.132-.687 4.998-.443 2.433.188 3.67 1.578 4.734 2.772l.141.159c1.086 1.215 2.145 2.322 4.421 2.693 3.796.618 10.102.757 15.889.598 2.883-.078 5.612-.23 7.806-.429 2.242-.203 3.801-.446 4.433-.669l.666 1.886c-.909.321-2.723.576-4.919.775-2.244.203-5.017.357-7.931.437-5.807.158-12.272.026-16.265-.624-2.977-.485-4.427-2.032-5.591-3.334l-.051-.057c-1.121-1.254-1.873-2.096-3.508-2.215l-.031-.002-.03-.004c-1.488-.2-2.965.077-4.288.4-.212.052-.429.107-.643.161-.417.106-.823.21-1.168.281a5.871 5.871 0 01-.817.118c-.258.015-.57.006-.875-.096l-.01-.004-.009-.003c-3.148-1.119-8.29-2.015-13.513-2.676a210.186 210.186 0 00-13.562-1.253l-.124-.007-.118-.037c-1.328-.415-3.766-1.515-6.854-3.018-3.115-1.516-6.961-3.477-11.142-5.653-7.415-3.857-15.904-8.398-23.28-12.343l-2.774-1.484a2564.515 2564.515 0 00-7.204-3.839l-.002-.001-77.384-41.279-2.648-1.513L0 68.07l.914-1.779 13.134 6.745c2.985-5.953 7.126-14.038 9.408-17.688 1.477-3.71 2.485-7.303 2.942-10.09.231-1.408.314-2.57.262-3.42-.027-.426-.085-.736-.156-.945-.055-.162-.101-.219-.107-.227l-6.832-5.313 1.228-1.579 6.821 5.305z" fill="#1E2F35"/><path d="M274.385 127.676l-.024-.329c.252-.026.421-.095.506-.208a.727.727 0 00.117-.46 9.236 9.236 0 00-.029-.66l-.308-4.188a9.716 9.716 0 01-.028-.79l-.358.046-.357.046-.032-.438c.365-.034.73-.064 1.096-.091.372-.034.757-.066 1.156-.095.771-.057 1.383.035 1.835.276.459.24.704.657.734 1.249.016.213-.032.43-.143.652a1.711 1.711 0 01-.506.609c-.228.178-.522.313-.883.406l.002.02c.731-.054 1.295.075 1.693.387.396.305.614.713.651 1.225.03.406-.047.763-.232 1.07a2.012 2.012 0 01-.788.74 3.002 3.002 0 01-1.189.318l-2.913.215zm1.497-.512c.107-.001.234-.003.38-.007l.419-.031.26-.019c.512-.038.914-.195 1.208-.47.3-.283.432-.674.395-1.173-.03-.405-.133-.715-.309-.929a1.281 1.281 0 00-.663-.433 2.486 2.486 0 00-.858-.077c-.2.015-.382.031-.548.05-.16.012-.319.03-.477.056l.166 2.253c.013.18.021.333.023.46.01.126.011.233.004.32zm-.222-3.422l.727-.074c.378-.035.672-.133.88-.295.208-.17.351-.371.427-.603.083-.234.112-.473.088-.719-.033-.358-.137-.625-.31-.799a1.136 1.136 0 00-.596-.337 2.369 2.369 0 00-.676-.051c-.219.016-.38.058-.482.126a.44.44 0 00-.187.314 2.634 2.634 0 00-.008.583l.137 1.855zm6.529-1.353c-.206.015-.345.078-.417.191-.072.105-.108.252-.108.439 0 .18.005.39.016.63l.168 2.414c.01.133.015.253.016.36.008.1.006.207-.006.322.106-.015.209-.026.308-.033l.318-.044.03.409-2.034.15-.022-.299c.206-.015.345-.076.417-.181a.813.813 0 00.109-.439c.006-.188 0-.402-.018-.641l-.177-2.413-.026-.349a2.913 2.913 0 01.016-.332l-.318.043c-.1.007-.202.018-.308.033l-.03-.409 2.044-.151.022.3zm1.968.035l.337.216-2.779 4.065-.36-.254 2.802-4.027zm1.353-.28c-.199.015-.338.078-.417.191-.072.106-.108.252-.108.439 0 .181.009.391.026.63l.158 2.415c.01.133.015.253.016.36.008.099.009.206.004.32.106-.014.209-.025.308-.032l.318-.044.03.409-2.044.151-.022-.3c.206-.015.345-.075.418-.181a.817.817 0 00.108-.439c.006-.187 0-.401-.018-.64l-.167-2.415-.026-.349a2.935 2.935 0 01.016-.332l-.318.044c-.1.007-.202.018-.308.033l-.03-.409 2.034-.15.022.299zm2.22 4.549l-.022-.299c.206-.015.345-.075.417-.181a.802.802 0 00.108-.439 5.787 5.787 0 00-.017-.641l-.177-2.413-.025-.329c0-.094.006-.198.018-.312l-.708.052c-.266.019-.457.11-.572.273-.108.161-.147.452-.116.87l-.379.028-.071-1.509 4.408-.324.16 1.502-.378.028c-.038-.418-.122-.699-.253-.844-.124-.144-.343-.205-.655-.182l-.619.046.259 3.51c.01.133.015.253.016.36.008.1.006.207-.006.321l.626-.076.03.409-2.044.15zm6.365-.308a2.476 2.476 0 01-1.27-.227 2.364 2.364 0 01-.935-.854c-.242-.383-.383-.844-.423-1.383a2.858 2.858 0 01.213-1.329c.183-.421.455-.769.816-1.042.36-.281.79-.44 1.289-.476.279-.021.541.007.788.082.252.068.478.189.678.361.199.166.363.385.49.656.126.265.203.583.23.956l-3.506.318c.037.505.123.947.258 1.325.141.37.342.653.604.847.261.188.585.268.97.24.206-.015.413-.067.62-.156.214-.089.41-.204.587-.344.177-.14.316-.291.418-.452l.254.182a2.244 2.244 0 01-.599.716 2.745 2.745 0 01-.752.416c-.26.093-.504.148-.73.164zm-1.631-3.359l2.543-.187a2.153 2.153 0 00-.16-.68 1.14 1.14 0 00-.379-.524c-.171-.135-.386-.192-.645-.173-.386.028-.699.168-.942.42-.236.245-.375.626-.417 1.144zm6.906 2.961a2.128 2.128 0 01-1.192-.253c-.362-.208-.664-.533-.904-.977-.24-.45-.386-1.027-.438-1.732a7.242 7.242 0 01.058-1.659 3.87 3.87 0 01.491-1.37 2.29 2.29 0 011.007-.896c.161-.079.327-.138.498-.177.171-.046.342-.085.513-.118.178-.04.351-.089.521-.149.168-.066.294-.132.376-.198.089-.066.154-.175.197-.325l.357.084a7.51 7.51 0 01-.099.559.941.941 0 01-.201.406c-.092.113-.251.219-.478.315a3.666 3.666 0 01-.539.18c-.183.047-.361.091-.531.13a3.067 3.067 0 00-.492.136c-.494.19-.841.517-1.041.979-.193.456-.266.969-.217 1.541l.07-.006c.124-.403.333-.733.629-.988.302-.257.695-.403 1.181-.438a2.34 2.34 0 011.147.186c.345.148.626.388.845.72.224.324.355.736.391 1.234.039.532-.033 1.006-.216 1.42a2.308 2.308 0 01-.779.99 2.242 2.242 0 01-1.154.406zm.012-.382c.326-.024.578-.136.758-.337.185-.207.309-.467.373-.779a3.72 3.72 0 00-.168-2.013 1.906 1.906 0 00-.52-.804c-.223-.204-.503-.294-.842-.269-.3.022-.539.13-.719.323a1.703 1.703 0 00-.386.741c-.072.293-.096.605-.072.938.036.478.119.887.251 1.225.131.331.307.582.527.753.226.17.492.244.798.222zm5.563-.019a2.61 2.61 0 01-1.258-.208 2.37 2.37 0 01-.963-.811c-.247-.37-.391-.824-.431-1.362a2.772 2.772 0 01.116-1.022c.102-.335.257-.64.464-.916.213-.283.473-.513.781-.689a2.424 2.424 0 011.04-.308 2.53 2.53 0 01.98.099c.288.092.515.226.681.401a.94.94 0 01.275.591.62.62 0 01-.092.388c-.073.106-.185.164-.338.175-.166.019-.289-.022-.37-.123a.604.604 0 01-.122-.292.688.688 0 01.015-.201.46.46 0 01.105-.209.594.594 0 00-.305-.328 1.096 1.096 0 00-.43-.119 1.943 1.943 0 00-.352-.014c-.452.033-.82.244-1.106.633-.279.381-.394.918-.343 1.609.033.446.132.836.297 1.172.172.335.395.592.669.773.273.174.579.248.918.223a1.77 1.77 0 00.88-.315 2 2 0 00.623-.658l.274.18a2.292 2.292 0 01-.578.725 2.595 2.595 0 01-1.43.606zm2.763-.363l-.022-.3c.206-.015.346-.075.418-.181a.8.8 0 00.108-.439 6.018 6.018 0 00-.017-.64l-.168-2.415-.025-.349a3.168 3.168 0 01.015-.332l-.317.044a5.07 5.07 0 00-.309.032l-.03-.408 2.035-.15.022.299c-.2.015-.339.078-.417.191-.073.106-.109.252-.108.439-.001.181.008.391.026.63l.038.659.389-.029 1.123-1.366c.105-.121.2-.228.287-.322.086-.1.174-.183.263-.25l-.676.08-.03-.399 1.815-.133.022.299a1.408 1.408 0 00-.622.266 3.619 3.619 0 00-.508.449c-.149.164-.278.314-.388.449l-.718.875c.137.051.256.119.356.205.1.086.201.182.302.288l.775.856c.036.037.098.11.186.217.095.106.204.222.327.347.129.124.26.228.394.312a.66.66 0 00.379.112l.022.299-.908.067c-.186.014-.369-.07-.549-.25a17.264 17.264 0 01-.577-.609l-.516-.614a9.75 9.75 0 00-.407-.492 2.349 2.349 0 00-.315-.317l-.397.049.091 1.367c.009.133.015.253.016.36a1.94 1.94 0 01-.006.321c.106-.014.208-.025.308-.033l.318-.043.03.409-2.035.15zm7.874-.42a2.537 2.537 0 01-1.29-.226 2.498 2.498 0 01-.974-.83 2.622 2.622 0 01-.426-1.293 3.003 3.003 0 01.225-1.44c.188-.435.463-.786.825-1.053a2.29 2.29 0 011.249-.463c.465-.035.896.047 1.291.246.396.191.72.468.974.83.254.363.399.786.435 1.272.037.512-.041.989-.236 1.431a2.606 2.606 0 01-.824 1.063 2.293 2.293 0 01-1.249.463zm.05-.404c.352-.026.624-.147.816-.361a1.67 1.67 0 00.381-.811 3.57 3.57 0 00.066-1.017 4.271 4.271 0 00-.155-.871 2.79 2.79 0 00-.317-.769 1.535 1.535 0 00-.511-.534 1.095 1.095 0 00-.693-.159c-.346.025-.621.146-.826.361a1.798 1.798 0 00-.431.814 3.442 3.442 0 00-.074 1.038c.03.413.116.801.256 1.165.14.357.335.644.585.859.249.216.551.31.903.285zm5.724-.021a2.478 2.478 0 01-1.271-.227 2.37 2.37 0 01-.935-.854c-.242-.383-.383-.844-.422-1.382a2.834 2.834 0 01.213-1.33c.182-.421.454-.768.815-1.042.361-.281.79-.44 1.289-.476.279-.021.542.007.788.082.252.068.478.189.678.361.2.166.363.385.49.656.126.265.203.583.231.956l-3.507.318c.038.505.124.947.258 1.325.141.37.343.653.604.848.261.188.585.267.97.239.207-.015.413-.067.621-.156.214-.089.409-.204.586-.344.177-.14.316-.291.418-.452l.254.182a2.244 2.244 0 01-.599.716 2.73 2.73 0 01-.752.416c-.26.093-.503.148-.729.164zm-1.632-3.359l2.544-.187a2.154 2.154 0 00-.161-.68 1.133 1.133 0 00-.379-.524c-.171-.134-.385-.192-.645-.173-.385.028-.699.168-.941.42-.236.245-.375.626-.418 1.144zm7.231 2.787l-.022-.3c.207-.015.346-.075.418-.181a.8.8 0 00.108-.439 5.764 5.764 0 00-.017-.64l-.177-2.414-.026-.349a2.924 2.924 0 01.016-.332l-.627.076-.03-.409 2.045-.15.022.299c-.206.015-.349.079-.427.192-.073.105-.109.252-.108.439 0 .18.005.391.016.63l.178 2.414c.01.133.015.253.016.36.008.099.005.207-.006.321l1.305-.116c.205-.022.345-.076.419-.161.073-.093.111-.222.112-.39a6.712 6.712 0 00-.005-.611l-.178-2.413-.025-.349a2.907 2.907 0 01.015-.332l-.626.076-.03-.409 2.034-.15.023.299c-.2.015-.339.079-.418.191-.072.106-.111.253-.118.44 0 .181.006.391.017.631l.177 2.413c.01.133.016.253.017.36.007.1.008.207.003.321l1.216-.11c.205-.022.345-.075.419-.161.073-.092.111-.222.112-.389a7.118 7.118 0 00-.005-.612l-.178-2.413-.026-.349a2.913 2.913 0 01.016-.332l-.626.076-.03-.409 2.034-.15.022.299c-.199.015-.338.079-.417.192-.072.105-.108.252-.108.439 0 .18.006.39.017.63l.177 2.414c.003.133.006.253.007.36.007.1.005.207-.007.322l.626-.077.031.409-7.381.544zm10.764-.632a2.548 2.548 0 01-1.29-.226 2.516 2.516 0 01-.974-.831c-.248-.37-.39-.8-.426-1.292a3.018 3.018 0 01.225-1.441 2.54 2.54 0 01.825-1.053 2.3 2.3 0 011.249-.463c.466-.034.896.048 1.292.246a2.49 2.49 0 011.408 2.102 2.95 2.95 0 01-.236 1.431c-.188.435-.463.79-.824 1.064a2.308 2.308 0 01-1.249.463zm.05-.405c.353-.026.625-.146.816-.361.191-.215.319-.485.382-.81a3.61 3.61 0 00.065-1.018 4.282 4.282 0 00-.154-.871 2.836 2.836 0 00-.318-.769 1.541 1.541 0 00-.51-.534 1.1 1.1 0 00-.694-.159c-.346.025-.621.146-.825.362a1.79 1.79 0 00-.432.813 3.446 3.446 0 00-.074 1.039c.03.412.116.8.256 1.164.14.357.335.644.585.859.25.216.551.311.903.285zm5.744-.022a2.627 2.627 0 01-1.259-.208 2.376 2.376 0 01-.962-.812c-.248-.369-.392-.823-.431-1.362a2.766 2.766 0 01.115-1.021c.102-.335.257-.641.464-.916a2.56 2.56 0 01.782-.69 2.415 2.415 0 011.04-.307c.372-.027.699.005.98.098.287.093.514.227.681.401a.94.94 0 01.274.592.616.616 0 01-.092.388c-.072.105-.185.164-.338.175-.165.019-.289-.022-.37-.123a.615.615 0 01-.121-.292.694.694 0 01.015-.202.438.438 0 01.105-.208.594.594 0 00-.305-.328 1.096 1.096 0 00-.43-.119 1.948 1.948 0 00-.352-.014c-.452.033-.821.244-1.107.633-.279.381-.393.918-.342 1.609.033.446.131.836.296 1.171.172.335.395.593.669.773.274.174.58.249.919.224a1.77 1.77 0 00.879-.316c.274-.187.482-.406.624-.657l.274.18a2.304 2.304 0 01-.579.724 2.52 2.52 0 01-.72.434 2.387 2.387 0 01-.709.173zm5.259-.387a2.629 2.629 0 01-1.259-.208 2.383 2.383 0 01-.962-.812c-.248-.369-.391-.823-.431-1.362a2.785 2.785 0 01.115-1.021 2.97 2.97 0 01.464-.917 2.57 2.57 0 01.782-.689 2.42 2.42 0 011.04-.307c.372-.027.699.005.98.098.287.093.515.226.681.401a.938.938 0 01.274.592.615.615 0 01-.091.388.425.425 0 01-.338.175c-.166.019-.29-.022-.37-.123a.608.608 0 01-.122-.292.692.692 0 01.015-.202.457.457 0 01.105-.208.6.6 0 00-.305-.329 1.094 1.094 0 00-.43-.118 1.959 1.959 0 00-.352-.015c-.452.034-.821.245-1.106.633-.28.382-.394.918-.343 1.61.033.445.132.836.297 1.171.171.335.394.593.668.773.274.174.58.248.919.223.313-.023.606-.128.879-.315.274-.187.482-.406.624-.658l.274.181a2.29 2.29 0 01-.579.724 2.543 2.543 0 01-.72.434 2.38 2.38 0 01-.709.173zm5.239-.386a2.476 2.476 0 01-1.27-.227 2.364 2.364 0 01-.935-.854c-.242-.383-.383-.844-.423-1.383a2.858 2.858 0 01.213-1.329c.183-.421.455-.769.816-1.043.36-.28.79-.439 1.289-.475.279-.021.541.006.788.082.252.068.478.189.678.361.199.166.363.385.489.656.127.265.204.583.231.956l-3.506.318c.037.505.123.947.258 1.325.141.37.342.653.604.847.261.188.585.268.97.24.206-.015.413-.067.62-.156.214-.089.41-.204.587-.344.177-.14.316-.291.418-.452l.254.182a2.244 2.244 0 01-.599.716 2.745 2.745 0 01-.752.416c-.26.093-.504.147-.73.164zm-1.631-3.359l2.543-.187a2.153 2.153 0 00-.16-.68 1.14 1.14 0 00-.379-.524c-.171-.135-.386-.192-.645-.173-.386.028-.699.168-.942.42-.236.245-.375.626-.417 1.144zM187.952 147v-.33c.253-.013.427-.07.52-.17a.674.674 0 00.15-.43c.013-.187.02-.397.02-.63v-4.32c0-.133.003-.26.01-.38.007-.127.013-.24.02-.34l-.36.02-.36.02V140h2.25v.33c-.247.007-.42.063-.52.17a.715.715 0 00-.16.43c-.007.18-.01.39-.01.63v1.64h.75l1.25-1.97a5.97 5.97 0 01.32-.44c.127-.16.257-.293.39-.4-.1.007-.203.01-.31.01-.1 0-.2.003-.3.01V140h2.15v.33c-.28.02-.53.067-.75.14a1.72 1.72 0 00-.63.39c-.2.18-.413.453-.64.82l-.98 1.56c.193.113.35.247.47.4.12.147.24.297.36.45l1.12 1.49c.253.333.46.58.62.74.167.153.313.25.44.29.133.04.27.06.41.06v.33h-1.22c-.067 0-.157-.047-.27-.14a3.588 3.588 0 01-.35-.36 30.555 30.555 0 01-.39-.48l-1.2-1.62a9.682 9.682 0 00-.38-.47 1.552 1.552 0 00-.37-.34l-.49.01v2.21c0 .18-.003.337-.01.47a2.2 2.2 0 01-.02.32l.36-.02.36-.02v.44h-2.25zm9.756 0a3.218 3.218 0 01-.04-.3 3.375 3.375 0 00-.03-.27 2.812 2.812 0 01-.74.54c-.26.127-.536.19-.83.19-.506 0-.883-.113-1.13-.34a1.129 1.129 0 01-.37-.85c0-.307.094-.57.28-.79.194-.227.44-.41.74-.55.307-.147.637-.253.99-.32.36-.073.707-.107 1.04-.1v-.62c0-.233-.02-.453-.06-.66a.952.952 0 00-.26-.51c-.133-.133-.346-.203-.64-.21a1.507 1.507 0 00-.6.11.807.807 0 00-.44.41.346.346 0 01.1.19c.02.067.03.13.03.19 0 .08-.033.173-.1.28-.066.1-.183.147-.35.14a.384.384 0 01-.32-.14.579.579 0 01-.11-.35c0-.227.084-.43.25-.61.174-.18.41-.323.71-.43.3-.107.64-.16 1.02-.16.56 0 .974.15 1.24.45.267.293.397.76.39 1.4v.75c0 .247-.003.497-.01.75v.75a7.461 7.461 0 01-.04.68l.35-.02.36-.02v.42h-1.43zm-.09-2.45a4.164 4.164 0 00-.72.09c-.246.047-.476.12-.69.22a1.46 1.46 0 00-.51.4.886.886 0 00-.18.59c.014.247.094.433.24.56.154.12.334.18.54.18.274 0 .51-.05.71-.15.207-.107.41-.253.61-.44a2.92 2.92 0 01-.01-.24v-.59c.007-.18.01-.387.01-.62zm3.207 2.45v-.3c.206 0 .35-.05.43-.15a.81.81 0 00.14-.43c.02-.187.03-.4.03-.64v-2.75a2.87 2.87 0 01.04-.31h-.71c-.267 0-.464.077-.59.23-.12.153-.18.44-.18.86h-.38l.04-1.51h4.42l.05 1.51h-.38c-.007-.42-.07-.707-.19-.86-.114-.153-.327-.23-.64-.23h-.62v3.52c0 .133-.004.253-.01.36 0 .1-.01.207-.03.32l.63-.03v.41h-2.05zm3.951 0v-.3c.246-.007.406-.083.48-.23.08-.153.12-.36.12-.62v-3.14c.006-.107.02-.217.04-.33l-.32.02c-.1 0-.204.003-.31.01V142h2.04v.3c-.2 0-.344.047-.43.14a.609.609 0 00-.14.35 3.72 3.72 0 00-.02.39v.92l.51-.02c.54-.013.963.047 1.27.18.313.127.533.303.66.53.133.22.2.463.2.73 0 .32-.077.59-.23.81-.147.22-.344.387-.59.5-.247.113-.517.17-.81.17h-2.47zm1.44-.41c.113.007.223.01.33.01h.33c.313 0 .576-.08.79-.24.22-.16.33-.433.33-.82 0-.34-.1-.603-.3-.79-.194-.193-.467-.29-.82-.29-.14 0-.254.003-.34.01a4.88 4.88 0 00-.3.01v1.55c0 .127-.004.237-.01.33 0 .093-.004.17-.01.23zm3.04.41v-.3c.206 0 .35-.05.43-.15a.81.81 0 00.14-.43c.02-.187.03-.4.03-.64l.01-2.42v-.35c.006-.107.02-.217.04-.33l-.32.02c-.1 0-.204.003-.31.01V142h2.04v.3c-.2 0-.344.053-.43.16-.08.1-.127.243-.14.43-.014.18-.02.39-.02.63l-.02 2.42c0 .133-.004.253-.01.36 0 .1-.01.207-.03.32.106-.007.21-.01.31-.01l.32-.02v.41h-2.04zm5.002-4.7c-.207 0-.35.053-.43.16-.08.1-.127.243-.14.43-.014.18-.024.39-.03.63l-.01 2.42c0 .133-.004.253-.01.36 0 .1-.01.207-.03.32l.63-.03v.41h-2.04v-.3c.206 0 .35-.05.43-.15a.81.81 0 00.14-.43c.02-.187.03-.4.03-.64v-2.77c.006-.107.02-.217.04-.33l-.63.03V142h2.05v.3zm3.28 0c-.2 0-.344.053-.43.16-.08.1-.127.243-.14.43-.007.18-.014.39-.02.63l-.01 2.42c0 .133-.004.253-.01.36 0 .1-.01.207-.03.32l.63-.03v.41h-2.04v-.3c.206 0 .35-.05.43-.15a.81.81 0 00.14-.43c.013-.187.02-.4.02-.64l.01-2.42v-.35c.006-.107.02-.217.04-.33l-.63.03V142h2.04v.3zm-4.24 1.94h3.14v.39l-3.14.04v-.43zm5.12 2.76v-.3c.247-.007.407-.083.48-.23.08-.153.12-.36.12-.62v-3.14c.007-.107.02-.217.04-.33l-.32.02c-.1 0-.203.003-.31.01V142h2.04v.3c-.2 0-.343.047-.43.14a.616.616 0 00-.14.35c-.013.133-.02.263-.02.39v.92l.62-.02c.54-.013.964.047 1.27.18.314.127.534.303.66.53.134.22.2.463.2.73 0 .32-.076.59-.23.81-.146.22-.343.387-.59.5-.246.113-.516.17-.81.17h-2.58zm1.44-.41c.074.007.164.01.27.01h.51c.307 0 .567-.08.78-.24.22-.16.33-.433.33-.82 0-.34-.1-.603-.3-.79-.193-.193-.463-.29-.81-.29-.146 0-.283.003-.41.01-.12 0-.236.003-.35.01v1.55c0 .127-.003.237-.01.33 0 .093-.003.17-.01.23zM38.911 0c5.661 0 10.255 4.588 10.255 10.255 0 3.797-1.277 4.98-8.079 15.885-1.002 1.607-3.347 1.609-4.35 0-6.798-10.9-8.08-12.087-8.08-15.885C28.658 4.595 33.246 0 38.912 0zm0 24.782c6.881-11.033 7.692-11.613 7.692-14.527a7.69 7.69 0 00-7.692-7.691 7.69 7.69 0 00-7.69 7.69c0 2.927.885 3.616 7.69 14.528zM34.64 10.255a4.273 4.273 0 118.546 0 4.273 4.273 0 01-8.546 0zm385.623 98.275c.354 0 .641.287.641.641v2.136a.641.641 0 01-.641.641h-2.136a.641.641 0 01-.641-.641v-2.136c0-.354.287-.641.641-.641h2.136zm0-10.255a.64.64 0 01.641.64v2.137a.641.641 0 01-.641.641h-2.136a.641.641 0 01-.641-.641v-2.136c0-.354.287-.641.641-.641h2.136zm-5.127 0a.64.64 0 01.641.64v2.137a.641.641 0 01-.641.641H413a.641.641 0 01-.641-.641v-2.136c0-.354.287-.641.641-.641h2.136zm0 10.255c.354 0 .641.287.641.641v2.136a.641.641 0 01-.641.641H413a.641.641 0 01-.641-.641v-2.136c0-.354.287-.641.641-.641h2.136zm0-5.128c.354 0 .641.287.641.641v2.137a.642.642 0 01-.641.641H413a.642.642 0 01-.641-.641v-2.137c0-.354.287-.641.641-.641h2.136zm5.127 0c.354 0 .641.287.641.641v2.137a.642.642 0 01-.641.641h-2.136a.642.642 0 01-.641-.641v-2.137c0-.354.287-.641.641-.641h2.136zm15.383 5.128a.64.64 0 01.64.641v2.136a.64.64 0 01-.64.641h-2.137a.641.641 0 01-.641-.641v-2.136c0-.354.287-.641.641-.641h2.137zm0-5.128a.64.64 0 01.64.641v2.137a.641.641 0 01-.64.641h-2.137a.642.642 0 01-.641-.641v-2.137c0-.354.287-.641.641-.641h2.137zm4.486-5.127c.708 0 1.282.573 1.282 1.282v14.955a.854.854 0 01-.855.854h-.854a.854.854 0 01-.855-.854v-13.673h-6.836V90.584h-8.546v5.127h-13.673v18.801a.854.854 0 01-.855.854h-.854a.855.855 0 01-.855-.854V94.429c0-.708.574-1.282 1.282-1.282h2.136v-4.272c0-.472.382-.855.855-.855h.855c.472 0 .854.383.854.855v4.272h3.418v-4.272c0-.472.382-.855.855-.855h.855c.472 0 .854.383.854.855v4.272h1.709v-3.845c0-.709.574-1.282 1.282-1.282h11.11a1.28 1.28 0 011.281 1.282v8.973h5.555zm-11.323-5.128c.354 0 .641.288.641.641v2.137a.64.64 0 01-.641.64h-2.136a.641.641 0 01-.641-.64v-2.137a.64.64 0 01.641-.64h2.136zm0 10.255c.354 0 .641.287.641.641v2.137a.642.642 0 01-.641.641h-2.136a.642.642 0 01-.641-.641v-2.137c0-.354.287-.641.641-.641h2.136zm0-5.127a.64.64 0 01.641.64v2.137a.641.641 0 01-.641.641h-2.136a.641.641 0 01-.641-.641v-2.136c0-.354.287-.641.641-.641h2.136zm-24.046 24.293c-.087-.815-.373-1.448-.858-1.898-.477-.451-1.092-.676-1.846-.676-.46 0-.893.099-1.3.299-.399.19-.75.468-1.053.832a4.04 4.04 0 00-.715 1.313c-.174.511-.26 1.087-.26 1.729 0 .814.156 1.534.468 2.158.312.624.732 1.109 1.261 1.456.528.346 1.113.52 1.755.52a3.95 3.95 0 001.664-.377c.546-.26.992-.633 1.339-1.118l.338.273c-.373.511-.776.905-1.209 1.183a4.05 4.05 0 01-1.3.559 4.953 4.953 0 01-1.17.156c-.65 0-1.248-.117-1.794-.351a4.29 4.29 0 01-1.404-.975 4.651 4.651 0 01-.91-1.469 5.216 5.216 0 01-.312-1.82c0-.616.091-1.214.273-1.794a4.99 4.99 0 01.845-1.573c.372-.468.84-.841 1.404-1.118.572-.278 1.235-.416 1.989-.416.485 0 .944.065 1.378.195.433.13.849.329 1.248.598l-.065-.702h.702v3.016h-.468zm1.601 6.201v-.39c.278.008.464-.065.559-.221.096-.165.161-.382.195-.65l.481-4.03.052-.364c.018-.122.031-.239.039-.351l-.793.039v-.533h1.729l1.716 4.017.208.494.208.494a14.463 14.463 0 00.377-.923l1.677-4.082h1.534v.39c-.242 0-.424.069-.546.208-.121.138-.156.381-.104.728l.598 3.952c.026.251.026.489 0 .715l.845-.026v.533h-2.626v-.39c.269.008.464-.074.585-.247.13-.182.165-.468.104-.858l-.507-3.341-1.989 4.836h-.52l-1.547-3.77c-.078-.2-.16-.399-.247-.598l-.234-.598-.078.598c-.017.199-.039.398-.065.598l-.312 2.509c-.008.112-.03.242-.065.39-.026.138-.056.26-.091.364l.819-.026v.533h-2.002zm12.978.208a3.317 3.317 0 01-1.651-.416 3.26 3.26 0 01-1.183-1.17c-.286-.503-.429-1.075-.429-1.716 0-.685.143-1.3.429-1.846a3.297 3.297 0 011.17-1.287 2.988 2.988 0 011.664-.481c.607 0 1.157.147 1.651.442a3.26 3.26 0 011.183 1.17c.295.494.442 1.057.442 1.69 0 .667-.147 1.278-.442 1.833a3.398 3.398 0 01-1.17 1.3 2.996 2.996 0 01-1.664.481zm.104-.52c.459 0 .823-.13 1.092-.39.269-.26.459-.598.572-1.014a4.68 4.68 0 00.182-1.313c0-.39-.039-.772-.117-1.144a3.646 3.646 0 00-.338-1.027 1.998 1.998 0 00-.611-.741 1.431 1.431 0 00-.884-.273c-.451 0-.819.13-1.105.39a2.34 2.34 0 00-.637 1.014c-.13.416-.195.862-.195 1.339 0 .537.074 1.048.221 1.534.147.476.373.866.676 1.17.303.303.685.455 1.144.455zm4.771.455c-.312 0-.555-.061-.728-.182a.615.615 0 01-.247-.507.73.73 0 01.143-.468c.095-.122.238-.187.429-.195.208 0 .355.052.442.156.095.104.143.208.143.312 0 .026-.005.06-.013.104a.312.312 0 01-.013.091.425.425 0 00.117.026c.173 0 .355-.174.546-.52.19-.347.364-.919.52-1.716.164-.806.277-1.885.338-3.237l-1.222.052v-.559h5.603v.39c-.26 0-.447.069-.559.208-.104.13-.165.316-.182.559-.018.234-.026.507-.026.819v3.146l-.026.468a4 4 0 01-.052.416l.819-.039v.533h-2.652v-.39c.268 0 .455-.065.559-.195.104-.139.164-.325.182-.559.026-.243.043-.52.052-.832v-3.601c.008-.139.026-.282.052-.429h-1.144c-.295 0-.499.095-.611.286-.104.182-.156.429-.156.741a18.73 18.73 0 01-.195 1.833 8.772 8.772 0 01-.39 1.651c-.174.494-.403.892-.689 1.196a1.372 1.372 0 01-1.04.442zm10.345.065a3.22 3.22 0 01-1.625-.416 3.067 3.067 0 01-1.131-1.196c-.277-.52-.416-1.131-.416-1.833 0-.607.134-1.175.403-1.703a3.335 3.335 0 011.157-1.274c.494-.33 1.066-.494 1.716-.494.364 0 .702.06 1.014.182.321.112.602.29.845.533.243.234.433.533.572.897.139.355.208.775.208 1.261l-4.576.078c0 .658.069 1.239.208 1.742.147.494.381.879.702 1.157.321.268.732.403 1.235.403.269 0 .542-.048.819-.143.286-.096.55-.226.793-.39.243-.165.438-.347.585-.546l.312.26a2.909 2.909 0 01-.845.871 3.66 3.66 0 01-1.976.611zm-1.794-4.511h3.315c0-.312-.048-.611-.143-.897a1.48 1.48 0 00-.442-.715c-.208-.191-.481-.286-.819-.286-.503 0-.923.151-1.261.455-.329.294-.546.775-.65 1.443zm8.372-1.807c-.269 0-.455.069-.559.208-.104.13-.165.316-.182.559a16.28 16.28 0 00-.039.819l-.013 3.146c0 .173-.005.329-.013.468 0 .13-.013.268-.039.416l.819-.039v.533h-2.652v-.39c.268 0 .455-.065.559-.195.104-.139.164-.325.182-.559.026-.243.039-.52.039-.832v-3.601c.008-.139.026-.282.052-.429l-.819.039v-.533h2.665v.39zm4.264 0c-.26 0-.447.069-.559.208-.104.13-.165.316-.182.559a64.09 64.09 0 00-.026.819l-.013 3.146c0 .173-.005.329-.013.468 0 .13-.013.268-.039.416l.819-.039v.533h-2.652v-.39c.268 0 .455-.065.559-.195.104-.139.164-.325.182-.559.017-.243.026-.52.026-.832l.013-3.146v-.455c.008-.139.026-.282.052-.429l-.819.039v-.533h2.652v.39zm-5.512 2.522h4.082v.507l-4.082.052v-.559zm9.829 3.796c-.581 0-1.118-.13-1.612-.39a3.08 3.08 0 01-1.17-1.144c-.286-.503-.429-1.105-.429-1.807 0-.451.082-.889.247-1.313.164-.425.394-.806.689-1.144a3.32 3.32 0 011.079-.819c.416-.2.875-.299 1.378-.299.485 0 .905.073 1.261.221.364.147.645.342.845.585.199.242.299.507.299.793 0 .19-.052.355-.156.494-.104.13-.256.195-.455.195-.217.008-.373-.057-.468-.195a.795.795 0 01-.13-.39c0-.087.013-.174.039-.26a.579.579 0 01.156-.26.777.777 0 00-.364-.455 1.436 1.436 0 00-.546-.195 2.488 2.488 0 00-.455-.052c-.59 0-1.088.238-1.495.715-.399.468-.598 1.152-.598 2.054 0 .58.091 1.096.273 1.547.19.45.455.806.793 1.066a1.91 1.91 0 001.17.377c.407 0 .797-.109 1.17-.325a2.59 2.59 0 00.871-.793l.338.26a3.003 3.003 0 01-.819.884c-.312.225-.637.39-.975.494-.33.104-.642.156-.936.156zm3.617-.208v-.39c.268 0 .455-.065.559-.195.104-.139.164-.325.182-.559.026-.243.039-.52.039-.832l.013-3.146v-.455c.008-.139.026-.282.052-.429a54.61 54.61 0 00-.416.026c-.13 0-.265.004-.403.013v-.533h2.652v.39c-.26 0-.447.069-.559.208-.104.13-.165.316-.182.559-.018.234-.026.507-.026.819l-.013.858h.507l1.586-1.664c.147-.148.281-.278.403-.39.121-.122.242-.221.364-.299l-.884.039v-.52h2.366v.39a1.833 1.833 0 00-.832.286 4.569 4.569 0 00-.702.533c-.208.199-.39.381-.546.546l-1.014 1.066c.173.078.32.177.442.299.121.121.242.255.364.403l.923 1.183c.043.052.117.151.221.299.112.147.242.307.39.481.156.173.316.32.481.442.173.121.333.182.481.182v.39h-1.183c-.243 0-.473-.126-.689-.377a21.336 21.336 0 01-.689-.845l-.611-.845c-.174-.26-.334-.486-.481-.676a3.103 3.103 0 00-.377-.442l-.52.026-.013 1.781c0 .173-.005.329-.013.468 0 .13-.013.268-.039.416.138-.009.273-.013.403-.013l.416-.026v.533h-2.652z" fill="#000"/></svg>