<svg width="72" height="73" fill="none" xmlns="http://www.w3.org/2000/svg"><path d="M64.606 23.977c.913 7.946.815 14.542-.287 15.121-1.13.627-1.825-.606-2.68-4.553l-.848-4.072-1.34 1.657c-7.98 9.721-16.53 15.338-27.062 17.957-6.293 1.483-10.211 1.844-16.159 1.288C8.874 50.71-.948 46.895.49 45.293c.4-.472 2.618-.215 6.95.814 3.548.834 8.093 1.603 10.195 1.729 10.784.598 21.035-2.311 29.417-8.41 3.116-2.294 8.617-7.945 10.002-10.344l.942-1.63-3.983 1.026c-2.195.588-4.415.777-4.943.473-1.103-.637-1.612-2.082-1.058-3.042.582-1.007 14.507-5.185 15.466-4.63.48.276.976 1.522 1.129 2.698z" fill="#121D1F"/></svg>