<svg width="1164" height="909" fill="none" xmlns="http://www.w3.org/2000/svg"><g filter="url(#filter0_d_2_755)"><path d="M579.5 76l.074.13h.001l.004-.002.017-.01.07-.039.273-.151a382.112 382.112 0 014.996-2.707 464.406 464.406 0 0113.479-6.892c10.823-5.31 24.438-11.43 35.628-14.685 27.465-7.99 60.185-5.246 96.811.13 9.276 1.36 18.802 2.89 28.555 4.457 28.747 4.617 59.47 9.552 91.583 11.419 26.828 1.56 59.303.732 91.396-.57 9.676-.394 19.317-.83 28.758-1.257 21.876-.99 42.675-1.931 60.355-2.173h.03l.03-.012c20.56-8.948 40.37-10.55 55.85-7.502 6.76 9.24 13.64 13.373 18.85 15.193 2.61.911 4.8 1.242 6.33 1.344.77.051 1.37.045 1.79.027.21-.01.37-.022.47-.033l16.5 718.189-553.843 20.494h-.013L31.148 786.357 22.652 94.641 62.01 92.15l.028-.002.025-.012 27-12.5.052-.024.022-.052 6.958-15.902.12.01.673.05c.592.042 1.47.102 2.61.17 2.283.139 5.62.313 9.841.457 8.44.29 20.412.461 34.541-.008 28.256-.937 65.146-4.438 99.663-14.693 2.241-.666 4.893-1.476 7.91-2.397 28.448-8.684 89.316-27.266 144.051-28.597 60.223-1.464 106.2 12.904 137.119 27.637 15.46 7.366 27.155 14.823 34.985 20.438 3.915 2.808 6.863 5.155 8.832 6.8a88.426 88.426 0 012.217 1.909c.247.22.432.39.555.503l.086.079.053.05.034.032.009.008.002.002.104-.108zm0 0l.073.13-.096.055-.08-.076.103-.11z" fill="#F7F4DC" stroke="red" stroke-width=".3"/><ellipse cx="50.5" cy="376" rx="7.5" ry="82" fill="#E5B14C"/><path d="M1120 529c0 33.689-5.15 61-11.5 61-3.28 0-9.4 6.203-11.5-5.5-1.96-10.938 0-39.225 0-55.5 0-33.689 5.15-61 11.5-61s11.5 27.311 11.5 61z" fill="#13A874"/><ellipse cx="63.5" cy="233.5" rx="9.5" ry="57.5" fill="#15A775"/><path d="M1117.5 69.5l23 4 10.5 29 4 46-10.5 642.5-13 7.5-16 5.5-106.5 5.5-107.25-1.75L688 811.5l-9.5-8L648 813l-35-1.5s-2.001 26.5-72.501 1.5c-1.425-.505-122.147 3.046-243.999.5-132 4.5-250.849-11.329-251-13-.04-.437-22.5-11.5-24-20.671C3 681 6.705 104.539 11 97.5c1.56-2.557 25-21 28 8 .5 90.5 1.861 301.473 7.5 381 1.23 17.344-1.789 259.668-1 259.5 3.486-.742 7.068 34.086 13 33.829 39.5 5 163.5 15.5 198.5 9.5C372 776.5 421.402 775.65 426 774.5c86-3.5 114.499 11 114.499 11H678.5l223.25-2 212.75-3.5v-94.5l2.5-194-1.5-413 2-9z" fill="#54868F"/><path d="M652.5 783l9-37.5L679 747l-3 33 6 54.5 7.5 24-15 32-22-107.5zM693 44.122c0 4.695-13.067 3.047-35.681-16.252-5.841-3.067-13.912-4.579-21.61-8.634-8.645.993-26.636 14.728-29.651 36.567C590 76.787 577.99 84.789 600.028 20.76c0-5.61 30.128-16.76 54.275-16.76S693 38.512 693 44.122z" fill="#E5B14C"/><path d="M632.354 2.366c-17.906 4.227-27.605 9.945-36.06 21.383-8.456 11.935-15.17 33.069-13.181 42.517 1.741 8.951-.995 8.702-11.688-.497-4.725-3.978-9.948-7.46-11.689-7.46-1.492 0-3.233-.745-3.73-1.988-.249-.995-7.958-5.222-16.911-9.449-51.23-24.864-65.157-28.593-114.398-30.085-38.547-1.243-56.204 0-87.041 6.465-10.196 2.237-16.165 3.48-44.764 10.194-7.71 1.74-44.019 10.691-69.634 17.404-47.251 11.935-64.659 13.676-97.486 10.443-31.087-2.983-34.32-1.989-34.32 9.697 0 4.724-1.243 7.21-3.73 7.21-1.99 0-7.71 2.736-12.683 6.217-8.704 5.967-10.197 6.216-33.325 4.724C4.162 86.654 7.892 70.493 6.65 240.065c-1.74 260.822 0 424.675 5.471 482.36 2.736 31.08 5.969 53.954 8.207 58.43 4.476 8.951 15.916 19.642 22.63 21.631 2.736.746 11.192 3.233 18.652 5.222 17.658 4.973 141.257 12.432 166.623 10.194 10.196-.994 83.56-1.74 162.644-1.492 113.651 0 144.489.746 146.478 3.233 1.741 2.486 2.487 2.486 3.482.248.746-1.989 2.735-2.486 5.222-1.243 13.181 6.465 32.827 8.702 51.977 5.47 10.693-1.492 20.89-4.227 22.63-5.719 1.99-1.491 9.451-2.735 16.911-2.735 10.694-.248 13.43-.994 12.684-3.978-.498-2.735-2.985-3.481-9.202-2.735-23.626 2.735-23.626 2.735-24.372-10.443l-.746-11.686h8.207c4.477 0 12.186 1.243 17.16 2.487 8.704 2.486 9.201 3.232 12.186 18.15 1.74 8.454 6.217 27.599 9.947 42.766 3.731 14.919 7.71 31.577 8.456 36.55 2.487 13.427 7.46 11.686 11.439-3.729 1.741-6.962 4.726-15.416 6.715-18.151 2.984-4.476 2.984-6.962-.249-16.162-1.989-5.967-4.227-15.415-5.222-21.134l-1.492-10.194 33.076-2.238c33.573-2.238 202.185-2.984 240.732-1.243 17.906.994 106.195-2.487 158.415-5.719 17.16-1.243 26.36-5.967 30.09-15.913 1.74-4.227 3.24-74.84 3.98-193.192 1.49-179.766 4.23-329.199 7.96-417.714 1.74-41.523.25-58.928-6.96-91.996-3.98-17.654-8.71-21.135-30.34-21.135-17.41-.248-24.38-2.735-26.61-9.697-2.49-7.459-16.67-9.448-34.32-5.221-17.41 4.475-52.73 8.205-120.37 12.68-41.531 2.736-92.015.746-128.572-5.221-7.461-1.243-21.388-3.48-31.087-5.221-9.45-1.492-22.133-3.73-27.853-4.973-5.72-1.243-13.429-2.238-17.16-2.238-14.921 0-38.298-5.47-38.298-8.95 0-10.941-20.89-32.075-35.563-35.805-5.72-1.492-11.44-2.984-12.932-3.48-1.243-.498-7.958.496-14.921 2.237zm37.552 12.183c10.196 6.713 18.403 17.902 18.403 24.367 0 7.459-8.953 4.973-15.916-3.978-8.953-11.935-19.895-16.66-38.05-16.66-15.418 0-23.376 2.736-31.086 11.19-6.715 6.961-7.709 3.48-1.243-3.73C619.173 5.847 649.762.874 669.906 14.549zM479.409 28.473c8.953 2.735 18.155 6.216 20.393 7.46 2.487 1.491 5.72 2.486 6.963 2.486 6.218 0 54.463 25.858 63.168 33.815l9.201 8.453 14.424-8.702c27.854-17.156 63.416-25.61 96.741-22.626 27.107 2.237 67.892 7.956 99.973 13.675 28.848 5.221 74.856 8.95 111.911 8.95 40.785 0 115.637-4.723 140.507-8.95 8.21-1.243 21.64-2.984 29.85-3.73 14.67-1.492 15.17-1.243 18.15 4.973 3.73 8.454 3.98 70.365.25 112.136-1.49 17.654-2.49 128.298-2.74 273.503 0 245.904-.99 281.708-7.21 287.676-4.48 4.475-25.37 9.697-67.89 17.156-18.902 3.232-108.679 1.74-176.82-2.735-185.274-12.681-177.814-12.681-221.334.746-9.451 2.983-23.626 9.448-30.838 14.421l-13.678 8.951-8.953-8.951c-11.688-11.438-13.678-12.681-28.599-19.891-16.414-7.957-19.895-9.2-37.055-12.681-18.652-3.73-104.947-3.978-129.07 0-9.948 1.492-25.118 3.73-34.071 5.221-8.953 1.244-22.382 3.481-29.843 4.725-7.461 1.243-22.133 3.481-32.33 4.972-26.858 4.227-54.463 10.195-80.824 17.156-14.921 3.979-47.251 9.449-67.892 11.438-25.864 2.486-25.367 3.232-25.367-42.269 0-20.885-1.243-44.009-2.735-51.219-5.223-26.605-3.73-566.152 1.74-606.928l1.493-11.438 32.827 1.243c29.096 1.243 36.06.498 64.908-5.47 17.906-3.73 37.303-7.708 43.521-8.95 6.217-1.244 15.667-3.233 21.138-4.725 5.472-1.492 13.927-3.73 18.652-4.973 4.725-.994 15.916-3.978 24.869-6.216 26.859-6.713 50.733-11.437 73.364-14.67 4.228-.745 25.366-.745 47.251-.248 31.335.746 43.272 2.238 55.955 6.216zm177.317.497c12.931 8.951 15.17 14.421 5.968 14.421-4.725 0-22.631 3.481-45.759 9.2-4.228.995-5.72.249-5.72-2.735 0-5.719 7.212-19.394 12.186-23.123 6.715-5.222 24.62-3.979 33.325 2.237zm-47.998 6.714c-1.243 2.735-2.487 8.702-2.487 13.177 0 6.714-1.492 9.2-7.46 12.681-7.461 4.475-7.461 4.475-7.461-1.243 0-6.713 13.429-29.34 17.408-29.34 1.741 0 1.99 1.492 0 4.725zm494.892 53.208c0 7.21-1.24 14.67-2.48 16.659-1.75 2.486-2.49-1.74-2.49-14.421 0-11.437.99-17.653 2.49-16.659 1.49.746 2.48 7.46 2.48 14.421zm23.63-10.691c4.72 5.221 11.19 6.713 11.19 2.735 0-1.243-1.49-2.984-2.99-3.481-1.99-.995-2.23-1.492-.49-1.492 6.71-.497 11.19 13.427 16.16 49.977 2.24 16.658 2.24 40.279.25 103.185-1.74 44.755-3.48 142.967-4.23 218.305-.74 75.089-1.99 171.312-2.48 213.829-.5 42.518-1 89.013-1.25 103.434v26.605l-10.44 4.973c-20.15 9.199-58.94 11.188-228.549 10.691-92.015-.249-170.601.746-187.512 2.238-20.144 1.74-30.341 1.74-32.081 0-1.741-1.741-1.244-2.487 1.74-2.487 2.239 0 4.228-1.243 4.228-2.735 0-1.492-2.238-2.237-4.725-1.492-3.482.746-5.222-.497-6.217-4.226-2.985-11.189-1.492-11.438 142.499-11.935 179.057-.497 256.647-1.243 276.297-2.735 14.17-1.243 16.41-1.989 17.66-7.211 2.48-8.205 2.23-62.905-.25-79.067-1-7.459-1-27.102.25-43.512 2.48-35.555 5.72-128.546 5.47-156.642-.25-10.94-1-109.402-1.74-218.803-.75-109.401-1.99-200.403-2.74-202.143-1.74-4.725 4.97-3.481 9.95 1.989zM87.97 115.994c-2.237 45.998-1.989 548.498.25 552.227 3.481 5.222 4.973 108.656 1.74 108.656-1.74 0-3.73-2.984-4.725-6.962-2.238-8.454-6.963-185.236-5.968-226.759.994-38.788 1.243-116.612.497-164.102-.746-48.733 1.74-288.919 2.984-292.897.746-1.492 2.487-2.983 3.98-2.983 2.238 0 2.486 8.453 1.243 32.82zm-11.936 73.348c-.25 72.603-.747 90.256-2.239 66.636-2.238-42.269-2.735-161.616-.497-163.605.746-.994 1.99-1.74 2.487-1.74.497 0 .497 44.506.249 98.709zM36.74 96.6c0 2.238-1.74 2.984-4.973 2.238-2.736-.746-4.974 0-4.974 1.492 0 1.491 2.238 2.735 4.974 2.735 4.725 0 4.973 1.74 5.47 25.361.498 27.599 1.742 174.047 1.493 188.468-.497 40.777.249 62.16 3.98 120.59 2.237 36.799 3.73 77.824 2.983 90.754-.746 12.929-1.99 60.17-2.984 105.174-1.74 78.321-1.492 84.786 5.471 132.525 1.99 14.172 5.72 16.658 29.843 18.896 89.777 7.957 178.062 10.194 211.138 5.222 10.943-1.741 32.33-4.227 47.251-5.719 15.17-1.492 35.314-3.978 44.765-5.719 21.884-3.481 106.688-2.984 128.075.995 28.6 4.972 28.6 4.972 27.854 16.161-.498 5.222-1.99 10.692-3.233 12.184-1.741 1.491-58.691 2.486-160.903 2.735-87.042 0-155.68-.746-152.199-1.741 5.72-1.492 5.472-1.74-1.989-1.989-5.72-.249-7.71.746-6.466 2.735 1.243 1.989-8.207 2.238-37.801.995-92.015-3.979-123.848-7.46-115.641-12.432 2.735-1.741 2.735-2.487 0-4.227-5.223-3.233-7.212-2.735-7.212 1.74 0 5.222-9.202 2.238-17.657-5.718-7.212-6.465-16.165-30.832-13.678-36.799.746-1.989.249-6.465-.746-9.448-6.217-16.411-8.207-88.267-7.958-306.324.248-243.666 1.243-333.176 3.979-340.138 2.238-5.47 21.138-6.216 21.138-.746zm29.843 36.55c0 30.831-.746 39.782-2.984 39.036-4.228-1.491-5.72-66.884-1.99-74.094 1.493-2.735 3.233-4.973 3.73-4.973.747 0 1.244 17.902 1.244 40.031zm-18.651-26.853c-.25 4.973-.498 51.468-.995 102.937-.498 63.154-1.492 91.499-2.984 86.526-3.233-10.194-1.741-200.403 1.492-199.409 1.492.498 2.487 4.973 2.487 9.946zm7.958 17.405c.248 15.167-.249 34.561-1.492 42.766-1.741 12.183-2.239 7.956-2.487-24.118-.25-32.323.746-46.744 3.233-46.744 0 0 .497 12.68.746 28.096zm1059.42-22.626c-.75 1.989-1.49 1.243-1.49-1.492-.25-2.735.5-4.227 1.24-3.233.75.746 1 2.984.25 4.725zm-2.24 98.212c-.25 87.272-.5 89.51-2.73 50.971-1.99-35.555-.5-142.222 2.23-142.222.5 0 .75 41.026.5 91.251zm-12.68-70.862c-.75 1.989-1.49 1.243-1.49-1.492-.25-2.735.49-4.227 1.24-3.232.75.746 1 2.983.25 4.724zm1.24 234.715c1 1.492.75 22.129-.74 45.998-1.25 23.87-2.99 61.166-3.98 83.046-.75 21.88-1.74 40.279-2.24 40.777-2.74 2.983-1.74-297.87.99-337.901 1.25-19.394 1.99-1.492 2.99 69.619.74 52.712 1.99 96.969 2.98 98.461zM67.33 204.261c2.735 44.258 2.238 81.802-1.244 78.321-2.984-2.984-9.202-53.955-9.45-76.581 0-12.929 3.979-28.345 7.212-28.345 1.243 0 2.735 11.935 3.481 26.605zm1038.03 44.755c-.74 2.486-1.24.497-1.24-4.227s.5-6.713 1.24-4.476c.5 2.487.5 6.465 0 8.703zM53.403 283.825c-.498 7.957-.746 1.989-.746-12.929 0-15.167.248-21.631.746-14.421.497 7.211.497 19.394 0 27.35zm1054.947 40.28c.25 18.399-.25 32.82-.75 32.323-.5-.497-1.49-21.632-2.24-46.993-.74-27.102-.49-40.279.75-32.323.99 7.459 1.99 28.594 2.24 46.993zM65.091 488.953c.995 108.406 2.736 203.884 4.228 212.089 2.736 16.659 6.963 74.094 5.72 75.586-.498.497-2.487-.249-4.228-1.74-6.217-5.222-9.202-79.316-10.445-244.164-.497-88.267-1.74-176.782-2.736-196.922-1.74-35.307-.746-45.998 3.482-43.263 1.244.745 2.984 90.007 3.98 198.414zm8.704-126.558c1.492 81.057 1.492 143.216.25 180.761-.498 17.156 0 51.22 1.242 75.835 1.493 24.615 1.99 56.938 1.244 72.105-1.244 25.361-1.492 26.356-3.233 14.173-4.476-30.086-7.212-403.293-2.984-403.293 1.492 0 2.984 22.377 3.481 60.419zm-21.387-22.626c4.228 60.668 4.974 89.013 2.238 89.013-3.482 0-7.958-21.88-8.207-40.528 0-8.454-.994-21.135-2.238-27.848-2.238-12.68 1.244-43.512 4.974-43.512.995 0 2.487 10.443 3.233 22.875zm1062.902 93.24c-.5 9.448-.75 1.74-.75-16.659 0-18.399.25-26.107.75-16.907.5 9.448.5 24.366 0 33.566zm-7.46-19.891c-.75 2.486-1.24.497-1.24-4.227s.49-6.713 1.24-4.476c.5 2.487.5 6.465 0 8.703zm-1.24 48.484c-2.24 4.973-2.74 4.476-2.74-5.47 0-9.945.5-10.443 2.74-5.718 1.99 4.226 1.99 7.21 0 11.188zm6.96 15.665c2.49 2.983 2.74 14.669 1.49 51.716-1.49 44.258-1.99 47.988-6.71 51.966-2.99 2.486-6.47 4.476-7.96 4.476-2.49 0-.5-94.732 2.24-106.169 1.74-6.714 6.46-7.459 10.94-1.989zM59.869 733.365c.746 2.735 1.99 13.924 2.487 24.864l1.243 19.891-3.482-12.432c-1.74-6.962-3.481-21.88-3.481-33.566-.249-11.686-1.244-25.61-2.487-31.08-2.736-11.686-1.244 46.744 1.492 60.668.995 5.47.746 7.956-.746 6.962-1.492-.995-3.482-8.206-4.477-15.913-2.735-19.146-3.979-169.075-1.989-189.712l1.74-16.162 1.742 11.189c.994 7.459 1.74-.994 2.238-24.864.497-19.891 1.74 15.913 2.735 79.565.746 63.651 2.239 117.855 2.985 120.59zM1092.93 568.517c-.5 5.967-1 1.741-1-9.2 0-10.94.5-15.664 1-10.691.5 5.221.5 14.172 0 19.891zm0 22.378c-.75 1.989-1.49 1.243-1.49-1.492-.25-2.735.49-4.227 1.24-3.233.75.746.99 2.984.25 4.725zm20.39 18.648c-.25 12.183-1.24 33.566-2.24 47.987-1.49 23.869-1.74 22.129-1.99-21.88-.25-30.334.5-47.739 1.99-47.739s2.49 8.702 2.24 21.632zm-8.7 61.911c-.5 43.263-1.5 79.316-1.99 80.061-.75.746-1.49-31.577-1.49-71.359 0-40.031-.5-73.846-1.5-75.089-1.74-2.984 1.25-12.183 3.98-12.183 1.25 0 1.74 35.306 1 78.57zm-7.46-10.195c0 30.086-.25 65.89-1 79.814l-1.24 25.112-38.55 1.492c-21.14.995-45.26 1.492-53.47 1.243l-14.919-.248 17.409-1.99c9.7-1.243 31.83-2.983 49.24-3.978 34.32-2.238 37.8-3.729 35.07-16.161-.75-3.481-.25-7.211.99-7.957 1.24-.746 1.99-32.323 1.99-72.105-.25-41.523.75-68.624 1.99-65.392.99 2.984 2.24 30.085 2.49 60.17zm16.41 74.592c-.25 23.372-1 33.566-3.48 36.799-3.24 3.978-12.44 4.475-111.167 6.713-130.313 2.735-314.593 3.232-312.106.497.995-.994 50.733-2.486 110.419-3.481 59.685-.746 152.447-2.486 205.914-3.232l97.49-1.74 3.23-6.714c1.74-3.481 3.48-19.891 4.23-37.296 1.49-40.279 5.47-34.063 5.47 8.454zm-604.318 6.216c8.953 2.984 19.149 7.708 22.631 10.194 3.73 2.487 7.709 4.725 8.953 4.725.995 0 5.222 2.735 9.201 6.216 9.699 8.205 7.212 7.956-11.439-1.99-15.668-8.453-17.906-9.199-40.537-15.167-33.076-8.951-109.175-6.464-182.787 5.968-8.953 1.492-22.88 3.729-31.087 5.221-8.206 1.243-21.636 3.481-29.842 4.973-8.207 1.243-21.636 3.481-29.843 4.724-8.207 1.243-19.398 2.984-24.869 3.978-13.181 2.238-9.451-1.492 4.227-4.475 5.969-1.243 15.171-3.232 20.642-4.476 12.932-3.232 33.324-7.21 53.468-10.194 8.953-1.492 22.88-3.729 31.086-4.973 65.406-10.691 81.571-11.934 136.78-10.94 40.537.746 49.49 1.741 63.416 6.216zm-13.678 7.957c15.17 3.232 36.309 11.686 44.018 17.404 3.979 2.984-.248 2.238-15.418-2.983-11.689-3.73-27.356-8.205-34.817-9.946-17.16-3.481-101.963-3.481-126.832 0-29.346 4.227-52.225 7.708-67.147 9.946a3029.546 3029.546 0 01-31.086 4.972c-9.45 1.492-23.377 3.979-30.837 5.222-7.461 1.243-18.155 2.238-23.626 1.989-8.704-.249-9.45-.497-3.979-2.238 3.482-.994 10.445-1.989 15.419-2.237 5.222-.249 14.175-1.244 19.895-2.736 5.969-1.243 24.62-4.724 41.78-7.459 17.16-2.983 33.822-5.718 37.304-6.464 7.46-1.243 47.997-5.719 77.094-8.454 26.112-2.486 81.57-.746 98.232 2.984zm181.047 7.459c-.746 5.967-2.736 13.675-4.477 17.405-1.989 3.729-2.487 7.459-1.243 8.205.995.497 2.736 8.702 3.73 17.902.995 9.448 3.482 23.62 5.471 31.825 5.969 23.87 6.466 28.594 3.482 28.594-1.492 0-2.735 3.232-2.735 7.21 0 11.438-3.979 11.189-6.964-.497-14.921-59.176-18.652-81.305-16.662-98.71 2.238-18.15 4.725-22.377 13.429-22.377 6.964 0 7.212.249 5.969 10.443zm40.288-8.205l9.947 2.237-10.693.249c-5.969 0-15.668 1.492-21.885 2.984-12.186 3.232-15.916 1.989-10.943-3.978 3.482-4.227 17.409-4.725 33.574-1.492zm369.301 0c0 2.983-8.7 4.973-28.6 6.464-16.16.995-16.66.995-6.21-1.491 6.21-1.244 13.92-3.481 17.41-4.476 8.45-2.984 17.4-3.232 17.4-.497zm-435.204 2.735c-3.482.994-9.451 1.989-13.678 1.989-7.212-.249-7.212-.249 1.243-1.989 12.435-2.735 20.641-2.735 12.435 0zm113.651 1.74c-4.974.498-12.932.498-17.408 0-4.228-.497 0-.994 9.45-.994 9.699 0 13.181.497 7.958.994zm-269.083 6.216c8.207 1.492 19.398 4.724 24.869 7.211 5.471 2.237 12.435 4.973 15.668 5.967 3.233.995 5.222 2.238 4.725 2.984-.746.497-12.186-.995-25.864-3.73-71.623-14.172-90.275-14.918-178.56-6.464-21.884 2.237-20.392-.249 2.487-3.979 42.526-7.21 122.853-8.205 156.675-1.989zm305.392-3.729c-1.741.497-5.223.497-7.461 0-2.487-.746-.995-1.244 2.985-1.244 4.227 0 5.968.498 4.476 1.244zm-30.589 4.226l36.06 3.233-50.981-.249c-29.843-.248-55.956.995-62.67 2.487-9.202 2.237-11.937 2.237-11.937-.249 0-8.205 33.324-9.946 89.528-5.222zm56.701-1.74c-3.979.497-9.947.497-13.677 0-3.98-.497-.747-.995 6.714-.995s10.694.498 6.963.995zm36.558.746c3.482 1.492-.746 1.989-12.435 1.989-14.921-.249-15.916-.497-7.46-1.989 13.678-2.486 14.175-2.486 19.895 0zm-216.858 1.74c-1.741.498-5.223.498-7.461 0-2.487-.746-.995-1.243 2.985-1.243 4.227 0 5.968.497 4.476 1.243zm-172.342 8.454c4.973 1.243-3.731 1.243-21.139.249-37.801-2.238-45.511-2.238-82.068.497-16.414 1.243-29.097 1.243-28.102.249 5.223-5.47 110.17-6.216 131.309-.995zm-162.893-.249c-3.979.995-11.937 1.99-17.408 1.99l-9.948-.249 8.705-1.741c4.725-.994 12.683-1.74 17.408-1.989h8.704l-7.461 1.989zm325.785-1.243c-6.218 2.238-26.61 2.984-23.377.995 1.989-1.243 8.455-1.989 14.673-1.989 6.217 0 10.196.497 8.704.994zm135.536 1.243c9.45 1.244-.497 1.741-32.33 1.99-26.361 0-43.272-.746-39.79-1.99 7.958-2.486 54.214-2.486 72.12 0zm43.023 1.741c-3.233.497-8.206.497-11.191 0-3.233-.497-.746-.995 5.472-.995 6.217 0 8.704.498 5.719.995zm78.338 0c-9.45.497-24.372.497-33.573 0-9.451-.497-1.741-.746 16.662-.746s26.112.249 16.911.746zm-709.514 3.232c-2.735 1.243-7.212 2.238-9.947 2.238-4.228.249-4.228-.249-1.244-2.238 1.99-1.243 6.466-2.237 9.948-2.237 5.72 0 5.72.248 1.243 2.237zm504.842 0c-6.964 2.984-9.202 2.984-7.461 0 .746-1.492 3.979-2.486 6.963-2.237 5.223 0 5.223.248.498 2.237zm-341.95 3.978c-17.159 1.99-40.039 4.476-50.981 5.968-46.008 5.719-76.348 7.708-89.529 6.216-7.709-.995-13.18-2.735-11.937-3.73.995-.994 28.351-3.232 60.432-4.973 32.081-1.491 67.395-3.729 78.337-4.724 10.943-.994 25.616-1.989 32.33-1.989 6.964-.248-1.492 1.243-18.652 3.232zm303.403-.248c0 3.232-3.979 3.729-25.864 3.232-36.309-.994-29.594-5.719 9.201-6.713 13.43-.249 16.663.497 16.663 3.481zm-489.174.497c-1.741.497-5.223.497-7.461 0-2.487-.746-.995-1.243 2.984-1.243 4.228 0 5.969.497 4.477 1.243zm388.951-.249c-.746.746-2.984.995-4.725.249-1.989-.746-1.243-1.492 1.492-1.492 2.736-.248 4.228.498 3.233 1.243zm36.309 13.924c5.72-2.983 13.678-5.47 17.409-5.47 6.963 0 6.963 0 6.217 15.416l-.746 15.415-11.191 2.238c-12.684 2.487-42.526-1.74-51.728-7.459-4.725-2.984-5.471-4.724-3.979-12.681.995-4.972 1.99-9.945 2.736-10.94.497-.994 7.709.746 15.916 3.73l14.921 5.221 10.445-5.47z" fill="#121D1F"/><path d="M1138.44 93.616c0 3.73 1.24 7.46 2.48 8.206 3.24 1.989 3.24-6.216 0-11.19-1.99-2.983-2.48-2.237-2.48 2.984zm2.98 19.394c0 3.481.5 4.724 1.25 2.984.49-1.492.49-4.476 0-6.216-.75-1.492-1.25-.249-1.25 3.232zm1.99 18.648c0 3.481 1.25 6.216 2.49 6.216 1.49 0 2.49-2.735 2.49-6.216 0-3.481-1-6.216-2.49-6.216-1.24 0-2.49 2.735-2.49 6.216zm0 16.411c0 2.735 1.25 4.227 2.49 3.481 1.49-.746 2.49-3.232 2.49-5.222 0-1.989-1-3.481-2.49-3.481-1.24 0-2.49 2.238-2.49 5.222zm0 19.642c0 2.735.5 4.973 1 4.973s1.49-2.238 2.24-4.973c.74-2.735.25-4.973-1-4.973-1.24 0-2.24 2.238-2.24 4.973zm.75 21.134c0 5.47.5 7.459.99 4.227.5-2.984.5-7.459 0-9.945-.74-2.238-1.24.248-.99 5.718zm-2.74 21.134c0 3.481.5 4.725 1.25 2.984.49-1.492.49-4.475 0-6.216-.75-1.492-1.25-.249-1.25 3.232zm0 19.892c0 4.724.5 6.713 1.25 4.227.49-2.238.49-6.216 0-8.703-.75-2.237-1.25-.248-1.25 4.476zm-.49 21.382c0 3.481.99 5.719 2.23 4.973 1.25-.746 1.74-3.729 1-6.464-1.74-6.962-3.23-6.216-3.23 1.491zm-1.25 14.173c-.99 2.487-1.24 5.222-.25 5.968 2.49 2.486 4.48-.995 3.24-5.968-1-4.227-1-4.227-2.99 0zm-1.24 21.631c0 2.736 1.24 4.973 2.48 4.973 1.5 0 2.49-2.237 2.49-4.973 0-2.735-.99-4.972-2.49-4.972-1.24 0-2.48 2.237-2.48 4.972zm0 18.649c0 1.989 1.24 3.73 2.48 3.73 1.5 0 2.49-1.741 2.49-3.73 0-1.989-.99-3.73-2.49-3.73-1.24 0-2.48 1.741-2.48 3.73zm0 16.161c0 2.735 1.24 4.973 2.48 4.973 1.5 0 2.49-2.238 2.49-4.973s-.99-4.973-2.49-4.973c-1.24 0-2.48 2.238-2.48 4.973zm-1.25 14.918c.75 1.243 1.99 2.486 2.74 2.486.5 0 .99-1.243.99-2.486 0-1.492-1.24-2.486-2.73-2.486-1.24 0-1.74.994-1 2.486zm1.25 12.432c0 4.724.74 5.222 2.98 2.984 2.24-2.238 2.24-3.73 0-5.968-2.24-2.237-2.98-1.74-2.98 2.984zm0 14.67c0 2.984 1.24 5.221 2.48 5.221 1.5 0 2.49-1.491 2.49-3.481 0-1.989-.99-4.475-2.49-5.221-1.24-.746-2.48.746-2.48 3.481zm0 18.897c0 3.48 1.24 6.216 2.48 6.216 1.5 0 2.49-2.736 2.49-6.216 0-3.481-.99-6.216-2.49-6.216-1.24 0-2.48 2.735-2.48 6.216zm0 17.404c0 3.481 1.24 6.216 2.48 6.216 1.5 0 2.49-2.735 2.49-6.216 0-3.481-.99-6.216-2.49-6.216-1.24 0-2.48 2.735-2.48 6.216zm-.75 17.156c-.99 2.487-1.24 5.222-.49 5.968 2.23 2.238 4.22-1.492 3.23-6.216-.75-4.227-1-4.227-2.74.248zm1.24 17.654c0 3.978.5 5.47 1.25 2.983.49-2.238.49-5.718 0-7.459-.75-1.492-1.25.249-1.25 4.476zm-.49 16.659c0 3.978 1.24 6.962 2.48 6.962 3.24 0 3.24-4.973 0-9.946-1.99-2.984-2.48-2.238-2.48 2.984zm.49 21.88c0 3.481.5 4.724 1.25 2.984.49-1.492.49-4.476 0-6.216-.75-1.492-1.25-.249-1.25 3.232zm-2.98 18.399c0 1.989 1.25 4.476 2.49 5.222 1.49.746 2.49-.746 2.49-3.481 0-2.984-1-5.222-2.49-5.222-1.24 0-2.49 1.492-2.49 3.481z" fill="#121D1F"/></g><defs><filter id="filter0_d_2_755" x="0" y="0" width="1164" height="908.823" filterUnits="userSpaceOnUse" color-interpolation-filters="sRGB"><feFlood flood-opacity="0" result="BackgroundImageFix"/><feColorMatrix in="SourceAlpha" values="0 0 0 0 0 0 0 0 0 0 0 0 0 0 0 0 0 0 127 0" result="hardAlpha"/><feOffset dy="7"/><feGaussianBlur stdDeviation="3"/><feComposite in2="hardAlpha" operator="out"/><feColorMatrix values="0 0 0 0 0 0 0 0 0 0 0 0 0 0 0 0 0 0 0.25 0"/><feBlend in2="BackgroundImageFix" result="effect1_dropShadow_2_755"/><feBlend in="SourceGraphic" in2="effect1_dropShadow_2_755" result="shape"/></filter></defs></svg>