<svg width="208" height="187" fill="none" xmlns="http://www.w3.org/2000/svg"><path d="M1.264 61.346c1.752-14.56 3.503-19.547 8.759-24.67l4.986-4.987h62.793c34.631 0 63.738-.135 64.546-.405.943-.135 2.965-2.965 4.582-6.336 3.234-6.74 14.957-18.333 22.907-22.242 5.121-2.696 11.319-3.64 10.376-1.618-6.603 13.076-9.298 19.681-9.971 24.67l-.809 6.335 12.532.54c15.227.673 19.808 2.56 23.447 9.84 2.425 4.988 2.695 7.953 2.56 37.745-.27 76.435-.539 84.253-3.504 91.937-2.021 5.662-3.369 7.28-6.198 7.819-2.022.404-5.795 1.348-8.355 2.022-11.588 3.101-46.758 5.662-66.028 4.853-34.496-1.348-50.262-2.157-51.205-2.831-.54-.404-9.568.135-19.943.944-30.184 2.426-43.255-1.213-48.241-13.346-3.773-8.897-6.064-86.545-3.234-110.27zM2.61 120.66c.674-.405 1.348-2.831 1.213-5.123 0-3.639-.27-3.909-1.213-1.617-1.617 3.774-1.617 7.684 0 6.74zm.944-39.363c.27-3.1.27-8.628 0-12.133-.27-3.505-.405-.943-.405 5.662 0 6.74.135 9.571.405 6.47zm2.29 62.28c.135 30.6.809 32.353 12.398 35.453 9.163 2.427 112.651 3.505 146.743 1.483 23.043-1.348 26.007-1.887 30.589-4.718 6.333-4.044 7.007-6.875 5.929-24.13a154.56 154.56 0 011.078-29.253c3.099-23.86 4.042-51.36 2.156-64.436-1.213-9.302-2.291-12.133-5.121-15.099-1.886-2.156-2.964-3.774-2.156-3.774.674 0 0-.944-1.347-2.022-1.483-1.079-3.369-2.022-4.043-2.022-.808.135 0 .943 1.887 2.022 4.042 2.291 1.751 2.696-3.639.54-2.021-.81-8.354-1.753-13.879-2.293l-10.106-.943-.405-5.662c-.269-3.775.674-8.628 2.965-14.155 1.887-4.583 3.234-8.627 2.965-8.897-.674-.674-11.185 8.628-15.632 13.75-1.886 2.157-4.581 6.067-6.063 8.763-4.178 7.28-9.972 8.358-48.511 8.897-17.787.135-29.375 0-25.602-.54 3.638-.539-7.816-.943-25.603-.943-38 .135-38.27.27-41.773 12.132-2.695 9.167-4.581 38.96-3.773 56.484.404 7.279.809 24.939.943 39.363zm-1.078-3.775c.405-.404.54-1.617.135-2.561-.404-1.079-.808-.674-.808.809-.135 1.483.27 2.291.673 1.752zm134.212 45.834c3.234-.27.944-.539-4.985-.539-5.93 0-8.49.269-5.795.539 2.83.269 7.681.269 10.78 0zm64.411-35.319c.809 1.752 1.213-1.483 1.213-9.436.135-8.358-.269-11.459-1.213-10.111-1.617 2.427-1.617 15.772 0 19.547zm3.639-44.081c.269-2.157.269-5.392 0-7.415-.27-2.156-.539-.404-.539 3.64 0 4.044.269 5.797.539 3.775z" fill="#5AE4A7"/></svg>