<svg width="943" height="43" fill="none" xmlns="http://www.w3.org/2000/svg"><path d="M216.558.267c-1.23.82-2.091 2.719-1.107 2.719.492 0 2.091.259 3.444.604 1.968.518-.984.604-23.495.56-46.621-.085-74.422.087-74.422.562 0 .216 1.353.431 3.076.431 1.722 0 3.075.173 3.075.432s-3.567.431-8.242.431c-4.674 0-11.932.13-16.36.26a131.96 131.96 0 01-15.992-.432c-4.428-.389-9.964-.647-12.3-.604-10.088.215-19.56-.13-21.282-.734-2.214-.733-3.321-.431-3.321.906 0 1.295-5.043 1.813-10.21 1.122-2.091-.302-4.305-.345-5.043-.13-.738.217-2.952.475-4.92.605-2.707.173-3.691 0-4.06-.604-.37-.475-1.722-.82-2.952-.82-2.091 0-2.337.345-2.46 2.891-.124 1.64 0 3.28.123 3.754.123.475-.37.647-1.108.518-.86-.216-1.353.173-1.353 1.036 0 .992-.738 1.424-2.952 1.726-1.6.216-3.198.647-3.567.95-.492.43-1.107.387-2.46-.217-.985-.388-2.092-.733-2.46-.733-.37 0-.739 1.683-.739 3.754-.123 5.092-.492 5.998-3.075 5.825-1.107-.086-1.968.087-1.968.346 0 .215 1.353.474 3.075.474 5.782.13 6.15.173 6.52 1.079.246.647-.492.992-2.215 1.165-3.567.345-2.706 1.64 1.477 2.373 2.829.475 3.198.69 2.214 1.597-.861.734-.615 1.079.738 1.251.984.13 1.722.518 1.722.907 0 .345.861.647 1.845.647 2.214 0 2.46 1.553.37 1.855-.862.13-.124.26 1.721.26 2.584.042 3.076-.13 2.584-.82-.739-.907 1.845-1.209 3.936-.475.738.215 2.583.518 4.305.69 2.953.302 2.953.302.861-.518-1.107-.474-1.722-.992-1.23-1.208.615-.172-1.107-.216-3.567-.043-4.797.302-7.258-.302-4.797-1.165 1.107-.389 1.722-.345 2.583.13 1.107.56 1.353.56 2.46 0 .861-.519 1.476-.519 2.706-.087.738.259 2.214.518 3.198.518 1.354 0 1.476-.13.37-.604-1.23-.518-.493-.69 4.428-.906 3.198-.13 6.888-.346 7.995-.389 1.354-.13 1.846.043 1.354.432-.738.733 1.23.776 6.642.086 3.199-.388 4.429-.388 5.536 0 1.107.388.86.518-1.476.518-6.766 0-8.12 1.683-1.477 1.769 3.814.086-4.428.69-13.162.992-2.952.13-6.027.432-6.765.69-.984.39.615.476 7.257.217 4.798-.173 8.857-.475 8.98-.69.246-.217 2.337-.39 4.675-.39 2.583 0 4.059.173 3.567.432-.37.216-2.46.432-4.428.432-2.46 0-3.568.173-3.199.518.246.302 1.845.518 3.444.474 6.028-.172 78.358-.129 90.905.044 18.206.302 83.525.345 84.878.043 2.091-.432 24.11-.26 30.015.259 4.428.388 6.888.388 10.701 0 3.568-.389 5.413-.389 7.381 0 1.722.302 11.194.474 26.447.517 16.361 0 23.865.173 23.865.475 0 .259.615.173 1.23-.172.861-.432 1.23-.475 1.23-.087 0 .432.615.389 2.829-.086 1.968-.475 8.857-.69 26.693-.863 13.163-.13 24.233-.259 24.603-.259.369 0-.246-.216-1.231-.431-.984-.216-6.396-.432-12.055-.432-6.519 0-9.964-.173-9.471-.432.369-.259 2.583-.431 4.92-.431 2.337 0 4.428-.173 4.797-.388.615-.303 11.686-1.77 13.532-1.77.369 0 .615.216.369.518-.369.647.615.647 34.443.82 16.975.043 27.185.259 27.062.518-.123.216 3.075.474 7.135.56 10.702.217 11.563.217 19.558 0 4.06-.129 7.873-.086 8.488.044.615.13 19.313.302 41.578.431 22.265.087 41.7.303 43.176.518 1.723.216 4.06.173 5.905-.043 3.567-.518 19.928-.604 22.142-.13.984.216.984.475-.246.95-1.107.475-2.952.604-6.274.432-3.69-.173-4.551-.13-3.444.258 1.968.69 37.026 1.036 37.026.346 0-.604 4.06-.604 5.782 0 .861.302 3.321.388 6.15.259 10.333-.561 10.825-.561 10.702.172-.123.604 3.199.69 29.523.647 61.751-.043 98.409.216 99.27.648.492.345 1.599.302 3.198-.087 1.845-.388 6.273-.431 18.452-.129 8.733.216 19.804.216 24.479.043 4.674-.216 12.424-.216 17.098-.086 4.798.172 14.638.345 22.142.431 8.119.087 13.654.346 13.9.604.246.26 1.846.475 3.445.475 1.722 0 2.706-.172 2.337-.431-.369-.216-.123-.432.492-.432.738 0 1.353.302 1.353.647 0 .648 5.905 1.726 7.135 1.295.369-.13 0-.216-.738-.216-2.215 0-1.723-1.165.492-1.467 1.107-.13 7.134-.259 13.531-.259h11.563v-1.553c0-1.295.369-1.468 2.337-1.252 1.353.13 2.706.043 3.198-.216.369-.215 2.091-.431 3.691-.431 3.321 0 9.348-.863 10.702-1.467 1.23-.604 0-1.122-2.83-1.122-3.198 0-2.952-.561.492-1.079 1.476-.259 2.584-.69 2.461-.95-.246-.301 1.107-.905 2.952-1.38 1.722-.518 2.829-.906 2.337-.906s-.246-.346.369-.777c.738-.475.615-1.294-.492-2.416-1.845-1.856-.861-3.41 2.46-3.84 1.23-.217 1.845-.691 1.476-1.468-.615-1.553-3.075-1.77-4.059-.389-.738 1.166-2.829 1.554-3.075.561-.492-2.675-.246-3.624 1.107-4.142.861-.302 1.476-.992 1.23-1.51-.246-.69-1.476-.95-5.29-1.165-4.182-.216-4.551-.303-2.091-.605 2.707-.302 3.814-1.078 1.476-1.078-2.829 0-.861-.777 2.584-1.036 6.15-.431 2.337-1.553-5.167-1.553-3.198 0-6.519-.26-7.503-.561-.862-.346-2.461-.69-3.445-.82-.984-.087-1.845-.561-1.845-.993 0-1.122-11.317-2.848-12.793-1.985-.861.432-1.722.432-4.551-.086-2.338-.432-9.472-.734-20.789-.95-30.63-.517-33.705-.603-36.165-1.078-1.354-.216-3.937-.475-5.905-.518-1.845-.043-.369-.173 3.321-.302 3.691-.173 7.996-.13 9.472.043 1.599.173 7.873.173 14.023-.043 6.151-.216 12.424-.259 13.901-.173 2.214.173 2.337.13.492-.259-1.353-.345-14.27-.431-39.979-.388-32.598.13-37.887.216-37.887.777 0 .345 1.107.69 2.46.777 1.353.086 2.952.345 3.567.56 1.353.432-21.773.432-23.864-.043-1.845-.388-.492-1.294 1.968-1.294.985 0 1.723-.216 1.723-.432 0-.302-24.357-.388-70.978-.345-39.117.043-68.64.13-65.687.216 2.952.13 6.519.431 7.995.777 1.353.302 5.167.69 8.488.863 3.198.13 5.536.431 5.289.604-1.353.733-56.584 1.553-103.821 1.553h-31.121l.492.95c.246.56-.123.992-.861 1.035-3.814.086-7.012.475-10.948 1.252-3.691.776-4.552.82-6.028.302-.861-.346-3.444-.604-5.658-.648-2.092 0-4.429-.13-5.167-.302-1.968-.431-1.476-1.424.984-1.64 1.845-.172 1.845-.215-.246-.258-1.599-.044-2.091-.302-1.599-.907.492-.69.123-.82-2.706-.733-1.845.086-4.059.302-4.798.475-.861.172-2.214.129-3.075-.087-1.968-.56-14.392-.95-14.392-.431 0 .215.861.474 1.845.604 3.075.431 2.091 1.035-1.845 1.035-1.968 0-3.69-.215-3.69-.431 0-.259-.984-.216-2.461.086-1.845.432-3.198.432-6.396 0-2.829-.345-6.151-.388-10.702-.13-3.567.217-8.488.217-10.825.044-2.337-.216-13.039-.259-23.741-.173-18.452.216-19.436.173-20.051-.647-.492-.777-1.476-.82-15.745-.647-8.242.13-15.623.345-16.361.518-.738.172-3.444.302-5.904.345-2.583 0-5.905.259-7.627.56-2.091.432-3.567.432-5.166.087-2.092-.388-1.846-.431 1.722-.475 4.059 0 5.658-.82 1.845-.906-8.611-.215-12.424-.13-15.007.26l-2.953.43 2.953.303c4.428.474-4.429.086-10.21-.432-3.076-.259-6.151-.259-9.595.043-3.813.389-5.659.346-7.381-.043-3.075-.69-16.483-.69-15.253-.043.615.345-2.337.388-10.087.216-6.028-.13-14.638-.302-19.19-.345-8.118-.13-9.102-.346-8.487-1.77 0-.172-7.381-.302-16.607-.302-14.761 0-16.606-.086-15.991-.69.369-.388.738-.777.738-.863 0-.13 1.845-.475 4.059-.82 3.937-.604 3.813-.604-4.674-.647-8.365-.043-8.488-.043-4.921-.648l3.691-.56-5.167-.044c-2.829-.043-5.412.087-5.658.26zM767.4 4.927l3.69.562-4.305.043c-6.151.043-10.456-.389-8.365-.863 2.214-.518 4.675-.432 8.98.259zM158.989 5.1c1.107.26 1.23.475.246.648-1.599.345-3.814-.044-3.814-.648 0-.474 1.353-.474 3.568 0zm528.454.475l6.151.302-6.766.13c-3.69.043-8.365.129-10.333.172-1.968 0-3.813-.216-4.059-.518-.615-.604 5.166-.647 15.007-.086zm128.177-.173c-.369.13-1.476.173-2.337.043-.984-.129-.615-.258.738-.258 1.353-.044 2.091.086 1.599.215zM400.705 6.654c.369.388 0 .647-.984.647-.861 0-2.337-.302-3.199-.647-1.23-.518-1.107-.648.985-.648 1.353 0 2.706.302 3.198.648zm-8.734.086c-.861.086-2.337.086-3.075 0-.861-.13-.246-.216 1.476-.216s2.337.087 1.599.216zm99.024.475c.246.302-.738.517-2.091.517-2.584 0-3.322-.474-1.723-1.035 1.108-.389 3.199-.086 3.814.518zm4.551.086c.369.216.123.431-.492.431-.738 0-1.353-.215-1.353-.431 0-.259.246-.432.492-.432.369 0 .984.173 1.353.432zm-460.675.863c0 .216-.492.431-1.23.431-.615 0-1.23-.215-1.23-.431 0-.259.615-.432 1.23-.432.738 0 1.23.173 1.23.432zm12.916.388c.738.043-.123.26-1.6.518-2.951.389-5.166.216-5.166-.431 0-.302 2.83-.346 6.766-.087zm442.224.043c.984.216 1.353.432.615.432-.615 0-2.091-.216-3.076-.431-.984-.216-1.23-.432-.615-.432.738 0 2.092.216 3.076.431zm-107.635 7.293c.861.518-3.813 1.079-5.535.69-.738-.172-.984-.474-.615-.69.984-.518 5.166-.518 6.15 0zm22.142.475c.861.518-.246.518-3.69 0-2.337-.345-2.337-.389.246-.389 1.476-.043 3.075.13 3.444.389zm-193.742 5.782c0 .475-2.337.647-3.075.259-.369-.216.123-.431 1.107-.431 1.107 0 1.968.086 1.968.172zm648.021 3.15c-1.23.086-3.198.086-4.305 0-1.23-.13-.246-.216 2.091-.216s3.321.087 2.214.216zm-355.501.863c-.738 1.467-13.285 1.122-13.285-.345 0-.216 3.075-.388 6.888-.388 5.782 0 6.766.129 6.397.733zm15.007.561c0 .216-1.599.432-3.567.432-2.091 0-4.059-.216-4.429-.432-.492-.259.985-.431 3.568-.431 2.46 0 4.428.172 4.428.431zm27.432.043c-.985.346-1.969.346-3.691 0-1.968-.388-1.722-.431 1.476-.474 2.584 0 3.199.13 2.215.474zm-437.058 3.41c0 .215-.246.43-.492.43-.369 0-.984-.215-1.353-.43-.369-.26-.123-.432.492-.432.738 0 1.353.172 1.353.431zm14.762.603c0 .346-.862.734-1.969.863-2.706.346-2.706.346-4.182-.604-1.23-.776-.984-.863 2.46-.863 2.337 0 3.691.216 3.691.604zm-36.904.69c1.23 0 1.353.13.37.475-1.723.605-9.35.087-8.242-.56.369-.216 1.968-.303 3.444-.173 1.353.13 3.444.259 4.428.259zm7.38.432c0 .26 1.354.346 3.076.173 1.845-.173 3.075-.086 3.075.216 0 .517-4.674.647-7.872.215-1.107-.129-1.6-.431-1.23-.647.86-.518 2.952-.474 2.952.043zm485.894.26c0 .344-.616.517-1.231.388-.738-.173-.984-.475-.615-.69 1.107-.605 1.846-.476 1.846.301zm-146.383.603c1.476.346 1.353.432-.861.432-1.599 0-2.83-.216-2.83-.432 0-.56 1.354-.56 3.691 0zm129.161 0c0 .216-.492.432-1.23.432-.615 0-1.23-.216-1.23-.432 0-.259.615-.431 1.23-.431.738 0 1.23.172 1.23.431zm-462.521 1.08c8.365.301 11.81.862 8.242 1.337-1.107.13-5.658-.043-9.964-.432-7.257-.647-8.364-.647-11.686-.043-4.182.734-21.65.906-24.725.216-2.214-.475-1.845-.604 3.69-1.208 4.183-.432 18.33-.389 34.443.13zm174.676-.217c0 .216-1.476.432-3.198.432-1.723 0-2.83-.173-2.338-.432.369-.259 1.845-.431 3.199-.431 1.23 0 2.337.172 2.337.431zm329.792.302c1.476.648 1.476.69-.492.432-1.23-.173-2.83-.302-3.445-.302-.615 0-1.107-.216-1.107-.432 0-.69 3.199-.517 5.044.302zm15.868-.56c0 .086-.861.258-1.845.431-.984.13-1.845.043-1.845-.173 0-.259.861-.431 1.845-.431s1.845.086 1.845.172zm50.558.517c2.337.734 6.765.518 5.412-.259-1.476-.863 13.777-.517 18.083.432 2.337.518 6.396.863 9.594.906 4.306 0 4.921.086 2.953.388-1.476.173-9.472.216-17.837 0-8.365-.172-20.543-.258-26.939-.13-12.793.217-12.793.217-25.217-.129-11.317-.302-13.04-.474-10.21-1.208 1.476-.388 8.241-.56 22.019-.647 17.098-.086 20.173 0 22.142.647zm-164.466.13c.369.215-.492.474-1.968.604-3.198.302-13.285-.13-13.285-.561 0-.432 14.515-.475 15.253-.043zm48.22.043c4.183 0 5.167.13 4.675.647-.615.475.123.647 2.952.647 7.381 0 4.92.69-2.829.777-7.873.13-7.996.086-12.916-1.942-1.599-.647-1.599-.69.492-.431 1.23.172 4.551.302 7.626.302zm59.538 0c-.984.216-2.338.431-3.076.431-.615 0-.369-.215.615-.431s2.461-.432 3.076-.432c.738 0 .369.216-.615.432zm-33.459.302c-2.584.086-7.012.086-9.841 0-2.952-.086-.861-.173 4.551-.173 5.413 0 7.75.087 5.29.173zm-102.222.82c-.369.13-1.476.172-2.338.043-.984-.13-.615-.259.739-.259 1.353-.043 2.091.086 1.599.216zm66.179.172c.985.561-3.075.561-5.535 0-1.476-.345-1.107-.431 1.476-.431 1.845 0 3.69.172 4.059.431zm189.683-.172c-.369.13-1.476.172-2.337.043-.984-.13-.615-.259.738-.259 1.353-.043 2.091.086 1.599.216zm188.453-.087c-.984.346-9.595.432-10.456.13-.492-.173 1.722-.302 5.043-.302s5.659.086 5.413.172zm-60.153 1.122c0 .216-.738.432-1.722.432s-2.214-.216-2.583-.432c-.369-.259.369-.431 1.722-.431 1.476 0 2.583.172 2.583.431zM646.111 37.55c-2.337.518-4.797.475-4.797-.043 0-.647 5.412-1.295 6.027-.777.247.26-.369.604-1.23.82zm-23.249-.302c0 .388-.861.518-2.46.388-3.813-.345-4.182-.992-.738-.992 1.968 0 3.198.259 3.198.604zm55.355.69c0 .216-.861.303-1.845.173-.984-.172-1.845-.345-1.845-.431 0-.087.861-.173 1.845-.173s1.845.173 1.845.431zm66.426-.258c0 .129-.492.345-1.23.474-.615.13-1.23.043-1.23-.172 0-.26.615-.475 1.23-.475.738 0 1.23.086 1.23.173zm43.546.086c2.46.345 2.583.863.123 1.165-2.091.302-8.365-.734-7.135-1.122.984-.388 4.429-.388 7.012-.043zm-31.86 1.035c.369.216-.369.432-1.722.432-1.476 0-2.583-.216-2.583-.431 0-.26.738-.432 1.722-.432s2.214.173 2.583.431zm41.209 0c0 .216-1.107.432-2.461.432-1.353 0-2.46-.216-2.46-.431 0-.26 1.107-.432 2.46-.432 1.354 0 2.461.173 2.461.431zm18.451 0c0 .216-.738.432-1.722.432s-1.968.216-2.214.475c-.369.388-1.23.388-3.198 0-4.183-.777-3.199-1.338 2.214-1.338 2.706 0 4.92.173 4.92.431zm17.222 0c1.476.346 1.107.432-1.476.432-1.845 0-3.691-.216-4.06-.431-.984-.561 3.076-.561 5.536 0zm-169.878.173c-1.23.389-9.718.604-9.718.216 0-.216 2.337-.389 5.166-.389 2.83 0 4.798.087 4.552.173z" fill="#5AE4A7"/></svg>