<svg width="79" height="77" fill="none" xmlns="http://www.w3.org/2000/svg"><path d="M39.01 30.822a7.17 7.17 0 017.18 7.181 7.17 7.17 0 01-7.18 7.181 7.17 7.17 0 01-7.182-7.18 7.17 7.17 0 017.181-7.182zm0 11.85a4.677 4.677 0 004.668-4.669 4.674 4.674 0 00-4.669-4.669 4.674 4.674 0 00-4.669 4.67c0 2.574 2.1 4.668 4.67 4.668zm9.15-12.143c0 .931-.75 1.675-1.676 1.675a1.675 1.675 0 111.675-1.675zm4.756 1.7c.131 2.313.131 9.238 0 11.55-.113 2.244-.625 4.231-2.262 5.87-1.637 1.643-3.625 2.155-5.869 2.261-2.313.131-9.244.131-11.556 0-2.244-.113-4.225-.625-5.869-2.262-1.644-1.637-2.156-3.625-2.263-5.869-.13-2.313-.13-9.244 0-11.556.112-2.244.62-4.23 2.263-5.869 1.644-1.638 3.631-2.15 5.87-2.256 2.312-.13 9.243-.13 11.555 0 2.244.112 4.231.625 5.87 2.262 1.643 1.638 2.155 3.625 2.261 5.87zM49.928 46.26c.731-1.838.563-6.219.563-8.256s.17-6.413-.563-8.256a4.728 4.728 0 00-2.662-2.662c-1.838-.725-6.219-.563-8.256-.563s-6.412-.169-8.256.563a4.728 4.728 0 00-2.662 2.662c-.725 1.838-.563 6.22-.563 8.256 0 2.037-.169 6.412.563 8.256a4.725 4.725 0 002.662 2.662c1.838.725 6.22.563 8.256.563 2.037 0 6.413.17 8.256-.563a4.728 4.728 0 002.662-2.662z" fill="#1E2F35"/><path d="M32.408.956c-9.392 1.95-17.192 6.364-22.12 12.471-2.617 3.285-8.519 15.038-9.34 18.63-1.129 4.67-1.231 9.854-.41 13.858 1.385 6.569 2.771 8.776 10.264 16.115 10.726 10.624 16.474 13.6 26.738 14.011 9.033.41 15.191-1.54 23.505-7.39 11.394-8.007 17.193-17.707 17.552-29.665l.206-5.132-.462 4.722c-.462 5.183-1.848 10.059-4.106 14.473-2.412 4.721-3.182 5.183-1.334.82.923-2.258 2.001-5.388 2.412-6.928 1.026-4.003.872-13.754-.206-17.963C72.337 18.56 64.894 9.22 55.554 4.548c-1.95-.975-3.798-1.95-4.106-2.206-.308-.206-1.693-.616-3.13-.821C44.263.905 40.722.34 39.337.032c-.719-.154-3.798.257-6.929.924zm7.698.821c.206.308-.359.513-1.385.513-1.489 0-7.955 1.386-10.932 2.31-.564.154.103-.308 1.54-1.078C32.614 1.777 39.388.648 40.106 1.777zm9.546 1.489c16.885 5.799 27.457 22.479 25.096 39.62-1.129 8.366-4.003 14.371-9.75 20.581-2.824 3.08-4.055 3.952-8.469 6.056-5.85 2.823-9.135 3.541-16.115 3.644l-4.927.103 3.336.41c2.053.257 4.825.257 7.134-.051 2.104-.308 3.9-.41 4.003-.308.103.103-1.026.513-2.515.873-3.849 1.026-13.805.923-17.192-.154-4.26-1.335-9.187-4.004-11.804-6.416l-2.464-2.207 3.028 1.335c7.39 3.182 18.117 5.389 25.456 5.235l4.362-.052-5.645-.359c-13.754-.924-27.97-5.953-31.87-11.24-2.772-3.797-5.749-10.213-6.878-14.934-1.745-7.391-1.129-16.886 1.54-22.275 1.129-2.412 5.183-7.339 7.339-9.084 1.283-.975 1.129-.616-.924 2.413-4.722 6.877-6.57 12.676-6.62 20.734-.052 5.748.615 9.34 2.566 13.703 1.59 3.695 1.899 3.439.41-.308-3.49-8.622-2.976-19.554 1.335-28.535 1.796-3.798 6.774-10.316 9.34-12.215 3.9-2.926 10.572-5.44 17.962-6.775 5.338-.975 9.084-.924 12.266.206zm-28.33 3.951c-2.924 1.848-6.466 4.363-7.903 5.543-2.36 1.95-2.463 2.002-1.437.514 1.489-2.053 5.902-5.492 10.008-7.699 5.389-2.874 5.03-1.95-.667 1.642zM3.669 47.095c.514 1.9 1.797 5.235 2.874 7.39 1.078 2.156 1.9 4.004 1.797 4.106-.36.36-3.9-4.875-5.184-7.647C1 46.274.486 39.551 1.77 33.854c.206-1.027.462.308.668 4.106.154 3.08.718 7.185 1.231 9.135z" fill="#1E2F35"/></svg>