<svg width="141" height="30" fill="none" xmlns="http://www.w3.org/2000/svg"><path d="M91.524.29c.287.24 1.435.527 2.631.67 1.196.096-1.626.24-6.219.336-4.592.047-9.567.19-11.002.239-4.21.191-15.787.287-18.896.143-2.727-.143-17.7.43-22.245.813-6.171.527-8.803.814-13.395 1.436-2.775.382-6.745.909-8.85 1.196-2.105.287-4.019.717-4.258.956-.191.192-.478 1.292-.574 2.344-.143 1.483 0 1.962.718 2.201.86.24 10.668.718 16.313.718 4.544 0 2.918.67-3.828 1.578C16.466 13.638.631 17.178.01 17.8c-.143.143 1.34.239 3.301.287 3.397.048 3.493.095 1.77.622-.956.287-2.057.813-2.391 1.148-.527.526.095.622 3.444.383 2.248-.144 3.78-.144 3.444 0-.287.143-.478.478-.287.717.144.24-.335.67-1.052.909-1.579.622-1.196 1.1.765 1.052.766 0 1.531.192 1.675.431.19.24.047.43-.24.43s-.43.144-.335.383c.144.192 2.345.287 4.88.24 2.535 0 4.497.047 4.401.19-.143.096-2.535.527-5.358.862-2.822.383-5.262.813-5.406.957-.143.143.91.287 2.345.334l2.583.048-3.205.479c-1.818.287-3.253.67-3.253.909 0 .191-.383.382-.814.43-.478.048-.095.24.814.479.956.239 5.166.239 9.567 0 7.702-.383 9.712-.383 23.92.143 10.237.335 58.745.43 61.232.144 1.196-.192 4.832-.622 8.133-1.053 14.351-1.77 14.304-1.77 14.351-5.07 0-1.532.192-1.819 1.962-2.632 1.1-.478 1.722-.957 1.435-1.052-1.005-.335-.526-1.1 1.292-1.866 1.865-.765 4.449-1.148 8.419-1.292 1.914-.047 2.392-.239 2.727-1.1.287-.813.143-1.196-.67-1.674-2.009-1.244-6.362-2.249-11.481-2.583-2.822-.144-5.023-.431-4.879-.622.191-.144.669-.287 1.1-.335 1.291 0 4.449-.67 6.793-1.388 1.196-.382 2.822-.765 3.588-.86.861-.144 1.387-.479 1.291-.814-.095-.335.096-.765.383-.957 1.244-.765-1.579-2.296-6.362-3.492C122.38.721 123.863.817 99.896.1c-5.74-.192-8.659-.096-8.372.19zm6.315.814c-.144.144-.574.192-.909.048-.383-.144-.24-.287.287-.287.526-.048.813.096.622.24zm25.354 21.049c-.143.144-.574.191-.909.048-.382-.144-.239-.287.287-.287.527-.048.814.095.622.239zM15.366 26.506c-.335.096-.91.096-1.196 0-.335-.143-.096-.239.574-.239.67 0 .909.096.622.24z" fill="#E8DE95"/><path d="M117.352 16.547c.437-.917.912-1.792 1.424-2.624.512-.843 1.168-1.717 1.968-2.624l.128-.16a.322.322 0 00.064-.176c0-.139-.085-.23-.256-.272a1.502 1.502 0 00-.432-.08.476.476 0 00-.352.128 2.145 2.145 0 00-.32.4 80.64 80.64 0 00-1.76 2.784 17.452 17.452 0 00-1.296 2.544c-.32.821-.48 1.627-.48 2.416 0 .619.155 1.184.464 1.696.32.501.763.907 1.328 1.216.565.299 1.227.448 1.984.448.853 0 1.563-.176 2.128-.528a3.387 3.387 0 001.264-1.424 4.44 4.44 0 00.416-1.92c0-.64-.16-1.205-.48-1.696a3.34 3.34 0 00-1.28-1.152 3.554 3.554 0 00-1.744-.432c-.565 0-1.093.128-1.584.384-.48.256-.875.613-1.184 1.072zm2.464 4.88c-.907 0-1.605-.245-2.096-.736-.491-.501-.736-1.115-.736-1.84 0-.533.128-1.024.384-1.472a2.87 2.87 0 011.072-1.072c.469-.277 1.013-.416 1.632-.416.501 0 .949.123 1.344.368.395.235.704.544.928.928.224.384.336.795.336 1.232 0 .555-.112 1.061-.336 1.52a2.494 2.494 0 01-.96 1.088c-.416.267-.939.4-1.568.4zm7.29-9.312l4.752-.4c-.427.853-.854 1.739-1.28 2.656a87.019 87.019 0 00-1.168 2.656 93.197 93.197 0 00-1.616 4.048c-.16.437-.24.688-.24.752 0 .16.08.25.24.272.17.032.309.048.416.048.245 0 .384-.075.416-.224l.208-.752a7.01 7.01 0 01.192-.608c.33-.896.688-1.819 1.072-2.768.384-.96.789-1.91 1.216-2.848.426-.939.864-1.83 1.312-2.672.053-.096.122-.213.208-.352.096-.139.16-.267.192-.384v-.032c.01-.01.016-.021.016-.032 0-.15-.086-.293-.256-.432-.16-.15-.304-.23-.432-.24h-.048c-.096 0-.203.016-.32.048a1.722 1.722 0 01-.352.064l-4.864.352a.741.741 0 00-.144.016h-.128c-.128 0-.235-.005-.32-.016a2.087 2.087 0 00-.256-.016c-.054 0-.08.032-.08.096s.032.16.096.288c.064.128.154.25.272.368.128.107.272.16.432.16.074 0 .149-.005.224-.016.085-.01.165-.021.24-.032zm-122.61.855v9.457l-.208.016a3.96 3.96 0 01-.32.016.362.362 0 00-.24.08.262.262 0 00-.08.192c0 .139.096.224.288.256.288.043.635.075 1.04.096.405.032.725.048.96.048.448 0 .955-.016 1.52-.048a10.22 10.22 0 001.696-.208 6.189 6.189 0 001.568-.544c.48-.256.864-.608 1.152-1.056.299-.448.448-1.019.448-1.712a2.54 2.54 0 00-.432-1.456 3.089 3.089 0 00-1.104-1.024 3.327 3.327 0 00-1.472-.432c.31-.107.624-.272.944-.496a3 3 0 00.832-.848c.224-.352.336-.757.336-1.216 0-.459-.123-.87-.368-1.232-.235-.363-.613-.65-1.136-.864-.512-.224-1.19-.336-2.032-.336-.416 0-.88.021-1.392.064a16.74 16.74 0 00-1.424.176c-.427.075-.747.155-.96.24a.216.216 0 00-.128.208c0 .117.053.245.16.384.107.139.224.219.352.24zm1.136 3.585h-.208v-3.808c.33-.085.699-.15 1.104-.192.416-.053.805-.08 1.168-.08.917 0 1.61.139 2.08.416.48.267.72.699.72 1.296 0 .405-.144.763-.432 1.072-.288.31-.64.56-1.056.752a5.223 5.223 0 01-1.216.4l-.624.08a19.044 19.044 0 01-1.536.064zm2.352.64h.32c.32.01.656.064 1.008.16.363.085.699.224 1.008.416.32.181.576.427.768.736.203.299.304.667.304 1.104 0 .555-.144 1.008-.432 1.36a3.088 3.088 0 01-1.136.848 6.8 6.8 0 01-1.52.448c-.533.085-1.056.144-1.568.176-.501.021-.939.032-1.312.032v-5.168a27.47 27.47 0 011.264-.08c.49-.021.923-.032 1.296-.032zm20.24 5.808h.016c.107 0 .16-.075.16-.224a.965.965 0 00-.144-.464c-.096-.17-.213-.256-.352-.256h-.016c-.16.01-.363.021-.608.032-.245.01-.485.016-.72.016l-4.896.08v-4.752l3.52-.192c.15-.01.31-.016.48-.016h1.168c.117 0 .176-.075.176-.224 0-.128-.053-.272-.16-.432-.096-.17-.213-.256-.352-.256a6.04 6.04 0 00-.56.048 23.58 23.58 0 01-.768.08l-3.504.208v-3.792l4.4-.288c.15-.01.31-.016.48-.016h1.168c.117 0 .176-.075.176-.224 0-.128-.053-.272-.16-.432-.096-.17-.213-.256-.352-.256a6.04 6.04 0 00-.56.048 23.58 23.58 0 01-.768.08l-4.352.288-.144-.048a1.966 1.966 0 00-.352-.112 1.086 1.086 0 00-.336-.064c-.128 0-.192.075-.192.224v.16c.01.053.021.123.032.208.021.128.032.272.032.432v3.808h-.16a3.285 3.285 0 00-.144-.032H20.4c-.075 0-.112.043-.112.128 0 .107.043.235.128.384.096.139.203.24.32.304v4.208c0 .128-.021.267-.064.416a1.77 1.77 0 00-.048.336c0 .117.07.267.208.448.15.181.293.272.432.272.16 0 .299-.021.416-.064a1.86 1.86 0 01.448-.048l4.448-.064h.256c.277 0 .555.005.832.016.288.01.475.021.56.032zm14.896-5.84v4.128c0 .277-.005.555-.016.832-.01.267-.016.464-.016.592 0 .139.085.245.256.32.17.085.33.128.48.128.181 0 .272-.053.272-.16 0-.181-.01-.427-.032-.736-.01-.31-.016-.63-.016-.96v-7.712c0-.277.005-.55.016-.816.01-.277.016-.48.016-.608 0-.139-.085-.245-.256-.32a1.08 1.08 0 00-.48-.128c-.181 0-.272.053-.272.16 0 .181.005.427.016.736.021.31.032.63.032.96v3.024a.787.787 0 00-.16-.24.288.288 0 00-.224-.112h-.048c-.128.021-.32.043-.576.064l-.752.064-4.176.24h-.24v-3.024c0-.277.005-.55.016-.816.01-.277.016-.48.016-.608 0-.139-.085-.245-.256-.32a1.08 1.08 0 00-.48-.128c-.181 0-.272.053-.272.16 0 .181.005.427.016.736.021.31.032.63.032.96v3.04h-.288a1.712 1.712 0 00-.192-.016h-.016c-.107 0-.16.075-.16.224 0 .139.048.293.144.464.096.17.213.256.352.256h.08a.265.265 0 01.08-.016v3.776c0 .277-.005.555-.016.832-.01.267-.016.464-.016.592 0 .139.085.245.256.32.17.085.33.128.48.128.181 0 .272-.053.272-.16 0-.181-.01-.427-.032-.736-.01-.31-.016-.63-.016-.96v-3.904h.128a.53.53 0 01.128-.016l4.176-.24h.176c.064-.01.128-.016.192-.016.256 0 .507.01.752.032.245.01.421.016.528.016.021 0 .053-.01.096-.032zm16.16-3.84v7.904c0 .277-.005.555-.016.832-.01.267-.016.464-.016.592 0 .139.085.25.256.336.17.075.325.112.464.112.181 0 .272-.053.272-.16 0-.181-.01-.427-.032-.736-.01-.31-.016-.63-.016-.96v-8.528c0-.096.016-.197.048-.304a.757.757 0 00.064-.272c0-.043-.005-.07-.016-.08-.043-.117-.155-.208-.336-.272a1.317 1.317 0 00-.496-.112.488.488 0 00-.144.016.241.241 0 00-.192.144c-.043.075-.09.155-.144.24-.661 1.13-1.36 2.277-2.096 3.44a149.904 149.904 0 01-2.176 3.312c-.715 1.056-1.381 2-2 2.832v-8.08c0-.277.005-.55.016-.816.01-.277.016-.48.016-.608 0-.139-.085-.245-.256-.32a.985.985 0 00-.464-.128c-.181 0-.272.053-.272.16 0 .181.005.427.016.736.021.31.032.63.032.96v8.016c0 .096-.01.245-.032.448a4.298 4.298 0 00-.032.432c0 .15.09.304.272.464.192.15.379.224.56.224.16 0 .288-.075.384-.224l.272-.384c.47-.65.97-1.365 1.504-2.144.544-.779 1.088-1.579 1.632-2.4a217.34 217.34 0 001.568-2.432c.512-.8.965-1.547 1.36-2.24zm9.328.256v7.712c0 .277-.005.555-.016.832-.01.267-.016.464-.016.592 0 .139.085.245.256.32.17.085.33.128.48.128.181 0 .272-.053.272-.16 0-.181-.01-.427-.032-.736-.01-.31-.016-.63-.016-.96v-3.12c.437-.01.859-.027 1.264-.048.416-.021.805-.053 1.168-.096.341.523.688 1.045 1.04 1.568.363.512.71.997 1.04 1.456l.864 1.2c.096.128.197.272.304.432.107.15.203.288.288.416.053.064.139.096.256.096.16 0 .33-.053.512-.16.181-.096.272-.197.272-.304 0-.043-.021-.085-.064-.128a6.915 6.915 0 01-.816-.88 41.77 41.77 0 01-.976-1.264 47.89 47.89 0 01-.976-1.392c-.31-.47-.581-.88-.816-1.232.565-.15 1.008-.357 1.328-.624.33-.267.57-.55.72-.848.16-.299.261-.581.304-.848.043-.277.064-.501.064-.672 0-.47-.085-.95-.256-1.44a5.245 5.245 0 00-.784-1.456c-.075-.096-.187-.144-.336-.144a.923.923 0 00-.464.128c-.139.085-.208.187-.208.304 0 .064.032.128.096.192.363.373.624.768.784 1.184.16.416.24.816.24 1.2 0 .704-.203 1.237-.608 1.6-.405.352-.97.587-1.696.704-.725.117-1.573.176-2.544.176v-3.712c0-.277.005-.55.016-.816.01-.277.016-.48.016-.608 0-.139-.085-.245-.256-.32a1.08 1.08 0 00-.48-.128c-.181 0-.272.053-.272.16 0 .181.005.427.016.736.021.31.032.63.032.96zm22.672-.256v7.904c0 .277-.005.555-.016.832-.01.267-.016.464-.016.592 0 .139.085.25.256.336.17.075.325.112.464.112.181 0 .272-.053.272-.16 0-.181-.01-.427-.032-.736-.01-.31-.016-.63-.016-.96v-8.528c0-.096.016-.197.048-.304a.757.757 0 00.064-.272c0-.043-.005-.07-.016-.08-.043-.117-.155-.208-.336-.272a1.317 1.317 0 00-.496-.112.488.488 0 00-.144.016.241.241 0 00-.192.144c-.043.075-.09.155-.144.24-.661 1.13-1.36 2.277-2.096 3.44a149.904 149.904 0 01-2.176 3.312c-.715 1.056-1.381 2-2 2.832v-8.08c0-.277.005-.55.016-.816.01-.277.016-.48.016-.608 0-.139-.085-.245-.256-.32a.985.985 0 00-.464-.128c-.181 0-.272.053-.272.16 0 .181.005.427.016.736.021.31.032.63.032.96v8.016c0 .096-.01.245-.032.448a4.298 4.298 0 00-.032.432c0 .15.09.304.272.464.192.15.379.224.56.224.16 0 .288-.075.384-.224l.272-.384c.47-.65.97-1.365 1.504-2.144.544-.779 1.088-1.579 1.632-2.4a217.34 217.34 0 001.568-2.432c.512-.8.965-1.547 1.36-2.24zm8.432-3.052c3.546-4.49 4.237-6.617 4.237-8.235 0-.607-.17-1.274.53-.952.912.484 5.954 8.777 6.999 12.088 2.467 7.821.611 8.484-.05 9.495-.861.978-1.92 1.703-3.663 1.703-.959 0-3.419-1.534-3.882-2.95 0 0-.263-.27-.759-.27h-.331l-.346-.165c-.059-.104-.645 0-.806-.16 0-.136-.802-.147-1.762-.08-2.1 0-3.11-.804-3.712-2.415-.596-2.192.364-4.03 3.545-8.059z" fill="#000"/><path d="M99.968 10.271c2.514-3.159 4.093-6.092 4.093-7.64 0-.58.129-1.063.323-1.063.935 0 5.995 8.584 6.962 11.765 2.224 7.318.645 8.059 0 9.026-.838.935-1.848 1.708-3.545 1.708-.935 0-3.353-1.547-3.804-2.9-.322-.807-.645.031-.451 1.095.29 1.547 1.321 3.063 2.482 3.675 1.321.677 4.158.677 7.381 0 3.514-.741 7.962-1.16 12.572-1.16 3.835 0 8.058-.323 10.83-.806l1.257-.226-.644.677c-.613.645-1.129.677-10.476.967-8.059.258-10.412.451-13.055 1-4.61.998-7.188.805-10.251-.807-1.321-.677-3.03-1.289-3.932-1.418-1.128-.129-1.612-.355-1.612-.677 0-.902 2.45-.548 4.319.58.903.58 1.644 1 1.644.935 0-.064-.29-.644-.644-1.354-.355-.709-.645-1.611-.645-1.998 0-.451-.193-.742-.483-.742-.258 0-.484-.096-.484-.257 0-.13-.774-.194-1.708-.13-2.031.13-3.256-.644-3.74-2.352-.58-2.096.033-3.45 3.61-7.898z" fill="#000"/><path d="M99.968 10.271c2.514-3.159 4.093-6.092 4.093-7.64 0-.58.129-1.063.323-1.063.935 0 5.995 8.584 6.962 11.765 2.224 7.318.645 8.059 0 9.026-.838.935-1.848 1.708-3.545 1.708-.935 0-3.353-1.547-3.804-2.9-.322-.807-.774-.258-1.096-.258-.288 0-.32-.162-.61-.162-.167 0-.468 0-.486-.096 0-.13-.774-.194-1.708-.13-2.031.13-3.256-.644-3.74-2.352-.58-2.096.033-3.45 3.61-7.898z" fill="#5AE4A7"/><path d="M103.58 17.04c-.29 2.547.387 3.965.806 4.835l-1.128-.805-.967-.323c.483.162.516-1.16.806-3.707.193-1.998 1.257-4.229 1.515-5.002.258-.774.387-1.547.29-1.709-.129-.16-.032-.548.129-.838.548-.934.451 1.87-.097 3.16-.258.612-1.192 2.713-1.354 4.39z" fill="#000"/></svg>