<svg width="58" height="151" fill="none" xmlns="http://www.w3.org/2000/svg"><path d="M16.482 1.787c-2.15.768-5.68 3.378-8.137 5.681C-4.09 19.291 1.897 46.776 23.544 76.871l5.834 8.138 4.298-5.22c5.373-6.45 17.348-29.328 21.34-40.844C58.7 28.044 58.7 22.67 54.861 14.84 50.256 5.472 42.734 1.019 30.452.559c-5.527-.307-11.82.307-13.97 1.228zM40.584 6.24c13.664 6.142 16.12 18.886 7.523 38.847C42.58 57.832 31.68 76.871 29.992 76.871c-1.996 0-10.747-13.205-16.734-25.335-4.452-9.06-6.294-15.047-7.062-22.418C5.12 16.528 7.578 11 16.789 6.394 24.925 2.4 32.14 2.4 40.584 6.24z" fill="#000"/><path d="M20.32 19.291c-5.372 5.374-5.065 11.67.922 16.737 5.22 4.453 7.676 4.913 12.589 2.15 4.912-2.61 7.062-5.989 7.215-11.21 0-5.527-1.075-7.37-5.68-9.826-5.373-2.764-11.054-1.996-15.045 2.15zm16.12 3.685c3.07 5.989-1.842 12.438-9.21 12.438-5.22 0-8.137-9.674-4.3-13.513 3.071-3.07 11.668-2.303 13.51 1.075zM30.297 92.84c0 2.611.768 3.993 2.457 3.993 1.535 0 2.149-1.075 1.842-3.378-.768-4.913-4.299-5.374-4.299-.614zm0 17.044c0 4.299 2.303 5.22 3.685 1.382 1.535-3.839 1.075-5.221-1.382-5.221-1.382 0-2.303 1.382-2.303 3.839zm-3.53 14.126c-1.536 1.535-1.229 6.602.307 6.602 1.381 0 3.224-3.685 3.224-6.295 0-1.689-2.15-1.843-3.531-.307zm-9.365 15.201c-3.53 3.378-1.228 5.989 2.303 2.764 1.535-1.382 2.917-3.224 2.917-3.992 0-1.996-2.61-1.382-5.22 1.228zM.977 148.424c-1.689 2.15-1.382 2.303 2.456 1.843 2.457-.154 4.606-1.382 5.067-2.457.92-2.764-5.067-2.303-7.523.614z" fill="#000"/></svg>