<svg width="564" height="130" fill="none" xmlns="http://www.w3.org/2000/svg"><path d="M164.001 99.5l1.001-22 13.499 6.999 5 6h6l6.5 7.5 10 3v10l-.5 1.001-19.5-.5-21-1.5-1-10.5z" fill="#5AE4A9"/><path d="M114 93.5l10.5-4 1.5 14-11.5 4.5-.5-14.5z" fill="#E8DE95"/><path d="M31.5 52.5c0 12.979-11.021 25-24 25C-2 77.5.501 66.5 0 54c3.5-15.5-4.999-29 7.5-26.5 12.979 0 24 12.022 24 25z" fill="#5AE4A9"/><path d="M117.342 6.369c6.355 3.396 19.276 9.445 28.701 13.584 24.783 10.825 31.667 14.22 30.29 14.752-1.694.53-34.632-13.903-55.602-24.304l-16.733-8.384-30.396 16.556C56.87 27.7 42.783 35.66 42.254 36.084c-1.377 1.274-2.754 1.168-2.754 0 0-.849 18.958-11.674 40.775-23.348 1.694-.955 3.389-1.91 3.706-2.229C85.146 9.34 103.892-.104 104.74.002c.53.106 6.143 2.971 12.603 6.368z" fill="#1E2F35"/><path d="M102.499 19.3c.6.8 1 2.5.8 3.8-.2 1.9-.9 2.3-3.7 2.3-4.8 0-6.5-2.9-3.2-5.6 2.8-2.3 4.4-2.4 6.1-.5zm-4.8 1.8c-1.9 1.9-1.4 2.8 1.2 2.8 2.7 0 4.1-1.4 3.1-3-.8-1.4-2.8-1.3-4.3.2zm-93.23 6.913c-2.168 1.316-3.577 1.316-2.71 0C2.085 27.405 3.277 27 4.252 27c1.626 0 1.626.203.217 1.013zm17.868 4.476C28.907 37.286 32.5 44.59 32.5 53.204c0 3.38-.513 6.76-1.232 7.523-.924.98-1.026-.546-.616-6.76.514-7.74.41-8.286-2.771-12.756-1.848-2.617-5.749-6.433-8.623-8.504C16.384 30.635 14.844 29 15.768 29c.821 0 3.798 1.635 6.57 3.489zM51.5 42.848c0 5.708-.521 11.1-1.042 11.946-.73 1.057-1.043-1.903-.938-9.832.104-6.237.52-11.629 1.042-11.946.521-.317.938 4.123.938 9.832zm116.85-6.056c-1.062 3.795-2.973 36.155-3.079 54.286l-.212 18.762H146.37l.106-22.452.212-22.346-24.317-.527c-13.273-.317-30.688-.528-38.545-.528H69.49v46.381l-11.469.316L46.66 111v-9.065c0-7.8-.212-8.96-1.911-8.96-1.593-.105-1.699-.21-.106-1.37.956-.738 2.124-3.69 2.548-6.852 1.38-9.908 2.124-5.797 1.805 9.276l-.424 14.757h18.795V85.702c0-12.755.318-23.296.53-23.506.32-.211 18.477-.211 40.352.21l39.82.527.318 22.347.213 22.452h14.547l.106-17.181c.213-17.077 1.806-45.643 2.974-52.178.424-1.792 1.168-3.373 1.699-3.373.531 0 .743.843.424 1.792zM7.115 46.756c-.624 2.437-.416 2.65 1.56 2.013 2.808-.848 2.808.848.104 2.756-1.664 1.166-2.288 3.073-2.808 8.902l-.623 7.42 2.495-1.908c1.352-.954 3.536-2.544 4.888-3.498 1.248-.954 2.6-1.484 2.911-1.166.312.318-1.768 2.438-4.68 4.664-4.263 3.285-5.199 4.663-5.199 7.418-.103 3.074.208 3.498 2.704 3.498 4.576-.106 11.855-3.922 16.118-8.69 4.784-5.3 5.408-3.604.624 1.8-3.847 4.452-9.67 7.844-15.702 8.797l-4.367.848-.312 12.93c-.312 12.188-.208 12.93 1.663 12.93 2.704 0 14.039 5.829 16.327 8.479 2.703 2.967.103 2.649-4.056-.53-4.472-3.497-10.19-5.829-14.142-5.829-2.6 0-3.12-.424-2.704-1.908.312-.954.832-7.207 1.248-13.884.52-9.644.416-12.188-.728-12.93-1.144-.635-1.144-1.165-.104-2.225 1.456-1.484 1.664-9.963.208-10.916-.624-.318-1.04-1.378-1.04-2.226 0-.848.416-1.378.936-1.06.936.636 2.184-4.24 2.184-8.373 0-1.377-.728-2.65-1.56-3.073-.832-.318-1.56-1.378-1.56-2.438 0-1.378.312-1.483 1.248-.53 1.976 2.014 2.912 1.484 2.912-1.377 0-1.484.52-2.65 1.04-2.65.623 0 .831 1.166.415 2.756zm396.527 9.94c.318.954.636 2.544.636 3.71 0 1.06.637 2.014 1.274 2.014.743.106 5.094.742 9.657 1.59 13.37 2.332 21.117 8.162 23.876 18.127 1.274 4.452 1.91 20.776.955 22.366-.318.53-3.077.636-6.155.318-5.412-.53-5.73-.636-6.367-4.24-1.273-6.042-6.685-9.01-11.673-6.36-1.485.848-2.016 2.226-2.016 5.194 0 5.3-1.167 5.724-11.461 4.24-5.199-.742-15.387-.954-28.121-.424-18.995.636-19.844.636-19.844-1.378 0-2.544-4.245-6.572-7.11-6.572-2.653 0-5.093 2.756-6.049 6.678-.636 2.862-.848 2.968-5.73 2.332-9.975-1.272-9.444-.742-8.595-7.632.424-3.392.849-13.356.849-22.26l.106-16.007 9.762-.636c7.641-.53 60.275-2.756 64.52-2.756.425 0 1.167.742 1.486 1.696zm-56.986 2.438c-8.595.53-15.811 1.06-16.023 1.272-.213.212-.637 9.646-.955 20.777l-.531 20.458 3.608.106c2.016.106 4.139.212 4.669.318.637.106 1.91-1.59 2.972-3.604 3.395-6.784 10.93-6.784 14.856 0l1.804 3.074 21.86-.212 21.861-.212.742-11.024c.319-6.042.637-16.007.637-22.049v-11.13l-19.95.742c-10.93.424-26.848 1.06-35.55 1.484zm57.198 23.533c-.424 9.964-.637 18.232-.424 18.444.106.212 2.016.53 4.032.742 3.502.318 3.714.106 4.032-3.074.425-3.71 4.457-7.738 7.853-7.738 4.882 0 10.4 5.3 10.4 9.964 0 .954 1.591 1.59 4.138 1.908 4.882.424 5.412-.636 4.563-10.176l-.424-5.936h-9.551c-9.126 0-9.656-.106-12.734-3.18-3.077-3.074-3.183-3.604-2.759-10.6.425-7.103.318-7.315-2.334-7.739-6.474-1.06-6.049-2.226-6.792 17.385zm11.036-9.223c0 6.149.319 7.103 2.759 9.01 2.335 1.803 4.351 2.227 11.143 2.227 7.322 0 8.383-.212 8.383-1.908 0-2.12-3.82-8.587-6.261-10.6-3.077-2.545-10.081-5.513-13.159-5.513-2.865 0-2.865.106-2.865 6.784zM50.5 69.664c0 2.93-.5 5.336-1 5.336-.6 0-1-2.093-1-4.604 0-2.615.4-5.022 1-5.336.6-.418 1 1.36 1 4.604zm507.487 15.121c3.26 3.456 5.705 6.492 5.501 6.806-.509.42-12.225 2.304-15.179 2.409-1.528 0-1.63-.419-.611-3.35.917-2.514.815-3.457 0-3.77-1.936-.629-1.426-2.304.815-2.304 1.528 0 2.037-.733 2.037-2.514 0-1.466.306-2.827.713-3.036.51-.315 3.464 2.303 6.724 5.759zm-6.724 2.408l-1.63 4.608 4.788-.628c2.649-.314 4.992-.838 5.196-1.047.407-.315-6.011-7.645-6.622-7.645-.102 0-.917 2.095-1.732 4.712zM525.427 79c.286.5-.285 1-1.427 1-1.142 0-1.713-.5-1.427-1 .285-.6.951-1 1.427-1 .476 0 1.142.4 1.427 1zm-7.055.322c-.338.661-1.352.925-2.252.397-2.365-.926-2.14-1.719.675-1.719 1.239 0 2.027.529 1.577 1.322zm-9.18-.552c-.587.307-1.762.307-2.448 0-.587-.462-.097-.77 1.273-.77 1.371 0 1.861.308 1.175.77zm-7.82.569c.45.397-.338.661-1.577.661-2.815 0-3.04-.397-.675-.86.9-.264 1.914-.132 2.252.199z" fill="#1E2F35"/><path d="M172.016 80.507c1.599 1.91 2.771 2.44 4.902 2.016 2.557-.53 3.09-.106 4.582 3.502 2.131 5.2 1.812 4.987 4.902 3.502 3.729-1.592 6.926.212 8.098 4.67.852 3.077 1.172 3.395 4.689 3.077 5.221-.425 8.311 2.547 8.311 7.959 0 4.032-1.492 7.641-2.557 6.579-.32-.318-.213-2.016.319-3.82.64-2.229.533-4.139-.319-5.731-1.066-2.122-2.025-2.546-6.181-2.44-4.688.212-4.795.106-5.754-3.608-1.172-4.67-3.836-6.58-6.819-4.67-3.517 2.123-5.009 1.486-5.755-2.44-.852-4.564-2.344-5.519-5.008-3.078-2.237 2.016-2.131 2.122-3.942-2.017-.746-1.697-2.238-3.29-3.41-3.608-1.172-.318-1.812-.955-1.492-1.485 1.066-1.698 3.41-.955 5.434 1.591zM121.84 82.34l11.13 3.34.318 13.36.212 13.466-15.052 8.35c-8.268 4.593-15.37 8.246-15.794 8.142-.424-.105-5.512-3.132-11.448-6.576L80.5 116.055v-9.603c0-5.324.318-12.004.636-15.03l.742-5.324 14.416-3.55L110.71 79l11.13 3.34zm-26.288 2.192c-4.134.94-7.632 1.983-7.632 2.4 0 .314 3.922 2.297 8.798 4.28l8.798 3.654 10.282-3.758c5.618-1.983 10.494-4.07 10.812-4.384.424-.417-3.074-1.774-7.632-3.131-6.254-1.88-9.116-2.297-11.978-1.67-2.014.522-7.208 1.67-11.448 2.61zm31.694 4.384c-1.166.73-1.378 2.714-.848 8.872.318 4.384.212 8.142-.106 8.351-.424.208-1.696 0-2.862-.418-1.59-.626-2.862-.104-4.982 1.775-3.392 3.131-5.088 2.4-5.088-2.088 0-1.879-.318-5.115-.636-7.202-.636-3.55-.848-3.758-3.18-2.714-2.12.94-2.544 1.983-2.544 5.95 0 2.609-.53 8.976-1.06 14.091-.636 5.114-.954 9.498-.742 9.707.53.418 25.334-13.256 26.182-14.404.318-.418.424-5.741.212-11.795-.318-11.169-.848-12.317-4.346-10.125zm-44.52 15.344l-.106 10.542 9.752 5.845 9.858 5.741.742-2.714c.424-1.565 1.166-8.246 1.484-14.926l.742-12.108-3.074-1.148c-1.696-.626-6.466-2.505-10.494-4.175l-7.42-3.027-.636 2.714c-.424 1.461-.742 7.515-.848 13.256zm31.8-6.89c.106 1.984.424 5.011.848 6.681l.636 2.923 2.014-2.192c1.484-1.566 2.756-1.983 4.664-1.462 2.544.627 2.65.418 2.014-2.818-.424-1.879-.742-4.906-.742-6.784v-3.445l-4.77 1.774c-4.452 1.566-4.77 1.88-4.664 5.324zm183.875-16.966c3.584.751 6.758 1.61 7.065 2.039.614.644-7.269 12.557-8.293 12.557-.307 0-1.126-1.717-1.946-3.756-1.126-2.683-1.945-3.542-3.071-3.113-.922.322-1.638.215-1.638-.43 0-.643.614-1.287 1.228-1.609 1.024-.43 1.024-.751 0-1.932-1.331-1.502-1.74-5.366-.512-5.151.512.107 3.686.644 7.167 1.395zm-4.812 2.254c0 .644 3.072 7.19 3.686 7.942.41.429 5.427-5.474 5.529-6.547 0-.751-2.969-1.503-6.962-1.825-1.229 0-2.253.108-2.253.43zM534.5 81c0 .5-.671 1-1.566 1-.894 0-2.012-.5-2.348-1-.335-.6.336-1 1.566-1 1.342 0 2.348.4 2.348 1zm-42.831.013c-2.007 1.316-3.169 1.316-3.169 0 0-.608 1.056-1.013 2.324-1.013 2.006 0 2.112.203.845 1.013zm-257.645.391c3.099 4.815 3.21 5.8.775 7.66-4.65 3.721-9.299 1.86-9.299-3.72 0-4.269 6.31-7.223 8.524-3.94zm-6.199 2.298c-1.661 2.08 1.107 5.8 3.653 4.815 2.546-.985 2.324-6.238-.332-6.238-1.107 0-2.657.657-3.321 1.423zM484.5 81.806c0 .616-.737 1.603-1.684 1.973-1.053.493-1.474.123-1.263-.74.526-1.85 2.947-2.837 2.947-1.233zM542.407 83c.281.5-.094 1-.844 1-.751 0-1.688-.5-1.97-1-.281-.6.094-1 .844-1 .751 0 1.688.4 1.97 1zm-65.042 1.304c2.007 3.934 1.338 6.857-1.896 8.094-5.91 2.248-10.705-2.136-8.363-7.532 1.673-3.484 8.475-3.934 10.259-.562zm-8.586 1.911c-.892 2.586 2.23 5.283 5.129 4.384 2.23-.674 3.122-3.822 1.561-5.395-1.338-1.462-6.021-.787-6.69 1.011zM29.414 89.341c1.646 1.383 2.525 2.47 1.866 2.47-.768 0-2.525.888-3.952 1.876-4.94 3.555-10.54-.79-6.368-4.938 2.525-2.47 4.721-2.37 8.454.592zm-6.807.396c-1.866 1.086-.768 4.049 1.427 4.049 2.086 0 3.184-1.68 2.416-3.457-.66-1.679-1.647-1.778-3.843-.592zM285.5 88.469c0 1.2-2.374 2.101-2.968 1.1-.169-.5.339-1.1 1.272-1.4.933-.3 1.696-.2 1.696.3zM244.5 90c0 .5-.671 1-1.566 1-.894 0-2.012-.5-2.348-1-.335-.6.336-1 1.566-1 1.342 0 2.348.4 2.348 1zm33 1c0 .5-.7 1-1.5 1s-1.5-.5-1.5-1c0-.6.7-1 1.5-1s1.5.4 1.5 1zm-25.081-.35c2.298 1.661.575 3.324-1.838 1.661-1.034-.692-1.379-1.662-.804-2.077.574-.416 1.723-.277 2.642.415zM270.5 92c0 .5-1.125 1-2.5 1s-2.5-.5-2.5-1c0-.6 1.125-1 2.5-1s2.5.4 2.5 1zm-9 0c0 .5-.9 1-2 1s-2-.5-2-1c0-.6.9-1 2-1s2 .4 2 1zM40.387 92c.477.6-.597 1-2.387 1s-2.864-.4-2.387-1c.358-.6 1.432-1 2.387-1 .955 0 2.029.4 2.387 1zm144.956 8.872c0 .549-.983 2.527-2.184 4.394l-2.185 3.626 7.427.11c8.955.109 5.242 1.757-4.369 1.977-5.897.11-6.334-.11-7.972-3.186-2.184-4.394-2.075-6.811.328-3.076.983 1.758 2.075 3.076 2.512 3.076.327 0 1.528-1.758 2.73-3.845 1.856-3.515 3.713-5.053 3.713-3.076zm239.126 4.467c2.325 3.331.528 6.661-3.486 6.661-5.283 0-7.291-4.239-3.593-7.367 2.747-2.422 5.177-2.119 7.079.706zm-6.233 1.312c-.423.909 0 2.321.95 3.23 1.374 1.413 1.797 1.413 3.17 0 2.007-1.918 1.057-4.945-1.585-4.945-1.056 0-2.219.807-2.535 1.715zm-66.297-2.337c2.03 2.166 2.132 5.054 0 7.116-2.131 2.269-4.77 2.063-7.104-.516-1.726-1.959-1.726-2.371-.305-4.847 1.726-3.3 5.075-4.021 7.409-1.753zm-5.988 2.579c-.812 2.681.102 4.125 2.639 4.125 2.233 0 3.451-2.269 2.537-4.641-.812-2.269-4.465-1.856-5.176.516zM13.044 117.657c2.043 1.551 2.043 1.551-.681 1.034-1.589-.31-4.767-.621-7.15-.621-2.61 0-4.086-.413-3.632-1.034 1.135-1.654 8.966-1.24 11.463.621zM84.605 34.08l-.59-.63c1.358-.9 2.595-1.351 3.713-1.351.964 0 1.745.349 2.342 1.047.597.685.895 1.536.895 2.552 0 1.27-.432 2.164-1.295 2.685.635.101 1.11.482 1.428 1.142.317.648.476 1.422.476 2.324 0 1.37-.292 2.43-.876 3.18-.584.749-1.555 1.123-2.913 1.123a5.714 5.714 0 01-2.59-.609c-.8-.406-1.365-.99-1.695-1.752a.478.478 0 00.133-.152l.057-.115a.328.328 0 01.096-.095c.063-.05.158-.108.285-.171.559.508 1.181.92 1.867 1.238.685.304 1.332.457 1.942.457.685 0 1.231-.223 1.638-.667.418-.457.628-1.155.628-2.095 0-.964-.273-1.745-.819-2.342-.546-.597-1.352-.895-2.418-.895-.153 0-.42.013-.8.038a6.465 6.465 0 00-.095-.419 25.29 25.29 0 01-.153-.97c.14-.014.394-.026.762-.039.368-.025.628-.044.78-.057l.648-.114c.292-.064.502-.146.629-.248.14-.102.285-.229.438-.38a1.32 1.32 0 00.342-.63c.064-.253.096-.551.096-.894 0-.622-.21-1.073-.629-1.352-.406-.292-.952-.438-1.637-.438-.915 0-1.81.21-2.686.628zm9.197 3.693l-.38-.97a3.46 3.46 0 011.256-.781 4.03 4.03 0 011.505-.305c2.145 0 3.218 1.853 3.218 5.56 0 .508-.032 1.257-.095 2.247-.051.99-.076 1.733-.076 2.228-.102.394-.299.59-.59.59-.23 0-.439-.114-.63-.342a1.161 1.161 0 01-.285-.762c0-.089.006-.152.02-.19-.788.762-1.626 1.142-2.514 1.142-.673 0-1.264-.24-1.771-.723a2.44 2.44 0 01-.743-1.79c0-1.18.457-2.247 1.37-3.2.928-.952 1.975-1.428 3.143-1.428a.61.61 0 01.152.02.94.94 0 01.172.018c.076.013.133.02.171.02-.101-1.486-.692-2.229-1.77-2.229-.636 0-1.353.299-2.153.895zm3.98 5.96c.026-.888.038-1.56.038-2.018 0-.38-.012-.914-.038-1.6h-.152c-.901.013-1.727.35-2.476 1.01-.736.66-1.104 1.46-1.104 2.4 0 .406.12.73.362.97.253.242.558.362.914.362.558 0 1.377-.374 2.456-1.123zm9.979 1.79l.057.839c-.305.076-.521.114-.648.114-.482 0-.92-.159-1.314-.476a3.931 3.931 0 01-.971-1.162 34.897 34.897 0 01-.723-1.37 5.865 5.865 0 00-.705-1.162c-.254-.318-.514-.476-.781-.476a.713.713 0 00-.285.057c.05.761.139 1.993.266 3.694-.114.394-.336.59-.666.59-.229 0-.451-.088-.667-.266a1.239 1.239 0 01-.381-.686c.051-2.133.077-4.138.077-6.017 0-1.384.057-2.482.171-3.295l.857.305c.101.495.159 1.206.171 2.133.013.914.026 1.479.038 1.695.381-.064.711-.26.991-.59.292-.33.526-.705.704-1.124.191-.42.387-.832.59-1.238.204-.406.464-.75.781-1.028.33-.28.718-.42 1.162-.42.228 0 .584.077 1.066.23l-.076.647a1.938 1.938 0 00-.305-.02c-.507 0-.952.216-1.333.648a4.41 4.41 0 00-.837 1.41 8.136 8.136 0 01-.686 1.465c-.279.47-.584.743-.914.82.47.114.87.431 1.2.951.342.521.596 1.06.761 1.62.178.545.432 1.047.762 1.504.33.444.736.666 1.219.666.127 0 .266-.019.419-.057zm1.523-7.75l-.381-.97c.33-.33.749-.591 1.257-.781a4.03 4.03 0 011.505-.305c2.145 0 3.218 1.853 3.218 5.56 0 .508-.032 1.257-.095 2.247a47.55 47.55 0 00-.077 2.228c-.101.394-.298.59-.59.59-.228 0-.438-.114-.628-.342a1.159 1.159 0 01-.286-.762c0-.089.006-.152.019-.19-.787.762-1.625 1.142-2.514 1.142-.672 0-1.263-.24-1.771-.723a2.44 2.44 0 01-.742-1.79c0-1.18.457-2.247 1.371-3.2.927-.952 1.974-1.428 3.142-1.428a.61.61 0 01.152.02.89.89 0 01.172.018c.076.013.133.02.171.02-.102-1.486-.692-2.229-1.771-2.229-.635 0-1.352.299-2.152.895zm3.98 5.96c.026-.888.038-1.56.038-2.018 0-.38-.012-.914-.038-1.6h-.152c-.902.013-1.727.35-2.476 1.01-.736.66-1.104 1.46-1.104 2.4 0 .406.12.73.362.97.253.242.558.362.914.362.558 0 1.377-.374 2.456-1.123zm4.285-2.437l-.076-1.066a1.1 1.1 0 01.171.019h.19c1.283 0 1.924-.559 1.924-1.676-.14-.977-.679-1.466-1.619-1.466-.355 0-.876.102-1.561.305l-.343-.553c.533-.495 1.295-.742 2.285-.742.698 0 1.282.177 1.752.533.47.355.705.876.705 1.561 0 .42-.083.832-.248 1.238-.165.394-.381.692-.647.895.482.102.856.432 1.123.99.279.546.419 1.162.419 1.848a3.44 3.44 0 01-.857 2.323c-.571.66-1.308.99-2.209.99-.444 0-.977-.127-1.6-.38-.622-.255-.933-.572-.933-.953 0-.267.172-.4.515-.4.228 0 .526.108.895.324.368.203.672.305.914.305.533 0 1.003-.235 1.409-.705.406-.47.609-.99.609-1.562 0-.609-.216-1.066-.647-1.37-.419-.318-.959-.477-1.619-.477-.254 0-.438.007-.552.02zm223.215 45.142l-.857-.19c-.114-.966-.311-1.753-.59-2.362a43.887 43.887 0 00-3.161-.114c-.902 0-2.241.038-4.018.114-.076.266-.222 1.193-.438 2.78l-.819-.076c-.254-1.359-.381-2.526-.381-3.504v-.267a3.03 3.03 0 00.019-.285h.628l.629-.02c.33-.672.597-1.396.8-2.17.216-.787.362-1.625.438-2.514a51.27 51.27 0 00.152-2.361 73.92 73.92 0 00.038-2.61c0-1.053.006-1.84.019-2.36.889-.064 2.869-.096 5.942-.096l.418 11.94c.204.026.413.045.629.057l.628.038a7.194 7.194 0 00-.057.99c0 .204.007.521.019.953.013.444.019.774.019.99 0 .432-.019.787-.057 1.067zm-7.465-4.038c.343 0 .857.013 1.543.038.685.013 1.193.02 1.523.02.483 0 .984-.02 1.505-.058.025-.8.038-2.05.038-3.751v-3.79c0-1.51.012-2.634.038-3.37a12.297 12.297 0 00-.8-.038c-.292 0-.717.019-1.276.057l-1.104.076c-.038.571-.083 1.473-.134 2.704a87.292 87.292 0 01-.152 2.838c-.051.672-.178 1.51-.381 2.513-.19.99-.457 1.91-.8 2.761zm8.703-2.456c0-.508.051-1.073.152-1.695.115-.622.28-1.276.495-1.961.216-.686.54-1.257.972-1.714.431-.457.933-.686 1.504-.686 1.219 0 2.196.552 2.933 1.657.736 1.092 1.104 2.31 1.104 3.656a7.87 7.87 0 01-.19 1.714 7.509 7.509 0 01-.553 1.657 3.618 3.618 0 01-1.104 1.37 3.093 3.093 0 01-1.657.61c-1.168-.152-2.069-.647-2.704-1.485-.635-.85-.952-1.892-.952-3.123zm3.237-5.066c-.444.051-.819.457-1.123 1.22a8.929 8.929 0 00-.591 2.227c-.088.711-.133 1.34-.133 1.885 0 .711.216 1.372.648 1.98.444.598.939.896 1.485.896.393 0 .749-.152 1.066-.457.318-.305.565-.68.743-1.124.19-.457.33-.914.419-1.37a5.74 5.74 0 00.152-1.22c0-1.04-.235-1.948-.704-2.723-.47-.774-1.124-1.212-1.962-1.314zm11.883-.323l-.095.819a9.918 9.918 0 00-1.371-.115c-.876 0-1.6.267-2.171.8a4.056 4.056 0 00-1.181 1.866c-.203.711-.304 1.505-.304 2.38 0 .407.025.769.076 1.086.05.317.139.628.266.933.14.305.349.546.629.724.292.165.647.247 1.066.247.559 0 1.27-.108 2.133-.323.267-.102.476-.153.628-.153.305 0 .489.356.553 1.067-1.118.355-2.152.533-3.104.533-1.384 0-2.324-.337-2.819-1.01-.482-.685-.723-1.79-.723-3.313 0-.889.057-1.663.171-2.323a6.523 6.523 0 01.647-1.866 3.102 3.102 0 011.314-1.333c.584-.305 1.295-.457 2.133-.457.94 0 1.657.146 2.152.438zm.59.704l-.171-.838c1.701-.101 4.38-.24 8.036-.419.305.013.565.127.781.343.216.216.324.445.324.686 0 .38-.254.596-.762.647l-3.561-.171c.063.952.095 2.342.095 4.17.013 1.816.038 3.142.076 3.98-.114.368-.336.553-.666.553-.216 0-.426-.09-.629-.267a1.141 1.141 0 01-.381-.648c.178-3.123.362-5.744.553-7.864l-3.695-.172zm10.436.514l-.381-.97c.33-.33.749-.591 1.257-.781a4.03 4.03 0 011.504-.305c2.146 0 3.219 1.853 3.219 5.56 0 .508-.032 1.257-.096 2.247a48.67 48.67 0 00-.076 2.228c-.101.394-.298.59-.59.59-.229 0-.438-.114-.629-.342a1.163 1.163 0 01-.285-.762c0-.089.006-.152.019-.19-.787.762-1.625 1.142-2.514 1.142-.673 0-1.263-.24-1.771-.723a2.44 2.44 0 01-.743-1.79c0-1.18.458-2.247 1.372-3.2.926-.952 1.974-1.428 3.142-1.428a.63.63 0 01.152.02c.051 0 .108.006.171.018.077.013.134.02.172.02-.102-1.486-.692-2.229-1.771-2.229-.635 0-1.352.299-2.152.895zm3.98 5.96a78.46 78.46 0 00.038-2.018c0-.38-.013-.914-.038-1.6h-.152c-.902.013-1.727.35-2.476 1.01-.736.66-1.104 1.46-1.104 2.4 0 .406.12.73.361.97.254.242.559.362.914.362.559 0 1.378-.374 2.457-1.123zm3.58-7.502c1.968-.419 3.167-.628 3.599-.628 1.701 0 2.552.73 2.552 2.19 0 .507-.089 1.002-.267 1.485-.165.47-.374.78-.628.933.99.673 1.485 1.6 1.485 2.78 0 1.117-.368 1.987-1.104 2.61-.724.621-1.682.932-2.876.932-1.422 0-2.482-.38-3.18-1.142l.419-9.16zm1.085 4.78l.172 3.865c.317.153.679.229 1.085.229.787 0 1.511-.248 2.171-.743.66-.495.99-1.072.99-1.733 0-.457-.177-.876-.533-1.256-.355-.394-.806-.59-1.352-.59-.317 0-1.161.075-2.533.228zm-.19-3.923l.133 2.933a9.48 9.48 0 01.876-.058c.394-.012.711-.038.952-.076.242-.05.508-.146.8-.285.292-.153.521-.413.686-.781.178-.368.298-.85.362-1.447-.127-.381-.515-.572-1.162-.572-.292 0-.749.045-1.371.133-.622.09-1.047.14-1.276.153zm14.206 8.436l.057.838c-.304.076-.52.114-.647.114a2.04 2.04 0 01-1.314-.476 3.916 3.916 0 01-.971-1.162 34.929 34.929 0 01-.724-1.37 5.865 5.865 0 00-.705-1.162c-.254-.318-.514-.476-.78-.476a.718.718 0 00-.286.057c.051.761.14 1.993.267 3.694-.115.394-.337.59-.667.59-.228 0-.451-.089-.666-.266a1.227 1.227 0 01-.381-.686c.05-2.133.076-4.138.076-6.017 0-1.384.057-2.482.171-3.295l.857.305c.102.495.159 1.206.172 2.133.012.914.025 1.479.038 1.695.381-.064.711-.26.99-.59a4.08 4.08 0 00.704-1.124c.191-.42.388-.832.591-1.238.203-.406.463-.75.781-1.028.33-.28.717-.42 1.161-.42.229 0 .584.077 1.067.23l-.077.647a1.924 1.924 0 00-.304-.02c-.508 0-.952.216-1.333.648a4.412 4.412 0 00-.838 1.41 8.069 8.069 0 01-.686 1.465c-.279.47-.584.743-.914.82.47.114.87.431 1.2.951.343.521.597 1.06.762 1.62a5.42 5.42 0 00.761 1.504c.33.444.737.666 1.219.666.127 0 .267-.019.419-.057zm1.524-7.75l-.381-.972c.33-.33.749-.59 1.256-.78a4.034 4.034 0 011.505-.305c2.145 0 3.218 1.853 3.218 5.56 0 .508-.032 1.257-.095 2.247-.051.99-.076 1.733-.076 2.228-.102.394-.299.59-.591.59-.228 0-.438-.114-.628-.342a1.164 1.164 0 01-.286-.762.69.69 0 01.019-.19c-.787.762-1.625 1.142-2.513 1.142-.673 0-1.263-.24-1.771-.723a2.44 2.44 0 01-.743-1.79c0-1.18.457-2.247 1.371-3.2.927-.952 1.974-1.428 3.142-1.428.051 0 .102.007.153.02a.88.88 0 01.171.018c.076.013.133.02.171.02-.101-1.486-.692-2.229-1.771-2.229-.634 0-1.352.299-2.151.895zm3.979 5.96a74.97 74.97 0 00.039-2.019c0-.38-.013-.914-.039-1.6h-.152c-.901.013-1.726.35-2.475 1.01-.737.66-1.105 1.46-1.105 2.4 0 .406.121.73.362.97.254.242.558.362.914.362.559 0 1.377-.374 2.456-1.123zM100.225 51.811c-1.187-.295-7.982-.426-8.8-.164-.594.164-7.286-.753-7.88-1.113-.327-.197 1.126-.262 4.196-.262 2.599.033 6.59.065 8.902.033 2.313 0 5.71.032 7.573.032 1.862.033 5.034-.229 7.06-.524 2.026-.294 6.058-.622 8.964-.72 4.4-.164 5.26-.131 5.26.262 0 .262-.143.557-.327.655-.185.098-3.234.196-6.816.196-5.484 0-6.815.099-8.636.623-1.965.59-3.561.851-6.938 1.146-.737.065-1.883 0-2.558-.164z" fill="#1E2F35"/><path d="M261.957 85.42c0 .215.012.5.038.856-.115.394-.337.59-.667.59-.228 0-.451-.088-.666-.266a1.233 1.233 0 01-.381-.685c.038-1.029.082-2.533.133-4.514.064-1.98.108-3.32.133-4.018l.876-.152c.153.813.248 1.892.286 3.237.038 1.346.089 2.349.152 3.01.242-.356.927-1.283 2.057-2.781 1.13-1.498 1.898-2.615 2.304-3.352a4.11 4.11 0 01.533-.076c.242 0 .407.108.495.324.102.216.166.622.191 1.218l.362 7.846c-.115.381-.337.572-.667.572-.228 0-.45-.09-.666-.267a1.239 1.239 0 01-.381-.686l.095-3.066c.064-1.637.114-2.799.152-3.484-2.17 2.475-3.63 4.373-4.379 5.693z" fill="#000"/></svg>