<svg width="359" height="57" fill="none" xmlns="http://www.w3.org/2000/svg"><path d="M7.74 15.985c17.263 15.822 42.277 18.635 76.099 9.142 34.879-10.197 64.473-3.165 92.305 21.8 13.388 11.954 21.139 13.36 21.139 3.515 0-2.46 3.171-7.383 7.046-10.9 5.637-5.274 10.569-5.625 30.651-3.867 58.836 5.626 80.327 6.329 93.01 2.461 15.149-4.57 31.356-21.8 31.003-33.051-.352-6.68-1.057-6.329-4.932 2.813-10.569 24.26-34.526 31.996-81.031 25.316-15.502-2.11-36.641-3.868-47.21-3.868-16.911-.352-19.729.703-28.185 11.251l-9.512 11.252-8.456-8.79c-22.9-24.261-64.12-32.7-104.636-20.745-26.07 7.384-46.857 4.22-62.711-9.845C-1.068.866-4.943 3.679 7.74 15.985z" fill="#1E2F35"/></svg>