<svg width="76" height="80" fill="none" xmlns="http://www.w3.org/2000/svg"><path d="M32.082 55.686c-8.117-8.117-8.105-21.266 0-29.371a1.075 1.075 0 011.33-.151l4.05 2.532c.28.174.505.582.505.91 0 .115-.034.294-.077.4l-2.026 5.064c-.149.373-.596.675-.997.675-.03 0-.077-.002-.107-.005l-3.488-.35a16.603 16.603 0 000 11.22l3.488-.348c.03-.003.077-.005.107-.005.402 0 .848.302.997.675l2.025 5.064c.042.106.077.285.077.399 0 .329-.226.737-.505.91l-4.05 2.533c-.145.09-.4.163-.57.163-.246 0-.586-.141-.76-.315h.001zm9.362-25.718a4.001 4.001 0 010 4.066.754.754 0 01-1.17.16l-.373-.357a.755.755 0 01-.14-.901c.127-.242.231-.662.231-.936s-.104-.693-.232-.936a.757.757 0 01.141-.901l.373-.358a.754.754 0 011.17.16v.003zm5.737-5.7a12.016 12.016 0 010 15.465.753.753 0 01-1.097.058l-.362-.347a.752.752 0 01-.058-1.024 10.015 10.015 0 000-12.84.752.752 0 01.058-1.023l.362-.347a.753.753 0 011.097.058zm-2.873 2.81a8.012 8.012 0 010 9.847.752.752 0 01-1.116.08l-.364-.348a.75.75 0 01-.08-.996 6.01 6.01 0 000-7.321.75.75 0 01.08-.996l.364-.35a.754.754 0 011.116.082v.002z" fill="#000"/><path d="M32.796.805C21.403 3.423 16.68 5.783 10.42 11.993c-3.285 3.285-4.62 5.03-6.467 8.828C.72 27.236-.255 31.804.053 39.348c.308 7.34 1.642 11.65 5.953 19.247 5.08 8.981 13.087 16.012 21.401 18.784 8.725 2.874 18.373 2.258 26.174-1.643 3.798-1.899 12.625-8.211 14.421-10.316 3.387-3.9 5.44-9.032 6.364-15.96.308-2.26.77-5.03 1.026-6.16.77-3.13.616-10.47-.256-13.857-1.437-5.645-3.593-9.238-8.828-14.678-5.234-5.44-10.11-9.033-14.883-10.983C47.782 2.345 41.418.959 38.082.959c-1.796 0-2.258-.154-1.694-.513.975-.667.462-.616-3.592.36zm16.012 3.08c4.157 1.437 9.443 4.105 9.032 4.567-.102.103-1.642-.41-3.438-1.129-7.288-2.977-17.398-3.695-24.737-1.796-4.362 1.129-9.494 3.49-12.317 5.748-2.31 1.848-3.336 1.95-1.232.154 3.644-3.08 6.98-5.338 10.83-7.34l4.053-2.155 6.672.206c5.85.153 7.237.359 11.137 1.745zM23.301 5.322c-7.75 4.413-12.83 9.956-16.987 18.527-3.284 6.672-4.26 10.83-4.362 17.912-.052 4.26-.154 4.824-.565 3.336-.82-3.131-.667-12.267.308-15.91 1.899-7.34 6.62-14.935 12.01-19.246 3.079-2.464 10.417-6.416 11.854-6.416.462 0-.564.821-2.258 1.797zm26.226 1.283c9.391 2.412 15.704 7.133 19.604 14.73 2.977 5.747 4.209 10.828 4.568 18.68.256 5.8.154 6.827-.873 10.009-2.31 7.03-5.748 12.933-10.418 17.963-2.207 2.31-3.285 3.028-6.312 4.054-8.314 2.874-21.76 2.874-30.434-.051C15.603 68.654 7.546 61.417 4.774 53.257c-1.488-4.465-2.36-11.599-1.847-15.346l.41-2.822.411 3.746c.513 5.133 1.54 8.93 3.644 13.344 1.693 3.593 5.337 8.828 7.185 10.367.513.411-.257-.82-1.745-2.771-5.081-6.723-7.647-13.447-8.109-21.35-.667-11.445 4.311-20.683 14.832-27.56 4.003-2.618 9.032-4.568 13.857-5.287 3.951-.667 11.444-.154 16.114 1.027zM72.005 23.49c1.591 3.08 2.72 7.134 3.13 11.29.257 2.362.206 3.183-.205 2.926-.308-.205-.564-1.129-.564-2.053 0-2.36-1.796-9.186-3.336-12.471-1.488-3.336-.719-3.13.975.308zm-.154 33.41c-1.437 3.696-3.284 6.673-5.491 8.726-1.9 1.745-1.694 1.283.564-1.591.616-.719 2.053-3.234 3.285-5.543 1.18-2.258 2.258-4.157 2.36-4.157.155 0-.205 1.129-.718 2.566zM16.938 68.86c6.723 4.259 14.267 6.106 24.582 6.106 3.85 0 7.955-.307 10.213-.82 2.104-.463 3.9-.72 4.003-.617.462.411-7.339 3.49-10.726 4.209-7.082 1.54-16.012.103-22.838-3.695-3.643-2.002-9.135-6.467-10.007-8.11l-.565-1.077 1.232 1.078c.667.616 2.515 1.95 4.105 2.925z" fill="#1E2F35"/></svg>