<svg width="145" height="145" fill="none" xmlns="http://www.w3.org/2000/svg"><path d="M79.08 125.072c-.22-1.535-.94-5.138-1.614-8.005-1.332-5.719-1.535-6.831-1.833-10.231-.266-2.992-.783-5.608-1.394-6.971l-.486-1.081.078 1.77c.267 7.003 1.348 12.721 4.465 23.923.517 1.864 1.003 3.384 1.066 3.384.062 0-.063-1.253-.282-2.789z" fill="#000"/><path d="M51.757 131.245c.078-.736.078-7.598 0-15.259-.094-7.677-.094-14.037-.063-14.131.047-.11.282-.094.517.015 1.3.674 3.995-.015 8.476-2.178 4.402-2.114 5.703-2.35 8.961-1.691 2.256.47 4.026.548 4.747.234.784-.344.862-1.206.204-3.148-.36-1.144-.58-2.523-.596-4.168-.046-2.647-.203-3.744-.626-4.7-.22-.501-.282-.22-.313 1.473a62.63 62.63 0 01-.204 3.964c-.11 1.237-.031 2.318.235 3.242.61 1.959.564 2.1-.376 2.131-.439.032-1.723-.094-2.867-.235-3.807-.517-4.716-.297-10.998 2.475-1.849.815-3.556 1.552-3.791 1.63-.236.047-1.38-.063-2.538-.251-2.491-.454-3.055-.391-3.854.408-.846.846-.815 1.723.094 2.35.846.595 1.065.626.532.094-.22-.22-.438-.69-.47-1.066-.062-.564 0-.689.502-.877.329-.11.908-.157 1.284-.063.627.126.674.173.58.517-.204.737-.8 4.904-.862 6.126-.047.642 0 2.381.11 3.838.078 1.457.204 4.59.25 6.956.095 5.421.627 13.943.862 13.708.032-.031.11-.642.204-1.394zm21.087-49.632c-.282-2.287-.172-3.556.455-5.03a27.8 27.8 0 00.704-1.957c.345-1.097 1.254-2.758 3.055-5.562 1.316-2.037 2.053-4.308 2.288-7.113.11-1.269.313-3.321.438-4.574.768-7.003.141-10.983-2.162-13.818-1.394-1.708-2.412-1.41-3.29.971-.234.674-1.127 2.538-1.973 4.136-2.256 4.324-2.35 4.637-2.68 8.382a26.573 26.573 0 01-.517 3.337c-.203.83-.329 1.52-.266 1.52.188 0 1.003-1.567 1.363-2.648.188-.596.47-2.006.627-3.134.345-2.632.532-3.164 2.13-6.298.721-1.441 1.614-3.243 1.99-4.057.924-2.053 1.034-2.131 1.692-1.222 2.147 2.96 2.554 5.937 1.865 13.896-.596 6.956-.91 7.927-3.73 12.095-.767 1.112-1.597 2.6-1.88 3.29-.281.72-.704 1.707-.97 2.224-.533 1.003-.659 2.444-.33 3.933.235.987 1.316 3.979 1.41 3.885.032-.031-.078-1.05-.219-2.256zM47.182 99.755c-.015-.455.22-1.41.517-2.115 1.238-2.961 3.713-11.766 3.541-12.69-.063-.439-.345-.784-.987-1.3-.768-.612-.909-.815-.971-1.536-.126-1.41-.36-1.864-1.489-2.96l-1.08-1.05.61 1.018c.439.72.643 1.457.69 2.507.094 1.472.407 2.193 1.41 3.195.61.612.58.894-.564 4.606-1.645 5.405-2.382 9.275-1.959 10.575.282.878.314.846.282-.25zm36.034-47.501c3.572-6.236 4.872-9.541 4.982-12.628l.062-1.848 6.565-6.627c7.065-7.097 6.862-6.862 6.031-7.692-1.018-1.019-4.042-.846-7.864.438-1.38.47-2.523.893-2.523.956.016.078 1.363-.079 3.008-.314 2.946-.407 5.53-.423 5.907-.047.156.157-.956 1.395-4.779 5.343-3.932 4.057-5.107 5.358-5.624 6.282-.36.642-.69 1.19-.72 1.222-.204.204-1.442-7.144-1.38-7.99.314-3.102 4.027-5.969 10.842-8.397 1.66-.596 2.616-1.363 2.381-1.912a.606.606 0 00-.517-.328c-.25 0-.282.062-.078.266.14.14.22.313.157.376-.047.047-.972.282-2.053.517-4.214.924-7.755 2.867-10.261 5.593-1.645 1.802-1.99 2.742-1.88 5.044.031.91.376 2.914.752 4.481 1.19 5.139.94 6.8-2.068 12.94-.909 1.88-1.849 3.98-2.1 4.7-.454 1.426-.893 1.96-1.41 1.724-.25-.094-.282 0-.14.423.156.564.172.548.61-.016.376-.532.408-.532.36-.078-.125.72.126.376 1.74-2.428zm-16.059 9.29c.392-.549.721-1.066.721-1.128-.016-.611-7.05 6.141-8.852 8.475-.955 1.238-.955 1.238-.203.737 1.19-.784 7.567-6.972 8.334-8.084zM56.222 71.727c-.454.235-1.473.784-2.24 1.207-.8.423-2.82 1.535-4.512 2.444-1.708.924-3.165 1.723-3.228 1.786-.078.078.58-.016 1.442-.188 3.039-.596 6.047-2.288 8.444-4.716l.924-.956-.83.423zm11.985-16.214c.642-.737 1.05-1.3.893-1.27-.423.079-4.653 3.525-8.883 7.223-4.105 3.603-10.372 8.648-15.087 12.141-1.849 1.348-2.491 2.554-1.786 3.26l.407.406-.094-.595c-.125-.72.141-.987 2.24-2.272 1.41-.877 4.34-3.18 13.239-10.418 2.49-2.052 7.598-6.815 9.07-8.475z" fill="#000"/><path d="M85.33 37.793c.392-1.08.157-2.13-.642-2.898l-.533-.501.33.58c.5.94.407 1.91-.22 2.788-.752 1.003-1.723 1.41-2.742 1.175-2.02-.486-2.397-2.491-.783-4.105.83-.83 1.802-1.143 2.773-.924.392.078.58.047.439-.094-.408-.407-1.833-.642-2.695-.439-1.285.314-2.648 1.77-2.82 3.008-.298 2.366 1.676 4.246 4.136 3.886 1.05-.173 2.334-1.3 2.757-2.476zm-14.961 9.51c-.784-.815-1.394-1.74-2.115-3.118-.549-1.08-1.034-1.974-1.081-1.958-.063 0 0 .627.156 1.379.314 1.754 1.223 3.133 2.664 4.136 1.488 1.018 1.645.861.376-.44z" fill="#000"/><path d="M77.717 41.46c.063-.314-.047-1.176-.266-1.896-.47-1.755-.376-3.353.313-4.857.61-1.332 1.08-1.896 2.068-2.444.94-.501.407-.533-.736-.016-1.457.643-2.773 2.24-3.134 3.792-.344 1.441-.172 2.616.627 4.073.376.69.548 1.332.486 1.802-.094.658-.079.705.219.438.172-.172.36-.58.423-.893zm-5.437 5.28c.141-.361.126-.408-.094-.189-.156.125-.25.376-.22.501.064.282.064.282.314-.313zm-.078-2.335c-.36-.611-1.066-1.379-1.755-1.943-.94-.783-1.238-.924-1.755-.814-.344.062-.61.203-.626.313.015.11.297.078.642-.078l.642-.267-.376.564c-.36.548-.344.564.094.313.314-.188.564-.156.705.079.173.266.094.47-.423.924l-.658.596.737-.423c1.159-.658 1.378-.157.391.83-1.002 1.002-.752 1.065.345.094 1.128-1.003 1.504-.596.564.595l-.674.893.784-.846.799-.83.595.501c.58.486.58.455-.031-.501z" fill="#000"/><path d="M71.732 45.407c.063-.282-.016-.266-.376.094-.25.282-.564.721-.72 1.003-.236.454-.189.439.375-.094.345-.345.674-.799.72-1.003zM44.864 70.615c-.204-.642-.235-1.645-.094-2.507.25-1.598.125-2.162-.752-3.321-.517-.674-.564-.909-.33-1.99.33-1.488.126-2.036-1.253-3.415-.61-.611-1.143-1.238-1.19-1.41-.063-.25-.094-.22-.141.14-.016.267.282.94.658 1.536 1.002 1.504 1.05 1.77.5 3.133-.547 1.426-.438 1.912.628 2.977.705.705.783.909.736 1.833-.063 1.222.627 3.384 1.19 3.791.298.236.298.079.048-.767zm30.628-30.221c-.455.141-.956.36-1.097.47-.157.157-.674-.015-1.473-.438-1.018-.549-1.582-.674-3.023-.674-3.04 0-7.693 2.115-14.633 6.611-7.74 5.045-8.867 5.766-11.5 7.426-4.48 2.789-10.308 7.113-8.835 6.518 1.19-.47 5.953-3.196 8.805-5.045 2.976-1.911 3.008-1.943 3.43-1.52.596.596.925.423.894-.485l-.032-.815 4.23-2.757c7.395-4.857 11.797-7.317 14.43-8.069 2.052-.61 4.683-.642 6.14-.125 1.222.439 1.097.47 2.977-.94l.533-.407-.846.25zM47.213 53.476c-.125-.125-.093-.376.079-.548.344-.345.658-.188.47.25-.188.47-.313.533-.548.298zm49.382-35.281c-1.395-.424-5.139.156-7.505 1.112-3.18 1.331-6.799 4.324-8.49 7.081-.753 1.19-2.414 5.609-2.116 5.593.063 0 .47-.69.877-1.535 2.037-4.136 6.314-8.225 10.575-10.105 1.457-.643 3.98-1.379 6.377-1.864.752-.157.752-.157.282-.282z" fill="#000"/><path d="M63.836 47.381c.25-1.002.188-1.723-.22-2.726-.422-1.018-.767-1.363-.673-.642.157.94.157 2.193.016 2.334-.079.078-.298-.172-.486-.517-.658-1.19-.862-1.143-.564.157.282 1.253 1.112 2.46 1.535 2.256.11-.047.298-.423.392-.862zm12.847-16.293c-.69.188-2.116.298-3.197.282-2.444-.094-3.227.313-5.358 2.757l-1.457 1.677-2.694 1.222a3613.96 3613.96 0 01-4.966 2.24c-2.257 1.003-5.75 2.96-6.205 3.478-.344.376 1.254-.22 11.17-4.152 2.555-1.018 3.526-1.707 5.186-3.587 1.614-1.865 2.021-2.115 4.606-2.601 1.85-.345 3.385-.877 3.839-1.332.204-.203-.126-.188-.924.016zM55.987 49.935c-.016-.267-.157-.815-.313-1.16l-.298-.642-.015.924-.016.956-.517-.517c-.282-.282-.533-.407-.564-.282-.094.376.72 1.41 1.128 1.442.517.047.642-.079.595-.721z" fill="#000"/><path d="M67.016 30.54c-2.914-3.29-5.139-4.637-6.784-4.12-1.05.328-1.598 1.127-2.052 2.93-.58 2.365-.376 4.01.627 5.012.297.298.799 1.238 1.128 2.068.297.83.58 1.52.61 1.551.032.032.032-.5-.015-1.206-.031-.69-.329-1.864-.658-2.57-.642-1.362-.736-2.678-.345-4.605.564-2.789 2.068-2.538 6.533 1.05 2.726 2.193 2.977 2.162.956-.11zm-8.663 5.937c-.909-2.224-1.645-3.368-2.632-4.198-1.473-1.222-3.807-1.207-5.28.015-1.269 1.05-1.363 2.115-.345 3.729l.423.674-.094-.69c-.297-2.083-.282-2.224.141-2.647.627-.627 2.491-.83 3.729-.408 1.16.408 1.535.815 3.51 3.666.563.815 1.065 1.473 1.127 1.473.047.016-.219-.72-.58-1.614zm-6.847 8.383c.313-.69.517-1.301.439-1.38-.063-.062-.517.36-1.003.972-1.175 1.457-1.943 1.692-3.588 1.144l-1.222-.408.596.595c.971.972 2.757 1.285 3.76.627.25-.188.72-.877 1.018-1.55zm-5.968 4.59c.548-1.708.266-3.494-.752-4.826l-.674-.893.329 1.582c.313 1.504.282 2.977-.11 3.776-.282.595-2.757.501-3.948-.125-.752-.408-.893-.423-.627-.094 1.003 1.19 2.366 1.833 3.76 1.786 1.144-.047 1.755-.408 2.022-1.207zM34.023 59.648c-.893-.674-.611-1.206 2.475-4.48 1.488-1.583 2.71-3.024 2.71-3.18 0-.47-2.162 1.159-4.23 3.164-1.895 1.864-2.209 2.46-2.068 3.666.079.58.784 1.285 1.254 1.253.297-.047.282-.125-.141-.423zm18.219-19.066c-.892-2.272-3.148-3.681-5.702-3.51-1.598.095-2.742.674-3.227 1.661-.627 1.254-.267 2.554 1.253 4.387l.924 1.113-.752-1.755c-.815-1.974-.752-3.07.25-3.697.847-.564 2.508-.596 3.902-.079 1.143.392 1.457.611 2.46 1.74.657.72 1.206 1.268 1.237 1.237.031-.032-.14-.517-.345-1.097z" fill="#000"/><path d="M38.55 50.139c-.345-3.009.36-6.69 1.488-7.818.298-.298.83-.517 1.348-.564 1.128-.094 1.222-.22.329-.517-.862-.266-1.99.14-2.852 1.003-.877.877-1.566 3.164-1.504 4.95.047 1.332.925 4.528 1.254 4.544.062 0 .031-.721-.063-1.599z" fill="#000"/><circle cx="82" cy="37" r="3" fill="#5AE4A9"/></svg>