<svg width="116" height="90" fill="none" xmlns="http://www.w3.org/2000/svg"><path d="M90.604 2.665c-.93 1.24-2.969 4.298-4.52 6.802-3.102 4.985-3.744 5.916-5.938 8.53-1.927 2.304-3.412 4.52-3.943 5.916l-.421 1.107 1.196-1.307c4.764-5.14 8.043-9.948 13.759-20.073.953-1.684 1.684-3.102 1.64-3.146-.045-.044-.842.93-1.773 2.171z" fill="#000"/><path d="M114.289 17.62c-.576.466-5.428 5.318-10.79 10.79-5.362 5.495-9.86 9.993-9.948 10.037-.11.045-.266-.133-.355-.376-.443-1.396-2.835-2.814-7.532-4.454-4.609-1.617-5.695-2.37-7.534-5.14-1.262-1.927-2.459-3.235-3.19-3.523-.798-.31-1.462.244-2.37 2.083-.555 1.064-1.374 2.194-2.526 3.368-1.84 1.905-2.504 2.791-2.88 3.766-.2.51.044.355 1.262-.82.82-.797 2.15-1.993 2.947-2.658.953-.798 1.662-1.618 2.127-2.46.953-1.816 1.085-1.883 1.772-1.24.333.288 1.152 1.285 1.861 2.193 2.327 3.058 3.124 3.545 9.528 6.027 1.883.73 3.611 1.418 3.832 1.528.2.133.931 1.02 1.618 1.972 1.44 2.083 1.883 2.437 3.013 2.437 1.197 0 1.795-.642 1.595-1.728-.177-1.019-.31-1.196-.31-.443 0 .31-.177.798-.42 1.086-.355.443-.488.487-.976.266-.31-.156-.753-.532-.952-.864-.355-.532-.355-.599-.045-.776.665-.377 4.033-2.902 4.941-3.722.488-.421 1.684-1.684 2.637-2.792.975-1.085 3.101-3.39 4.741-5.096 3.767-3.9 9.416-10.302 9.084-10.302-.044 0-.532.377-1.13.842zM64.283 37.805c-1.418 1.816-2.393 2.636-3.877 3.234-.488.2-1.33.599-1.883.887-1.02.531-2.836 1.063-6.093 1.772-2.371.51-4.498 1.595-6.647 3.412-.975.82-2.57 2.127-3.545 2.925-5.495 4.409-7.865 7.666-8.242 11.3-.222 2.193.709 2.702 3.013 1.639.643-.31 2.592-.997 4.32-1.529 4.653-1.462 4.941-1.617 7.822-4.032a26.59 26.59 0 012.725-1.994c.73-.444 1.307-.842 1.263-.887-.133-.133-1.817.4-2.836.909-.554.288-1.75 1.085-2.66 1.772-2.104 1.618-2.614 1.861-5.959 2.947-1.529.51-3.434 1.152-4.276 1.462-2.105.798-2.238.776-2.06-.332.575-3.611 2.392-6.004 8.507-11.145 5.34-4.497 6.248-4.963 11.189-5.915 1.33-.244 2.969-.71 3.656-.997.709-.31 1.706-.71 2.26-.886 1.085-.333 2.193-1.263 3.013-2.548.532-.864 1.883-3.745 1.75-3.745-.044 0-.687.798-1.44 1.75zm30.974 5.317c-.31.332-1.152.842-1.861 1.13-2.97 1.219-10.945 5.694-11.477 6.47-.266.354-.31.797-.221 1.617.11.975.066 1.218-.4 1.772-.908 1.086-1.063 1.574-1.04 3.147l.022 1.506.287-1.152c.2-.82.577-1.484 1.286-2.26.974-1.108 1.262-1.839 1.262-3.257 0-.864.222-1.041 3.656-2.858 4.985-2.659 8.242-4.874 8.863-6.093.42-.82.376-.82-.377-.022zM36.19 51.231c-6.936 1.884-10.192 3.302-12.452 5.406L22.386 57.9l-9.328.045c-10.014.022-9.704 0-9.704 1.174 0 1.44 2.26 3.456 5.871 5.25 1.308.643 2.415 1.153 2.46 1.109.044-.067-1.02-.909-2.349-1.906-2.37-1.794-4.21-3.611-4.21-4.143 0-.221 1.662-.31 7.157-.399 5.65-.088 7.4-.177 8.42-.465.708-.2 1.329-.354 1.373-.354.288 0-4.032 6.07-4.675 6.624-2.415 1.972-7.068 1.374-13.604-1.728-1.595-.753-2.814-.886-3.035-.332a.607.607 0 00.133.598c.177.177.244.155.244-.133 0-.2.066-.377.155-.377.066 0 .886.488 1.816 1.086 3.634 2.326 7.511 3.456 11.211 3.301 2.437-.11 3.346-.532 4.897-2.238.62-.664 1.794-2.326 2.636-3.7 2.792-4.475 4.143-5.472 10.613-7.688 1.972-.687 4.121-1.506 4.808-1.839 1.33-.687 2.016-.753 2.215-.221.111.243.2.2.4-.2.287-.51.265-.51-.444-.42-.642.11-.664.088-.31-.2.598-.421.177-.355-2.947.487zm17.923 4.786c-.664.11-1.263.243-1.307.288-.42.443 9.328.642 12.252.266 1.551-.2 1.551-.2.665-.377-1.396-.288-10.28-.42-11.61-.177zm14.934.532c.487.155 1.595.487 2.437.73.864.267 3.08.91 4.918 1.463 1.861.554 3.457 1.02 3.545 1.02.111 0-.42-.4-1.152-.887-2.57-1.728-5.893-2.659-9.305-2.637l-1.33.023.887.288zM49.106 59.54c-.975.066-1.661.177-1.529.266.355.244 5.783.797 11.389 1.174 5.45.355 13.448 1.219 19.253 2.083 2.26.354 3.567-.045 3.567-1.042v-.576l-.354.488c-.421.598-.798.598-3.19.022-1.618-.377-5.318-.82-16.728-1.994-3.213-.31-10.192-.554-12.408-.421z" fill="#000"/><path d="M24.469 59.96c-1.042.488-1.618 1.396-1.595 2.504l.022.731.177-.642c.31-1.02 1.064-1.64 2.127-1.817 1.24-.177 2.216.222 2.77 1.108 1.085 1.772-.067 3.456-2.35 3.456-1.173 0-2.082-.465-2.614-1.307-.221-.333-.376-.443-.376-.244 0 .576.842 1.75 1.595 2.216 1.13.687 3.124.62 4.121-.133 1.883-1.462 1.817-4.188-.177-5.672-.864-.62-2.57-.731-3.7-.2zm17.304 3.856c-.023 1.13-.244 2.216-.71 3.7-.376 1.152-.664 2.127-.62 2.15.044.044.443-.444.864-1.087 1.02-1.462 1.352-3.08 1.041-4.807-.332-1.773-.553-1.773-.575.044z" fill="#000"/><path d="M32.445 62.752c-.266.177-.798.864-1.152 1.529-.909 1.573-2.105 2.636-3.656 3.212-1.374.51-2.105.577-3.19.266-1.02-.31-.665.089.509.532 1.484.576 3.545.377 4.896-.465 1.263-.776 1.972-1.728 2.437-3.324.222-.753.554-1.329.931-1.617.532-.399.554-.443.155-.465-.243 0-.664.155-.93.332zm7.577.111c-.354.155-.377.2-.066.2.2.022.443-.089.51-.2.154-.243.154-.243-.444 0zm-1.595 1.707c-.177.686-.221 1.727-.133 2.614.111 1.218.222 1.528.665 1.816.288.2.576.288.664.222.067-.089-.154-.266-.509-.399l-.643-.266.665-.133c.643-.133.643-.155.155-.288-.354-.088-.51-.288-.443-.554.067-.31.266-.398.953-.354l.886.044-.82-.222c-1.285-.354-1.085-.864.31-.864 1.418 0 1.285-.221-.177-.31-1.506-.088-1.484-.642.022-.82l1.108-.155-1.152.045-1.152.022-.066-.776c-.067-.753-.09-.73-.333.377z" fill="#000"/><path d="M39.468 64.193c-.244.155-.177.2.332.2a6.79 6.79 0 001.219-.2c.487-.155.443-.178-.332-.2-.488 0-1.042.089-1.219.2zm36.823 1.174c-.31.598-.996 1.329-1.706 1.839-1.307.952-1.617 1.44-1.816 2.88-.111.842-.244 1.041-1.175 1.64-1.285.82-1.528 1.35-1.528 3.3 0 .865-.067 1.684-.155 1.84-.133.221-.089.221.199 0 .2-.178.465-.865.62-1.551.355-1.773.51-1.994 1.861-2.57 1.396-.62 1.662-1.042 1.662-2.548 0-.997.089-1.197.776-1.817.908-.82 1.95-2.836 1.839-3.523-.045-.377-.155-.266-.576.51zm-43.026-.288c.42.222.93.42 1.108.443.221 0 .465.487.73 1.352.333 1.107.643 1.595 1.662 2.614 2.15 2.15 6.935 3.944 15.022 5.672 9.04 1.905 10.347 2.193 13.382 2.88 5.14 1.197 12.319 2.26 10.857 1.64-1.174-.51-6.47-1.95-9.793-2.659-3.457-.753-3.5-.753-3.5-1.352 0-.841-.355-.952-.976-.288l-.554.599-4.94-1.042c-8.663-1.794-13.515-3.168-15.908-4.497-1.884-1.02-3.767-2.859-4.432-4.254-.553-1.174-.443-1.108-2.77-1.44l-.664-.089.776.42zM62.51 75.825c0 .177-.2.332-.444.332-.487 0-.598-.332-.155-.51.466-.2.599-.155.599.178zM2.645 65.854c.687 1.285 3.745 3.523 6.093 4.52 3.19 1.307 7.866 1.75 11.012.997 1.373-.31 5.672-2.26 5.45-2.46-.044-.044-.82.156-1.706.466-4.365 1.484-10.28 1.351-14.623-.332-1.484-.576-3.789-1.84-5.827-3.19-.642-.422-.642-.422-.399 0z" fill="#000"/><path d="M46.447 68.38c-.886.532-1.351 1.086-1.772 2.083-.421 1.019-.421 1.506.022.93.554-.775 1.44-1.661 1.64-1.661.11 0 .088.332-.023.709-.376 1.307-.199 1.418.51.288.687-1.086.953-2.526.51-2.681-.111-.044-.51.088-.887.332zm-20.605 2.437c.62.355 1.706 1.285 2.46 2.06 1.661 1.796 2.503 2.061 5.738 1.84l2.216-.155 2.77 1.041c1.528.576 3.81 1.44 5.095 1.928 2.304.886 6.16 1.971 6.846 1.927.51-.022-1.041-.731-10.834-4.963-2.526-1.085-3.7-1.285-6.204-1.13-2.459.178-2.924.067-5.096-1.418-1.55-1.063-3.013-1.772-3.655-1.772-.288 0-.045.221.664.642zm27.961 1.307c-.177.2-.465.687-.598 1.042l-.244.665.665-.643.687-.665v.731c0 .4.088.665.199.599.332-.2.487-1.507.221-1.817-.332-.399-.51-.399-.93.088z" fill="#000"/><path d="M32.29 78.04c-.266 4.387.354 6.912 1.883 7.71.975.51 1.928.332 3.523-.62 2.083-1.263 3.102-2.57 3.102-3.988 0-.421.31-1.44.664-2.26.377-.798.665-1.485.665-1.529 0-.044-.377.332-.842.864-.465.51-1.085 1.551-1.351 2.282-.51 1.418-1.374 2.415-3.014 3.5-2.37 1.574-3.257.333-3.877-5.361-.377-3.478-.576-3.634-.753-.598zm10.324 1.928c-.93 2.215-1.218 3.545-1.107 4.83.177 1.905 1.839 3.545 3.744 3.722 1.64.155 2.46-.532 2.88-2.393l.178-.775-.421.553c-1.263 1.684-1.374 1.773-1.972 1.773-.887 0-2.349-1.174-2.925-2.349-.532-1.107-.51-1.661.11-5.073.178-.975.289-1.795.245-1.84-.023-.044-.355.665-.732 1.552zm10.769-1.086c-.71.266-1.286.554-1.286.665 0 .088.62.11 1.396.022 1.861-.2 2.57.177 3.346 1.728l.576 1.152v-.842c0-1.373-1.041-2.858-2.216-3.102-.31-.044-1.13.111-1.816.377zm7.466.975c-1.595.82-2.659 2.282-2.88 3.943l-.156 1.108.887-1.351c.841-1.285 1.905-2.305 2.747-2.593.62-.221 2.304 1.596 2.703 2.88.244.82.332.931.377.51.132-1.55-.377-2.969-1.396-3.921-.842-.776-1.529-.953-2.282-.576zm15.354.93c.155 1.108-.421 1.285-4.919 1.418-2.171.067-4.055.222-4.165.333-.333.332 2.348.709 5.228.753 2.66.022 3.302-.177 4.055-1.13.355-.465.355-1.462 0-1.773-.244-.177-.288-.11-.2.4zm-26.366.598c-.975 2.238-.376 4.83 1.551 6.514 1.197 1.064 2.415 1.463 3.457 1.108 1.329-.443 1.994-1.617 2.215-3.988l.133-1.44-.709 1.772c-.82 1.972-1.64 2.703-2.791 2.437-.997-.199-2.194-1.351-2.814-2.703-.532-1.085-.598-1.462-.51-2.968.044-.975.044-1.75 0-1.75s-.266.465-.532 1.018z" fill="#000"/><path d="M66.277 84.31c-1.883 2.37-4.985 4.476-6.58 4.476-.422 0-.953-.222-1.352-.554-.864-.731-1.02-.71-.598.133.42.797 1.506 1.307 2.725 1.307 1.24 0 3.345-1.13 4.564-2.437.908-.975 2.548-3.855 2.326-4.1-.044-.043-.531.488-1.085 1.175z" fill="#000"/></svg>