<svg width="315" height="125" fill="none" xmlns="http://www.w3.org/2000/svg"><path d="M152.069 48.514c.634 7.457 4.124 7.006 7.917 2.941 2.916-9.193 6.842-8.044 15.416-4.412 10.417 4.412 21.667 19.121-2.179 24.63-35.897 19.552-13.223 21.335 0 18.393 7.194-2.934 16.329.728 20.11.728 6.25.736 9.584-.728 18.224 2.942 7.577 2.303 20.526 14.349 26.36 14.349 6.184-1.351 10.416-.368 14.584-8.458 4.813-4.085 6.526-5.651 6.666-9.56-.833-1.84 2.454-7.16.833-9.562-8.333 0-17.022-10.526-23.348-13.238-3.121-.62-5.747-5.045-11.666-6.251-2.025-.413-2.882-1.584-4.167-3.677-2.152-3.508-13.75-11.4-13.75-15.445-2.791-5.787-2.579-7.354-3.75-12.142-4.583-18.747-12.917-27.204-9.583-7.715-2.302-.215-7.975-12.503-11.25-12.503-7.084-9.193-19.584-16.18-5 8.458-10.06-9.132-31.25-15.444-23.75-2.206 2.446 3.23 11.961 5.756 21.666 13.238 4.584 3.534 13.081 7.84 15.834 9.929-5.465.301-16.381-9.965-21.347-9.2-14.583.735-17.82 11.902-17.82 18.76z" fill="#EED28B"/><path d="M150.843 48.881c-.633 7.458-4.54 6.639-8.333 2.574-2.917-9.193-7.177-11.136-13.75-5.516-7.122 3.224-14.167 18.019 2.917 25.373 35.896 19.553 17.986 21.062 0 19.122-5.835-4.78-16.22-3.677-20.002-3.677-6.249.735-15 0-18.333 6.619-7.577 2.302-8.97 16.581-14.172 15.444-6.184-1.351-17.836-3.871-19.166-12.502-10.837-11.768-.836-23.535 13.747-29.786 3.12-.62 2.915-3.31 6.665-5.148 2.025-.413 4.133.99 5.417-1.104 2.153-3.507 3.762-11.399 3.762-15.443-7.918-27.213-4.168-41.554 7.499-13.974 2.301-.216 6.307-18.018 9.583-18.018 3.464-9.426 17.916-19.123 8.333 4.044 13.738-12.47 41.667-18.386 5.417 9.56-4.167-1.129-5.997 6.002-8.75 8.09 5.464.302 18.367-5.912 23.333-5.147 14.583.735 15.833 12.63 15.833 19.49z" fill="#5AE4A7"/><path d="M170.847 1.66c-2.465 1.631-1.771 5.233 2.003 10.194 1.849 2.447 3.312 4.486 3.158 4.486-.154 0-2.619-1.291-5.469-2.854-15.097-8.088-22.107-8.088-19.565 0 .925 3.262 5.469 6.66 13.865 10.33 4.699 2.106 11.092 6.048 10.553 6.592-.154.136-1.541-.272-3.081-.816-3.697-1.359-8.165-1.291-10.553.136-5.392 3.126-8.319 6.66-9.243 11.078l-.462 2.378-1.387-4.077c-2.542-7.408-10.013-12.03-17.793-10.874-5.623.748-14.559 3.262-17.64 4.961l-2.927 1.631 1.387-2.175c1.848-2.718 4.93-5.097 9.474-7.135 4.93-2.175 11.323-8.088 14.019-12.98 2.388-4.282 2.388-5.913-.154-7.069-2.003-.951-4.313 0-11.785 5.03-9.474 6.32-9.86 6.524-7.626 2.65.925-1.767 1.772-4.282 1.772-5.573 0-4.893-3.62-7.747-6.316-5.03-3.004 2.991-11.632 15.904-13.865 20.729l-2.465 5.369-1.31-4.146c-.693-2.31-2.002-4.893-3.004-5.777-2.08-1.97-5.7-3.33-7.317-2.786-1.772.544-1.464 6.252.77 14.272 1.001 3.738 2.234 9.378 2.696 12.369.77 5.029.693 5.912-.77 9.174-.848 2.04-1.541 4.418-1.541 5.37 0 .95-.385 2.174-.77 2.718-.54.747-.77.475-.77-1.224 0-1.155-.232-2.174-.463-2.174-.308 0-1.925 1.359-3.62 3.126-1.695 1.699-5.007 4.213-7.395 5.64-2.388 1.496-5.16 3.466-6.162 4.418-2.157 1.97-3.158 2.243-3.158.748 0-1.903-1.233-1.02-3.697 2.65-2.85 4.078-5.546 9.922-5.546 11.961 0 .883-.386 1.155-1.079.951-.77-.271-1.694.612-2.85 2.515-.924 1.631-5.16 6.116-9.474 10.058s-9.398 8.631-11.17 10.398c-2.926 2.786-3.543 3.126-5.237 2.515-2.388-.816-24.88-.816-24.88 0 0 .339 5.546.747 12.247.883 6.779.068 12.479.408 12.71.612.308.204-.077 1.495-.693 2.854-1.31 2.719-1.54 7.068-.462 8.563 1.078 1.495 4.467.34 5.854-1.971 1.463-2.514 1.463-4.553 0-7.068-.617-1.019-1.156-2.038-1.156-2.174 0-.204 4.699-4.69 10.476-9.991 5.777-5.3 11.4-10.805 12.479-12.165 1-1.427 2.156-2.378 2.464-2.242.386.204 1.079 1.495 1.54 2.922 2.235 6.049 8.474 13.524 13.558 16.175 1.771.951 4.93 1.835 6.932 2.039 5.084.543 7.164-1.02 11.477-8.496 8.473-14.815 15.406-16.174 48.913-9.922 8.242 1.563 10.707 1.767 17.562 1.427 4.314-.204 10.168-.883 13.018-1.563 9.628-2.106 40.208.68 48.681 4.486 1.618.747 6.009 3.67 9.706 6.456 8.319 6.32 12.016 7.747 16.869 6.524 6.239-1.495 13.249-8.359 17.947-17.466 1.079-2.038 2.157-3.466 2.465-3.126.308.272 2.234 2.65 4.314 5.301 10.861 13.66 27.268 24.806 36.434 24.806 4.313-.068 12.247-3.738 11.631-5.369-.231-.476-1.386-.068-3.004.815-4.545 2.719-8.011 3.466-12.17 2.515-9.321-1.971-24.495-14.068-34.432-27.388-1.617-2.107-3.158-3.874-3.466-3.874-.308 0-.924.68-1.463 1.563-.694 1.087-.771 1.155-.386.136.231-.748.694-2.854.925-4.69l.385-3.33-2.388.408c-2.003.34-2.311.272-1.926-.68.385-.95.077-1.019-2.311-.679-2.31.34-3.004.136-3.62-.883-1.001-1.631-10.63-8.563-16.484-11.893-2.465-1.36-5.777-3.534-7.394-4.826-1.618-1.29-3.236-2.242-3.621-2.174-.385.136-1.848-1.02-3.312-2.515-1.463-1.495-4.468-4.485-6.778-6.592-5.161-4.961-7.087-8.699-10.553-20.796-3.466-12.369-6.162-18.485-8.165-18.485-2.85 0-3.697 4.757-1.849 9.854.462 1.087.231 1.02-1.078-.34-1.772-1.903-6.316-7.815-9.32-12.233-2.157-3.194-6.471-6.116-8.859-6.116-.847 0-2.156.476-2.85.951zm-53.38 5.37c-.077 3.805-1.617 6.456-8.165 13.727-3.004 3.33-5.854 6.796-6.393 7.748-4.16 7.136-1.078 6.184 4.468-1.36 3.081-4.213 5.7-6.931 8.01-8.358 1.926-1.156 6.933-4.35 11.015-7.068 7.934-5.165 10.707-6.049 10.707-3.33 0 3.466-11.092 15.427-14.25 15.427-2.157 0-8.088 4.349-10.784 8.019-1.617 2.107-4.467 5.165-6.316 6.66-1.926 1.563-3.158 2.99-2.773 3.194.385.204 4.082-1.563 8.242-3.941 11.477-6.66 23.724-9.38 30.118-6.797 6.239 2.65 9.859 10.534 8.165 17.942-1.079 4.69-1.695 5.233-4.083 3.874-2.388-1.36-3.697-3.874-3.697-6.932 0-1.835-.385-2.447-1.849-2.99-1.232-.408-2.002-1.224-2.157-2.447-.308-2.583-1.617-2.719-2.696-.34-.462 1.155-1.925 2.515-3.389 3.194-5.007 2.243-7.625 4.486-9.936 8.631-2.619 4.621-2.85 6.864-1.079 10.534 1.695 3.534 4.16 5.709 13.403 11.35 8.627 5.3 16.638 12.029 17.1 14.271.616 3.466-9.32.748-15.02-4.077-1.541-1.292-3.004-2.379-3.235-2.379-.231 0-.771.816-1.233 1.835l-.77 1.903-3.004-3.058c-3.235-3.33-4.545-3.33-3.158.067.462 1.224.77 2.243.693 2.311-.154.068-4.622-.272-10.014-.747-13.942-1.292-15.56-2.175-22.877-12.03-3.928-5.164-6.008-6.728-5.238-3.737.231.883.848 3.67 1.387 6.32.462 2.583 1.54 6.049 2.31 7.68 2.08 4.281 1.85 5.708-.462 3.194-2.156-2.31-3.928-5.98-5.7-12.097-1.463-4.961-2.927-5.437-4.467-1.495-1.31 3.262-1.002 8.087.77 11.213.77 1.224 1.31 2.922 1.31 3.67.077.816.539 2.175 1.155 3.126 1.232 1.971 1.463 4.486.462 5.03-1.155.679-5.238-2.787-6.47-5.573-.616-1.36-1.54-4.962-2.003-7.952-1.463-8.835-3.158-10.942-5.392-6.728-1.232 2.515-1.078 6.32.616 10.738 1.695 4.621.77 4.078-2.541-1.427-1.31-2.175-2.697-3.806-3.159-3.602-1.386.611-.693 8.359 1.156 11.757 2.002 3.738 4.467 5.505 10.167 7.204 4.391 1.359 4.776 2.174 2.465 5.301-1.925 2.65-5.315 2.038-11.477-2.039-8.242-5.437-10.86-9.922-10.245-17.534.386-4.553 4.622-13.048 5.084-10.126.462 2.922 1.54 2.99 2.85.272 1.464-3.126 4.314-5.913 8.088-7.884 1.464-.815 4.16-2.718 6.008-4.213 3.005-2.515 3.39-2.65 4.083-1.631 1.618 2.582 4.544.543 4.544-3.194 0-.952.77-3.195 1.618-4.962 1.464-2.718 1.618-3.941 1.233-8.97-.309-3.194-1.541-9.447-2.85-13.932-2.311-8.155-2.85-12.233-1.695-12.845 1.155-.611 5.392 2.379 6.701 4.826 1.156 2.038 1.31 3.737.925 9.174-.617 9.65.462 9.107 5.238-2.854 2.773-7 9.936-18.621 14.481-23.515 2.773-2.922 4.005-2.31 4.005 1.971zm60.621-2.447c1.155 1.087 3.312 3.873 4.93 6.32 1.54 2.447 4.621 6.388 6.778 8.835 5.777 6.388 7.087 8.155 8.165 11.213 1.31 3.738 2.311 4.486 2.311 1.835 0-1.223-1.233-4.893-2.773-8.155-2.619-5.777-4.468-14.136-2.773-12.709 1.463 1.224 3.851 7.476 7.009 18.146 1.695 5.777 3.852 11.757 4.853 13.32 1.002 1.495 4.468 5.437 7.857 8.7 6.47 6.387 8.858 10.125 8.935 13.727 0 1.563.308 2.175 1.002 1.971.539-.136.924-1.495.924-3.398 0-3.058.539-3.942 1.54-2.515.309.408 3.159 2.311 6.394 4.214 8.396 4.961 15.174 9.786 16.638 11.757.693.952 1.925 1.7 2.773 1.7 1.54 0 1.54 0 0 2.174-.848 1.223-1.541 2.447-1.541 2.718 0 1.156 2.157.476 3.929-1.223 1.001-.951 2.541-2.039 3.312-2.447 1.309-.611 1.386-.475.924 1.563-1.54 6.933-9.551 16.175-16.869 19.437-4.082 1.767-9.089 2.243-10.938.884-1.695-1.292-1.463-1.631 2.311-3.262 2.003-.884 4.236-2.515 5.392-4.146 1.155-1.495 2.542-2.854 3.158-3.058 1.387-.476 1.387-1.767.077-1.767-.616 0-2.08.476-3.389 1.02-2.773 1.222-7.78 2.174-6.933 1.29.308-.34 2.927-2.174 5.777-4.01 5.392-3.601 8.242-7.747 6.471-9.31-.539-.475-2.465.68-6.548 4.078-5.083 4.213-6.162 4.825-9.474 5.165-2.08.272-5.161.611-6.778.815-2.465.272-2.85.136-2.157-.611.539-.544 2.388-1.291 4.159-1.767 7.241-1.903 8.704-2.583 9.783-4.214.616-.951.924-2.243.616-2.854-.385-.952-1.541-.612-7.01 2.31-5.623 2.99-7.394 3.535-12.709 4.146-8.781 1.02-9.474.544-5.546-3.194 3.466-3.33 3.62-5.709.154-2.786-3.081 2.582-8.781 4.553-14.866 4.96l-5.546.409 2.85-3.059c4.313-4.621 3.697-5.165-2.311-1.97-2.157 1.155-7.087 2.718-11.785 3.737-4.468.952-10.399 2.65-13.249 3.738-5.931 2.379-7.164 2.583-7.857 1.02-2.157-4.894 1.695-8.224 17.87-15.564 9.706-4.417 13.557-7.611 14.405-11.893 1.232-6.456-3.621-12.232-12.941-15.29-4.16-1.36-5.931-3.127-5.931-5.913 0-2.583-1.31-2.379-2.542.272-1.31 2.718-3.081 4.077-5.392 4.213-1.464.068-1.772.544-2.08 3.194-.462 3.33-1.771 5.37-3.543 5.37-1.695 0-2.773-3.399-2.234-7.137 1.079-8.155 1.31-8.63 4.468-11.689 4.082-3.874 6.855-5.165 10.013-4.553 3.929.68 11.323 3.874 16.253 6.932 2.85 1.767 5.392 2.854 6.779 2.854 3.081 0 2.233-.883-3.467-3.67-2.619-1.359-7.471-4.553-10.706-7.136-3.775-2.99-8.551-5.912-12.864-7.883-8.242-3.738-11.862-6.932-11.477-10.058.308-3.194 2.388-3.058 10.09.476 12.71 5.776 16.099 8.359 25.42 19.028 1.155 1.36 2.696 2.447 3.312 2.447 1.463 0 .693-1.36-3.158-5.505-5.854-6.388-8.319-9.31-12.402-14.815-5.854-8.02-6.316-10.262-1.926-10.262 1.31 0 2.85.68 4.083 1.835zm-38.052 43.29c1.002 3.399 4.16 6.865 6.856 7.544 1.309.34 1.925 0 2.85-1.63.693-1.156 1.232-2.583 1.309-3.263 0-.68.462 0 1.002 1.495.847 2.515 1.155 2.719 3.543 2.719 2.157 0 3.004-.408 4.39-2.311 1.002-1.291 1.772-3.058 1.772-3.874 0-.951.462-1.63 1.078-1.63.54 0 1.926-.68 3.082-1.428 2.079-1.427 2.079-1.427 3.158-.136.616.748 3.235 2.039 5.777 2.854 8.396 2.719 12.555 7.884 11.246 13.932-.77 3.398-4.237 5.98-14.404 10.67-10.091 4.553-15.714 8.495-17.409 12.097l-1.155 2.379-1.464-2.107c-2.002-2.718-11.4-9.922-17.716-13.524-5.931-3.33-10.476-7.136-11.554-9.583-2.311-5.505 1.001-12.029 8.473-16.31 4.468-2.583 5.007-2.787 6.547-1.903.925.544 2.08 2.31 2.619 4.01zM83.652 76.622c1.618 5.097 3.466 8.291 6.085 10.602 2.62 2.242 3.235 2.31 4.314.272.616-1.224.462-2.38-.847-5.233-1.695-3.806-3.313-10.059-2.388-9.04.308.273 1.848 2.176 3.466 4.146 3.312 4.01 7.934 6.729 12.863 7.544l3.39.544-3.081.475c-11.786 1.767-16.407 4.894-21.568 14.34-3.466 6.388-5.546 8.495-8.473 8.495-1.31-.068-1.31-.204.462-1.019 1.772-.816 5.315-5.981 5.315-7.748 0-.543-.847-.883-7.857-3.126-4.39-1.427-6.316-3.194-7.934-7.068-1.849-4.621-1.386-5.369 1.079-1.97 2.002 2.718 4.313 4.62 5.777 4.62.847 0 .462-2.582-1.079-6.456-1.386-3.466-2.234-11.349-1.155-10.398.23.204.924 3.195 1.54 6.593 1.31 7 3.158 10.737 6.317 12.98 4.852 3.33 8.704-.136 6.008-5.437-1.233-2.446-1.31-2.922-.308-3.466.924-.543.77-.815-.617-1.835-.924-.611-2.08-2.039-2.464-3.058-.848-1.903-1.156-8.63-.463-8.63.154 0 .925 1.766 1.618 3.873zm147.431 5.98c0 .136-.77.612-1.695 1.02-1.694.747-1.694.68-.308-.272 1.618-1.155 2.003-1.291 2.003-.748zm8.55 2.583l-2.619 2.175 2.157-2.583c1.155-1.427 2.311-2.379 2.542-2.175.231.204-.693 1.36-2.08 2.583zm-53.534-.136c-3.235 2.243-1.772 2.854 5.623 2.447 3.62-.204 7.24-.612 8.011-.816 1.001-.408 1.232-.204.847.612-.385.951.539 1.087 7.78 1.087 7.317 0 8.165.136 7.78 1.087-.771 1.7.924 2.99 2.85 2.379.924-.34 3.851-.748 6.547-1.02 2.696-.271 5.469-.679 6.162-.883.693-.272.154.408-1.155 1.427-3.775 2.855-3.389 4.078 1.155 3.602 2.003-.136 4.314-.543 5.161-.815 1.541-.544 1.541-.544 0 .951-2.542 2.583-5.469 3.67-7.241 2.65-2.156-1.155-2.773-.271-1.848 2.515l.847 2.379-3.928-3.059c-5.315-4.281-9.167-6.116-15.945-7.747-6.393-1.495-33.199-3.67-38.129-3.058-5.315.611-1.309-.816 6.548-2.379 4.005-.815 7.856-1.767 8.473-2.107 2.156-1.223 2.542-.68.462.748zm-43.521 5.029l2.619 1.087-2.311-.34a568.71 568.71 0 01-11.862-2.174c-5.238-.952-11.862-1.971-14.635-2.31-3.698-.34-4.237-.544-2.003-.544 1.695-.068 5.315.203 8.088.543 3.697.476 5.161.408 5.623-.204.539-.611.77-.611 1.078 0 .617 1.36 3.159 1.02 3.698-.475.462-1.292.693-1.224 3.774 1.019 1.772 1.291 4.468 2.786 5.931 3.398zm115.388 1.835c-6.779 11.825-15.329 17.398-22.801 14.679l-2.156-.747 3.543-.544c1.926-.272 5.007-1.155 6.932-1.971 4.006-1.835 12.017-8.834 14.174-12.368 2.079-3.534 2.387-2.719.308.951zm-103.14-.68c0 .34-.848.544-1.926.544-1.849 0-1.849-.068-.539-1.223 1.232-1.156 2.388-.816 2.465.68zm-126.48 25.35c1.31 2.446 1.156 3.262-.77 5.436-1.387 1.632-1.695 1.699-2.31.748-.386-.612-.54-2.107-.232-3.33 1.155-5.165 1.849-5.709 3.312-2.854z" fill="#1E2F35"/><path d="M126.232 52.041l.857.19c.127 2.096.273 5.58.438 10.456 2.475-4.406 4.177-7.948 5.103-10.627.191-.152.375-.228.553-.228.279 0 .507.165.685.495.191.33.292.705.305 1.124.038 1.18.07 3.173.095 5.98.038 2.805.089 4.9.152 6.283-.114.381-.33.572-.647.572-.229 0-.451-.096-.667-.286a1.11 1.11 0 01-.399-.666c.038-1.105.057-2.8.057-5.085.012-2.285.025-3.828.038-4.627-.28.482-.768 1.396-1.467 2.742a53.406 53.406 0 01-1.942 3.466 17.85 17.85 0 01-1.809 2.513l.076 1.543c-.114.393-.336.59-.666.59-.229 0-.451-.095-.667-.286a1.239 1.239 0 01-.381-.685c.038-1.08.076-3.193.115-6.341.038-3.149.095-5.523.171-7.123zm10.873 9.255l-.076-1.066c.038 0 .096.006.172.019h.19c1.282 0 1.923-.559 1.923-1.676-.139-.977-.679-1.466-1.618-1.466-.356 0-.876.102-1.562.305l-.342-.553c.533-.495 1.294-.742 2.285-.742.698 0 1.282.177 1.752.533.469.355.704.876.704 1.561 0 .42-.082.832-.247 1.238-.165.394-.381.692-.648.895.483.102.857.432 1.124.99.279.546.419 1.162.419 1.848a3.44 3.44 0 01-.857 2.323c-.572.66-1.308.99-2.209.99-.445 0-.978-.127-1.6-.38-.622-.255-.933-.572-.933-.953 0-.267.171-.4.514-.4.229 0 .527.108.895.324.368.203.673.305.914.305.533 0 1.003-.235 1.409-.705.407-.47.61-.99.61-1.562 0-.609-.216-1.066-.648-1.37-.419-.318-.958-.477-1.618-.477a5.47 5.47 0 00-.553.02zm5.866 7.199l-.857-.19c0-.14-.026-.553-.076-1.239a22.75 22.75 0 01-.077-1.485c0-.254.019-.527.058-.819h1.237c.064-.216.165-.54.305-.971.152-.432.254-.736.305-.914.051-.178.12-.438.209-.78a5.48 5.48 0 00.191-.896c.038-.254.069-.565.095-.933.038-.368.057-.755.057-1.162 0-.952-.038-2.025-.114-3.218.711.038 1.46.064 2.247.076.8.013 1.453.032 1.961.058a13.74 13.74 0 011.562.17c.038.864.076 2.286.114 4.267.051 1.967.095 3.383.133 4.246h1.486v.571c0 .33.006.8.019 1.41.025.609.038 1.015.038 1.218 0 .381-.013.673-.038.876l-.857-.19a7.35 7.35 0 01-.153-.686 49.965 49.965 0 00-.247-1.561c-.724-.038-1.879-.115-3.466-.229-1.574-.114-2.806-.19-3.694-.228l-.438 2.609zm2.932-11.407c-.012.19-.025.59-.038 1.2a24.94 24.94 0 01-.057 1.37 20.76 20.76 0 01-.114 1.334 10.537 10.537 0 01-.21 1.409 8.862 8.862 0 01-.4 1.219 4.901 4.901 0 01-.59 1.123h4.171l.38-7.503a54.436 54.436 0 00-1.409-.057 31.251 31.251 0 01-1.733-.095zm13.845 7.065l.19.838c-.559.203-1.39.431-2.495.685-1.091.242-1.904.362-2.437.362a2.099 2.099 0 01-1.428-.533 3.405 3.405 0 01-.914-1.39 10.858 10.858 0 01-.457-1.676 10.403 10.403 0 01-.134-1.638c0-3.174 1.435-4.76 4.304-4.76.685 0 1.289.222 1.809.666.521.432.781.997.781 1.695 0 .38-.108.717-.324 1.01a2.373 2.373 0 01-.762.704 5.611 5.611 0 01-1.142.457c-.457.14-.864.241-1.219.304a54.55 54.55 0 01-1.276.21c-.495.076-.838.133-1.028.171.013.368.032.692.057.971.038.28.102.584.19.915.102.317.229.584.381.8.165.203.387.374.667.513.279.14.609.21.99.21.457 0 1.016-.038 1.676-.114a47.59 47.59 0 001.752-.267c.52-.089.793-.133.819-.133zm-6.456-4.075c1.727-.495 3.142-1.016 4.247-1.562-.089-.419-.21-.724-.362-.914-.153-.19-.381-.286-.686-.286-.774 0-1.479.267-2.114.8-.622.533-.983 1.187-1.085 1.962zm5.37 7.636l-.305-.819a3.23 3.23 0 001.143-.78c.33-.356.603-.724.819-1.105.216-.394.4-.883.552-1.467a15.231 15.231 0 00.495-3.161c.038-.647.057-1.13.057-1.447.013-.33.019-.768.019-1.314 0-.774.07-1.238.21-1.39.178-.19 1.161-.286 2.952-.286 1.409 0 2.208-.006 2.399-.019.025 5.155.089 8.5.19 10.036-.127.38-.349.571-.666.571-.216 0-.425-.089-.629-.266a1.134 1.134 0 01-.38-.648 92.309 92.309 0 01-.019-2.209v-2.19c.012-.977.019-1.714.019-2.209 0-.914-.007-1.6-.019-2.056a11.3 11.3 0 01-1.581.152c-.521.013-.889.032-1.105.057a34.722 34.722 0 00-.095 1.866 241.33 241.33 0 01-.076 2.19 14.37 14.37 0 01-.228 2.133c-.14.787-.343 1.46-.61 2.019-.254.546-.654 1.034-1.2 1.466-.533.444-1.18.736-1.942.876zm10.131-11.369l.857.19c.025.407.063.883.114 1.429.064.546.133 1.168.21 1.866.507-.152.99-.228 1.447-.228a3.6 3.6 0 011.523.323c.47.203.87.476 1.2.82.33.342.59.736.781 1.18.19.431.285.876.285 1.333 0 .444-.095.85-.285 1.219a3.094 3.094 0 01-.762.952 3.54 3.54 0 01-1.104.59 3.872 3.872 0 01-1.333.229c-.089 0-.286-.007-.591-.02a9.298 9.298 0 01-.971-.095 5.616 5.616 0 01-.895-.171c-.267-.076-.406-.184-.419-.324 0-.216-.006-.508-.019-.876 0-.38-.006-.8-.019-1.257 0-.457-.006-.933-.019-1.428l-.038-1.466c0-.47-.006-.901-.019-1.295v-.933c0-.711.019-1.39.057-2.038zm1.352 4.666l-.171 3.827c.507.178.99.267 1.447.267.355 0 .679-.057.971-.171.305-.127.559-.286.762-.477.203-.203.362-.431.476-.685.114-.254.171-.52.171-.8s-.057-.54-.171-.78a1.853 1.853 0 00-.514-.667 2.395 2.395 0 00-.838-.438 3.428 3.428 0 00-1.581-.133c-.165.012-.349.031-.552.057zm13.901 3.142l.191.838c-.559.203-1.39.431-2.495.685-1.092.242-1.904.362-2.437.362a2.103 2.103 0 01-1.429-.533 3.425 3.425 0 01-.914-1.39 11.089 11.089 0 01-.457-1.676 10.52 10.52 0 01-.133-1.638c0-3.174 1.435-4.76 4.304-4.76.685 0 1.288.222 1.809.666.52.432.781.997.781 1.695 0 .38-.108.717-.324 1.01a2.373 2.373 0 01-.762.704 5.611 5.611 0 01-1.142.457c-.457.14-.864.241-1.219.304a55.44 55.44 0 01-1.276.21c-.495.076-.838.133-1.028.171.012.368.031.692.057.971.038.28.101.584.19.915.102.317.229.584.381.8.165.203.387.374.667.513.279.14.609.21.99.21.457 0 1.015-.038 1.676-.114a47.59 47.59 0 001.752-.267c.52-.089.793-.133.818-.133zm-6.455-4.075c1.726-.495 3.142-1.016 4.246-1.562-.088-.419-.209-.724-.361-.914-.153-.19-.381-.286-.686-.286-.774 0-1.479.267-2.114.8-.622.533-.984 1.187-1.085 1.962z" fill="#000"/></svg>