<svg width="16" height="459" fill="none" xmlns="http://www.w3.org/2000/svg"><path d="M9.574 16.995c0 9.2.995 16.161 2.487 16.161s2.487-6.962 2.487-16.161c0-9.2-.995-16.162-2.487-16.162S9.574 7.795 9.574 16.995zM8.329 75.674c-1.99 6.216.995 33.317 3.233 30.831 2.487-2.487 2.735-33.318.497-34.81-1.243-.745-2.984.995-3.73 3.979zm-.997 62.906c-3.233 13.177-3.73 36.301-.497 36.301.995 0 2.735-8.205 3.481-18.151.995-9.697 2.239-20.388 3.233-23.62.747-2.984.498-5.471-.994-5.471-1.244 0-3.73 4.973-5.223 10.941zm-2.73 95.974c0 14.421.746 17.404 3.979 17.404 2.735 0 3.481-1.243 2.487-3.978-.747-2.237-1.493-9.945-1.493-17.404 0-7.46-.994-13.427-2.487-13.427-1.492 0-2.486 7.459-2.486 17.405zm0 57.684c0 11.189.746 19.394 1.74 18.399 2.736-2.735 3.482-38.788.746-38.788-1.492 0-2.486 8.951-2.486 20.389zm2.486 68.376c0 3.978-.746 9.696-1.492 13.177-.995 4.973-.746 5.47 1.243 2.487 1.99-2.984 2.736-1.243 2.736 6.962 0 7.707.995 10.442 3.233 9.697 1.99-.498 2.735-5.968 1.99-18.151-.25-9.448-1.244-17.902-1.99-19.145-2.487-3.978-5.72-1.243-5.72 4.973zm-.99 50.722c-.498 1.989-1.741 9.697-2.487 17.405-.746 7.459-2.238 17.156-2.984 21.631-1.244 6.465-.746 7.957 2.487 7.957 3.232 0 4.227-1.741 3.73-6.962-.498-3.73.249-14.421 1.243-23.621 1.99-15.416.746-24.864-1.99-16.41z" fill="#121D1F"/></svg>