<svg width="16" height="170" fill="none" xmlns="http://www.w3.org/2000/svg"><path d="M4.602 20.388c0 11.189.746 19.394 1.74 18.4C9.078 36.053 9.824 0 7.088 0 5.596 0 4.602 8.95 4.602 20.388zm2.486 51.703c0 3.978-.746 9.697-1.492 13.178-.995 4.973-.746 5.47 1.243 2.486 1.99-2.983 2.736-1.243 2.736 6.962 0 7.708.995 10.443 3.233 9.697 1.99-.497 2.735-5.967 1.99-18.15-.25-9.449-1.244-17.902-1.99-19.146-2.487-3.978-5.72-1.243-5.72 4.973zm-.99 50.722c-.498 1.989-1.741 9.697-2.487 17.405-.746 7.459-2.238 17.156-2.984 21.631-1.244 6.465-.746 7.957 2.487 7.957 3.232 0 4.227-1.741 3.73-6.962-.498-3.73.249-14.421 1.243-23.621 1.99-15.416.746-24.864-1.99-16.41z" fill="#121D1F"/></svg>