<svg width="11" height="302" fill="none" xmlns="http://www.w3.org/2000/svg"><path d="M5.574 76.978c0 9.2.995 16.161 2.487 16.161s2.487-6.962 2.487-16.161c0-9.2-.995-16.162-2.487-16.162s-2.487 6.962-2.487 16.162zm-1.245 48.508c-1.99 6.216.995 33.318 3.233 30.831 2.487-2.486 2.735-33.317.497-34.809-1.243-.746-2.984.994-3.73 3.978zm-.997 62.906C.1 201.57-.398 224.693 2.835 224.693c.995 0 2.735-8.205 3.482-18.15.994-9.697 2.238-20.389 3.233-23.621.746-2.984.497-5.47-.995-5.47-1.244 0-3.73 4.973-5.223 10.94zm-2.73 95.974c0 14.421.746 17.405 3.979 17.405 2.735 0 3.481-1.243 2.487-3.978-.747-2.238-1.493-9.946-1.493-17.405 0-7.459-.994-13.427-2.487-13.427-1.492 0-2.486 7.46-2.486 17.405zM4.618 1.105c-1.99 3.481 1.244 27.848 3.73 27.848 2.985 0 2.736-26.605 0-28.594-1.243-.746-2.984-.249-3.73.746z" fill="#121D1F"/></svg>