<svg width="16" height="459" fill="none" xmlns="http://www.w3.org/2000/svg"><path d="M6.752 75.486c1.99 6.216-.994 33.318-3.233 30.831C1.032 103.831.784 73 3.022 71.507c1.243-.745 2.984.995 3.73 3.98zm.997 62.906c3.233 13.178 3.73 36.301.497 36.301-.995 0-2.735-8.205-3.481-18.15-.995-9.697-2.239-20.389-3.233-23.621-.747-2.984-.498-5.47.994-5.47 1.244 0 3.73 4.973 5.223 10.94zm2.731 95.974c0 14.421-.747 17.405-3.98 17.405-2.735 0-3.481-1.243-2.486-3.978.746-2.238 1.492-9.946 1.492-17.405 0-7.459.994-13.427 2.487-13.427 1.492 0 2.486 7.46 2.486 17.405zm0 57.684c0 11.189-.747 19.394-1.741 18.4-2.736-2.735-3.482-38.788-.746-38.788 1.492 0 2.486 8.951 2.486 20.388zm-2.487 68.376c0 3.978.746 9.697 1.492 13.178.995 4.973.747 5.47-1.243 2.486-1.99-2.983-2.736-1.243-2.736 6.962 0 7.708-.994 10.443-3.233 9.697-1.99-.497-2.735-5.967-1.99-18.151.25-9.448 1.244-17.902 1.99-19.145 2.487-3.978 5.72-1.243 5.72 4.973zm.99 50.722c.498 1.989 1.741 9.697 2.487 17.405.746 7.459 2.238 17.156 2.984 21.632 1.244 6.464.746 7.956-2.487 7.956-3.232 0-4.227-1.74-3.73-6.962.498-3.729-.249-14.421-1.243-23.62-1.99-15.416-.746-24.864 1.99-16.411zM7.081 16.995c0 9.2-.995 16.161-2.487 16.161s-2.487-6.962-2.487-16.161c0-9.2.995-16.162 2.487-16.162s2.487 6.962 2.487 16.162z" fill="#121D1F"/></svg>