<svg width="378" height="169" fill="none" xmlns="http://www.w3.org/2000/svg"><path d="M160.066 75.041l.857.19c.127 2.096.273 5.58.438 10.456 2.476-4.406 4.177-7.948 5.104-10.626.19-.153.374-.229.552-.229.279 0 .508.165.686.495.19.33.292.705.304 1.124.038 1.18.07 3.174.096 5.98.038 2.805.088 4.9.152 6.283-.114.381-.33.572-.648.572-.228 0-.45-.096-.666-.286a1.11 1.11 0 01-.4-.666c.038-1.105.057-2.8.057-5.085.013-2.285.026-3.828.038-4.627-.279.482-.768 1.396-1.466 2.742a53.884 53.884 0 01-1.942 3.466 17.772 17.772 0 01-1.81 2.513l.077 1.543c-.115.393-.337.59-.667.59-.228 0-.451-.095-.666-.286a1.233 1.233 0 01-.381-.685c.038-1.08.076-3.193.114-6.341.038-3.149.095-5.523.171-7.123zm10.874 9.255l-.076-1.066a1.1 1.1 0 01.171.019h.191c1.282 0 1.923-.559 1.923-1.676-.14-.977-.679-1.466-1.619-1.466-.355 0-.876.102-1.561.305l-.343-.553c.533-.495 1.295-.742 2.285-.742.698 0 1.282.177 1.752.533.47.355.705.876.705 1.561 0 .42-.083.832-.248 1.238-.165.394-.381.692-.647.895.482.102.857.432 1.123.99.279.546.419 1.162.419 1.848a3.44 3.44 0 01-.857 2.323c-.571.66-1.307.99-2.209.99-.444 0-.977-.127-1.599-.38-.622-.255-.933-.572-.933-.953 0-.267.171-.4.514-.4.228 0 .527.108.895.324.368.203.673.305.914.305.533 0 1.003-.235 1.409-.705.406-.47.609-.99.609-1.562 0-.609-.216-1.066-.647-1.37-.419-.318-.959-.477-1.619-.477-.254 0-.438.007-.552.02zm5.865 7.199l-.857-.19c0-.14-.025-.553-.076-1.239a22.562 22.562 0 01-.076-1.485c0-.254.019-.527.057-.819h1.238c.063-.216.165-.54.305-.971.152-.432.253-.736.304-.914.051-.178.121-.438.21-.78.101-.356.165-.655.19-.896.038-.254.07-.565.095-.933.038-.368.057-.755.057-1.162 0-.952-.038-2.024-.114-3.218.711.038 1.46.064 2.247.076.8.013 1.454.032 1.962.058.507.025 1.028.082 1.561.17.038.864.076 2.286.114 4.267.051 1.967.096 3.383.134 4.246h1.485v.571c0 .33.006.8.019 1.41.026.609.038 1.015.038 1.218 0 .381-.012.673-.038.876l-.857-.19a7.392 7.392 0 01-.152-.686 61.62 61.62 0 00-.248-1.561c-.723-.038-1.879-.115-3.465-.229-1.575-.114-2.806-.19-3.695-.228l-.438 2.609zm2.933-11.407c-.013.19-.026.59-.038 1.2a25.997 25.997 0 01-.057 1.37c-.013.318-.051.762-.115 1.334-.05.558-.12 1.028-.209 1.409a9 9 0 01-.4 1.219 4.94 4.94 0 01-.59 1.123h4.17l.381-7.503a54.88 54.88 0 00-1.409-.057 31.193 31.193 0 01-1.733-.095zm13.844 7.065l.19.838c-.558.203-1.39.431-2.494.685-1.092.242-1.904.362-2.438.362a2.099 2.099 0 01-1.428-.533 3.415 3.415 0 01-.914-1.39 11.089 11.089 0 01-.457-1.676 10.4 10.4 0 01-.133-1.638c0-3.174 1.434-4.76 4.303-4.76.686 0 1.289.222 1.81.666.52.432.78.997.78 1.695 0 .38-.108.717-.323 1.01a2.383 2.383 0 01-.762.704 5.599 5.599 0 01-1.143.457c-.457.14-.863.241-1.219.304-.355.064-.78.134-1.275.21-.496.076-.838.133-1.029.171.013.368.032.692.057.972.039.279.102.584.191.914.101.317.228.584.381.8.165.203.387.374.666.513.28.14.61.21.99.21.457 0 1.016-.038 1.676-.114a47.59 47.59 0 001.752-.267c.521-.089.794-.133.819-.133zm-6.456-4.075c1.727-.496 3.143-1.016 4.247-1.562-.089-.419-.209-.724-.362-.914-.152-.19-.381-.286-.685-.286-.775 0-1.479.267-2.114.8-.622.533-.984 1.187-1.086 1.962zm5.371 7.636l-.305-.819c.419-.165.8-.425 1.142-.78a5.85 5.85 0 00.819-1.105c.216-.394.4-.883.553-1.467a15.202 15.202 0 00.495-3.161c.038-.647.057-1.13.057-1.447.013-.33.019-.768.019-1.314 0-.774.07-1.238.209-1.39.178-.19 1.162-.286 2.952-.286 1.409 0 2.209-.006 2.399-.019.026 5.155.089 8.5.191 10.036-.127.38-.349.571-.667.571-.215 0-.425-.089-.628-.266a1.14 1.14 0 01-.381-.648 92.309 92.309 0 01-.019-2.209v-2.19c.013-.977.019-1.714.019-2.209 0-.914-.006-1.6-.019-2.056a11.3 11.3 0 01-1.581.152c-.52.013-.888.032-1.104.057-.038.419-.07 1.041-.095 1.866-.026.826-.051 1.555-.076 2.19a14.25 14.25 0 01-.229 2.133c-.14.787-.343 1.46-.609 2.019-.254.546-.654 1.034-1.2 1.466-.533.444-1.181.736-1.942.876zm10.13-11.369l.857.19c.026.407.064.883.115 1.429.063.546.133 1.168.209 1.866a5.05 5.05 0 011.447-.228 3.62 3.62 0 011.524.323c.47.203.869.476 1.2.82.33.342.59.736.78 1.18.191.431.286.876.286 1.333 0 .444-.095.85-.286 1.219-.19.368-.444.685-.761.952-.318.254-.686.45-1.105.59a3.868 3.868 0 01-1.333.229c-.089 0-.286-.007-.59-.02a9.246 9.246 0 01-.971-.095 5.573 5.573 0 01-.895-.171c-.267-.076-.407-.184-.419-.324 0-.216-.007-.508-.019-.876 0-.38-.007-.8-.02-1.257 0-.457-.006-.933-.019-1.428-.012-.508-.025-.996-.038-1.466 0-.47-.006-.901-.019-1.295v-.933c0-.711.019-1.39.057-2.038zm1.352 4.666l-.171 3.827c.508.178.99.267 1.447.267.356 0 .68-.057.972-.171.304-.127.558-.286.761-.477.203-.203.362-.431.476-.685.115-.254.172-.52.172-.8s-.057-.54-.172-.78a1.842 1.842 0 00-.514-.667 2.386 2.386 0 00-.838-.438 3.422 3.422 0 00-1.58-.133c-.165.012-.349.031-.553.057zm13.902 3.142l.19.838c-.558.203-1.39.431-2.494.685-1.092.242-1.905.362-2.438.362a2.099 2.099 0 01-1.428-.533 3.415 3.415 0 01-.914-1.39 10.972 10.972 0 01-.457-1.676 10.4 10.4 0 01-.133-1.638c0-3.174 1.434-4.76 4.303-4.76.686 0 1.289.222 1.809.666.521.432.781.997.781 1.695 0 .38-.108.717-.324 1.01a2.38 2.38 0 01-.761.704 5.599 5.599 0 01-1.143.457c-.457.14-.863.241-1.219.304-.355.064-.78.134-1.276.21a27.75 27.75 0 00-1.028.171c.013.368.032.692.057.972.038.279.102.584.191.914.101.317.228.584.381.8.165.203.387.374.666.513.279.14.609.21.99.21.457 0 1.016-.038 1.676-.114a47.59 47.59 0 001.752-.267c.521-.089.793-.133.819-.133zm-6.456-4.075c1.727-.496 3.142-1.016 4.247-1.562-.089-.419-.21-.724-.362-.914-.152-.19-.381-.286-.685-.286-.775 0-1.479.267-2.114.8-.622.533-.984 1.187-1.086 1.962z" fill="#000"/><path d="M182.483 65c.76 10.14 4.949 9.527 9.5 4 3.5-12.5 8.211-10.938 18.5-6 12.5 6 26 26-2.616 33.49-43.075 26.586-15.867 29.01 0 25.01 8.633-3.99 19.595.99 24.133.99 7.499 1 11.5-.99 21.869 4C262.961 129.621 278.5 146 285.5 146c7.421-1.837 12.5-.5 17.501-11.5 5.775-5.554 7.831-7.684 7.999-13-.999-2.5 2.945-9.733.999-13-9.999 0-20.426-14.313-28.017-18-3.744-.843-6.896-6.86-13.999-8.5-2.43-.56-3.458-2.153-5-5-2.583-4.77-16.5-15.501-16.5-21-3.349-7.869-3.096-10-4.5-16.51-5.5-25.49-15.5-36.99-11.5-10.49-2.762-.293-9.57-17-13.5-17-8.5-12.5-23.5-22.001-6 11.5-12.072-12.417-37.5-21-28.5-3 2.935 4.39 14.354 7.827 26 18 5.5 4.805 15.696 10.66 19 13.5-6.558.41-19.657-13.549-25.616-12.51-17.5 1-21.384 16.185-21.384 25.51z" fill="#EED28B"/><path d="M181.012 65.5c-.76 10.14-5.449 9.027-10 3.5-3.5-12.5-8.612-15.141-16.5-7.5-8.547 4.383-17 24.5 3.5 34.5 43.076 26.586 21.584 28.638 0 26-7.002-6.5-19.464-5-24.002-5-7.499 1-17.999 0-21.999 9-9.093 3.13-10.764 22.545-17.007 21-7.421-1.837-21.403-5.264-23-17C59 114 71.003 98 88.502 89.5c3.745-.843 3.499-4.5 7.999-7 2.43-.56 4.958 1.347 6.5-1.5 2.583-4.77 4.514-15.5 4.514-20.998C98.012 23 102.512 3.5 116.512 41c2.762-.293 7.57-24.499 11.5-24.499 4.157-12.817 21.5-26.001 10 5.499 16.486-16.957 50-25 6.5 13-5-1.536-7.196 8.16-10.5 11 6.558.41 22.041-8.04 28-7 17.5 1 19 17.175 19 26.5z" fill="#5AE4A7"/><path d="M205.017 1.294c-2.958 2.217-2.126 7.115 2.403 13.86 2.218 3.327 3.975 6.1 3.79 6.1-.185 0-3.143-1.756-6.563-3.882-18.117-10.996-26.528-10.996-23.478 0 1.109 4.436 6.563 9.056 16.638 14.046 5.638 2.865 13.31 8.224 12.663 8.964-.184.184-1.848-.37-3.697-1.11-4.437-1.847-9.798-1.755-12.663.186-6.471 4.25-9.983 9.056-11.092 15.062l-.555 3.234-1.664-5.544c-3.05-10.072-12.016-16.356-21.352-14.785-6.747 1.016-17.47 4.435-21.167 6.745l-3.512 2.218 1.663-2.957c2.219-3.696 5.916-6.93 11.37-9.703 5.915-2.957 13.587-10.996 16.823-17.65 2.865-5.82 2.865-8.039-.185-9.61-2.404-1.293-5.177 0-14.143 6.839-11.369 8.593-11.831 8.87-9.151 3.603 1.11-2.402 2.126-5.821 2.126-7.577 0-6.653-4.344-10.534-7.579-6.838-3.605 4.066-13.957 21.623-16.638 28.184l-2.958 7.3-1.571-5.637c-.832-3.141-2.404-6.653-3.605-7.854-2.496-2.68-6.84-4.528-8.781-3.789-2.126.74-1.757 8.502.924 19.405 1.202 5.083 2.681 12.753 3.235 16.819.925 6.838.832 8.039-.924 12.474-1.017 2.773-1.849 6.007-1.849 7.3 0 1.294-.462 2.958-.924 3.697-.647 1.016-.924.647-.924-1.663 0-1.571-.278-2.957-.555-2.957-.37 0-2.31 1.848-4.344 4.25-2.034 2.31-6.009 5.73-8.874 7.67-2.865 2.033-6.193 4.713-7.395 6.006-2.588 2.68-3.79 3.05-3.79 1.017 0-2.588-1.478-1.386-4.436 3.604-3.42 5.544-6.655 13.491-6.655 16.263 0 1.202-.463 1.571-1.294 1.294-.925-.37-2.034.832-3.42 3.419-1.11 2.218-6.194 8.317-11.37 13.676-5.176 5.36-11.277 11.736-13.403 14.138-3.512 3.789-4.251 4.251-6.285 3.42-2.866-1.109-29.856-1.109-29.856 0 0 .462 6.655 1.016 14.697 1.201 8.134.092 14.974.554 15.251.831.37.278-.092 2.033-.832 3.882-1.57 3.696-1.848 9.61-.554 11.643 1.294 2.033 5.361.462 7.025-2.68 1.756-3.419 1.756-6.191 0-9.61-.74-1.386-1.387-2.773-1.387-2.957 0-.278 5.639-6.376 12.571-13.584 6.933-7.208 13.68-14.693 14.974-16.541 1.202-1.94 2.589-3.234 2.958-3.049.462.277 1.294 2.033 1.849 3.973 2.68 8.224 10.168 18.389 16.268 21.993 2.126 1.294 5.916 2.495 8.32 2.772 6.1.739 8.595-1.386 13.772-11.551 10.167-20.144 18.486-21.992 58.695-13.491 9.89 2.125 12.848 2.403 21.075 1.94 5.176-.277 12.201-1.201 15.621-2.125 11.554-2.864 48.25.924 58.417 6.099 1.942 1.016 7.21 4.99 11.647 8.779 9.983 8.593 14.42 10.534 20.243 8.871 7.487-2.033 15.898-11.366 21.537-23.749 1.294-2.772 2.588-4.713 2.958-4.251.369.37 2.68 3.604 5.176 7.208 13.033 18.574 32.721 33.729 43.721 33.729 5.176-.093 14.697-5.083 13.957-7.301-.277-.646-1.663-.092-3.605 1.109-5.453 3.697-9.613 4.713-14.604 3.419-11.184-2.679-29.394-19.128-41.318-37.24-1.941-2.864-3.789-5.267-4.159-5.267-.37 0-1.109.924-1.756 2.126-.832 1.478-.925 1.571-.463.184.278-1.016.832-3.881 1.11-6.376l.462-4.528-2.866.555c-2.403.462-2.773.37-2.31-.924.462-1.294.092-1.386-2.773-.924-2.773.462-3.605.185-4.345-1.202-1.201-2.217-12.756-11.643-19.78-16.17-2.958-1.849-6.933-4.806-8.874-6.562-1.941-1.755-3.882-3.049-4.344-2.957-.463.185-2.219-1.386-3.975-3.419-1.756-2.033-5.361-6.099-8.134-8.963-6.193-6.746-8.504-11.828-12.664-28.277-4.159-16.817-7.394-25.134-9.797-25.134-3.42 0-4.437 6.468-2.219 13.399.555 1.478.277 1.386-1.294-.462-2.126-2.588-7.579-10.627-11.184-16.633C216.479 3.973 211.302 0 208.437 0c-1.017 0-2.588.647-3.42 1.294zm-64.056 7.3c-.093 5.175-1.941 8.778-9.798 18.666-3.605 4.528-7.025 9.24-7.672 10.534-4.992 9.703-1.294 8.41 5.361-1.848 3.697-5.729 6.84-9.425 9.613-11.366 2.311-1.57 8.319-5.914 13.218-9.61 9.52-7.023 12.848-8.224 12.848-4.528 0 4.713-13.31 20.976-17.1 20.976-2.588 0-9.706 5.914-12.941 10.904-1.941 2.865-5.361 7.023-7.579 9.056-2.311 2.126-3.79 4.066-3.328 4.343.462.278 4.899-2.125 9.891-5.36 13.772-9.055 28.469-12.752 36.141-9.24 7.487 3.604 11.831 14.323 9.798 24.395-1.294 6.376-2.034 7.116-4.899 5.267-2.866-1.848-4.437-5.267-4.437-9.425 0-2.495-.462-3.327-2.218-4.066-1.479-.554-2.404-1.663-2.588-3.327-.37-3.511-1.942-3.696-3.236-.462-.554 1.571-2.31 3.42-4.067 4.344-6.008 3.049-9.151 6.098-11.924 11.735-3.142 6.284-3.42 9.333-1.294 14.323 2.034 4.805 4.992 7.762 16.084 15.432 10.352 7.208 19.965 16.356 20.52 19.406.739 4.712-11.184 1.016-18.025-5.545-1.848-1.756-3.604-3.234-3.882-3.234-.277 0-.924 1.109-1.479 2.495l-.924 2.587-3.605-4.158c-3.882-4.528-5.453-4.528-3.79.092.555 1.664.925 3.05.832 3.142-.185.093-5.546-.369-12.016-1.016-16.73-1.756-18.672-2.957-27.453-16.356-4.714-7.023-7.21-9.148-6.285-5.083.277 1.202 1.017 4.99 1.664 8.594.554 3.512 1.848 8.224 2.773 10.442 2.495 5.822 2.218 7.762-.555 4.343-2.588-3.141-4.714-8.131-6.84-16.448-1.756-6.746-3.513-7.393-5.361-2.033-1.572 4.436-1.202 10.996.924 15.247.925 1.663 1.572 3.974 1.572 4.99.092 1.109.647 2.957 1.386 4.251 1.479 2.68 1.756 6.099.555 6.838-1.387.924-6.286-3.789-7.765-7.577-.74-1.849-1.848-6.746-2.403-10.812-1.756-12.013-3.79-14.877-6.47-9.148-1.48 3.419-1.294 8.593.74 14.6 2.033 6.284.923 5.544-3.051-1.941-1.572-2.957-3.235-5.174-3.79-4.897-1.664.831-.832 11.366 1.387 15.986 2.403 5.083 5.36 7.485 12.2 9.795 5.27 1.848 5.732 2.957 2.959 7.208-2.311 3.604-6.378 2.772-13.773-2.772-9.89-7.393-13.033-13.492-12.294-23.841.463-6.191 5.546-17.742 6.101-13.769.555 3.974 1.849 4.066 3.42.37 1.756-4.25 5.176-8.04 9.706-10.72 1.756-1.108 4.99-3.696 7.21-5.729 3.604-3.419 4.066-3.603 4.898-2.217 1.941 3.511 5.454.739 5.454-4.343 0-1.294.924-4.344 1.941-6.746 1.756-3.696 1.941-5.36 1.479-12.198-.37-4.343-1.849-12.844-3.42-18.943-2.773-11.089-3.42-16.633-2.034-17.465 1.387-.832 6.471 3.234 8.042 6.56 1.386 2.773 1.571 5.083 1.109 12.476-.739 13.122.555 12.382 6.286-3.881 3.327-9.518 11.924-25.32 17.377-31.973 3.328-3.973 4.807-3.142 4.807 2.68zm72.745-3.327c1.386 1.479 3.974 5.267 5.915 8.594 1.849 3.327 5.546 8.686 8.134 12.013 6.933 8.686 8.504 11.089 9.798 15.247 1.572 5.082 2.773 6.099 2.773 2.495 0-1.663-1.479-6.653-3.327-11.089-3.143-7.854-5.361-19.22-3.328-17.28 1.756 1.663 4.622 10.165 8.412 24.673 2.033 7.854 4.621 15.986 5.823 18.111 1.201 2.033 5.361 7.393 9.428 11.828 7.764 8.687 10.63 13.77 10.722 18.667 0 2.125.37 2.957 1.202 2.68.647-.185 1.109-2.034 1.109-4.62 0-4.16.647-5.36 1.849-3.42.369.555 3.79 3.142 7.672 5.73 10.075 6.745 18.209 13.306 19.965 15.986.832 1.293 2.311 2.31 3.328 2.31 1.849 0 1.849 0 0 2.957-1.017 1.663-1.849 3.326-1.849 3.696 0 1.571 2.588.647 4.714-1.663 1.202-1.294 3.051-2.772 3.975-3.327 1.571-.832 1.664-.647 1.109 2.125-1.849 9.426-11.462 21.993-20.243 26.429-4.899 2.402-10.907 3.049-13.125 1.201-2.034-1.756-1.756-2.218 2.773-4.435 2.403-1.202 5.084-3.42 6.47-5.637 1.387-2.033 3.05-3.881 3.79-4.159 1.664-.646 1.664-2.402.092-2.402-.739 0-2.495.647-4.067 1.386-3.327 1.663-9.336 2.957-8.319 1.756.37-.462 3.513-2.957 6.933-5.452 6.47-4.898 9.89-10.535 7.764-12.66-.647-.647-2.958.924-7.857 5.544-6.1 5.73-7.394 6.561-11.369 7.023-2.496.37-6.193.832-8.134 1.109-2.958.37-3.42.185-2.588-.832.647-.739 2.865-1.755 4.991-2.402 8.689-2.587 10.445-3.512 11.739-5.729.74-1.294 1.109-3.05.74-3.881-.463-1.294-1.849-.832-8.412 3.141-6.747 4.066-8.873 4.806-15.251 5.637-10.538 1.386-11.37.739-6.655-4.343 4.159-4.528 4.344-7.762.184-3.789-3.697 3.512-10.537 6.192-17.839 6.746l-6.655.555 3.42-4.159c5.176-6.283 4.436-7.023-2.773-2.68-2.589 1.571-8.504 3.697-14.143 5.083-5.361 1.294-12.478 3.604-15.898 5.082-7.118 3.234-8.596 3.512-9.428 1.386-2.588-6.653 2.033-11.181 21.444-21.16 11.647-6.007 16.268-10.35 17.285-16.172 1.479-8.779-4.344-16.633-15.529-20.791-4.991-1.849-7.117-4.251-7.117-8.04 0-3.511-1.571-3.234-3.05.37-1.572 3.696-3.698 5.544-6.471 5.729-1.756.092-2.126.74-2.495 4.343-.555 4.528-2.126 7.3-4.252 7.3-2.034 0-3.328-4.62-2.681-9.703 1.294-11.088 1.572-11.735 5.361-15.893 4.899-5.268 8.227-7.023 12.017-6.192 4.714.924 13.587 5.267 19.503 9.426 3.42 2.402 6.47 3.88 8.134 3.88 3.698 0 2.681-1.2-4.159-4.99-3.143-1.847-8.966-6.19-12.849-9.702-4.529-4.066-10.26-8.04-15.436-10.719-9.89-5.082-14.235-9.425-13.772-13.676.369-4.343 2.865-4.158 12.108.647 15.252 7.854 19.319 11.366 30.503 25.874 1.387 1.848 3.235 3.326 3.975 3.326 1.756 0 .832-1.848-3.79-7.485-7.025-8.686-9.983-12.66-14.882-20.144-7.025-10.904-7.579-13.954-2.31-13.954 1.571 0 3.42.924 4.899 2.495zM168.044 64.13c1.201 4.62 4.991 9.333 8.226 10.257 1.571.462 2.311 0 3.42-2.217.832-1.571 1.479-3.512 1.571-4.436 0-.924.555 0 1.202 2.033 1.017 3.42 1.387 3.696 4.252 3.696 2.588 0 3.605-.554 5.269-3.141 1.201-1.756 2.126-4.159 2.126-5.268 0-1.293.554-2.218 1.294-2.218.647 0 2.311-.923 3.697-1.94 2.496-1.94 2.496-1.94 3.79-.185.739 1.017 3.882 2.772 6.932 3.881 10.076 3.697 15.067 10.72 13.496 18.944-.925 4.62-5.084 8.131-17.285 14.507-12.109 6.192-18.857 11.551-20.89 16.449l-1.387 3.234-1.756-2.864c-2.403-3.697-13.68-13.492-21.26-18.39-7.117-4.527-12.571-9.702-13.865-13.029-2.773-7.485 1.202-16.356 10.168-22.177 5.361-3.512 6.008-3.789 7.857-2.588 1.109.74 2.496 3.142 3.143 5.452zm-67.662 39.088c1.942 6.931 4.16 11.274 7.303 14.416 3.142 3.049 3.882 3.142 5.176.369.739-1.663.555-3.234-1.017-7.115-2.033-5.175-3.974-13.676-2.865-12.29.369.37 2.218 2.957 4.159 5.637 3.975 5.452 9.521 9.148 15.437 10.257l4.067.739-3.698.647c-14.142 2.403-19.688 6.653-25.881 19.498-4.16 8.686-6.655 11.551-10.168 11.551-1.571-.093-1.571-.278.555-1.386 2.126-1.109 6.378-8.132 6.378-10.535 0-.739-1.017-1.201-9.428-4.251-5.269-1.94-7.58-4.343-9.521-9.61-2.218-6.283-1.664-7.3 1.294-2.68 2.403 3.697 5.176 6.284 6.933 6.284 1.016 0 .554-3.511-1.294-8.779-1.664-4.712-2.681-15.432-1.387-14.138.277.277 1.11 4.343 1.849 8.964 1.571 9.518 3.79 14.6 7.58 17.649 5.823 4.528 10.444-.185 7.209-7.392-1.479-3.327-1.571-3.974-.37-4.713 1.109-.739.925-1.109-.739-2.495-1.109-.832-2.496-2.772-2.958-4.158-1.017-2.588-1.386-11.736-.555-11.736.185 0 1.11 2.403 1.941 5.267zM277.3 111.35c0 .185-.925.832-2.034 1.386-2.033 1.017-2.033.924-.37-.369 1.941-1.571 2.404-1.756 2.404-1.017zm10.26 3.512l-3.143 2.957 2.588-3.512c1.387-1.94 2.773-3.234 3.05-2.957.278.277-.832 1.848-2.495 3.512zm-64.241-.185c-3.883 3.049-2.126 3.881 6.747 3.326 4.345-.277 8.689-.831 9.613-1.109 1.202-.554 1.479-.277 1.017.832-.462 1.294.647 1.479 9.336 1.479 8.781 0 9.798.184 9.336 1.478-.925 2.31 1.109 4.066 3.42 3.234 1.109-.462 4.621-1.016 7.856-1.386 3.236-.369 6.563-.924 7.395-1.201.832-.37.185.554-1.386 1.941-4.53 3.881-4.068 5.544 1.386 4.897 2.403-.185 5.176-.739 6.193-1.109 1.849-.739 1.849-.739 0 1.294-3.05 3.511-6.563 4.99-8.689 3.604-2.588-1.571-3.327-.37-2.218 3.419l1.017 3.234-4.714-4.158c-6.378-5.822-11-8.317-19.134-10.535-7.672-2.033-39.839-4.99-45.754-4.158-6.378.832-1.572-1.109 7.856-3.234 4.807-1.109 9.429-2.403 10.168-2.865 2.588-1.663 3.05-.924.555 1.017zm-52.225 6.838l3.143 1.478-2.773-.462c-1.479-.277-7.95-1.571-14.235-2.957-6.286-1.293-14.235-2.68-17.562-3.142-4.437-.462-5.084-.739-2.404-.739 2.034-.092 6.378.277 9.706.739 4.437.647 6.193.555 6.747-.277.647-.831.925-.831 1.294 0 .74 1.848 3.79 1.386 4.437-.647.555-1.755.832-1.663 4.529 1.386 2.126 1.756 5.362 3.789 7.118 4.621zm138.465 2.495c-8.134 16.079-18.394 23.656-27.36 19.96l-2.589-1.017 4.252-.739c2.311-.37 6.008-1.571 8.319-2.68 4.807-2.495 14.42-12.013 17.008-16.818 2.496-4.805 2.865-3.696.37 1.294zm-123.768-.924c0 .462-1.017.739-2.311.739-2.219 0-2.219-.092-.647-1.663 1.479-1.571 2.865-1.109 2.958.924zM34.015 157.553c1.572 3.327 1.387 4.436-.924 7.393-1.664 2.218-2.033 2.31-2.773 1.016-.462-.831-.647-2.864-.277-4.528 1.386-7.022 2.218-7.762 3.974-3.881z" fill="#1E2F35"/></svg>