<svg width="75" height="45" fill="none" xmlns="http://www.w3.org/2000/svg"><path d="M30.703.081c-5.27.44-11.256 2.705-16.665 6.333C4.608 12.724-.453 20.698.032 28.464c.44 6.819 4.322 11.372 12.065 14.169 7.627 2.727 19.9 3.12 32.358 1.063 11.072-1.85 19.74-5.686 25.194-11.187 2.242-2.265 3.305-3.86 4.23-6.31.762-2.01.855-5.478.184-7.442-2.288-6.795-8.598-10.979-19.253-12.69-8.205-1.34-16.48-1.155-24.43.532-3.814.81-5.224 1.272-5.224 1.688 0 .23.116.3.416.184 1.248-.485 6.194-1.456 10.678-2.103 2.196-.3 8.136-.462 11.441-.3 11.048.554 18.052 2.935 22.35 7.58 3.976 4.277 4.716 9.431 2.08 14.447-1.109 2.15-4.506 5.616-7.257 7.396-8.39 5.455-19.507 8.274-33.814 8.621-8.413.185-13.06-.37-18.514-2.219C4.377 39.143.31 33.873.726 26.615c.3-5.13 2.704-9.892 7.326-14.538C13.923 6.16 21.458 2.07 28.785.821c1.664-.277 3.027-.347 5.27-.254 3.675.138 6.148.809 9.337 2.496 1.202.624 2.242 1.086 2.288 1.017.393-.37-4.276-2.704-6.749-3.375-2.195-.577-5.547-.855-8.228-.624z" fill="#000"/><path d="M15.243 28.796l.031-.858c.364-.021.635-.1.812-.234.176-.146.286-.422.327-.827-1.144-.083-2.075-.317-2.792-.702-.718-.385-1.233-.874-1.545-1.467-.301-.603-.436-1.274-.405-2.012.041-.832.26-1.591.655-2.278.395-.686.972-1.242 1.732-1.669.77-.437 1.726-.702 2.87-.795.01-.188.02-.36.031-.515.021-.167.042-.302.063-.406-.177.01-.38.021-.609.031-.229.01-.41.016-.546.016l.047-1.03h4.025l-.031.858c-.364.01-.635.089-.812.234-.166.136-.275.411-.327.827 1.154.104 2.095.375 2.823.811.739.437 1.274.983 1.607 1.638.333.656.479 1.363.437 2.122a4.158 4.158 0 01-.67 2.075c-.406.613-1 1.118-1.78 1.513-.78.385-1.752.624-2.916.718-.01.208-.026.395-.047.561a4.326 4.326 0 01-.063.39c.177-.01.38-.015.609-.015.229-.01.41-.016.546-.016l-.047 1.03h-4.025zm1.233-2.855l.39-7.083c-.999.136-1.758.515-2.278 1.14-.52.623-.806 1.445-.858 2.464-.062 1.04.135 1.851.593 2.434.457.572 1.175.92 2.153 1.045zm1.84.047c1.04-.094 1.83-.396 2.372-.905.54-.51.837-1.269.889-2.278.062-1.113-.14-2.002-.609-2.667-.468-.676-1.222-1.092-2.262-1.248l-.39 7.098zm10.26-5.96c.583 0 1.103.136 1.56.406.469.27.838.666 1.108 1.186.281.51.421 1.133.421 1.872 0 .821-.156 1.59-.468 2.308-.312.718-.759 1.295-1.341 1.732-.572.426-1.264.64-2.075.64-.697 0-1.274-.156-1.732-.468a2.97 2.97 0 01-1.03-1.28 4.706 4.706 0 01-.327-1.778c0-.832.156-1.596.468-2.293.312-.707.76-1.269 1.342-1.685.582-.426 1.274-.64 2.075-.64zm-.233.874c-.354-.01-.666.135-.936.437-.27.291-.479.686-.624 1.185a5.88 5.88 0 00-.219 1.654c-.01.333.005.681.047 1.045.042.354.114.687.218.999.115.312.266.566.453.764a.927.927 0 00.702.296c.322.01.593-.093.811-.312.229-.218.41-.499.546-.842.135-.343.234-.707.296-1.092.073-.385.115-.749.125-1.092a6.52 6.52 0 00-.047-.983 4.358 4.358 0 00-.202-.998 1.665 1.665 0 00-.437-.749 1.015 1.015 0 00-.733-.312zm4.424 11.076v-.827c.27 0 .468-.073.593-.218.124-.146.213-.349.265-.609a6.2 6.2 0 00.109-.842c.104-1.113.192-2.1.265-2.964.073-.874.13-1.628.172-2.262.052-.634.088-1.15.109-1.544.031-.406.047-.697.047-.874 0-.198-.026-.343-.078-.437a.22.22 0 00-.219-.14c-.135 0-.28.099-.436.296-.156.187-.302.53-.437 1.03l-.718-.203a5.58 5.58 0 01.203-.718c.094-.27.224-.53.39-.78s.37-.452.608-.608c.25-.166.541-.25.874-.25.374 0 .676.12.905.36.229.238.343.618.343 1.138 0 .229-.016.442-.047.64-.02.187-.047.38-.078.577h.031c.26-.739.541-1.3.843-1.685.312-.395.629-.666.951-.811.323-.146.624-.219.905-.219.5 0 .915.13 1.248.39.333.26.583.614.749 1.061.166.447.25.962.25 1.545 0 .998-.167 1.887-.5 2.667a4.01 4.01 0 01-1.482 1.825c-.655.437-1.482.656-2.48.656-.083 0-.177-.006-.28-.016-.105 0-.204-.005-.297-.016a45.057 45.057 0 01-.094 1.451c-.02.375-.041.666-.062.874-.01.218-.031.405-.063.561a7.75 7.75 0 01.53-.046h.484v.998h-3.603zm3.588-4.664c.385 0 .712-.1.983-.297.28-.197.51-.452.686-.764.187-.312.333-.655.437-1.03.104-.374.177-.743.218-1.107.052-.364.078-.692.078-.983 0-.416-.031-.765-.093-1.045-.063-.292-.162-.51-.297-.656a.607.607 0 00-.483-.218c-.24 0-.468.11-.687.328-.208.208-.405.51-.593.904a8.103 8.103 0 00-.468 1.373c-.135.53-.25 1.118-.343 1.763-.031.25-.062.51-.093.78-.032.26-.058.536-.078.827.135.031.265.062.39.093.135.021.25.032.343.032zm5.584.858c-.364 0-.66-.104-.89-.312a.998.998 0 01-.327-.75c0-.28.093-.514.28-.701a.898.898 0 01.656-.281c.218 0 .405.068.561.203a.668.668 0 01.234.53.294.294 0 01-.015.094.294.294 0 01-.016.093c.219-.062.427-.25.624-.561.208-.323.406-.744.593-1.264.187-.53.37-1.139.546-1.825.187-.697.364-1.45.53-2.262H43.11l.078-.936h4.009c.041.135.068.307.078.515.02.208.031.416.031.624-.01.8-.016 1.591-.016 2.371.01.78.032 1.534.063 2.262.02.25.042.432.062.546.032.104.089.156.172.156.104 0 .27-.224.5-.67.228-.458.514-1.16.857-2.107.354-.957.76-2.189 1.217-3.697h2.34c.01.166.016.291.016.374.01.073.015.162.015.266 0 .26-.02.592-.062.998-.042.395-.094.827-.156 1.295-.052.457-.115.91-.188 1.357a52.82 52.82 0 00-.156 1.186 9.365 9.365 0 00-.046.78c0 .166.02.29.062.374a.24.24 0 00.203.11c.135 0 .28-.094.437-.282.166-.197.317-.546.452-1.045l.718.203c-.032.208-.11.447-.234.718a3.4 3.4 0 01-.468.78 2.47 2.47 0 01-.687.624c-.26.156-.561.234-.904.234-.23 0-.448-.052-.656-.156a1.1 1.1 0 01-.483-.468c-.125-.23-.188-.536-.188-.92 0-.23.021-.516.063-.859.041-.343.093-.738.156-1.185a59.678 59.678 0 00.421-3.152h-.14a87.816 87.816 0 01-1.14 3.214c-.321.863-.623 1.555-.904 2.075-.28.51-.567.879-.858 1.107a1.46 1.46 0 01-.952.344c-.374 0-.65-.151-.826-.453-.177-.301-.276-.821-.297-1.56-.01-.322-.02-.697-.03-1.123 0-.437.004-.884.015-1.342a43.039 43.039 0 01.109-2.262h-.187a87.42 87.42 0 01-.733 2.73 14.58 14.58 0 01-.75 2.122c-.27.593-.582 1.056-.935 1.388-.354.333-.77.5-1.248.5zm17.093-8.144c.291 0 .63.026 1.014.078.385.052.775.13 1.17.234-.062.458-.135.978-.218 1.56-.073.583-.151 1.165-.234 1.748a87.134 87.134 0 00-.188 1.575 13.72 13.72 0 00-.062 1.108c0 .197.02.348.062.452.042.104.12.156.234.156.136 0 .281-.093.437-.28.167-.198.323-.547.468-1.046l.702.203a3.48 3.48 0 01-.203.718c-.104.27-.244.53-.42.78-.167.25-.375.457-.625.624-.25.156-.54.234-.873.234-.354 0-.645-.11-.874-.328-.229-.218-.343-.582-.343-1.092 0-.187.01-.395.031-.624a12.9 12.9 0 01.11-.67h-.032a7.73 7.73 0 01-.655 1.372 3.6 3.6 0 01-.702.827c-.24.197-.479.333-.718.405-.239.073-.473.11-.702.11-.572 0-1.055-.224-1.45-.671-.396-.447-.593-1.155-.593-2.122 0-.728.098-1.409.296-2.043.208-.645.51-1.217.905-1.716.395-.5.879-.89 1.45-1.17.583-.281 1.254-.422 2.013-.422zm-.546.874c-.354 0-.67.11-.952.328-.28.208-.52.51-.717.904a5.182 5.182 0 00-.453 1.389c-.093.54-.14 1.144-.14 1.81 0 .509.057.92.172 1.232.124.301.312.452.561.452.25 0 .489-.125.718-.374.229-.25.437-.588.624-1.014.187-.427.353-.9.499-1.42.146-.53.265-1.066.359-1.607.093-.55.145-1.076.156-1.575a1.724 1.724 0 00-.359-.078 2.381 2.381 0 00-.468-.047z" fill="#000"/></svg>