<svg width="75" height="45" fill="none" xmlns="http://www.w3.org/2000/svg"><path d="M18.164 17.049c1.227-.01 2.178.213 2.854.67.687.458.983 1.16.89 2.107a2.14 2.14 0 01-.328.92c-.177.302-.442.572-.796.811-.343.24-.774.421-1.294.546v.016c1.06.114 1.83.437 2.308.967.479.52.702 1.128.671 1.825-.031.666-.223 1.227-.577 1.685-.343.458-.8.806-1.373 1.045-.561.24-1.206.359-1.934.359h-5.008l.047-.858c.28-.01.504-.062.67-.156.167-.094.287-.25.36-.468.072-.229.12-.546.14-.952l.328-6.162c.02-.28.041-.54.062-.78.02-.239.042-.426.062-.561-.166.01-.369.02-.608.031-.229 0-.41.005-.546.016l.062-1.03c.666-.01 1.326-.016 1.982-.016.665 0 1.341-.005 2.028-.015zm.062 5.787h-.733c-.208 0-.421.01-.64.032l-.14 2.854c-.01.281-.031.541-.063.78-.03.23-.057.411-.078.546.188 0 .375.006.562.016h.546c.177-.01.333-.016.468-.016.686-.02 1.217-.218 1.591-.592.385-.385.593-.9.624-1.545.031-.52-.052-.93-.25-1.232a1.58 1.58 0 00-.795-.655 3.087 3.087 0 00-1.092-.188zm-.11-4.867a1.56 1.56 0 00-.576.094c-.146.062-.26.192-.344.39-.083.197-.135.494-.156.889l-.14 2.574h.468c.156-.01.307-.016.452-.016.5-.02.895-.13 1.186-.327.302-.198.52-.458.655-.78a2.84 2.84 0 00.234-1.077c.021-.457-.057-.81-.234-1.06a1.407 1.407 0 00-.686-.546 2.22 2.22 0 00-.858-.14zM23.6 31.978v-.827c.27 0 .468-.073.593-.218.125-.146.213-.349.265-.609.052-.25.088-.53.11-.842.103-1.113.192-2.1.264-2.964.073-.874.13-1.628.172-2.262.052-.634.088-1.15.11-1.544.03-.406.046-.697.046-.874 0-.198-.026-.343-.078-.437a.22.22 0 00-.218-.14c-.136 0-.281.099-.437.296-.156.187-.302.53-.437 1.03l-.718-.203a5.58 5.58 0 01.203-.718c.094-.27.224-.53.39-.78.167-.25.37-.452.609-.608.25-.166.54-.25.873-.25.375 0 .676.12.905.36.229.238.343.618.343 1.138 0 .229-.015.442-.047.64-.02.187-.046.38-.078.577h.032c.26-.739.54-1.3.842-1.685.312-.395.63-.666.952-.811.322-.146.624-.219.904-.219.5 0 .916.13 1.248.39.333.26.583.614.75 1.061.166.447.249.962.249 1.545 0 .998-.167 1.887-.5 2.667a4.01 4.01 0 01-1.481 1.825c-.656.437-1.482.656-2.48.656-.084 0-.178-.006-.282-.016-.104 0-.202-.005-.296-.016a45.057 45.057 0 01-.094 1.451c-.02.375-.041.666-.062.874-.01.218-.031.405-.062.561a7.75 7.75 0 01.53-.046h.484v.998H23.6zm3.588-4.664c.385 0 .712-.1.983-.297.28-.197.51-.452.686-.764.187-.312.333-.655.437-1.03.104-.374.177-.743.218-1.107.052-.364.078-.692.078-.983 0-.416-.03-.765-.093-1.045-.063-.292-.161-.51-.297-.656a.607.607 0 00-.483-.218c-.24 0-.468.11-.687.328-.208.208-.405.51-.592.904a8.103 8.103 0 00-.468 1.373c-.136.53-.25 1.118-.344 1.763-.03.25-.062.51-.093.78-.031.26-.057.536-.078.827.135.031.265.062.39.093.135.021.25.032.343.032zm9.239-7.286c.426 0 .81.068 1.154.203.354.125.63.328.827.609.197.28.296.644.296 1.092 0 .426-.135.79-.405 1.092-.26.301-.609.55-1.046.748a8.528 8.528 0 01-1.388.468c-.5.125-.983.214-1.45.266 0 .613.067 1.102.202 1.466.135.354.317.608.546.764.24.146.5.219.78.219.218 0 .458-.042.718-.125a2.3 2.3 0 00.795-.5c.26-.238.489-.571.687-.998l.748.375c-.29.634-.613 1.133-.967 1.497-.353.354-.728.604-1.123.75a3.537 3.537 0 01-1.232.218c-.968.01-1.716-.276-2.247-.858-.53-.583-.795-1.425-.795-2.528 0-.54.078-1.086.234-1.638a5.34 5.34 0 01.702-1.544 3.859 3.859 0 011.216-1.139c.49-.291 1.072-.437 1.748-.437zm-.188.858c-.395 0-.717.14-.967.422-.25.27-.442.618-.577 1.045a6.632 6.632 0 00-.25 1.295c.562-.094 1.035-.23 1.42-.406.385-.187.681-.406.89-.655.207-.25.311-.525.311-.827-.01-.28-.093-.494-.25-.64a.784.784 0 00-.577-.234zm4.363 7.286c-.364 0-.66-.104-.889-.312a.998.998 0 01-.327-.75c0-.28.093-.514.28-.701a.898.898 0 01.656-.281c.218 0 .405.068.561.203a.668.668 0 01.234.53.294.294 0 01-.015.094.294.294 0 01-.016.093c.218-.062.426-.25.624-.561.208-.323.406-.744.593-1.264.187-.53.369-1.139.546-1.825.187-.697.364-1.45.53-2.262h-1.607l.078-.936h4.01c.041.135.067.307.078.515.02.208.03.416.03.624-.01.8-.015 1.591-.015 2.371.01.78.031 1.534.063 2.262.02.25.041.432.062.546.031.104.088.156.172.156.104 0 .27-.224.499-.67.229-.458.515-1.16.858-2.107.353-.957.759-2.189 1.217-3.697h2.34c.01.166.015.291.015.374.01.073.016.162.016.266 0 .26-.021.592-.063.998-.041.395-.093.827-.156 1.295-.052.457-.114.91-.187 1.357a52.82 52.82 0 00-.156 1.186 9.365 9.365 0 00-.047.78c0 .166.021.29.063.374a.24.24 0 00.203.11c.135 0 .28-.094.436-.282.167-.197.318-.546.453-1.045l.717.203c-.03.208-.109.447-.234.718-.114.27-.27.53-.468.78-.187.25-.416.457-.686.624-.26.156-.562.234-.905.234-.229 0-.447-.052-.655-.156a1.1 1.1 0 01-.484-.468c-.124-.23-.187-.536-.187-.92 0-.23.021-.516.063-.859.041-.343.093-.738.156-1.185a59.678 59.678 0 00.42-3.152h-.14a87.816 87.816 0 01-1.138 3.214c-.323.863-.624 1.555-.905 2.075-.281.51-.567.879-.858 1.107-.281.23-.598.344-.952.344-.374 0-.65-.151-.827-.453-.176-.301-.275-.821-.296-1.56-.01-.322-.02-.697-.031-1.123 0-.437.005-.884.015-1.342a43.039 43.039 0 01.11-2.262h-.188a87.42 87.42 0 01-.733 2.73 14.58 14.58 0 01-.749 2.122c-.27.593-.582 1.056-.936 1.388-.353.333-.77.5-1.248.5zm18.747 0c-.582 0-.956-.219-1.123-.656-.166-.436-.192-1.003-.078-1.7.125-.811.224-1.477.296-1.997.073-.53.125-.962.156-1.295.042-.332.073-.603.094-.81.02-.209.036-.401.047-.578a3.013 3.013 0 00-.827-.125c-.468 0-.858.151-1.17.453-.312.301-.473.743-.483 1.326-.01.436.083.795.28 1.076.198.28.505.421.92.421a3.7 3.7 0 00.578-.047 7.82 7.82 0 00.795-.171l-.062.92c-.385.063-.76.11-1.123.14-.354.032-.697.042-1.03.032v-.203a2.837 2.837 0 01-1.466-.749c-.406-.405-.598-.941-.577-1.607.02-.447.135-.832.343-1.154.218-.322.5-.588.842-.796a4.101 4.101 0 011.14-.468 5.067 5.067 0 011.231-.156c.323 0 .604.006.843.016.24.01.478.031.718.062.25.021.53.047.842.078-.02.406-.057.874-.11 1.404-.051.52-.114 1.061-.186 1.623a80.664 80.664 0 01-.234 1.638 81.3 81.3 0 00-.188 1.482c-.02.208-.01.364.032.468a.22.22 0 00.218.14c.135 0 .291-.104.468-.312.187-.208.343-.546.468-1.014l.702.203a5.353 5.353 0 01-.421 1.076 2.579 2.579 0 01-.765.905c-.312.24-.702.364-1.17.375zm-4.789-.016c-.333 0-.624-.073-.873-.218a1.95 1.95 0 01-.609-.656 4.032 4.032 0 01-.374-.982l.67-.219c.094.333.209.588.344.765.145.166.29.244.436.234a.35.35 0 00.234-.125c.073-.073.14-.193.203-.359.073-.177.156-.416.25-.718a2.33 2.33 0 01.405-.78c.188-.228.448-.39.78-.483.333-.094.775-.083 1.326.031l-.124.515a.71.71 0 00-.39.109c-.104.062-.203.192-.297.39a6.864 6.864 0 00-.327.842c-.136.416-.281.75-.437.999-.146.239-.317.405-.515.499a1.488 1.488 0 01-.702.156z" fill="#000"/><path d="M30.904.081c-5.305.44-11.33 2.705-16.774 6.333C4.638 12.724-.456 20.698.032 28.464c.442 6.819 4.35 11.372 12.144 14.169 7.677 2.727 20.03 3.12 32.57 1.063 11.143-1.85 19.867-5.686 25.358-11.187 2.256-2.265 3.326-3.86 4.257-6.31.768-2.01.86-5.478.186-7.442-2.303-6.795-8.654-10.979-19.379-12.69-8.259-1.34-16.587-1.155-24.59.532-3.839.81-5.258 1.272-5.258 1.688 0 .23.117.3.419.184 1.256-.485 6.235-1.456 10.748-2.103 2.21-.3 8.189-.462 11.516-.3 11.12.554 18.169 2.935 22.496 7.58 4.002 4.277 4.746 9.431 2.094 14.447-1.117 2.15-4.537 5.616-7.305 7.396-8.445 5.455-19.635 8.274-34.035 8.621-8.468.185-13.145-.37-18.635-2.219C4.406 39.143.311 33.873.73 26.615c.303-5.13 2.722-9.892 7.375-14.538C14.014 6.16 21.598 2.07 28.973.821 30.648.544 32.02.474 34.277.567c3.699.138 6.188.809 9.399 2.496 1.21.624 2.256 1.086 2.303 1.017.395-.37-4.304-2.704-6.793-3.375-2.21-.577-5.584-.855-8.282-.624z" fill="#000"/></svg>