<svg width="75" height="45" fill="none" xmlns="http://www.w3.org/2000/svg"><path d="M17.38 16.83c.468 0 .942.073 1.42.219.489.135.946.338 1.373.608h.015l-.03-.717h1.091l-.187 3.619h-.874c-.083-.905-.358-1.597-.826-2.075-.458-.489-1.077-.733-1.857-.733a3.02 3.02 0 00-1.497.374c-.437.24-.822.577-1.155 1.014a5.12 5.12 0 00-.764 1.482 7.614 7.614 0 00-.328 1.794c-.041.926.068 1.747.328 2.465.26.718.65 1.28 1.17 1.685.52.405 1.139.613 1.856.624.645.01 1.3-.135 1.966-.437.676-.312 1.269-.79 1.778-1.435l.53.53c-.52.666-1.065 1.17-1.637 1.513-.562.344-1.108.578-1.638.702a6.382 6.382 0 01-1.451.188c-.79 0-1.503-.14-2.137-.422a4.886 4.886 0 01-1.623-1.185 5.14 5.14 0 01-.983-1.763 6.009 6.009 0 01-.265-2.184 7.238 7.238 0 01.453-2.122 6.272 6.272 0 011.107-1.887 5.262 5.262 0 011.763-1.342c.697-.343 1.498-.515 2.402-.515zm5.876 15.398c-.437-.01-.775-.125-1.014-.344a1.008 1.008 0 01-.36-.795c0-.302.094-.541.282-.718.187-.166.384-.25.592-.25.52 0 .806.276.858.827a.195.195 0 00.11.032c.041.01.078.015.109.015.197.01.4-.062.608-.218a3.21 3.21 0 00.593-.546c.198-.219.37-.442.515-.671a5.3 5.3 0 00.343-.53 16.639 16.639 0 00-.359-1.7 23.6 23.6 0 00-.515-1.81 35.45 35.45 0 00-.624-1.779 63.179 63.179 0 00-.624-1.575 3.16 3.16 0 00-.296-.546c-.114-.198-.265-.292-.452-.281-.156 0-.297.099-.422.296-.124.198-.197.536-.218 1.014l-.749-.062c0-.24.031-.505.094-.796.073-.291.187-.572.343-.842.156-.27.359-.489.608-.655.26-.177.583-.266.968-.266.353 0 .644.089.873.266.24.166.437.38.593.64.166.249.302.504.406.764.166.416.348.925.546 1.528.197.604.384 1.243.561 1.92.177.675.317 1.34.421 1.996h.016c.24-.489.452-.983.64-1.482.187-.51.338-1.004.452-1.482a6.16 6.16 0 00.203-1.357c.01-.156.005-.349-.016-.577-.02-.23-.083-.4-.187-.515a.61.61 0 01-.125.047h-.14a.857.857 0 01-.609-.234.819.819 0 01-.234-.578c0-.322.1-.556.297-.702.208-.156.426-.234.655-.234.364 0 .655.11.874.328.218.208.374.473.468.796.093.322.14.655.14.998 0 .53-.083 1.128-.25 1.794-.156.655-.38 1.336-.67 2.044a21.95 21.95 0 01-.952 2.074 15.587 15.587 0 01-1.373 2.169c-.468.634-.957 1.123-1.466 1.466-.5.354-1.004.53-1.513.53zm10.279-4.056c-.427 0-.775-.094-1.045-.281a1.733 1.733 0 01-.578-.811 3.747 3.747 0 01-.171-1.186c0-.447.036-.92.109-1.42.073-.51.146-.998.218-1.466.073-.478.11-.894.11-1.248 0-.177-.026-.302-.078-.374a.258.258 0 00-.234-.125c-.136 0-.281.099-.437.296-.156.187-.307.53-.453 1.03l-.702-.203c.042-.208.12-.447.234-.718.115-.27.266-.53.453-.78s.41-.452.67-.608c.26-.166.557-.25.89-.25.551 0 .92.146 1.107.437.198.291.297.702.297 1.233 0 .312-.026.665-.078 1.06-.042.385-.094.79-.156 1.217-.052.416-.104.822-.156 1.217a9.688 9.688 0 00-.063 1.03c0 .135.016.265.047.39a.619.619 0 00.172.265.532.532 0 00.327.093c.219 0 .437-.12.656-.358.228-.24.442-.562.64-.968.207-.405.39-.858.545-1.357a12.68 12.68 0 00.375-1.529c.093-.52.14-1.014.14-1.482a9.968 9.968 0 00-.062-1.076h1.794a3.9 3.9 0 01.03.484v.343c0 .437-.02.9-.062 1.388a35.05 35.05 0 01-.156 1.467c-.062.478-.114.925-.156 1.341-.041.406-.062.744-.062 1.014.01.208.052.385.125.53.073.136.213.203.421.203.218 0 .442-.12.67-.358a4.12 4.12 0 00.64-.983 10.978 10.978 0 00.952-2.902c.094-.53.14-1.03.14-1.497a15.82 15.82 0 00-.047-1.03h1.779c.02.166.031.291.031.374v.266c0 .197-.01.436-.031.717a24.7 24.7 0 01-.094.967c-.041.354-.093.76-.156 1.217a30.29 30.29 0 01-.124 1.014l-.11.765c-.02.208-.036.39-.046.546-.01.145-.016.27-.016.374 0 .177.02.307.062.39.052.073.13.11.234.11.136 0 .276-.094.422-.282.156-.197.306-.546.452-1.045l.702.203a3.48 3.48 0 01-.203.718 3.42 3.42 0 01-.39.78c-.166.25-.369.457-.608.624-.24.156-.525.234-.858.234-.26 0-.489-.058-.687-.172a1.13 1.13 0 01-.436-.515c-.094-.229-.14-.52-.14-.873.01-.24.025-.448.046-.624l.094-.546h-.032c-.26.728-.55 1.29-.873 1.684-.312.396-.63.671-.952.827a2.269 2.269 0 01-.936.219c-.353 0-.65-.078-.889-.234-.229-.156-.4-.37-.515-.64a2.3 2.3 0 01-.171-.905 3 3 0 01.03-.437c.022-.135.053-.301.094-.499h-.03c-.271.728-.562 1.29-.874 1.685-.312.395-.624.666-.936.811a2.065 2.065 0 01-.905.219zm17.393 0c-.457 0-.816-.146-1.076-.437-.25-.302-.395-.801-.437-1.498-.042-.676-.135-1.154-.28-1.435-.146-.291-.39-.437-.734-.437l-1.888.016.016-.796h2.527v.25c.635.02 1.102.197 1.404.53.312.323.494.775.546 1.357.042.479.099.801.172.968.083.166.197.25.343.25.125.01.244-.063.359-.22.124-.155.255-.472.39-.95l.702.186a3.264 3.264 0 01-.312 1.014c-.156.344-.38.63-.671.858-.28.23-.634.344-1.06.344zM45.312 28a2.1 2.1 0 01-.031-.343v-.343c0-.302.02-.656.062-1.061.042-.416.089-.843.14-1.28.063-.447.12-.878.172-1.294a21.5 21.5 0 00.14-1.123c.042-.323.068-.567.079-.734 0-.166-.016-.301-.047-.405-.031-.104-.11-.156-.234-.156-.135 0-.28.099-.437.296-.156.187-.307.53-.452 1.03l-.718-.203c.042-.208.12-.447.234-.718a4.3 4.3 0 01.468-.78c.198-.25.432-.452.702-.608.27-.166.582-.25.936-.25.458 0 .79.162.998.484.209.322.292.848.25 1.576-.031.343-.073.722-.125 1.138-.052.406-.109.822-.171 1.248-.052.427-.1.848-.14 1.264a15.28 15.28 0 00-.047 1.17v.593c.01.187.02.353.03.499h-1.809zm2.34-3.931l.156-.484c.406 0 .744-.099 1.014-.296.27-.208.5-.598.686-1.17.23-.697.515-1.217.858-1.56.344-.354.75-.53 1.217-.53.333 0 .604.093.812.28.207.187.311.437.311.749 0 .27-.078.51-.234.718-.156.197-.38.296-.67.296a.95.95 0 01-.578-.172.702.702 0 01-.28-.483 1.364 1.364 0 00-.36.374 4.71 4.71 0 00-.327.655c-.208.49-.452.864-.733 1.124-.27.26-.619.39-1.045.39l-.827.109zm10.953-4.04c.292 0 .63.025 1.015.077.384.052.774.13 1.17.234-.063.458-.136.978-.219 1.56-.073.583-.15 1.165-.234 1.748a87.134 87.134 0 00-.187 1.575 13.72 13.72 0 00-.063 1.108c0 .197.021.348.063.452.041.104.12.156.234.156.135 0 .28-.093.437-.28.166-.198.322-.547.468-1.046l.702.203a3.48 3.48 0 01-.203.718c-.104.27-.244.53-.421.78-.167.25-.375.457-.624.624-.25.156-.541.234-.874.234-.353 0-.645-.11-.873-.328-.23-.218-.344-.582-.344-1.092 0-.187.01-.395.032-.624a12.9 12.9 0 01.109-.67h-.032a7.73 7.73 0 01-.655 1.372 3.6 3.6 0 01-.702.827 2.09 2.09 0 01-.717.405c-.24.073-.473.11-.702.11-.572 0-1.056-.224-1.451-.671-.395-.447-.593-1.155-.593-2.122 0-.728.099-1.409.296-2.043.209-.645.51-1.217.905-1.716.395-.5.88-.89 1.451-1.17.582-.281 1.253-.422 2.012-.422zm-.545.873c-.354 0-.671.11-.952.328-.28.208-.52.51-.718.904a5.182 5.182 0 00-.452 1.389c-.094.54-.14 1.144-.14 1.81 0 .509.057.92.171 1.232.125.301.312.452.562.452.25 0 .489-.125.717-.374.23-.25.437-.588.624-1.014.188-.427.354-.9.5-1.42.145-.53.265-1.066.358-1.607.094-.55.146-1.076.156-1.575a1.724 1.724 0 00-.358-.078 2.381 2.381 0 00-.468-.047z" fill="#000"/><path d="M30.703.081c-5.27.44-11.256 2.705-16.665 6.333C4.608 12.724-.453 20.698.032 28.464c.44 6.819 4.322 11.372 12.065 14.169 7.627 2.727 19.9 3.12 32.358 1.063 11.072-1.85 19.74-5.686 25.194-11.187 2.242-2.265 3.305-3.86 4.23-6.31.762-2.01.855-5.478.184-7.442-2.288-6.795-8.598-10.979-19.253-12.69-8.205-1.34-16.48-1.155-24.43.532-3.814.81-5.224 1.272-5.224 1.688 0 .23.116.3.416.184 1.248-.485 6.194-1.456 10.678-2.103 2.196-.3 8.136-.462 11.441-.3 11.048.554 18.052 2.935 22.35 7.58 3.976 4.277 4.716 9.431 2.08 14.447-1.109 2.15-4.506 5.616-7.257 7.396-8.39 5.455-19.507 8.274-33.814 8.621-8.413.185-13.06-.37-18.514-2.219C4.377 39.143.31 33.873.726 26.615c.3-5.13 2.704-9.892 7.326-14.538C13.923 6.16 21.458 2.07 28.785.821c1.664-.277 3.027-.347 5.27-.254 3.675.138 6.148.809 9.337 2.496 1.202.624 2.242 1.086 2.288 1.017.393-.37-4.276-2.704-6.749-3.375-2.195-.577-5.547-.855-8.228-.624z" fill="#000"/></svg>