<svg width="75" height="45" fill="none" xmlns="http://www.w3.org/2000/svg"><path d="M20.226 17.049c.946-.01 1.747.109 2.402.359.666.239 1.165.608 1.498 1.107.343.5.489 1.139.437 1.919a3.42 3.42 0 01-1.17 2.371c-.375.343-.863.624-1.467.843-.603.218-1.326.338-2.168.358h-.5c-.155 0-.306-.005-.452-.015l-.093 1.669c-.01.291-.031.556-.063.796-.02.239-.041.426-.062.561.135-.01.286-.015.452-.015a8 8 0 01.5-.016c.166-.01.301-.016.405-.016L19.898 28h-4.32l.046-.858c.291-.01.515-.057.67-.14.167-.094.287-.25.36-.468.083-.23.13-.541.14-.936l.328-6.225c.02-.26.041-.51.062-.749.031-.239.057-.426.078-.561l-.608.031c-.23 0-.416.005-.562.016l.062-1.03c.676-.01 1.352-.016 2.028-.016.676 0 1.358-.005 2.044-.015zm-.078.936c-.25 0-.458.041-.624.125-.156.072-.27.213-.343.42-.073.209-.12.495-.14.859l-.188 3.603c.146.021.281.037.406.047h.405c.572 0 1.066-.099 1.482-.296.416-.208.739-.505.968-.89.228-.395.358-.873.39-1.435.02-.51-.037-.925-.172-1.248-.125-.322-.307-.566-.546-.733a1.914 1.914 0 00-.78-.359 3.943 3.943 0 00-.858-.093zm6.133 14.243c-.437-.01-.775-.125-1.014-.344a1.008 1.008 0 01-.36-.795c0-.302.094-.541.282-.718.187-.166.384-.25.592-.25.52 0 .806.276.858.827a.195.195 0 00.11.032c.041.01.078.015.109.015.197.01.4-.062.608-.218a3.21 3.21 0 00.593-.546c.198-.219.37-.442.515-.671a5.3 5.3 0 00.343-.53 16.639 16.639 0 00-.359-1.7 23.6 23.6 0 00-.515-1.81 35.45 35.45 0 00-.624-1.779 63.179 63.179 0 00-.624-1.575 3.16 3.16 0 00-.296-.546c-.114-.198-.265-.292-.452-.281-.156 0-.297.099-.422.296-.124.198-.197.536-.218 1.014l-.749-.062c0-.24.031-.505.094-.796.073-.291.187-.572.343-.842.156-.27.359-.489.608-.655.26-.177.583-.266.968-.266.353 0 .644.089.873.266.24.166.437.38.593.64.166.249.302.504.406.764.166.416.348.925.546 1.528.197.604.384 1.243.561 1.92.177.675.317 1.34.421 1.996h.016c.24-.489.452-.983.64-1.482.187-.51.338-1.004.452-1.482a6.16 6.16 0 00.203-1.357c.01-.156.005-.349-.016-.577-.02-.23-.083-.4-.187-.515a.61.61 0 01-.125.047h-.14a.857.857 0 01-.609-.234.819.819 0 01-.234-.578c0-.322.1-.556.297-.702.208-.156.426-.234.655-.234.364 0 .655.11.874.328.218.208.374.473.468.796.093.322.14.655.14.998 0 .53-.083 1.128-.25 1.794-.156.655-.38 1.336-.67 2.044a21.95 21.95 0 01-.952 2.074 15.587 15.587 0 01-1.373 2.169c-.468.634-.957 1.123-1.466 1.466-.5.354-1.004.53-1.513.53zm10.544-6.802c-.655 0-1.123-.229-1.404-.686-.27-.468-.374-1.066-.312-1.794.062-.437.104-.775.125-1.014.031-.25.031-.422 0-.515-.031-.104-.115-.156-.25-.156s-.286.099-.452.296c-.156.187-.312.53-.468 1.03l-.718-.203a4.164 4.164 0 01.749-1.498c.208-.25.452-.452.733-.608.281-.166.609-.25.983-.25.489 0 .811.151.967.453.167.291.245.686.234 1.185-.01.208-.031.427-.062.656l-.063.686c-.041.416-.02.723.063.92.093.198.296.297.608.297.229 0 .473-.047.733-.14a3.9 3.9 0 00.718-.375c.218-.146.364-.286.437-.421l-.031.967c-.406.416-.832.718-1.28.905a3.47 3.47 0 01-1.31.265zm3.307 2.746c-.229 0-.447-.052-.655-.156a1.085 1.085 0 01-.484-.484c-.124-.229-.187-.54-.187-.936 0-.26.021-.593.063-.998l.171-1.358c.073-.51.13-1.03.172-1.56.052-.53.078-1.055.078-1.575 0-.146-.005-.297-.016-.453V20.2H41.1c.01.166.016.291.016.374.01.073.016.162.016.266 0 .26-.021.592-.063.998a23.03 23.03 0 01-.14 1.28c-.052.457-.11.91-.172 1.356-.062.448-.114.848-.156 1.202a7.023 7.023 0 00-.062.764c0 .177.026.307.078.39.052.073.125.11.218.11.135 0 .276-.094.421-.282.156-.197.307-.546.453-1.045l.702.203a2.75 2.75 0 01-.234.718 3.72 3.72 0 01-.453.78c-.187.25-.416.457-.686.624-.26.156-.562.234-.905.234zm9.51 0c-.458 0-.817-.146-1.077-.437-.25-.302-.395-.801-.436-1.498-.042-.676-.136-1.154-.281-1.435-.146-.291-.39-.437-.733-.437l-1.888.016.016-.796h2.527v.25c.634.02 1.102.197 1.404.53.312.323.494.775.546 1.357.041.479.099.801.171.968.084.166.198.25.344.25.124.01.244-.063.358-.22.125-.155.255-.472.39-.95l.702.186a3.212 3.212 0 01-.312 1.014c-.156.344-.38.63-.67.858-.281.23-.635.344-1.061.344zM44.026 28a2.1 2.1 0 01-.031-.343v-.343c0-.302.02-.656.062-1.061.042-.416.088-.843.14-1.28.063-.447.12-.878.172-1.294.062-.427.11-.801.14-1.123.042-.323.068-.567.078-.734 0-.166-.015-.301-.046-.405-.032-.104-.11-.156-.234-.156-.136 0-.281.099-.437.296-.156.187-.307.53-.453 1.03l-.717-.203c.041-.208.12-.447.234-.718a4.3 4.3 0 01.468-.78c.197-.25.431-.452.702-.608.27-.166.582-.25.936-.25.457 0 .79.162.998.484.208.322.291.848.25 1.576-.031.343-.073.722-.125 1.138-.052.406-.11.822-.172 1.248-.052.427-.098.848-.14 1.264-.031.416-.047.806-.047 1.17v.593c.01.187.021.353.031.499h-1.81zm2.34-3.931l.156-.484c.405 0 .743-.099 1.014-.296.27-.208.499-.598.686-1.17.229-.697.515-1.217.858-1.56.343-.354.749-.53 1.217-.53.333 0 .603.093.811.28.208.187.312.437.312.749 0 .27-.078.51-.234.718-.156.197-.38.296-.67.296a.95.95 0 01-.578-.172.702.702 0 01-.28-.483 1.364 1.364 0 00-.36.374 4.71 4.71 0 00-.327.655c-.208.49-.452.864-.733 1.124-.27.26-.619.39-1.045.39l-.827.109zm10.953-4.04c.291 0 .63.025 1.014.077.385.052.775.13 1.17.234-.062.458-.135.978-.218 1.56-.073.583-.151 1.165-.234 1.748a87.134 87.134 0 00-.188 1.575 13.72 13.72 0 00-.062 1.108c0 .197.02.348.063.452a.23.23 0 00.233.156c.136 0 .281-.093.437-.28.167-.198.323-.547.468-1.046l.702.203a3.48 3.48 0 01-.203.718 3.56 3.56 0 01-.42.78c-.167.25-.375.457-.625.624-.25.156-.54.234-.873.234-.354 0-.645-.11-.874-.328-.229-.218-.343-.582-.343-1.092 0-.187.01-.395.031-.624a12.9 12.9 0 01.11-.67h-.032a7.73 7.73 0 01-.655 1.372 3.6 3.6 0 01-.702.827c-.24.197-.479.333-.718.405-.239.073-.473.11-.702.11-.572 0-1.055-.224-1.45-.671-.396-.447-.593-1.155-.593-2.122 0-.728.099-1.409.296-2.043.208-.645.51-1.217.905-1.716.395-.5.879-.89 1.45-1.17.583-.281 1.254-.422 2.013-.422zm-.546.873c-.354 0-.67.11-.952.328-.28.208-.52.51-.717.904a5.182 5.182 0 00-.453 1.389c-.093.54-.14 1.144-.14 1.81 0 .509.057.92.172 1.232.124.301.312.452.561.452.25 0 .49-.125.718-.374.229-.25.437-.588.624-1.014.187-.427.354-.9.5-1.42.145-.53.264-1.066.358-1.607.093-.55.145-1.076.156-1.575a1.724 1.724 0 00-.359-.078 2.381 2.381 0 00-.468-.047z" fill="#000"/><path d="M30.904.081c-5.305.44-11.33 2.705-16.774 6.333C4.638 12.724-.456 20.698.032 28.464c.442 6.819 4.35 11.372 12.144 14.169 7.677 2.727 20.03 3.12 32.57 1.063 11.143-1.85 19.867-5.686 25.358-11.187 2.256-2.265 3.326-3.86 4.257-6.31.768-2.01.86-5.478.186-7.442-2.303-6.795-8.654-10.979-19.379-12.69-8.259-1.34-16.587-1.155-24.59.532-3.839.81-5.258 1.272-5.258 1.688 0 .23.117.3.419.184 1.256-.485 6.235-1.456 10.748-2.103 2.21-.3 8.189-.462 11.516-.3 11.12.554 18.169 2.935 22.496 7.58 4.002 4.277 4.746 9.431 2.094 14.447-1.117 2.15-4.537 5.616-7.305 7.396-8.445 5.455-19.635 8.274-34.035 8.621-8.468.185-13.145-.37-18.635-2.219C4.406 39.143.311 33.873.73 26.615c.303-5.13 2.722-9.892 7.375-14.538C14.014 6.16 21.598 2.07 28.973.821 30.648.544 32.02.474 34.277.567c3.699.138 6.188.809 9.399 2.496 1.21.624 2.256 1.086 2.303 1.017.395-.37-4.304-2.704-6.793-3.375-2.21-.577-5.584-.855-8.282-.624z" fill="#000"/></svg>