<svg width="378" height="101" fill="none" xmlns="http://www.w3.org/2000/svg"><path d="M88.435 22.218v-2.642l19.067-12.499s6.301-5.474 8 7c1.498 11-3.002 10-3.002 10H89l-.565-1.86z" fill="#5AE4A7"/><path d="M289.069 15.576l-1.569-4-7.499-4.5L269 1.575s-5.3-4.475-6.999 8c-1.498 10.998 2.999 10.5 2.999 10.5l22.5-.5 1.569-4zm-9.572 35.5c3.5-1.5 5-4.5 9-2.5 1.683.023 2-2.5 4.5-2 1.5-.5 2.115 1.873 4 2 1.835.124 3.167-2.043 3-2.5-4.5-10 3.654-11.615 5.5-11 2-2 4.163-2 6-2 16.033 0 11 14.5 11 14.5l6 1 12.5-.5 1.5 1.5 2.5 25 .5 20.5-5.5 3-26 .5-35-.5s-.997-11.5.502-18c9.001-10 17.001 5 20.5-6.5-4.499-17-20.5-1.5-20.001-5.5-1.498-4-.689-14.923-.501-17z" fill="#EED28B"/><path d="M39.5 50.076l11-.5 6.5.5-2 10 1.5 2.5 3 1.5 3.5-.5 3-2-1-7.5 2.5-2 5-2 4 1 3.5-1 3.5 1 4-1 2.5.5 1.5 13.5 8-.5s9.108 1.509 8.5 8.5c-1 11.5-16 9.5-16 9.5v9l.5 7-6.5 2H30l-.5-6v-19l.5-11v-9.5l1-1.5 4.5-2 4-.5z" fill="#5AE4A7"/><path d="M265.678.804c-.857.413-2.417 2.71-3.213 4.647-1.652 4.132-1.652 11.155 0 13.557.429.594 1.01 1.188 1.316 1.265.306.103 3.519.155 7.19.13l6.609-.053.979.672c.52.387 1.5.826 2.173.981.673.18 1.346.516 1.499.749.153.232.857.645 1.591.904.734.258 1.775.748 2.325 1.084l.979.62v4.312c0 4.209-.397 11.594-.795 15.596l-.184 1.988-2.692 1.446c-1.499.775-3.121 1.756-3.641 2.17l-.949.748v16.242l.704.542c1.132.904 2.509.749 4.743-.568 3.304-1.962 7.679-2.505 10.556-1.317 1.376.542 3.365 2.634 4.038 4.235.643 1.55.582 3.357-.183 5.035-.551 1.265-.735 1.472-1.744 1.704-1.346.284-3.978 0-6.579-.749-3.885-1.136-5.905-.955-8.444.75-3.06 2.04-3.397 2.995-3.427 9.734l-.031 3.692-22.978.052c-26.62.077-162.26 1.885-162.566 1.652-.245-.206-.459-10.767-.214-11 .122-.077 1.346-.025 2.784.13 3.305.335 4.988-.026 7.894-1.679 3.703-2.117 5.049-4.08 5.018-7.359-.061-6.197-5.018-10.019-12.208-9.425-4.375.362-4.498.362-4.804-.516-.153-.44-.336-3.357-.459-6.533-.153-4.467-.275-5.81-.612-6.042-.244-.155-1.346-.362-2.478-.44l-2.05-.154-.061-1.679c-.03-.93-.214-5.422-.429-10.018-.336-7.282-.305-8.392.062-8.728.306-.233 1.254-.387 2.723-.44 1.621-.05 2.876-.283 4.314-.774 1.102-.387 2.417-.697 2.907-.697 1.254-.026 3.182-.8 4.314-1.807l1.01-.878 6.027.077c6.456.078 7.405-.052 8.2-1.084 1.714-2.221.888-13.247-1.254-16.371-1.438-2.092-3.182-2.453-5.202-1.085a98.71 98.71 0 01-3.794 2.298c-2.937 1.679-6.884 4.261-12.636 8.263-3.152 2.17-3.947 2.866-4.192 3.615-.276.852-.092 2.04.459 3.15.183.362.061.465-.551.465-.765 0-5.507-.516-5.63-.62-.03-.025.153-.593.428-1.265.888-2.272-.06-4.467-2.233-5.241-1.775-.62-4.07-.362-5.263.594-.214.18-.52.335-.642.335-.123 0-.52.517-.888 1.162-1.162 2.04-.795 3.563 1.194 5.061l1.254.93-1.04.542c-.612.31-1.285.981-1.56 1.523-.551 1.059-1.194 4.545-1.775 9.425-.398 3.357-.276 3.719 1.193 3.874l.826.077.092 4.57.061 4.545-.887.18c-1.438.259-7.344 2.945-7.68 3.487-.428.697-.367 2.143.184 4.673.611 2.634.489 3.202-.949 4.442-3.03 2.634-8.261 1.471-8.873-1.963-.184-.981 0-1.988.857-4.906 1.499-5.06 1.53-5.448.275-5.81-.765-.232-1.132.078-1.438.078h-1.285c-.704 0-.704-.099-1.959-.078-.06-.129-2.294-.15-2.294-.15l-2.448.228h-2.723s-1.66-.035-2.723 0c-1.066.035-2.632.03-2.632.03s-1.836.43-2.6.46c-.765.031-.524-.02-1.136.155-.612.176-.394.104-.914.362-1.99.878-3.274 1.6-4.009 2.272-.734.672-.765.826-.948 5.94-.092 2.891-.245 11.567-.337 19.288-.091 7.72-.244 14.15-.336 14.253-.092.13-6.61.232-14.534.232-9.363 0-14.35.078-14.35.259 0 .18 5.049.258 14.503.258h14.503l.122 2.97c.062 2.323.215 3.046.612 3.382.368.31 1.377.49 3.978.645 4.712.284 24.478.259 40.633-.025l13.31-.233 2.6-1.11 2.601-1.11.092-2.144.092-2.117h35.584l149.868-1.936.092 3.227c.122 3.667.122 3.641 2.57 3.874.826.103 14.289.129 29.863.077l28.333-.077 2.662-1.162c4.039-1.756 4.192-1.911 4.375-3.951l.184-1.73h15.696c10.281 0 15.727-.077 15.727-.258 0-.155-1.958-.258-5.293-.258-2.938 0-10.097-.078-15.911-.181l-10.617-.155V88.88c0-2.66-.826-14.072-1.377-19.495-.275-2.427-.612-5.99-.795-7.901-.521-5.732-1.438-12.317-1.775-12.885-.367-.542-.796-.671-2.999-.878-.918-.103-1.315.13-1.315.13h-1.744l-1.622.05h-1.683l-1.989.316s-2.237.036-3.671-.13c-.855-.098-.49-.443-2.173-.34-2.264.155-2.356.026-1.682-3.15.305-1.317.489-3.202.428-4.183-.092-1.601-.245-1.937-1.438-3.409-.735-.904-1.775-1.885-2.356-2.169-.582-.284-1.04-.645-1.04-.826 0-.18-.459-.31-1.102-.336-.612-.026-1.316-.206-1.591-.439-.643-.155-.367-.124-1.438-.155-1.989-.356-2.417-.361-3.672-.361-1.377-.026-1.867-.084-2.478.134-1.071.382-.398.227-.734.227-.306 0-.612-.155-.704-.361-.092-.18-.796-.594-1.53-.904-2.784-1.136-4.039-2.169-5.508-4.596-.764-1.265-1.682-2.505-2.019-2.763-.734-.568-.826-.93-.245-.93.735 0 2.356-1.6 2.693-2.66.857-2.659-1.255-4.88-4.62-4.88-2.907 0-4.773 1.627-4.529 3.951l.153 1.265-1.101-.154c-1.561-.207-3.091-.62-3.091-.827 0-.103.429-.878.918-1.704 1.071-1.756 1.163-3.202.429-5.345-.673-1.91-2.081-2.97-7.619-5.758a612.827 612.827 0 01-8.996-4.596C267.85.597 266.779.26 265.678.804zm2.356.697c1.958 1.678 2.142 7.565.398 13.35-1.377 4.57-3.152 6.093-4.988 4.286-1.101-1.136-1.468-2.556-1.499-5.68 0-7.54 3.396-14.228 6.089-11.956zm5.477 2.66c.306 0 8.475 4.157 10.77 5.474 1.193.697 2.509 1.704 2.937 2.22 1.867 2.298 1.836 5.423-.061 7.024l-.795.697-8.874.155c-4.895.103-9.148.103-9.515.025l-.612-.129.703-1.239c1.592-2.815 2.724-8.34 2.418-11.878-.092-1.368-.276-2.866-.368-3.33l-.183-.853 1.683.904c.948.516 1.805.93 1.897.93zM112.23 6.56c1.806 1.42 2.999 6.869 2.785 12.885-.092 2.634-.215 3.202-.704 3.667-.734.671-1.561.723-1.255.077.092-.232.276-1.446.368-2.66.306-4.027-.796-8.185-3.244-11.98-1.101-1.73-1.162-1.911-.703-2.299.734-.62 1.713-.516 2.753.31zm-5.354 2.22c-.276 1.447.52 7.85 1.315 10.433.398 1.343 1.071 2.943 1.5 3.589.428.671.734 1.214.703 1.24-.061.051-4.711-.026-10.341-.181l-10.25-.233-.674-.645c-1.01-.93-.948-2.402.123-3.486 1.285-1.291 16.92-11.594 17.593-11.594.123 0 .123.387.031.878zm-26.222 8.86c2.264 1.24 2.111 4.777-.245 6.016-.795.439-1.377.517-2.937.465-1.652-.104-2.05-.207-2.876-.904-1.316-1.11-1.53-2.944-.55-4.415.642-.93 1.131-1.291 2.447-1.705.826-.258 3.304.052 4.161.543zm217.487-.774c1.133.49 1.439.8 1.806 1.704 1.101 2.97-1.347 5.164-4.835 4.312-2.019-.517-2.845-1.343-3.029-3.021-.092-1.136 0-1.498.582-2.117.765-.827 2.172-1.42 3.335-1.446.428 0 1.407.258 2.141.567zm-16.889 4.157c.122.852-.031.852-1.438.129l-1.102-.594.918-.155c1.316-.232 1.53-.155 1.622.62zm4.957-.646c0 .258-1.653 1.085-2.754 1.343-.735.18-.979.13-1.224-.258-.704-1.11-.428-1.291 1.836-1.291 1.193 0 2.142.103 2.142.206zm3.518 1.007c1.438.284 2.479.646 3.121 1.136.551.414 1.561.853 2.203 1.008 1.714.387 2.968 1.368 4.07 3.175 1.652 2.79 2.356 3.538 4.314 4.57 2.937 1.576 3.274 1.808 3.274 2.299 0 .258-.276.671-.612.93-.796.62-2.173.361-4.284-.8-2.662-1.473-3.672-2.402-3.672-3.384 0-.464-.122-.852-.244-.852-.337 0-.153 6.559.306 11.49.673 7.567.703 6.792-.153 7.128-1.01.387-2.234.103-2.693-.594-.214-.31-.612-2.737-.918-5.371-.336-2.634-.704-5.035-.887-5.371-.306-.594-1.04-.775-1.377-.31-.092.13-.612 2.711-1.132 5.733-.49 3.02-1.071 5.654-1.224 5.81-.428.464-2.234.413-2.693-.052-.305-.31-.305-1.24-.03-4.596.214-2.299.459-7.23.551-10.949.214-7.927.306-7.669-2.907-8.908l-2.05-.775 1.254-.387c.704-.18 1.591-.646 1.989-1.007.429-.387.888-.568 1.193-.49.245.103 1.439.36 2.601.567zm-203.443 2.97c2.264.128 2.325.154 3.733 1.394.795.697 1.652 1.265 1.927 1.265.826 0 .49.465-.52.723-.55.155-2.172.335-3.61.387-2.02.103-2.662.233-2.999.62-.367.387-.397 1.394-.245 5.5.092 2.763.276 7.488.398 10.484l.184 5.474-.673.31c-.857.361-2.05.154-2.448-.465-.153-.233-.428-2.427-.643-4.855-.49-5.784-.58-6.145-1.59-6.248-1.622-.155-1.775.284-1.775 5.706 0 4.08-.092 5.087-.49 5.552-.581.723-1.775.723-2.6.025-.613-.516-.643-.697-.52-9.295.03-4.803 0-8.754-.093-8.754-.367 0-.58 1.575-.58 3.977 0 2.84-.184 3.512-.95 3.512-.887 0-.979-.93-.428-4.932.643-4.674 1.224-7.153 1.959-7.98.734-.852 2.63-1.73 4.16-1.962a8.7 8.7 0 001.99-.516c.489-.233 1.254-.31 2.141-.233.765.078 2.418.207 3.672.31zm11.015.31c0 .36-1.622 1.445-2.723 1.832-.826.284-1.163.259-2.326-.129-1.224-.387-2.294-1.188-2.294-1.73 0-.129 1.652-.206 3.671-.206 2.02 0 3.672.103 3.672.232zm1.652-.078c.643.206.276.774-.887 1.394-1.53.8-1.805.62-.704-.516.55-.569 1.04-1.033 1.071-1.033.03 0 .245.077.52.155zm199.802 7.979c0 .129.643.594 1.469 1.059.796.464 1.499.878 1.561.903.061.052-.337.517-.888 1.059-.551.517-1.285 1.472-1.621 2.117-.368.672-.674 1.007-.704.8-.245-1.161-.276-6.196-.061-6.196.122 0 .244.103.244.258zm9.302 1.678c.092.233 0 .388-.275.388-.245 0-.459-.181-.459-.388 0-.206.122-.387.275-.387.153 0 .337.18.459.387zm9.913.284c.857.362 2.142 1.188 2.785 1.834 2.172 2.065 2.631 4.39 1.744 8.702-.276 1.265-.429 2.53-.306 2.788.214.568 1.316.826 2.692.62.888-.155 1.236.136 2.02.263.783.127 1.989.13 1.989.13l2.6-.259s1.755-.047 2.876 0c.731.03 1.775-.073 1.775-.073l1.897.073s1.04-.289 1.683-.289c1.56 0 2.05.671 2.417 3.383 1.377 9.424 3.427 33.67 3.427 40.281 0 3.124-.092 3.254-2.937 4.441l-1.591.672-.184-3.28a963.7 963.7 0 00-.642-8.96 766.113 766.113 0 01-.918-13.427c-.643-10.225-1.775-18.901-2.54-19.572-.52-.414-1.346-.517-6.762-.724-7.925-.283-11.321-.62-11.933-1.136-.795-.671-.52-2.401.704-4.363.979-1.55 1.101-1.963 1.101-3.59 0-2.323-.642-3.537-2.539-5.035-.796-.594-1.561-1.084-1.714-1.084-.122 0-.917-.258-1.744-.542l-1.468-.569 1.377-.439c1.866-.645 2.356-.62 4.191.155zm-14.656.697c-.061.052-.52.285-.979.543-.856.439-.856.439-.52-.078.184-.31.612-.542.979-.542s.582.026.52.078zm10.25.75c2.54.774 4.804 2.685 5.355 4.44.489 1.627.031 3.487-1.377 5.81-1.224 2.014-1.316 3.099-.337 4.029.888.852 2.601 1.084 11.627 1.523 3.947.207 7.13.465 7.313.62.428.361 1.622 9.812 2.05 16.448.214 2.97.581 8.263.826 11.749 1.102 15.622 1.132 16.551.765 16.861-.581.49-5.905.62-30.169.671-23.651.026-28.853-.077-29.771-.645-.459-.284-.52-1.007-.52-8.16 0-6.817.061-7.953.52-8.779.735-1.42 1.744-1.704 3.213-1.007 3.274 1.55 4.528 1.937 6.854 2.04 3.243.155 5.14-.387 7.16-2.117 2.723-2.324 3.732-5.578 2.631-8.599-2.142-5.861-8.934-7.488-15.543-3.692-1.255.723-2.571 1.29-2.968 1.29-1.5 0-1.561-.283-1.561-8.701 0-7.153.061-7.901.52-8.185.551-.336 4.07-.543 13.708-.827 2.937-.077 5.66-.18 6.027-.258.398-.052.918-.465 1.194-.904.612-1.033.398-2.117-.949-4.364-1.346-2.272-1.56-3.253-.948-4.983.551-1.627 1.224-2.401 2.907-3.383 1.897-1.136 3.273-1.42 6.578-1.446 2.386 0 3.427.13 4.895.568zm-20.041 5.241c.215 1.833.429 3.667.52 4.054.184.723.153.723-1.376.723-.857 0-1.561-.103-1.561-.232 0-.233.979-5.733 1.438-8.03.276-1.421.551-.362.979 3.485zM80.042 39.69c.153.207.98 7.824 1.04 9.451 0 .207-.458.336-1.223.336h-1.224v-4.364c0-4.183.244-5.707.887-5.707.153 0 .398.13.52.284zm220.547 8.547c0 1.42-.52 1.524-9.179 1.86-9.363.361-9.577.361-9.332.026.092-.13 1.01-.646 2.019-1.162l1.867-.904.765.516c.887.594 2.478.672 3.243.181.306-.155.643-.671.765-1.084.245-.724.367-.775 1.836-.853 1.438-.077 1.591-.026 1.774.568.306 1.008 1.255 1.576 2.724 1.576 1.621 0 2.233-.44 2.509-1.756.183-1.007.183-1.007.581-.413.214.335.398 1.007.428 1.445zm-249.186 1.86s1.255.154 2.54.154h1.744s1.346.078 0 4.468c-1.346 4.44-1.438 5.241-.734 6.765.275.568.489 1.265.458 1.549 0 .413.062.439.276.13.275-.362.428-.182.336.335-.03.129.092.155.245.051.184-.077.765.052 1.316.284 2.08.93 5.293.465 7.22-1.007.796-.62.888-.232.215.852-.275.465-1.071.982-2.111 1.395-1.377.568-2.111.671-4.253.671-2.295 0-2.785-.077-4.529-.852-1.713-.723-2.05-1.007-2.784-2.22-1.01-1.679-1.04-2.195-.245-5.707.735-3.073.643-3.667-.52-4.312-.734-.413-1.744-.465-9.424-.465h-8.628l1.683-.852c1.254-.646 1.59-.666 2.05-.568.917-.099 2.906-.388 2.906-.388s1.637.035 2.632 0c.93-.032 2.05-.232 2.386 0 1.102-.098 1.867.29 3.55-.129.935-.232 1.958-.155 1.958-.155h1.713zm22.948.67c.428.362 1.01.517 1.928.517.948 0 1.499-.155 1.897-.516.336-.336.948-.517 1.59-.517.613 0 1.408.233 1.837.517 1.04.697 2.937.697 3.763 0 .52-.44.857-.49 2.448-.336 1.01.078 1.927.258 2.02.387.091.13.213 2.815.275 5.965.06 4.596.183 5.94.58 6.74l.49 1.007 1.775-.181c5.049-.517 6.579-.49 8.445.103.979.31 2.295.981 2.937 1.446 3.305 2.53 4.131 8.909 1.5 11.465-.582.542-.857.697-.704.387.122-.284.275-1.42.367-2.505.214-3.33-1.193-6.042-3.825-7.359-1.315-.645-1.774-.723-4.07-.723-2.263 0-2.875.104-4.803.852-1.193.44-2.6.827-3.12.827-1.959 0-2.387-1.11-3.091-8.263-.765-7.695-.612-7.023-1.989-7.617-1.132-.465-1.836-.517-9.24-.517h-8.047l2.54-1.084c2.845-1.24 3.61-1.343 4.497-.594zm-24.264 2.635c.49.438.49.62-.153 3.873-.642 3.202-.673 3.511-.214 4.75.337.982.857 1.628 1.959 2.506 1.897 1.497 3.243 1.988 6.15 2.169 2.876.18 5.324-.362 6.915-1.55 2.11-1.549 2.386-3.176 1.315-7.643-.336-1.42-.581-2.866-.52-3.176.153-.826 1.285-1.007 7.588-1.162 6.18-.155 10.954.18 11.505.8.153.207.612 3.306.979 6.87.703 6.739.948 7.642 2.295 8.391 1.162.62 2.386.542 4.956-.387 4.957-1.782 8.751-1.007 10.679 2.143.765 1.265.918 1.807.918 3.486 0 3.33-1.194 5.37-3.764 6.326-1.346.49-1.59.516-5.232.207-4.1-.336-5.446-.233-6.884.516-1.805.93-1.836.93-1.99 9.657l-.152 8.005-6.884.206c-3.794.104-15.82.207-26.773.233-21.57.026-22.305-.026-22.672-1.265-.123-.362-.153-10.51-.062-22.542.123-16.113.276-22.026.551-22.44l.367-.593 9.271.103c8.353.078 9.363.13 9.852.517zm240.16 24.091c1.897.465 3.764.775 4.865.775 1.01 0 1.806.103 1.806.258 0 .517-2.54 1.782-4.162 2.092-1.315.258-2.111.258-3.763 0-2.142-.336-6.517-1.989-6.548-2.48-.03-.412 2.57-1.42 3.672-1.42.581 0 2.417.336 4.13.775zM91.7 88.777c-.092.18-.153.052-.153-.31 0-.361.06-.49.153-.336.06.181.06.49 0 .646zm.306 4.906c-.092.18-.153.051-.153-.31 0-.362.06-.49.153-.336.06.181.06.491 0 .646zm-.826 3.925c0 .051-.215.18-.49.258-.245.077-.367.052-.275-.103.183-.259.764-.362.764-.155zm-1.377.413c-.092.129-.368.258-.551.258-.214 0-.184-.103.092-.258.581-.31.703-.31.459 0z" fill="#1E2F35"/><path d="M258.868 7.607c-1.558 1.996-2.217 3.993-2.037 6.268.09 1.036.359 2.3.629 2.78l.449.885-.21-1.264c-.329-1.972-.239-5.46.21-6.521.21-.506.899-1.517 1.557-2.199.659-.708 1.019-1.264.809-1.264-.239 0-.868.582-1.407 1.315zM114.406 9.452c0 .076.329.632.748 1.213 1.438 2.098 2.007 6.091 1.228 8.391-.119.278.03.127.3-.354.958-1.744.479-6.217-.869-8.214-.599-.885-1.407-1.491-1.407-1.036zm5.782 1.188c.089.329.299 1.037.479 1.593.179.556.329 1.466.359 2.022l.03 1.01.27-1.01c.239-1.037.149-1.921-.36-3.362-.359-.91-1.018-1.137-.778-.253zm162.09 16.934c.06.152.45.455.869.683l.719.379-.719-.683c-.779-.733-1.048-.859-.869-.379zm-179.851 36.8c0 .127.36.48.779.834 1.078.834 1.917 2.047 2.576 3.716.539 1.415.569 1.415.419.379-.06-.607-.419-1.618-.809-2.25-.988-1.744-2.965-3.513-2.965-2.679zm174.709 4.272c-.03 1.82.599 3.867 1.198 3.867.15 0 .06-.38-.21-.81-.299-.454-.599-1.743-.719-2.855l-.209-2.022-.06 1.82zM91.647 98.015c0 .152.509.177 1.138.101 1.527-.202 1.587-.328.12-.328-.69 0-1.258.1-1.258.227zm182.678.455c.36.05.899.05 1.198 0 .27-.075-.03-.126-.689-.1-.658 0-.898.05-.509.1zM25.248 99.987c.45.051 1.108.051 1.498 0 .36-.05 0-.101-.839-.101-.809 0-1.138.05-.659.101zM137.502 7.008l-.761.876c-.991-.737-1.968-1.105-2.933-1.105-.635 0-1.181.153-1.638.457a3.206 3.206 0 00-1.047 1.105c-.228.431-.413.977-.552 1.638-.127.66-.21 1.231-.248 1.713a33.212 33.212 0 00-.038 1.695c0 .635.114 1.359.343 2.171.241.8.641 1.549 1.2 2.247.558.698 1.206 1.047 1.942 1.047.8 0 2.025-.418 3.675-1.256.165.24.381.64.648 1.2-1.6 1.104-3.028 1.656-4.285 1.656a3.675 3.675 0 01-2.228-.743 5.363 5.363 0 01-1.6-1.885 12.292 12.292 0 01-.895-2.38 10.12 10.12 0 01-.304-2.38c0-.826.063-1.626.19-2.4a11.67 11.67 0 01.648-2.361c.304-.787.761-1.422 1.371-1.905.622-.482 1.358-.723 2.209-.723.736 0 1.498.127 2.285.38.787.255 1.46.572 2.018.953zm.8 8.512c0-.508.051-1.073.153-1.695.114-.622.279-1.276.495-1.961.216-.686.539-1.257.971-1.714.432-.457.933-.686 1.504-.686 1.219 0 2.197.553 2.933 1.657.736 1.092 1.104 2.31 1.104 3.656a7.87 7.87 0 01-.19 1.714 7.45 7.45 0 01-.552 1.657 3.62 3.62 0 01-1.105 1.371c-.469.356-1.022.559-1.657.61-1.167-.153-2.069-.648-2.704-1.486-.634-.85-.952-1.892-.952-3.123zm3.238-5.065c-.445.05-.819.457-1.124 1.218a8.926 8.926 0 00-.59 2.228 15.39 15.39 0 00-.134 1.886c0 .71.216 1.37.648 1.98.444.597.939.895 1.485.895.394 0 .749-.152 1.067-.457.317-.305.565-.68.742-1.123.191-.457.33-.915.419-1.372.102-.457.153-.863.153-1.218 0-1.041-.235-1.949-.705-2.723-.47-.775-1.124-1.213-1.961-1.314zm3.865.38l-.171-.837c1.701-.102 4.38-.242 8.036-.42.305.013.565.128.781.343.216.216.324.445.324.686 0 .38-.254.597-.762.647l-3.561-.171c.063.952.095 2.342.095 4.17.013 1.816.038 3.142.076 3.98-.114.369-.336.553-.666.553-.216 0-.426-.09-.629-.267a1.14 1.14 0 01-.381-.647c.178-3.123.362-5.745.553-7.865l-3.695-.172zm9.979-1.275l1.066.19c0 .267.007.463.019.59.698-.444 1.403-.666 2.114-.666 1.155 0 2.057.495 2.704 1.485.648.99.971 2.114.971 3.37 0 .636-.05 1.245-.152 1.829a8.297 8.297 0 01-.495 1.77 3.254 3.254 0 01-1.124 1.448c-.495.356-1.098.533-1.809.533a3.86 3.86 0 01-1.942-.533c.051 2.222.095 3.872.133 4.951-.114.394-.336.59-.666.59-.229 0-.451-.095-.667-.285a1.15 1.15 0 01-.381-.666l.229-14.606zm1.238 2.018l.057 6.151c.152.305.387.552.704.743.318.177.667.266 1.048.266.495 0 .914-.158 1.257-.476.355-.317.603-.736.742-1.257a9.055 9.055 0 00.305-1.485c.063-.457.095-.94.095-1.447 0-2.158-.73-3.238-2.19-3.238-.47 0-.908.07-1.314.21-.393.127-.628.305-.704.533zm8.55 13.635l-1.181-.667c.521-.901 1.441-2.615 2.761-5.141-1.028-.914-1.815-2.298-2.361-4.152a25.078 25.078 0 01-.99-5.56l1.104.057c.064.305.197 1.003.4 2.095.216 1.079.387 1.879.514 2.4.127.52.35 1.174.667 1.96.33.775.705 1.429 1.123 1.962 1.765-3.39 2.647-6.17 2.647-8.34v-.21c.661.101 1.156.222 1.486.362a27.768 27.768 0 01-.952 4.075 35.16 35.16 0 01-1.619 4.19 71.428 71.428 0 01-1.733 3.522 141 141 0 01-1.866 3.447zm6.341-3.142l-.857-.19c0-.14-.025-.553-.076-1.238a22.564 22.564 0 01-.076-1.486c0-.254.019-.527.057-.819h1.238c.063-.215.165-.54.305-.97a18.8 18.8 0 00.304-.915c.051-.178.121-.438.21-.78.101-.356.165-.654.19-.896.038-.254.07-.565.095-.933.038-.368.057-.755.057-1.161 0-.953-.038-2.025-.114-3.219.711.038 1.46.064 2.247.077.8.012 1.454.031 1.962.057a13.65 13.65 0 011.561.171c.038.863.076 2.285.114 4.266.051 1.967.096 3.383.134 4.246h1.485v.572c0 .33.006.8.019 1.409.026.61.038 1.015.038 1.218 0 .381-.012.673-.038.876l-.857-.19a7.392 7.392 0 01-.152-.686 61.62 61.62 0 00-.248-1.561c-.723-.038-1.879-.114-3.465-.229-1.575-.114-2.806-.19-3.695-.228l-.438 2.609zm2.933-11.407c-.013.19-.026.59-.038 1.2a26.002 26.002 0 01-.057 1.37 20.13 20.13 0 01-.115 1.334c-.05.559-.12 1.028-.209 1.41a9 9 0 01-.4 1.218 4.94 4.94 0 01-.59 1.123h4.17l.381-7.503a54.88 54.88 0 00-1.409-.057 31.292 31.292 0 01-1.733-.095zm12.816-.743l.857.19.438 9.237c-.115.38-.337.57-.667.57-.228 0-.451-.094-.666-.285a1.11 1.11 0 01-.4-.666c0-.038.057-1.111.171-3.218v-.153a24.09 24.09 0 00-1.58-.038c-1.054 0-1.848-.032-2.381-.095.064.736.146 1.923.248 3.56-.115.395-.337.591-.667.591-.228 0-.45-.089-.666-.266a1.24 1.24 0 01-.381-.686c.038-.635.057-1.27.057-1.904 0-.406-.006-1.016-.019-1.828a123.15 123.15 0 01-.019-1.81c0-1.218.038-2.24.114-3.065l.857.21c.254 2.754.387 4.17.4 4.246 2.171.114 3.288.171 3.352.171.52 0 .78-.032.78-.095 0-.254.026-1.06.077-2.418a96.98 96.98 0 01.095-2.248zm4.513 8.075c0 .215.013.501.038.857-.114.393-.336.59-.667.59-.228 0-.45-.089-.666-.267a1.24 1.24 0 01-.381-.685c.038-1.029.083-2.533.133-4.514.064-1.98.108-3.32.134-4.018l.876-.152c.152.813.247 1.892.285 3.237.038 1.346.089 2.35.153 3.01.241-.356.926-1.283 2.056-2.781 1.13-1.498 1.898-2.615 2.305-3.352a4.25 4.25 0 01.533-.076c.241 0 .406.108.495.324.101.216.165.622.19 1.219l.362 7.845c-.114.381-.336.572-.666.572-.229 0-.451-.09-.667-.267a1.239 1.239 0 01-.381-.686l.095-3.065c.064-1.638.115-2.8.153-3.485-2.171 2.475-3.631 4.373-4.38 5.694zm12.378-8.532l.781-.247c.139.47.273 2.234.399 5.294.14 3.047.235 4.684.286 4.913-.114.393-.336.59-.666.59-.229 0-.451-.095-.667-.285a1.239 1.239 0 01-.381-.686c.026-.724.051-1.822.076-3.294-.66.165-1.206.247-1.637.247-.66 0-1.232-.133-1.714-.4a2.85 2.85 0 01-1.124-1.104 5.647 5.647 0 01-.552-1.486 8.188 8.188 0 01-.171-1.713c0-.483.063-1.118.19-1.905l.857.21c.013.165.032.482.057.952.038.457.07.787.095.99l.115.876c.063.368.146.647.247.838.114.178.248.374.4.59.165.216.368.368.61.457.253.09.545.134.875.134.419 0 1.003-.121 1.752-.362 0-.33.032-1.06.096-2.19.063-1.143.095-1.854.095-2.133 0-.165-.006-.26-.019-.286zm10.683 8.265l.19.838c-.558.203-1.39.431-2.494.685-1.092.242-1.905.362-2.438.362a2.1 2.1 0 01-1.428-.533 3.415 3.415 0 01-.914-1.39 10.976 10.976 0 01-.457-1.676 10.4 10.4 0 01-.133-1.638c0-3.173 1.434-4.76 4.303-4.76a2.7 2.7 0 011.809.666c.521.432.781.997.781 1.695 0 .38-.108.717-.324 1.01a2.38 2.38 0 01-.761.704 5.6 5.6 0 01-1.143.457c-.457.14-.863.241-1.219.305-.355.063-.78.133-1.275.21-.496.075-.838.132-1.029.17.013.369.032.692.057.972.038.279.102.584.191.914.101.317.228.584.381.8.165.203.387.374.666.514s.609.21.99.21c.457 0 1.016-.039 1.676-.115a45.6 45.6 0 001.752-.267c.521-.089.794-.133.819-.133zm-6.456-4.075c1.727-.495 3.142-1.016 4.247-1.562-.089-.419-.21-.723-.362-.914-.152-.19-.381-.285-.685-.285-.775 0-1.479.266-2.114.8-.622.533-.984 1.186-1.086 1.96zm13.826-3.523l-.096.819a9.904 9.904 0 00-1.371-.115c-.876 0-1.599.267-2.171.8a4.053 4.053 0 00-1.18 1.867c-.203.71-.305 1.504-.305 2.38 0 .406.025.768.076 1.085.051.318.14.629.267.933.139.305.349.546.628.724.292.165.648.248 1.067.248.558 0 1.269-.108 2.132-.324.267-.102.476-.152.629-.152.305 0 .489.355.552 1.066-1.117.355-2.152.533-3.104.533-1.384 0-2.323-.336-2.818-1.01-.483-.685-.724-1.79-.724-3.313 0-.888.057-1.663.171-2.323a6.494 6.494 0 01.648-1.866 3.102 3.102 0 011.314-1.333c.584-.305 1.295-.457 2.133-.457.939 0 1.656.146 2.152.438zm.59.704l-.171-.837c1.701-.102 4.379-.242 8.036-.42.304.013.565.128.78.343.216.216.324.445.324.686 0 .38-.254.597-.762.647l-3.561-.171c.064.952.096 2.342.096 4.17.012 1.816.038 3.142.076 3.98-.114.369-.337.553-.667.553-.216 0-.425-.09-.628-.267a1.14 1.14 0 01-.381-.647c.178-3.123.362-5.745.552-7.865l-3.694-.172zm10.169-1.028c1.968-.419 3.167-.628 3.599-.628 1.701 0 2.552.73 2.552 2.19 0 .508-.089 1.003-.267 1.485-.165.47-.374.78-.628.933.99.673 1.485 1.6 1.485 2.78 0 1.118-.368 1.987-1.104 2.61-.724.621-1.683.932-2.876.932-1.422 0-2.482-.38-3.18-1.142l.419-9.16zm1.085 4.78l.172 3.866a2.48 2.48 0 001.085.228c.787 0 1.511-.247 2.171-.742.66-.496.99-1.073.99-1.733 0-.457-.177-.876-.533-1.257-.355-.394-.806-.59-1.352-.59-.317 0-1.162.076-2.533.228zm-.19-3.923l.133 2.933a9.21 9.21 0 01.876-.057c.394-.013.711-.038.952-.077.241-.05.508-.146.8-.285.292-.153.521-.413.686-.781.177-.368.298-.85.361-1.447-.126-.381-.514-.572-1.161-.572-.292 0-.749.045-1.371.134-.622.089-1.048.14-1.276.152zm7.389 4.856c0-.508.05-1.073.152-1.695.114-.622.279-1.276.495-1.961.216-.686.54-1.257.971-1.714.432-.457.933-.686 1.505-.686 1.218 0 2.196.553 2.932 1.657.737 1.092 1.105 2.31 1.105 3.656 0 .572-.064 1.143-.191 1.714a7.45 7.45 0 01-.552 1.657 3.627 3.627 0 01-1.104 1.371c-.47.356-1.022.559-1.657.61-1.168-.153-2.07-.648-2.704-1.486-.635-.85-.952-1.892-.952-3.123zm3.237-5.065c-.444.05-.819.457-1.124 1.218a8.97 8.97 0 00-.59 2.228c-.089.711-.133 1.34-.133 1.886 0 .71.215 1.37.647 1.98.444.597.94.895 1.485.895.394 0 .75-.152 1.067-.457.317-.305.565-.68.743-1.123.19-.457.33-.915.419-1.372.101-.457.152-.863.152-1.218 0-1.041-.235-1.949-.705-2.723-.469-.775-1.123-1.213-1.961-1.314z" fill="#1E2F35"/></svg>