<svg width="78" height="77" fill="none" xmlns="http://www.w3.org/2000/svg"><path d="M50.925 25.117c2.637 2.294 4.1 7.369 3.113 15.406-.95 7.788-6.819 8.538-7.856 8.875-.45.144-4.394 1.13-9.53.7a97.604 97.604 0 01-1.864 2.106c-.994 1.069-1.606 2.063-2.644 1.738-.863-.262-.813-1.57-.813-1.57l.006-3.224h-.006c-7.506-2.113-7.4-9.9-7.313-14.056.087-4.156.894-7.513 3.181-9.8 4.112-3.775 12.556-3.27 12.556-3.27 7.163.032 10.375 2.363 11.17 3.095zm.87 14.818c.83-6.706-.307-11.281-2.539-13.194-.675-.613-3.575-2.438-9.63-2.463 0 0-7.17-.47-10.65 2.688-1.939 1.912-2.595 4.756-2.663 8.225-.068 3.469-.444 10.1 5.92 11.863-.007 0-.007 0 0 0 0 0-.026 4.925-.026 5.356-.006.656.356.688.688.356 1.012-1.02 4.262-4.938 4.262-4.938 4.356.28 7.825-.581 8.2-.7.875-.281 5.631-.694 6.438-7.194zm-8.689-5.05c.025.537-.78.575-.806.037-.069-1.375-.713-2.044-2.037-2.12-.538-.03-.488-.837.044-.805 1.744.094 2.713 1.094 2.8 2.888zm1.27.707c.062-2.65-1.595-4.725-4.739-4.956-.53-.038-.475-.844.056-.806 3.625.262 5.556 2.756 5.488 5.78-.006.539-.819.513-.806-.018zm2.936.837c.006.537-.806.544-.806.006-.037-5.094-3.43-7.87-7.55-7.9-.53-.006-.53-.806 0-.806 4.606.03 8.313 3.212 8.356 8.7zm-.706 6.13v.013c-.675 1.188-1.938 2.5-3.238 2.08l-.012-.018c-1.319-.37-4.425-1.97-6.387-3.531a16.35 16.35 0 01-2.65-2.65 20.218 20.218 0 01-1.925-2.912c-1.33-2.406-1.625-3.481-1.625-3.481-.419-1.3.887-2.563 2.081-3.237h.012c.575-.3 1.125-.2 1.494.244 0 0 .775.925 1.106 1.38.313.426.731 1.107.95 1.489.381.68.144 1.375-.23 1.662l-.75.6c-.382.306-.332.875-.332.875s1.113 4.206 5.27 5.269c0 0 .568.05.874-.331l.6-.75c.287-.375.981-.613 1.662-.231.92.519 2.088 1.325 2.863 2.056.438.356.538.9.238 1.475v-.001z" fill="#1E2F35"/><path d="M31.992.24C22.498 1.78 14.03 7.22 9.873 14.456c-.77 1.386-2.155 3.439-3.028 4.568-2.566 3.233-3.695 5.337-5.08 9.597-5.697 16.885 2.77 35.464 19.963 43.778 9.803 4.773 19.4 5.492 29.15 2.259 7.288-2.412 15.91-9.392 19.81-15.962 1.848-3.233 4.722-10.52 6.262-15.807 4.67-16.68-9.392-36.44-29.664-41.572C42.873.137 35.636-.325 31.992.24zm11.034 1.077c3.696.616 10.316 2.67 12.318 3.901l1.283.77-1.283-.257C43.796 3.371 32.146 4.5 19.675 9.221c-.82.308-.77.205.257-.718l1.283-1.13-1.694.976c-.923.513-2.77 1.796-4.105 2.874-1.283 1.077-2.823 2.207-3.336 2.515-.975.513-.975.462.051-1.027.616-.821 2.412-2.72 4.003-4.157C22.96 2.293 32.66-.274 43.026 1.317zm9.444 4.876c10.367 1.95 17.91 9.495 21.093 21.042 1.129 4.055 1.59 15.5.82 19.246-1.282 6.056-8.826 14.217-16.935 18.374-18.527 9.546-38.902 5.543-47.575-9.34-3.182-5.338-4.465-10.009-4.721-17.04-.257-6.98.667-11.599 3.49-17.142 1.796-3.541 1.95-4.362.513-2.566L8.077 20.05l.667-1.437c.308-.77.872-1.334 1.18-1.18.36.102 1.437-.77 2.464-2.002 2.36-2.822 6.004-4.875 12.112-6.928 8.416-2.823 20.271-3.798 27.97-2.31zM5.305 25.233c-1.283 4.928-1.898 14.474-1.283 19.35.873 6.672 3.439 13.6 6.518 17.706 2.207 2.925.975 2.31-1.54-.821C.43 50.946-1.468 37.192 4.023 25.08c.873-1.848 1.643-3.285 1.797-3.13.154.153-.052 1.642-.514 3.284zm69.9 1.54c1.488 4.004 2.104 10.984 1.283 14.32-.462 1.898-.513 1.744-.565-1.95-.051-5.03-.872-10.42-2.155-14.114-1.386-4.055-.154-2.515 1.437 1.744zM13.774 61.93c2.514 2.566 4.413 3.9 7.698 5.491 5.645 2.669 9.186 3.387 16.422 3.336 11.65-.103 21.35-4.157 29.972-12.42l3.541-3.387-1.488 2.822c-.873 1.592-3.387 4.722-5.85 7.237-3.593 3.593-5.184 4.773-9.239 6.775-6.363 3.13-10.982 4.157-17.705 3.797-8.982-.461-16.167-3.54-21.966-9.443-3.592-3.644-4.516-4.978-6.826-9.649-2.36-4.773-2.206-6.056.154-1.54 1.13 2.105 3.285 4.979 5.287 6.98z" fill="#1E2F35"/></svg>