<svg width="943" height="65" fill="none" xmlns="http://www.w3.org/2000/svg"><path d="M930.476.351c-29.764.967-56.875 2.442-82.267 4.498-38.064 3.092-74.114 7.501-110.754 13.544-10.019 1.652-55.155 9.768-56.972 10.242-.492.123-7.466 1.44-22.102 4.164-39.685 7.413-66.992 10.997-96.756 12.719-17.337 1-31.826 1.405-49.9 1.405-19.793-.018-34.184-.369-57.415-1.44-10.609-.475-17.19-.826-49.36-2.53-38.506-2.038-55.844-2.495-83.986-2.196-25.589.263-41.453.808-59.183 2.02-24.116 1.651-39.734 3.215-87.179 8.713-38.948 4.533-60.656 6.8-77.11 8.046-23.525 1.792-46.953 2.618-68.76 2.425-10.363-.106-22.2-.422-27.111-.756L0 61.1V65h943V0l-1.326.018c-.786.017-5.796.158-11.198.333z" fill="#F7F4DC"/></svg>